<?xml version="1.0" encoding="UTF-8" standalone="no"?>
<!DOCTYPE svg PUBLIC "-//W3C//DTD SVG 1.1//EN"
 "http://www.w3.org/Graphics/SVG/1.1/DTD/svg11.dtd">
<!-- Generated by graphviz version 2.43.0 (0)
 -->
<!-- Title: G Pages: 1 -->
<svg width="989pt" height="1399pt"
 viewBox="0.00 0.00 988.73 1399.31" xmlns="http://www.w3.org/2000/svg" xmlns:xlink="http://www.w3.org/1999/xlink">
<g id="graph0" class="graph" transform="scale(1 1) rotate(0) translate(4 1395.31)">
<script type='text/javascript'>
  <![CDATA[

var windows = new Array()
var info = new Array()

function openWin(target, time) {
  win = window.open(target + "_" + time + ".html", target, "location=no,width=400,height=180,left=0,status=no");
  // hm, an associative array, how strange.
  info[target] = 1
}

function advanceTo(time) {
  arr = gup("wins").split(",");
  for (i=0; i < arr.length; i++) {
    if (arr[i] != "") {
      openWin(arr[i], time);
    }
  }
  str = '';
  // getting 'key_cols'
  for (var i in info) {
    str = str + ',' + i;
  }
  self.window.location.href = 'tm_' + time + '.svg?wins=' + str;
}

// off the netz
function gup(name) {
  name = name.replace(/[[]/,"\[").replace(/[]]/,"\]");
  var regexS = "[\?&]"+name+"=([^&#]*)";
  var regex = new RegExp(regexS);
  var results = regex.exec(window.location.href);
  if (results == null)
    return "";
  else
    return results[1];
}

  ]]>
</script>

<polygon fill="white" stroke="transparent" points="-4,4 -4,-1395.31 984.73,-1395.31 984.73,4 -4,4"/>
<!-- cur_prep -->
<g id="node1" class="node">
<title>cur_prep</title>
<g id="a_node1"><a xlink:href="cur_prep.html" xlink:title="cur_prep">
<ellipse fill="none" stroke="black" cx="642.73" cy="-1028.62" rx="56.59" ry="18.27"/>
<text text-anchor="middle" x="642.73" y="-1023.22" font-family="Times,serif" font-size="18.00">cur_prep</text>
</a>
</g>
</g>
<!-- existing_id -->
<g id="node3" class="node">
<title>existing_id</title>
<g id="a_node3"><a xlink:href="existing_id.html" xlink:title="existing_id">
<ellipse fill="none" stroke="black" cx="517.73" cy="-864.08" rx="67.76" ry="18.27"/>
<text text-anchor="middle" x="517.73" y="-858.68" font-family="Times,serif" font-size="18.00">existing_id</text>
</a>
</g>
</g>
<!-- cur_prep&#45;&gt;existing_id -->
<g id="edge3" class="edge">
<title>cur_prep&#45;&gt;existing_id</title>
<g id="a_edge3"><a xlink:href="23-existing_id.html">
<path fill="none" stroke="black" stroke-width="5" d="M643.14,-1010.05C642.79,-986.99 639.04,-946.31 618.73,-919.47 608.39,-905.8 593.6,-895.18 578.51,-887.1"/>
<polygon fill="black" stroke="black" stroke-width="5" points="582.06,-879.1 560.24,-878.47 574.59,-894.92 582.06,-879.1"/>
</a>
</g>
</g>
<!-- existing_val -->
<g id="node5" class="node">
<title>existing_val</title>
<g id="a_node5"><a xlink:href="existing_val.html" xlink:title="existing_val">
<ellipse fill="none" stroke="black" cx="371.73" cy="-18.38" rx="73.56" ry="18.27"/>
<text text-anchor="middle" x="371.73" y="-12.98" font-family="Times,serif" font-size="18.00">existing_val</text>
</a>
</g>
</g>
<!-- cur_prep&#45;&gt;existing_val -->
<g id="edge5" class="edge">
<title>cur_prep&#45;&gt;existing_val</title>
<g id="a_edge5"><a xlink:href="24-existing_val.html">
<path fill="none" stroke="black" stroke-width="5" d="M690.51,-1018.69C756.29,-1005.01 866.73,-976.45 866.73,-938.85 866.73,-938.85 866.73,-938.85 866.73,-752.93 866.73,-672.93 942.73,-669.77 942.73,-589.77 942.73,-589.77 942.73,-589.77 942.73,-91.15 942.73,-43.6 626.86,-27.08 464.99,-21.74"/>
<polygon fill="black" stroke="black" stroke-width="5" points="464.89,-12.98 444.63,-21.1 464.34,-30.47 464.89,-12.98"/>
</a>
</g>
</g>
<!-- prepare -->
<g id="node2" class="node">
<title>prepare</title>
<g id="a_node2"><a xlink:href="prepare.html" xlink:title="prepare">
<ellipse fill="none" stroke="black" cx="505.73" cy="-1119.39" rx="49.43" ry="18.27"/>
<text text-anchor="middle" x="505.73" y="-1113.99" font-family="Times,serif" font-size="18.00">prepare</text>
</a>
</g>
</g>
<!-- prepare&#45;&gt;cur_prep -->
<g id="edge1" class="edge">
<title>prepare&#45;&gt;cur_prep</title>
<g id="a_edge1"><a xlink:href="22-cur_prep.html">
<path fill="none" stroke="black" stroke-width="5" d="M529.28,-1103.13C549.16,-1090.25 578.07,-1071.52 601.73,-1056.18"/>
<polygon fill="black" stroke="black" stroke-width="5" points="606.54,-1063.5 618.57,-1045.28 597.02,-1048.81 606.54,-1063.5"/>
</a>
</g>
</g>
<!-- all_promise_id -->
<g id="node7" class="node">
<title>all_promise_id</title>
<g id="a_node7"><a xlink:href="all_promise_id.html" xlink:title="all_promise_id">
<polygon fill="none" stroke="black" points="567.71,-1046.62 443.75,-1046.62 443.75,-1010.62 567.71,-1010.62 567.71,-1046.62"/>
<text text-anchor="middle" x="505.73" y="-1023.22" font-family="Times,serif" font-size="18.00">all_promise_id</text>
</a>
</g>
</g>
<!-- prepare&#45;&gt;all_promise_id -->
<g id="edge6" class="edge">
<title>prepare&#45;&gt;all_promise_id</title>
<g id="a_edge6"><a xlink:href="25-all_promise_id.html" xlink:title=" +/&#45;">
<path fill="none" stroke="black" stroke-width="5" d="M505.73,-1100.85C505.73,-1091.18 505.73,-1078.79 505.73,-1067.07"/>
<polygon fill="black" stroke="black" stroke-width="5" points="514.48,-1066.82 505.73,-1046.82 496.98,-1066.82 514.48,-1066.82"/>
</a>
</g>
<g id="a_edge6&#45;label"><a xlink:href="25-all_promise_id.html" xlink:title=" +/&#45;">
<text text-anchor="middle" x="518.55" y="-1068.6" font-family="Times,serif" font-size="18.00"> +/&#45;</text>
</a>
</g>
</g>
<!-- promise -->
<g id="node8" class="node">
<title>promise</title>
<g id="a_node8"><a xlink:href="promise.html" xlink:title="promise">
<ellipse fill="none" stroke="black" cx="383.73" cy="-790.31" rx="52.14" ry="18.27"/>
<text text-anchor="middle" x="383.73" y="-784.91" font-family="Times,serif" font-size="18.00">promise</text>
</a>
</g>
</g>
<!-- prepare&#45;&gt;promise -->
<g id="edge8" class="edge">
<title>prepare&#45;&gt;promise</title>
<g id="a_edge8"><a xlink:href="27-promise.html">
<path fill="none" stroke="black" stroke-width="5" stroke-dasharray="5,2" d="M466.79,-1107.87C431.09,-1095.58 383.73,-1071.4 383.73,-1029.62 383.73,-1029.62 383.73,-1029.62 383.73,-863.08 383.73,-852.06 383.73,-840.08 383.73,-829.13"/>
<polygon fill="black" stroke="black" stroke-width="5" points="392.48,-828.71 383.73,-808.71 374.98,-828.71 392.48,-828.71"/>
</a>
</g>
</g>
<!-- existing_id&#45;&gt;promise -->
<g id="edge12" class="edge">
<title>existing_id&#45;&gt;promise</title>
<g id="a_edge12"><a xlink:href="29-promise.html">
<path fill="none" stroke="black" stroke-width="5" stroke-dasharray="5,2" d="M488.32,-847.33C470.92,-838.01 448.53,-826.02 428.92,-815.52"/>
<polygon fill="black" stroke="black" stroke-width="5" points="433,-807.77 411.24,-806.04 424.74,-823.2 433,-807.77"/>
</a>
</g>
</g>
<!-- max_promise_id -->
<g id="node4" class="node">
<title>max_promise_id</title>
<g id="a_node4"><a xlink:href="max_promise_id.html" xlink:title="max_promise_id">
<ellipse fill="none" stroke="black" cx="512.73" cy="-937.85" rx="96.72" ry="18.27"/>
<text text-anchor="middle" x="512.73" y="-932.45" font-family="Times,serif" font-size="18.00">max_promise_id</text>
</a>
</g>
</g>
<!-- max_promise_id&#45;&gt;existing_id -->
<g id="edge2" class="edge">
<title>max_promise_id&#45;&gt;existing_id</title>
<g id="a_edge2"><a xlink:href="23-existing_id.html">
<path fill="none" stroke="black" stroke-width="5" d="M513.97,-919.11C513.98,-918.94 513.99,-918.76 514,-918.59"/>
<polygon fill="black" stroke="black" stroke-width="5" points="516.51,-882.62 524.1,-903.19 517.81,-892.73 517.11,-902.71 515.12,-902.57 513.12,-902.43 513.82,-892.45 506.14,-901.94 516.51,-882.62 516.51,-882.62"/>
<ellipse fill="none" stroke="black" stroke-width="5" cx="514.56" cy="-910.55" rx="8" ry="8"/>
</a>
</g>
</g>
<!-- max_promise_id&#45;&gt;promise -->
<g id="edge9" class="edge">
<title>max_promise_id&#45;&gt;promise</title>
<g id="a_edge9"><a xlink:href="27-promise.html">
<path fill="none" stroke="black" stroke-width="5" stroke-dasharray="5,2" d="M485.85,-920.05C471.43,-910.21 453.95,-896.91 440.73,-882.47 425.45,-865.77 411.85,-844.44 401.78,-826.61"/>
<polygon fill="black" stroke="black" stroke-width="5" points="409.33,-822.19 392.15,-808.71 393.92,-830.47 409.33,-822.19"/>
</a>
</g>
</g>
<!-- accepted -->
<g id="node11" class="node">
<title>accepted</title>
<g id="a_node11"><a xlink:href="accepted.html" xlink:title="accepted">
<ellipse fill="none" stroke="black" cx="650.73" cy="-165.92" rx="55.65" ry="18.27"/>
<text text-anchor="middle" x="650.73" y="-160.52" font-family="Times,serif" font-size="18.00">accepted</text>
</a>
</g>
</g>
<!-- max_promise_id&#45;&gt;accepted -->
<g id="edge16" class="edge">
<title>max_promise_id&#45;&gt;accepted</title>
<g id="a_edge16"><a xlink:href="32-accepted.html">
<path fill="none" stroke="black" stroke-width="5" stroke-dasharray="5,2" d="M582.54,-925.04C639.54,-913.36 710.73,-893.14 710.73,-865.08 710.73,-865.08 710.73,-865.08 710.73,-587.77 710.73,-513.01 673.15,-293 657.47,-204.46"/>
<polygon fill="black" stroke="black" stroke-width="5" points="666.08,-202.89 653.96,-184.73 648.85,-205.96 666.08,-202.89"/>
</a>
</g>
</g>
<!-- existing_val&#45;&gt;promise -->
<g id="edge11" class="edge">
<title>existing_val&#45;&gt;promise</title>
<g id="a_edge11"><a xlink:href="28-promise.html">
<path fill="none" stroke="black" stroke-width="5" stroke-dasharray="5,2" d="M306.51,-27.1C268.79,-35.61 228.73,-53.52 228.73,-91.15 228.73,-717.93 228.73,-717.93 228.73,-717.93 228.73,-757.93 271.86,-775.6 312.62,-783.36"/>
<polygon fill="black" stroke="black" stroke-width="5" points="311.44,-792.03 332.55,-786.46 314.13,-774.74 311.44,-792.03"/>
</a>
</g>
</g>
<!-- max_accept_val -->
<g id="node6" class="node">
<title>max_accept_val</title>
<g id="a_node6"><a xlink:href="max_accept_val.html" xlink:title="max_accept_val">
<ellipse fill="none" stroke="black" cx="371.73" cy="-92.15" rx="94" ry="18.27"/>
<text text-anchor="middle" x="371.73" y="-86.75" font-family="Times,serif" font-size="18.00">max_accept_val</text>
</a>
</g>
</g>
<!-- max_accept_val&#45;&gt;existing_val -->
<g id="edge4" class="edge">
<title>max_accept_val&#45;&gt;existing_val</title>
<g id="a_edge4"><a xlink:href="24-existing_val.html">
<path fill="none" stroke="black" stroke-width="5" d="M371.73,-73.41C371.73,-73.33 371.73,-73.24 371.73,-73.15"/>
<polygon fill="black" stroke="black" stroke-width="5" points="371.73,-36.92 380.73,-56.92 373.73,-46.92 373.73,-56.92 371.73,-56.92 369.73,-56.92 369.73,-46.92 362.73,-56.92 371.73,-36.92 371.73,-36.92"/>
<ellipse fill="none" stroke="black" stroke-width="5" cx="371.73" cy="-64.92" rx="8" ry="8"/>
</a>
</g>
</g>
<!-- max_accept_val&#45;&gt;promise -->
<g id="edge10" class="edge">
<title>max_accept_val&#45;&gt;promise</title>
<g id="a_edge10"><a xlink:href="27-promise.html">
<path fill="none" stroke="black" stroke-width="5" stroke-dasharray="5,2" d="M319.84,-107.59C293.39,-118.44 266.73,-136.44 266.73,-164.92 266.73,-717.93 266.73,-717.93 266.73,-717.93 266.73,-746.4 292.3,-763.85 319.53,-774.37"/>
<polygon fill="black" stroke="black" stroke-width="5" points="317.1,-782.78 338.83,-780.72 322.57,-766.15 317.1,-782.78"/>
</a>
</g>
</g>
<!-- all_promise_id&#45;&gt;max_promise_id -->
<g id="edge7" class="edge">
<title>all_promise_id&#45;&gt;max_promise_id</title>
<g id="a_edge7"><a xlink:href="26-max_promise_id.html">
<path fill="none" stroke="black" stroke-width="5" d="M507.08,-1010.5C507.5,-1005.17 507.99,-998.98 508.5,-992.51"/>
<polygon fill="black" stroke="black" stroke-width="5" points="511.34,-956.52 518.74,-977.17 512.54,-966.65 511.76,-976.62 509.76,-976.46 507.77,-976.3 508.56,-966.33 500.79,-975.75 511.34,-956.52 511.34,-956.52"/>
<ellipse fill="none" stroke="black" stroke-width="5" cx="509.13" cy="-984.43" rx="8" ry="8"/>
</a>
</g>
</g>
<!-- all_advocate_val -->
<g id="node20" class="node">
<title>all_advocate_val</title>
<g id="a_node20"><a xlink:href="all_advocate_val.html" xlink:title="all_advocate_val">
<polygon fill="none" stroke="black" points="198.67,-734.93 60.79,-734.93 60.79,-698.93 198.67,-698.93 198.67,-734.93"/>
<text text-anchor="middle" x="129.73" y="-711.53" font-family="Times,serif" font-size="18.00">all_advocate_val</text>
</a>
</g>
</g>
<!-- promise&#45;&gt;all_advocate_val -->
<g id="edge34" class="edge">
<title>promise&#45;&gt;all_advocate_val</title>
<g id="a_edge34"><a xlink:href="49-all_advocate_val.html">
<path fill="none" stroke="black" stroke-width="5" d="M337.37,-781.72C303.76,-775.66 257.43,-766.17 217.73,-753.93 207.31,-750.71 196.41,-746.76 185.98,-742.67"/>
<polygon fill="black" stroke="black" stroke-width="5" points="189.13,-734.51 167.31,-735.03 182.5,-750.7 189.13,-734.51"/>
</a>
</g>
</g>
<!-- agreeing_acceptors -->
<g id="node23" class="node">
<title>agreeing_acceptors</title>
<g id="a_node23"><a xlink:href="agreeing_acceptors.html" xlink:title="agreeing_acceptors">
<polygon fill="none" stroke="black" points="566.15,-734.93 411.31,-734.93 411.31,-698.93 566.15,-698.93 566.15,-734.93"/>
<text text-anchor="middle" x="488.73" y="-711.53" font-family="Times,serif" font-size="18.00">agreeing_acceptors</text>
</a>
</g>
</g>
<!-- promise&#45;&gt;agreeing_acceptors -->
<g id="edge33" class="edge">
<title>promise&#45;&gt;agreeing_acceptors</title>
<g id="a_edge33"><a xlink:href="48-agreeing_acceptors.html">
<path fill="none" stroke="black" stroke-width="5" d="M406.77,-773.65C418.44,-765.71 432.98,-755.83 446.56,-746.59"/>
<polygon fill="black" stroke="black" stroke-width="5" points="451.92,-753.53 463.54,-735.05 442.08,-739.06 451.92,-753.53"/>
</a>
</g>
</g>
<!-- agreeing_acceptors_for_slot -->
<g id="node25" class="node">
<title>agreeing_acceptors_for_slot</title>
<g id="a_node25"><a xlink:href="agreeing_acceptors_for_slot.html" xlink:title="agreeing_acceptors_for_slot">
<ellipse fill="none" stroke="black" cx="488.73" cy="-643.54" rx="155.51" ry="18.27"/>
<text text-anchor="middle" x="488.73" y="-638.14" font-family="Times,serif" font-size="18.00">agreeing_acceptors_for_slot</text>
</a>
</g>
</g>
<!-- promise&#45;&gt;agreeing_acceptors_for_slot -->
<g id="edge37" class="edge">
<title>promise&#45;&gt;agreeing_acceptors_for_slot</title>
<g id="a_edge37"><a xlink:href="51-agreeing_acceptors_for_slot.html">
<path fill="none" stroke="black" stroke-width="5" d="M383.49,-771.76C384.06,-752.3 387.55,-720.79 402.73,-698.93 410.14,-688.26 420.38,-679.24 431.22,-671.79"/>
<polygon fill="black" stroke="black" stroke-width="5" points="435.84,-679.22 448.42,-661.38 426.78,-664.25 435.84,-679.22"/>
</a>
</g>
</g>
<!-- accept_sent -->
<g id="node27" class="node">
<title>accept_sent</title>
<g id="a_node27"><a xlink:href="accept_sent.html" xlink:title="accept_sent">
<polygon fill="none" stroke="black" points="674.68,-478.62 574.78,-478.62 574.78,-442.62 674.68,-442.62 674.68,-478.62"/>
<text text-anchor="middle" x="624.73" y="-455.22" font-family="Times,serif" font-size="18.00">accept_sent</text>
</a>
</g>
</g>
<!-- promise&#45;&gt;accept_sent -->
<g id="edge41" class="edge">
<title>promise&#45;&gt;accept_sent</title>
<g id="a_edge41"><a xlink:href="53-accept_sent.html">
<path fill="none" stroke="black" stroke-width="5" d="M433.64,-784.54C500.99,-774.94 616.8,-746.33 653.73,-661.93 677.35,-607.93 657.58,-538.71 641.13,-497.39"/>
<polygon fill="black" stroke="black" stroke-width="5" points="649.09,-493.75 633.19,-478.8 632.99,-500.63 649.09,-493.75"/>
</a>
</g>
</g>
<!-- majority -->
<g id="node29" class="node">
<title>majority</title>
<g id="a_node29"><a xlink:href="majority.html" xlink:title="majority">
<ellipse fill="none" stroke="black" cx="574.73" cy="-313.46" rx="54.38" ry="18.27"/>
<text text-anchor="middle" x="574.73" y="-308.06" font-family="Times,serif" font-size="18.00">majority</text>
</a>
</g>
</g>
<!-- promise&#45;&gt;majority -->
<g id="edge45" class="edge">
<title>promise&#45;&gt;majority</title>
<g id="a_edge45"><a xlink:href="57-majority.html">
<path fill="none" stroke="black" stroke-width="5" d="M351.6,-775.56C329.73,-763.8 304.73,-744.54 304.73,-717.93 304.73,-717.93 304.73,-717.93 304.73,-386.23 304.73,-345.35 421.81,-327.19 501.77,-319.55"/>
<polygon fill="black" stroke="black" stroke-width="5" points="502.56,-328.27 521.71,-317.79 501.02,-310.84 502.56,-328.27"/>
</a>
</g>
</g>
<!-- all_accept_val -->
<g id="node9" class="node">
<title>all_accept_val</title>
<g id="a_node9"><a xlink:href="all_accept_val.html" xlink:title="all_accept_val">
<polygon fill="none" stroke="black" points="495.67,-183.92 375.79,-183.92 375.79,-147.92 495.67,-147.92 495.67,-183.92"/>
<text text-anchor="middle" x="435.73" y="-160.52" font-family="Times,serif" font-size="18.00">all_accept_val</text>
</a>
</g>
</g>
<!-- all_accept_val&#45;&gt;max_accept_val -->
<g id="edge14" class="edge">
<title>all_accept_val&#45;&gt;max_accept_val</title>
<g id="a_edge14"><a xlink:href="31-max_accept_val.html">
<path fill="none" stroke="black" stroke-width="5" d="M420.56,-147.92C417.66,-144.66 414.49,-141.11 411.21,-137.43"/>
<polygon fill="black" stroke="black" stroke-width="5" points="387.23,-110.54 407.26,-119.48 395.38,-116.67 402.04,-124.14 400.54,-125.47 399.05,-126.8 392.4,-119.33 393.83,-131.46 387.23,-110.54 387.23,-110.54"/>
<ellipse fill="none" stroke="black" stroke-width="5" cx="405.87" cy="-131.44" rx="8" ry="8"/>
</a>
</g>
</g>
<!-- accept -->
<g id="node10" class="node">
<title>accept</title>
<g id="a_node10"><a xlink:href="accept.html" xlink:title="accept">
<ellipse fill="none" stroke="black" cx="574.73" cy="-239.69" rx="43.62" ry="18.27"/>
<text text-anchor="middle" x="574.73" y="-234.29" font-family="Times,serif" font-size="18.00">accept</text>
</a>
</g>
</g>
<!-- accept&#45;&gt;all_accept_val -->
<g id="edge13" class="edge">
<title>accept&#45;&gt;all_accept_val</title>
<g id="a_edge13"><a xlink:href="30-all_accept_val.html">
<path fill="none" stroke="black" stroke-width="5" d="M548.26,-225.03C530.86,-216.04 507.53,-204 486.63,-193.21"/>
<polygon fill="black" stroke="black" stroke-width="5" points="490.51,-185.36 468.73,-183.96 482.48,-200.91 490.51,-185.36"/>
</a>
</g>
</g>
<!-- accept&#45;&gt;accepted -->
<g id="edge15" class="edge">
<title>accept&#45;&gt;accepted</title>
<g id="a_edge15"><a xlink:href="32-accepted.html">
<path fill="none" stroke="black" stroke-width="5" stroke-dasharray="5,2" d="M591.98,-222.41C599.89,-214.94 609.53,-205.83 618.7,-197.17"/>
<polygon fill="black" stroke="black" stroke-width="5" points="624.76,-203.49 633.29,-183.39 612.74,-190.76 624.76,-203.49"/>
</a>
</g>
</g>
<!-- accepted_to_learner -->
<g id="node30" class="node">
<title>accepted_to_learner</title>
<g id="a_node30"><a xlink:href="accepted_to_learner.html" xlink:title="accepted_to_learner">
<ellipse fill="none" stroke="black" cx="771.73" cy="-92.15" rx="113.55" ry="18.27"/>
<text text-anchor="middle" x="771.73" y="-86.75" font-family="Times,serif" font-size="18.00">accepted_to_learner</text>
</a>
</g>
</g>
<!-- accepted&#45;&gt;accepted_to_learner -->
<g id="edge50" class="edge">
<title>accepted&#45;&gt;accepted_to_learner</title>
<g id="a_edge50"><a xlink:href="59-accepted_to_learner.html">
<path fill="none" stroke="black" stroke-width="5" stroke-dasharray="5,2" d="M676.69,-149.53C691.07,-141 709.36,-130.15 726.06,-120.24"/>
<polygon fill="black" stroke="black" stroke-width="5" points="730.54,-127.76 743.28,-110.03 721.61,-112.71 730.54,-127.76"/>
</a>
</g>
</g>
<!-- learnerlist -->
<g id="node12" class="node">
<title>learnerlist</title>
<g id="a_node12"><a xlink:href="learnerlist.html" xlink:title="learnerlist">
<polygon fill="none" stroke="black" points="815.69,-183.92 727.76,-183.92 727.76,-147.92 815.69,-147.92 815.69,-183.92"/>
<text text-anchor="middle" x="771.73" y="-160.52" font-family="Times,serif" font-size="18.00">learnerlist</text>
</a>
</g>
</g>
<!-- learnerlist&#45;&gt;accepted_to_learner -->
<g id="edge51" class="edge">
<title>learnerlist&#45;&gt;accepted_to_learner</title>
<g id="a_edge51"><a xlink:href="59-accepted_to_learner.html">
<path fill="none" stroke="black" stroke-width="5" stroke-dasharray="5,2" d="M771.73,-147.92C771.73,-142.72 771.73,-136.78 771.73,-130.78"/>
<polygon fill="black" stroke="black" stroke-width="5" points="780.48,-130.54 771.73,-110.54 762.98,-130.54 780.48,-130.54"/>
</a>
</g>
</g>
<!-- connect_learner -->
<g id="node13" class="node">
<title>connect_learner</title>
<ellipse fill="none" stroke="black" cx="771.73" cy="-239.69" rx="92.66" ry="18.27"/>
<text text-anchor="middle" x="771.73" y="-234.29" font-family="Times,serif" font-size="18.00">connect_learner</text>
</g>
<!-- connect_learner&#45;&gt;learnerlist -->
<g id="edge17" class="edge">
<title>connect_learner&#45;&gt;learnerlist</title>
<g id="a_edge17"><a xlink:href="37-learnerlist.html">
<path fill="none" stroke="black" stroke-width="5" d="M771.73,-220.95C771.73,-215.84 771.73,-210.05 771.73,-204.22"/>
<polygon fill="black" stroke="black" stroke-width="5" points="780.48,-203.97 771.73,-183.97 762.98,-203.97 780.48,-203.97"/>
</a>
</g>
</g>
<!-- nodelist -->
<g id="node14" class="node">
<title>nodelist</title>
<g id="a_node14"><a xlink:href="nodelist.html" xlink:title="nodelist">
<polygon fill="none" stroke="black" points="843.23,-1211.16 770.23,-1211.16 770.23,-1175.16 843.23,-1175.16 843.23,-1211.16"/>
<text text-anchor="middle" x="806.73" y="-1187.76" font-family="Times,serif" font-size="18.00">nodelist</text>
</a>
</g>
</g>
<!-- nodelist&#45;&gt;prepare -->
<g id="edge32" class="edge">
<title>nodelist&#45;&gt;prepare</title>
<g id="a_edge32"><a xlink:href="47-prepare.html">
<path fill="none" stroke="black" stroke-width="5" stroke-dasharray="5,2" d="M770.12,-1183.43C719.42,-1171.34 627.18,-1149.35 566.17,-1134.8"/>
<polygon fill="black" stroke="black" stroke-width="5" points="567.88,-1126.21 546.4,-1130.09 563.82,-1143.24 567.88,-1126.21"/>
</a>
</g>
</g>
<!-- nodelist&#45;&gt;accept -->
<g id="edge48" class="edge">
<title>nodelist&#45;&gt;accept</title>
<g id="a_edge48"><a xlink:href="58-accept.html">
<path fill="none" stroke="black" stroke-width="5" stroke-dasharray="5,2" d="M843.63,-1192.49C894.71,-1190.79 980.73,-1179.21 980.73,-1120.39 980.73,-1120.39 980.73,-1120.39 980.73,-423.62 980.73,-348.1 744.26,-281.3 632.25,-253.9"/>
<polygon fill="black" stroke="black" stroke-width="5" points="634.05,-245.34 612.56,-249.18 629.97,-262.35 634.05,-245.34"/>
</a>
</g>
</g>
<!-- num_acceptors -->
<g id="node16" class="node">
<title>num_acceptors</title>
<g id="a_node16"><a xlink:href="num_acceptors.html" xlink:title="num_acceptors">
<ellipse fill="none" stroke="black" cx="826.73" cy="-534" rx="88.22" ry="18.27"/>
<text text-anchor="middle" x="826.73" y="-528.6" font-family="Times,serif" font-size="18.00">num_acceptors</text>
</a>
</g>
</g>
<!-- nodelist&#45;&gt;num_acceptors -->
<g id="edge19" class="edge">
<title>nodelist&#45;&gt;num_acceptors</title>
<g id="a_edge19"><a xlink:href="39-num_acceptors.html">
<path fill="none" stroke="black" stroke-width="5" d="M843.5,-1181.6C871.31,-1171.1 904.73,-1151.92 904.73,-1120.39 904.73,-1120.39 904.73,-1120.39 904.73,-642.54 904.73,-618.01 891.27,-595.31 875.53,-577.14"/>
<polygon fill="black" stroke="black" stroke-width="5" points="849.71,-552.03 870.32,-559.52 858.27,-557.57 865.44,-564.54 864.05,-565.97 862.65,-567.41 855.49,-560.44 857.77,-572.43 849.71,-552.03 849.71,-552.03"/>
<ellipse fill="none" stroke="black" stroke-width="5" cx="869.78" cy="-571.55" rx="8" ry="8"/>
</a>
</g>
</g>
<!-- connect -->
<g id="node15" class="node">
<title>connect</title>
<ellipse fill="none" stroke="black" cx="707.73" cy="-1266.93" rx="50.78" ry="18.27"/>
<text text-anchor="middle" x="707.73" y="-1261.53" font-family="Times,serif" font-size="18.00">connect</text>
</g>
<!-- connect&#45;&gt;nodelist -->
<g id="edge18" class="edge">
<title>connect&#45;&gt;nodelist</title>
<g id="a_edge18"><a xlink:href="38-nodelist.html">
<path fill="none" stroke="black" stroke-width="5" d="M729.7,-1250C740.59,-1242.11 754.08,-1232.33 766.72,-1223.17"/>
<polygon fill="black" stroke="black" stroke-width="5" points="772.03,-1230.12 783.09,-1211.29 761.76,-1215.95 772.03,-1230.12"/>
</a>
</g>
</g>
<!-- num_acceptors&#45;&gt;accept_sent -->
<g id="edge39" class="edge">
<title>num_acceptors&#45;&gt;accept_sent</title>
<g id="a_edge39"><a xlink:href="53-accept_sent.html">
<path fill="none" stroke="black" stroke-width="5" d="M783.89,-517.86C757.29,-508.46 722.53,-496.18 692.27,-485.49"/>
<polygon fill="black" stroke="black" stroke-width="5" points="694.95,-477.15 673.18,-478.74 689.12,-493.65 694.95,-477.15"/>
</a>
</g>
</g>
<!-- num_acceptors&#45;&gt;majority -->
<g id="edge43" class="edge">
<title>num_acceptors&#45;&gt;majority</title>
<g id="a_edge43"><a xlink:href="57-majority.html">
<path fill="none" stroke="black" stroke-width="5" d="M812.85,-515.64C786.88,-483.88 728.2,-415.44 668.73,-368.85 654.41,-357.63 637.52,-347.14 622.05,-338.42"/>
<polygon fill="black" stroke="black" stroke-width="5" points="626.2,-330.72 604.45,-328.91 617.88,-346.12 626.2,-330.72"/>
</a>
</g>
</g>
<!-- num_acceptors&#45;&gt;accepted_to_learner -->
<g id="edge52" class="edge">
<title>num_acceptors&#45;&gt;accepted_to_learner</title>
<g id="a_edge52"><a xlink:href="59-accepted_to_learner.html">
<path fill="none" stroke="black" stroke-width="5" stroke-dasharray="5,2" d="M855.49,-516.6C873.27,-504.11 892.73,-485.08 892.73,-461.62 892.73,-461.62 892.73,-461.62 892.73,-164.92 892.73,-141.95 876.4,-126.17 855.73,-115.4"/>
<polygon fill="black" stroke="black" stroke-width="5" points="859.02,-107.29 837.19,-107.32 852.03,-123.33 859.02,-107.29"/>
</a>
</g>
</g>
<!-- clientlist -->
<g id="node17" class="node">
<title>clientlist</title>
<g id="a_node17"><a xlink:href="clientlist.html" xlink:title="clientlist">
<polygon fill="none" stroke="black" points="854.72,-1284.93 776.74,-1284.93 776.74,-1248.93 854.72,-1248.93 854.72,-1284.93"/>
<text text-anchor="middle" x="815.73" y="-1261.53" font-family="Times,serif" font-size="18.00">clientlist</text>
</a>
</g>
</g>
<!-- client_request -->
<g id="node18" class="node">
<title>client_request</title>
<ellipse fill="none" stroke="black" cx="304.73" cy="-1365.31" rx="82.91" ry="18.27"/>
<text text-anchor="middle" x="304.73" y="-1359.91" font-family="Times,serif" font-size="18.00">client_request</text>
</g>
<!-- client_request&#45;&gt;clientlist -->
<g id="edge20" class="edge">
<title>client_request&#45;&gt;clientlist</title>
<g id="a_edge20"><a xlink:href="40-clientlist.html">
<path fill="none" stroke="black" stroke-width="5" d="M352.22,-1350.23C366.44,-1346.33 382.15,-1342.34 396.73,-1339.31 553.5,-1306.73 602.33,-1324.38 757.21,-1287.58"/>
<polygon fill="black" stroke="black" stroke-width="5" points="759.3,-1296.08 776.64,-1282.82 755.13,-1279.08 759.3,-1296.08"/>
</a>
</g>
</g>
<!-- propose_num -->
<g id="node19" class="node">
<title>propose_num</title>
<g id="a_node19"><a xlink:href="propose_num.html" xlink:title="propose_num">
<polygon fill="none" stroke="black" points="361.72,-1284.93 247.74,-1284.93 247.74,-1248.93 361.72,-1248.93 361.72,-1284.93"/>
<text text-anchor="middle" x="304.73" y="-1261.53" font-family="Times,serif" font-size="18.00">propose_num</text>
</a>
</g>
</g>
<!-- client_request&#45;&gt;propose_num -->
<g id="edge22" class="edge">
<title>client_request&#45;&gt;propose_num</title>
<g id="a_edge22"><a xlink:href="41-propose_num.html" xlink:title=" +/&#45;">
<path fill="none" stroke="black" stroke-width="5" d="M304.73,-1346.63C304.73,-1339.32 304.73,-1330.41 304.73,-1321.26"/>
<polygon fill="black" stroke="black" stroke-width="5" points="304.73,-1285.17 313.73,-1305.17 306.73,-1295.17 306.73,-1305.17 304.73,-1305.17 302.73,-1305.17 302.73,-1295.17 295.73,-1305.17 304.73,-1285.17 304.73,-1285.17"/>
<ellipse fill="none" stroke="black" stroke-width="5" cx="304.73" cy="-1313.17" rx="8" ry="8"/>
</a>
</g>
<g id="a_edge22&#45;label"><a xlink:href="41-propose_num.html" xlink:title=" +/&#45;">
<text text-anchor="middle" x="317.55" y="-1306.91" font-family="Times,serif" font-size="18.00"> +/&#45;</text>
</a>
</g>
</g>
<!-- client_request&#45;&gt;all_advocate_val -->
<g id="edge23" class="edge">
<title>client_request&#45;&gt;all_advocate_val</title>
<g id="a_edge23"><a xlink:href="43-all_advocate_val.html" xlink:title=" +/&#45;">
<path fill="none" stroke="black" stroke-width="5" d="M223.03,-1362.08C157.26,-1355.39 75.73,-1333.82 75.73,-1267.93 75.73,-1267.93 75.73,-1267.93 75.73,-789.31 75.73,-774.42 83.3,-760.67 92.77,-749.3"/>
<polygon fill="black" stroke="black" stroke-width="5" points="99.09,-755.35 106.83,-734.93 86.59,-743.11 99.09,-755.35"/>
</a>
</g>
<g id="a_edge23&#45;label"><a xlink:href="43-all_advocate_val.html" xlink:title=" +/&#45;">
<text text-anchor="middle" x="88.55" y="-1023.22" font-family="Times,serif" font-size="18.00"> +/&#45;</text>
</a>
</g>
</g>
<!-- slot_num -->
<g id="node21" class="node">
<title>slot_num</title>
<g id="a_node21"><a xlink:href="slot_num.html" xlink:title="slot_num">
<polygon fill="none" stroke="black" points="187.24,-1284.93 104.22,-1284.93 104.22,-1248.93 187.24,-1248.93 187.24,-1284.93"/>
<text text-anchor="middle" x="145.73" y="-1261.53" font-family="Times,serif" font-size="18.00">slot_num</text>
</a>
</g>
</g>
<!-- client_request&#45;&gt;slot_num -->
<g id="edge27" class="edge">
<title>client_request&#45;&gt;slot_num</title>
<g id="a_edge27"><a xlink:href="44-slot_num.html" xlink:title=" +/&#45;">
<path fill="none" stroke="black" stroke-width="5" d="M277.4,-1347.74C257.5,-1335.68 229.79,-1318.88 204.92,-1303.81"/>
<polygon fill="black" stroke="black" stroke-width="5" points="173.77,-1284.93 195.54,-1287.6 183.36,-1288.4 191.91,-1293.59 190.88,-1295.3 189.84,-1297.01 181.29,-1291.82 186.21,-1302.99 173.77,-1284.93 173.77,-1284.93"/>
<ellipse fill="none" stroke="black" stroke-width="5" cx="197.72" cy="-1299.44" rx="8" ry="8"/>
</a>
</g>
<g id="a_edge27&#45;label"><a xlink:href="44-slot_num.html" xlink:title=" +/&#45;">
<text text-anchor="middle" x="243.55" y="-1306.91" font-family="Times,serif" font-size="18.00"> +/&#45;</text>
</a>
</g>
</g>
<!-- client_request_temp -->
<g id="node22" class="node">
<title>client_request_temp</title>
<g id="a_node22"><a xlink:href="client_request_temp.html" xlink:title="client_request_temp">
<ellipse fill="none" stroke="black" cx="394.73" cy="-1193.16" rx="114.53" ry="18.27"/>
<text text-anchor="middle" x="394.73" y="-1187.76" font-family="Times,serif" font-size="18.00">client_request_temp</text>
</a>
</g>
</g>
<!-- client_request&#45;&gt;client_request_temp -->
<g id="edge28" class="edge">
<title>client_request&#45;&gt;client_request_temp</title>
<g id="a_edge28"><a xlink:href="46-client_request_temp.html">
<path fill="none" stroke="black" stroke-width="5" d="M341.62,-1348.72C366.98,-1335.8 398.7,-1314.77 413.73,-1285.31 422.44,-1268.24 419.01,-1247.42 412.81,-1229.99"/>
<polygon fill="black" stroke="black" stroke-width="5" points="420.79,-1226.4 404.82,-1211.52 404.72,-1233.35 420.79,-1226.4"/>
</a>
</g>
</g>
<!-- propose_num&#45;&gt;propose_num -->
<g id="edge21" class="edge">
<title>propose_num&#45;&gt;propose_num</title>
<g id="a_edge21"><a xlink:href="41-propose_num.html" xlink:title=" +/&#45;">
<path fill="none" stroke="black" stroke-width="5" d="M361.95,-1273.31C362.11,-1273.29 362.28,-1273.28 362.44,-1273.27"/>
<polygon fill="black" stroke="black" stroke-width="5" points="361.95,-1260.55 371.71,-1280.19 364.33,-1270.46 364.72,-1280.46 362.72,-1280.53 360.72,-1280.61 360.34,-1270.62 353.72,-1280.88 361.95,-1260.55 361.95,-1260.55"/>
<ellipse fill="none" stroke="black" stroke-width="5" cx="363.02" cy="-1288.53" rx="8" ry="8"/>
</a>
</g>
<g id="a_edge21&#45;label"><a xlink:href="41-propose_num.html" xlink:title=" +/&#45;">
<text text-anchor="middle" x="392.55" y="-1261.53" font-family="Times,serif" font-size="18.00"> +/&#45;</text>
</a>
</g>
</g>
<!-- propose_num&#45;&gt;all_advocate_val -->
<g id="edge25" class="edge">
<title>propose_num&#45;&gt;all_advocate_val</title>
<g id="a_edge25"><a xlink:href="43-all_advocate_val.html" xlink:title=" +/&#45;">
<path fill="none" stroke="black" stroke-width="5" d="M257.81,-1248.92C221.99,-1234.43 178.73,-1213.04 178.73,-1194.16 178.73,-1194.16 178.73,-1194.16 178.73,-789.31 178.73,-775.14 172.08,-761.72 163.68,-750.42"/>
<polygon fill="black" stroke="black" stroke-width="5" points="169.99,-744.35 150.23,-735.09 156.84,-755.89 169.99,-744.35"/>
</a>
</g>
<g id="a_edge25&#45;label"><a xlink:href="43-all_advocate_val.html" xlink:title=" +/&#45;">
<text text-anchor="middle" x="191.55" y="-977.83" font-family="Times,serif" font-size="18.00"> +/&#45;</text>
</a>
</g>
</g>
<!-- propose_num&#45;&gt;client_request_temp -->
<g id="edge29" class="edge">
<title>propose_num&#45;&gt;client_request_temp</title>
<g id="a_edge29"><a xlink:href="46-client_request_temp.html">
<path fill="none" stroke="black" stroke-width="5" d="M326.06,-1248.92C335.41,-1241.47 346.66,-1232.49 357.32,-1223.99"/>
<polygon fill="black" stroke="black" stroke-width="5" points="363.06,-1230.6 373.24,-1211.29 352.15,-1216.92 363.06,-1230.6"/>
</a>
</g>
</g>
<!-- max_advocate_val -->
<g id="node24" class="node">
<title>max_advocate_val</title>
<g id="a_node24"><a xlink:href="max_advocate_val.html" xlink:title="max_advocate_val">
<ellipse fill="none" stroke="black" cx="106.73" cy="-588.77" rx="106.96" ry="18.27"/>
<text text-anchor="middle" x="106.73" y="-583.37" font-family="Times,serif" font-size="18.00">max_advocate_val</text>
</a>
</g>
</g>
<!-- all_advocate_val&#45;&gt;max_advocate_val -->
<g id="edge35" class="edge">
<title>all_advocate_val&#45;&gt;max_advocate_val</title>
<g id="a_edge35"><a xlink:href="50-max_advocate_val.html">
<path fill="none" stroke="black" stroke-width="5" d="M126.63,-698.91C124,-684.51 120.09,-663.06 116.43,-642.98"/>
<polygon fill="black" stroke="black" stroke-width="5" points="109.93,-607.33 122.37,-625.39 113.69,-616.8 115.48,-626.64 113.52,-627 111.55,-627.36 109.76,-617.52 104.66,-628.62 109.93,-607.33 109.93,-607.33"/>
<ellipse fill="none" stroke="black" stroke-width="5" cx="114.95" cy="-634.87" rx="8" ry="8"/>
</a>
</g>
</g>
<!-- slot_num&#45;&gt;all_advocate_val -->
<g id="edge24" class="edge">
<title>slot_num&#45;&gt;all_advocate_val</title>
<g id="a_edge24"><a xlink:href="43-all_advocate_val.html" xlink:title=" +/&#45;">
<path fill="none" stroke="black" stroke-width="5" d="M139.68,-1248.76C135.15,-1234.37 129.73,-1213.18 129.73,-1194.16 129.73,-1194.16 129.73,-1194.16 129.73,-789.31 129.73,-778.27 129.73,-766.28 129.73,-755.32"/>
<polygon fill="black" stroke="black" stroke-width="5" points="138.48,-754.95 129.73,-734.95 120.98,-754.95 138.48,-754.95"/>
</a>
</g>
<g id="a_edge24&#45;label"><a xlink:href="43-all_advocate_val.html" xlink:title=" +/&#45;">
<text text-anchor="middle" x="142.55" y="-977.83" font-family="Times,serif" font-size="18.00"> +/&#45;</text>
</a>
</g>
</g>
<!-- slot_num&#45;&gt;slot_num -->
<g id="edge26" class="edge">
<title>slot_num&#45;&gt;slot_num</title>
<g id="a_edge26"><a xlink:href="44-slot_num.html" xlink:title=" +/&#45;">
<path fill="none" stroke="black" stroke-width="5" d="M187.44,-1273.57C187.6,-1273.56 187.76,-1273.56 187.91,-1273.55"/>
<polygon fill="black" stroke="black" stroke-width="5" points="187.44,-1260.28 197.15,-1279.95 189.8,-1270.21 190.15,-1280.2 188.16,-1280.27 186.16,-1280.34 185.8,-1270.35 179.16,-1280.59 187.44,-1260.28 187.44,-1260.28"/>
<ellipse fill="none" stroke="black" stroke-width="5" cx="188.44" cy="-1288.27" rx="8" ry="8"/>
</a>
</g>
<g id="a_edge26&#45;label"><a xlink:href="44-slot_num.html" xlink:title=" +/&#45;">
<text text-anchor="middle" x="218.06" y="-1261.53" font-family="Times,serif" font-size="18.00"> +/&#45;</text>
</a>
</g>
</g>
<!-- slot_num&#45;&gt;client_request_temp -->
<g id="edge30" class="edge">
<title>slot_num&#45;&gt;client_request_temp</title>
<g id="a_edge30"><a xlink:href="46-client_request_temp.html">
<path fill="none" stroke="black" stroke-width="5" d="M187.41,-1253.92C224.14,-1243.33 278.49,-1227.66 322.33,-1215.03"/>
<polygon fill="black" stroke="black" stroke-width="5" points="324.83,-1223.41 341.63,-1209.46 319.98,-1206.6 324.83,-1223.41"/>
</a>
</g>
</g>
<!-- client_request_temp&#45;&gt;prepare -->
<g id="edge31" class="edge">
<title>client_request_temp&#45;&gt;prepare</title>
<g id="a_edge31"><a xlink:href="47-prepare.html">
<path fill="none" stroke="black" stroke-width="5" stroke-dasharray="5,2" d="M421.04,-1175.15C434.16,-1166.66 450.33,-1156.21 465.02,-1146.71"/>
<polygon fill="black" stroke="black" stroke-width="5" points="469.84,-1154.01 481.88,-1135.81 460.34,-1139.32 469.84,-1154.01"/>
</a>
</g>
</g>
<!-- agreeing_acceptors&#45;&gt;agreeing_acceptors_for_slot -->
<g id="edge36" class="edge">
<title>agreeing_acceptors&#45;&gt;agreeing_acceptors_for_slot</title>
<g id="a_edge36"><a xlink:href="51-agreeing_acceptors_for_slot.html">
<path fill="none" stroke="black" stroke-width="5" d="M488.73,-698.65C488.73,-693.63 488.73,-687.96 488.73,-682.21"/>
<polygon fill="black" stroke="black" stroke-width="5" points="497.48,-682.16 488.73,-662.16 479.98,-682.16 497.48,-682.16"/>
</a>
</g>
</g>
<!-- max_advocate_val&#45;&gt;accept -->
<g id="edge49" class="edge">
<title>max_advocate_val&#45;&gt;accept</title>
<g id="a_edge49"><a xlink:href="58-accept.html">
<path fill="none" stroke="black" stroke-width="5" stroke-dasharray="5,2" d="M114.83,-570.4C136.49,-525.96 200.31,-407.64 290.73,-349.85 363.19,-303.53 458.35,-271.98 518.03,-255.15"/>
<polygon fill="black" stroke="black" stroke-width="5" points="520.58,-263.52 537.56,-249.8 515.96,-246.64 520.58,-263.52"/>
</a>
</g>
</g>
<!-- agreeing_acceptor_size -->
<g id="node26" class="node">
<title>agreeing_acceptor_size</title>
<g id="a_node26"><a xlink:href="agreeing_acceptor_size.html" xlink:title="agreeing_acceptor_size">
<ellipse fill="none" stroke="black" cx="488.73" cy="-534" rx="130.99" ry="18.27"/>
<text text-anchor="middle" x="488.73" y="-528.6" font-family="Times,serif" font-size="18.00">agreeing_acceptor_size</text>
</a>
</g>
</g>
<!-- agreeing_acceptors_for_slot&#45;&gt;agreeing_acceptor_size -->
<g id="edge38" class="edge">
<title>agreeing_acceptors_for_slot&#45;&gt;agreeing_acceptor_size</title>
<g id="a_edge38"><a xlink:href="52-agreeing_acceptor_size.html">
<path fill="none" stroke="black" stroke-width="5" d="M488.73,-624.78C488.73,-614.76 488.73,-601.65 488.73,-588.56"/>
<polygon fill="black" stroke="black" stroke-width="5" points="488.73,-552.43 497.73,-572.43 490.73,-562.43 490.73,-572.43 488.73,-572.43 486.73,-572.43 486.73,-562.43 479.73,-572.43 488.73,-552.43 488.73,-552.43"/>
<ellipse fill="none" stroke="black" stroke-width="5" cx="488.73" cy="-580.43" rx="8" ry="8"/>
</a>
</g>
</g>
<!-- agreeing_acceptor_size&#45;&gt;accept_sent -->
<g id="edge40" class="edge">
<title>agreeing_acceptor_size&#45;&gt;accept_sent</title>
<g id="a_edge40"><a xlink:href="53-accept_sent.html">
<path fill="none" stroke="black" stroke-width="5" d="M520.96,-516.08C536.93,-507.7 556.59,-497.38 574.48,-487.99"/>
<polygon fill="black" stroke="black" stroke-width="5" points="578.62,-495.7 592.26,-478.66 570.48,-480.21 578.62,-495.7"/>
</a>
</g>
</g>
<!-- agreeing_acceptor_size&#45;&gt;majority -->
<g id="edge44" class="edge">
<title>agreeing_acceptor_size&#45;&gt;majority</title>
<g id="a_edge44"><a xlink:href="57-majority.html">
<path fill="none" stroke="black" stroke-width="5" d="M484.49,-515.35C477.9,-483.72 468.51,-416.26 494.73,-368.85 501.48,-356.65 512.26,-346.64 523.75,-338.69"/>
<polygon fill="black" stroke="black" stroke-width="5" points="528.64,-345.96 541.3,-328.18 519.65,-330.95 528.64,-345.96"/>
</a>
</g>
</g>
<!-- sent_for_slot -->
<g id="node28" class="node">
<title>sent_for_slot</title>
<g id="a_node28"><a xlink:href="sent_for_slot.html" xlink:title="sent_for_slot">
<ellipse fill="none" stroke="black" cx="581.73" cy="-387.23" rx="77.55" ry="18.27"/>
<text text-anchor="middle" x="581.73" y="-381.83" font-family="Times,serif" font-size="18.00">sent_for_slot</text>
</a>
</g>
</g>
<!-- accept_sent&#45;&gt;sent_for_slot -->
<g id="edge42" class="edge">
<title>accept_sent&#45;&gt;sent_for_slot</title>
<g id="a_edge42"><a xlink:href="54-sent_for_slot.html">
<path fill="none" stroke="black" stroke-width="5" d="M614.32,-442.34C613.22,-440.51 612.07,-438.59 610.87,-436.62"/>
<polygon fill="black" stroke="black" stroke-width="5" points="592.19,-405.6 610.22,-418.09 599.06,-413.14 604.22,-421.7 602.51,-422.73 600.8,-423.76 595.64,-415.2 594.8,-427.38 592.19,-405.6 592.19,-405.6"/>
<ellipse fill="none" stroke="black" stroke-width="5" cx="606.64" cy="-429.59" rx="8" ry="8"/>
</a>
</g>
</g>
<!-- sent_for_slot&#45;&gt;majority -->
<g id="edge46" class="edge">
<title>sent_for_slot&#45;&gt;majority</title>
<g id="a_edge46"><a xlink:href="57-majority.html">
<path fill="none" stroke="black" stroke-width="5" d="M580,-368.49C579.51,-363.45 578.95,-357.76 578.39,-352.02"/>
<polygon fill="black" stroke="black" stroke-width="5" points="587.09,-351.06 576.44,-332 569.67,-352.75 587.09,-351.06"/>
</a>
</g>
</g>
<!-- majority&#45;&gt;accept -->
<g id="edge47" class="edge">
<title>majority&#45;&gt;accept</title>
<g id="a_edge47"><a xlink:href="58-accept.html">
<path fill="none" stroke="black" stroke-width="5" stroke-dasharray="5,2" d="M574.73,-294.72C574.73,-289.68 574.73,-283.99 574.73,-278.25"/>
<polygon fill="black" stroke="black" stroke-width="5" points="583.48,-278.23 574.73,-258.23 565.98,-278.23 583.48,-278.23"/>
</a>
</g>
</g>
<!-- S -->
<g id="node31" class="node">
<title>S</title>
<g id="a_node31"><a xlink:href="javascript:advanceTo(-2)" xlink:title="S">
<polygon fill="none" stroke="blue" stroke-width="3" points="432.73,-1391.31 405.73,-1365.31 432.73,-1339.31 459.73,-1365.31 432.73,-1391.31"/>
<text text-anchor="middle" x="432.73" y="-1359.91" font-family="Times,serif" font-size="18.00">S</text>
</a>
</g>
</g>
<!-- T -->
<g id="node32" class="node">
<title>T</title>
<g id="a_node32"><a xlink:href="javascript:advanceTo(0)" xlink:title="T">
<polygon fill="none" stroke="blue" stroke-width="3" points="504.73,-1391.31 477.73,-1365.31 504.73,-1339.31 531.73,-1365.31 504.73,-1391.31"/>
<text text-anchor="middle" x="504.73" y="-1359.91" font-family="Times,serif" font-size="18.00">T</text>
</a>
</g>
</g>
<!-- accepted_to_client -->
<g id="node33" class="node">
<title>accepted_to_client</title>
<ellipse fill="none" stroke="black" cx="656.73" cy="-1365.31" rx="106.95" ry="18.27"/>
<text text-anchor="middle" x="656.73" y="-1359.91" font-family="Times,serif" font-size="18.00">accepted_to_client</text>
</g>
<!-- all_acceptors -->
<g id="node34" class="node">
<title>all_acceptors</title>
<polygon fill="none" stroke="black" points="892.18,-1383.31 781.28,-1383.31 781.28,-1347.31 892.18,-1347.31 892.18,-1383.31"/>
<text text-anchor="middle" x="836.73" y="-1359.91" font-family="Times,serif" font-size="18.00">all_acceptors</text>
</g>
</g>
</svg>
