<?xml version="1.0" encoding="UTF-8" standalone="no"?>
<!DOCTYPE svg PUBLIC "-//W3C//DTD SVG 1.1//EN"
 "http://www.w3.org/Graphics/SVG/1.1/DTD/svg11.dtd">
<!-- Generated by graphviz version 2.43.0 (0)
 -->
<!-- Title: G Pages: 1 -->
<svg width="1322pt" height="1475pt"
 viewBox="0.00 0.00 1322.05 1474.85" xmlns="http://www.w3.org/2000/svg" xmlns:xlink="http://www.w3.org/1999/xlink">
<g id="graph0" class="graph" transform="scale(1 1) rotate(0) translate(4 1470.85)">
<script type='text/javascript'>
  <![CDATA[

var windows = new Array()
var info = new Array()

function openWin(target, time) {
  win = window.open(target + "_" + time + ".html", target, "location=no,width=400,height=180,left=0,status=no");
  // hm, an associative array, how strange.
  info[target] = 1
}

function advanceTo(time) {
  arr = gup("wins").split(",");
  for (i=0; i < arr.length; i++) {
    if (arr[i] != "") {
      openWin(arr[i], time);
    }
  }
  str = '';
  // getting 'key_cols'
  for (var i in info) {
    str = str + ',' + i;
  }
  self.window.location.href = 'tm_' + time + '.svg?wins=' + str;
}

// off the netz
function gup(name) {
  name = name.replace(/[[]/,"\[").replace(/[]]/,"\]");
  var regexS = "[\?&]"+name+"=([^&#]*)";
  var regex = new RegExp(regexS);
  var results = regex.exec(window.location.href);
  if (results == null)
    return "";
  else
    return results[1];
}

  ]]>
</script>

<polygon fill="white" stroke="transparent" points="-4,4 -4,-1470.85 1318.05,-1470.85 1318.05,4 -4,4"/>
<!-- cur_prep -->
<g id="node1" class="node">
<title>cur_prep</title>
<g id="a_node1"><a xlink:href="cur_prep.html" xlink:title="cur_prep">
<ellipse fill="none" stroke="black" cx="759.58" cy="-1011.62" rx="56.59" ry="18.27"/>
<text text-anchor="middle" x="759.58" y="-1006.22" font-family="Times,serif" font-size="18.00">cur_prep</text>
</a>
</g>
</g>
<!-- existing_id -->
<g id="node3" class="node">
<title>existing_id</title>
<g id="a_node3"><a xlink:href="existing_id.html" xlink:title="existing_id">
<ellipse fill="none" stroke="black" cx="626.58" cy="-864.08" rx="67.76" ry="18.27"/>
<text text-anchor="middle" x="626.58" y="-858.68" font-family="Times,serif" font-size="18.00">existing_id</text>
</a>
</g>
</g>
<!-- cur_prep&#45;&gt;existing_id -->
<g id="edge3" class="edge">
<title>cur_prep&#45;&gt;existing_id</title>
<g id="a_edge3"><a xlink:href="24-existing_id.html">
<path fill="none" stroke="black" stroke-width="5" d="M744.06,-993.64C722.55,-970.1 683.26,-927.11 656.08,-897.36"/>
<polygon fill="black" stroke="black" stroke-width="5" points="662.36,-891.26 642.41,-882.4 649.44,-903.07 662.36,-891.26"/>
</a>
</g>
</g>
<!-- existing_val -->
<g id="node5" class="node">
<title>existing_val</title>
<g id="a_node5"><a xlink:href="existing_val.html" xlink:title="existing_val">
<ellipse fill="none" stroke="black" cx="858.58" cy="-18.38" rx="73.56" ry="18.27"/>
<text text-anchor="middle" x="858.58" y="-12.98" font-family="Times,serif" font-size="18.00">existing_val</text>
</a>
</g>
</g>
<!-- cur_prep&#45;&gt;existing_val -->
<g id="edge5" class="edge">
<title>cur_prep&#45;&gt;existing_val</title>
<g id="a_edge5"><a xlink:href="25-existing_val.html">
<path fill="none" stroke="black" stroke-width="5" d="M784.07,-994.8C841.61,-955.49 980.58,-847.18 980.58,-717.93 980.58,-717.93 980.58,-717.93 980.58,-91.15 980.58,-64.69 958.98,-47.79 933.96,-37.09"/>
<polygon fill="black" stroke="black" stroke-width="5" points="936.72,-28.78 914.94,-30.2 930.77,-45.24 936.72,-28.78"/>
</a>
</g>
</g>
<!-- prepare -->
<g id="node2" class="node">
<title>prepare</title>
<g id="a_node2"><a xlink:href="prepare.html" xlink:title="prepare">
<ellipse fill="none" stroke="black" cx="674.58" cy="-1121.16" rx="49.43" ry="18.27"/>
<text text-anchor="middle" x="674.58" y="-1115.76" font-family="Times,serif" font-size="18.00">prepare</text>
</a>
</g>
</g>
<!-- prepare&#45;&gt;cur_prep -->
<g id="edge1" class="edge">
<title>prepare&#45;&gt;cur_prep</title>
<g id="a_edge1"><a xlink:href="22-cur_prep.html">
<path fill="none" stroke="black" stroke-width="5" d="M687.86,-1103.36C700.08,-1087.9 718.54,-1064.55 733.67,-1045.4"/>
<polygon fill="black" stroke="black" stroke-width="5" points="740.57,-1050.78 746.11,-1029.66 726.84,-1039.92 740.57,-1050.78"/>
</a>
</g>
</g>
<!-- all_promise_id -->
<g id="node7" class="node">
<title>all_promise_id</title>
<g id="a_node7"><a xlink:href="all_promise_id.html" xlink:title="all_promise_id">
<polygon fill="none" stroke="black" points="637.56,-1029.62 513.6,-1029.62 513.6,-993.62 637.56,-993.62 637.56,-1029.62"/>
<text text-anchor="middle" x="575.58" y="-1006.22" font-family="Times,serif" font-size="18.00">all_promise_id</text>
</a>
</g>
</g>
<!-- prepare&#45;&gt;all_promise_id -->
<g id="edge6" class="edge">
<title>prepare&#45;&gt;all_promise_id</title>
<g id="a_edge6"><a xlink:href="26-all_promise_id.html" xlink:title=" +/&#45;">
<path fill="none" stroke="black" stroke-width="5" d="M655.47,-1104.17C648.77,-1098.28 641.32,-1091.43 634.93,-1084.77 623.19,-1072.55 611.14,-1058.28 601,-1045.68"/>
<polygon fill="black" stroke="black" stroke-width="5" points="607.8,-1040.17 588.55,-1029.86 594.05,-1050.99 607.8,-1040.17"/>
</a>
</g>
<g id="a_edge6&#45;label"><a xlink:href="26-all_promise_id.html" xlink:title=" +/&#45;">
<text text-anchor="middle" x="647.4" y="-1060.99" font-family="Times,serif" font-size="18.00"> +/&#45;</text>
</a>
</g>
</g>
<!-- promise -->
<g id="node8" class="node">
<title>promise</title>
<g id="a_node8"><a xlink:href="promise.html" xlink:title="promise">
<ellipse fill="none" stroke="black" cx="626.58" cy="-790.31" rx="52.14" ry="18.27"/>
<text text-anchor="middle" x="626.58" y="-784.91" font-family="Times,serif" font-size="18.00">promise</text>
</a>
</g>
</g>
<!-- prepare&#45;&gt;promise -->
<g id="edge8" class="edge">
<title>prepare&#45;&gt;promise</title>
<g id="a_edge8"><a xlink:href="28-promise.html">
<path fill="none" stroke="black" stroke-width="5" stroke-dasharray="5,2" d="M677.46,-1102.63C683.75,-1063.36 698.55,-965.25 703.58,-882.47 704.57,-866.15 711.09,-860.21 703.58,-845.7 697.28,-833.54 686.87,-823.52 675.72,-815.53"/>
<polygon fill="black" stroke="black" stroke-width="5" points="680.26,-808.05 658.64,-804.97 671.05,-822.94 680.26,-808.05"/>
</a>
</g>
</g>
<!-- existing_id&#45;&gt;promise -->
<g id="edge12" class="edge">
<title>existing_id&#45;&gt;promise</title>
<g id="a_edge12"><a xlink:href="30-promise.html">
<path fill="none" stroke="black" stroke-width="5" stroke-dasharray="5,2" d="M626.58,-845.34C626.58,-840.3 626.58,-834.61 626.58,-828.86"/>
<polygon fill="black" stroke="black" stroke-width="5" points="635.33,-828.85 626.58,-808.85 617.83,-828.85 635.33,-828.85"/>
</a>
</g>
</g>
<!-- max_promise_id -->
<g id="node4" class="node">
<title>max_promise_id</title>
<g id="a_node4"><a xlink:href="max_promise_id.html" xlink:title="max_promise_id">
<ellipse fill="none" stroke="black" cx="545.58" cy="-937.85" rx="96.72" ry="18.27"/>
<text text-anchor="middle" x="545.58" y="-932.45" font-family="Times,serif" font-size="18.00">max_promise_id</text>
</a>
</g>
</g>
<!-- max_promise_id&#45;&gt;existing_id -->
<g id="edge2" class="edge">
<title>max_promise_id&#45;&gt;existing_id</title>
<g id="a_edge2"><a xlink:href="24-existing_id.html">
<path fill="none" stroke="black" stroke-width="5" d="M565.19,-919.48C569.93,-915.27 575.2,-910.6 580.61,-905.81"/>
<polygon fill="black" stroke="black" stroke-width="5" points="607.71,-881.8 598.71,-901.8 601.55,-889.93 594.07,-896.56 592.74,-895.06 591.41,-893.57 598.9,-886.93 586.77,-888.33 607.71,-881.8 607.71,-881.8"/>
<ellipse fill="none" stroke="black" stroke-width="5" cx="586.75" cy="-900.37" rx="8" ry="8"/>
</a>
</g>
</g>
<!-- max_promise_id&#45;&gt;promise -->
<g id="edge9" class="edge">
<title>max_promise_id&#45;&gt;promise</title>
<g id="a_edge9"><a xlink:href="28-promise.html">
<path fill="none" stroke="black" stroke-width="5" stroke-dasharray="5,2" d="M541.99,-919.18C539.01,-899.87 537.05,-868.63 549.58,-845.7 556.14,-833.68 566.64,-823.71 577.8,-815.73"/>
<polygon fill="black" stroke="black" stroke-width="5" points="582.46,-823.13 594.82,-805.14 573.22,-808.27 582.46,-823.13"/>
</a>
</g>
</g>
<!-- accepted -->
<g id="node11" class="node">
<title>accepted</title>
<g id="a_node11"><a xlink:href="accepted.html" xlink:title="accepted">
<ellipse fill="none" stroke="black" cx="326.58" cy="-165.92" rx="55.65" ry="18.27"/>
<text text-anchor="middle" x="326.58" y="-160.52" font-family="Times,serif" font-size="18.00">accepted</text>
</a>
</g>
</g>
<!-- max_promise_id&#45;&gt;accepted -->
<g id="edge16" class="edge">
<title>max_promise_id&#45;&gt;accepted</title>
<g id="a_edge16"><a xlink:href="34-accepted.html">
<path fill="none" stroke="black" stroke-width="5" stroke-dasharray="5,2" d="M472.89,-925.64C413.24,-914.33 338.58,-894.32 338.58,-865.08 338.58,-865.08 338.58,-865.08 338.58,-533 338.58,-412.98 332.06,-270.94 328.63,-204.59"/>
<polygon fill="black" stroke="black" stroke-width="5" points="337.36,-203.95 327.56,-184.44 319.88,-204.88 337.36,-203.95"/>
</a>
</g>
</g>
<!-- existing_val&#45;&gt;promise -->
<g id="edge11" class="edge">
<title>existing_val&#45;&gt;promise</title>
<g id="a_edge11"><a xlink:href="29-promise.html">
<path fill="none" stroke="black" stroke-width="5" stroke-dasharray="5,2" d="M810.72,-32.37C789.97,-40.63 767.69,-53.68 755.58,-73.77 747.14,-87.77 754.68,-94.22 755.58,-110.54 777.3,-503.51 852.2,-668.92 801.58,-734.93 777.54,-766.27 735.65,-780 698.88,-785.84"/>
<polygon fill="black" stroke="black" stroke-width="5" points="697.6,-777.18 678.85,-788.35 699.78,-794.54 697.6,-777.18"/>
</a>
</g>
</g>
<!-- max_accept_val -->
<g id="node6" class="node">
<title>max_accept_val</title>
<g id="a_node6"><a xlink:href="max_accept_val.html" xlink:title="max_accept_val">
<ellipse fill="none" stroke="black" cx="858.58" cy="-92.15" rx="94" ry="18.27"/>
<text text-anchor="middle" x="858.58" y="-86.75" font-family="Times,serif" font-size="18.00">max_accept_val</text>
</a>
</g>
</g>
<!-- max_accept_val&#45;&gt;existing_val -->
<g id="edge4" class="edge">
<title>max_accept_val&#45;&gt;existing_val</title>
<g id="a_edge4"><a xlink:href="25-existing_val.html">
<path fill="none" stroke="black" stroke-width="5" d="M858.58,-73.41C858.58,-73.33 858.58,-73.24 858.58,-73.15"/>
<polygon fill="black" stroke="black" stroke-width="5" points="858.58,-36.92 867.58,-56.92 860.58,-46.92 860.58,-56.92 858.58,-56.92 856.58,-56.92 856.58,-46.92 849.58,-56.92 858.58,-36.92 858.58,-36.92"/>
<ellipse fill="none" stroke="black" stroke-width="5" cx="858.58" cy="-64.92" rx="8" ry="8"/>
</a>
</g>
</g>
<!-- max_accept_val&#45;&gt;promise -->
<g id="edge10" class="edge">
<title>max_accept_val&#45;&gt;promise</title>
<g id="a_edge10"><a xlink:href="28-promise.html">
<path fill="none" stroke="black" stroke-width="5" stroke-dasharray="5,2" d="M858.58,-110.56C858.58,-125.09 858.58,-146.36 858.58,-164.92 858.58,-717.93 858.58,-717.93 858.58,-717.93 858.58,-737.16 850.71,-743.46 834.58,-753.93 812.25,-768.42 748.23,-777.86 697.06,-783.31"/>
<polygon fill="black" stroke="black" stroke-width="5" points="696.16,-774.61 677.13,-785.31 697.9,-792.02 696.16,-774.61"/>
</a>
</g>
</g>
<!-- all_promise_id&#45;&gt;max_promise_id -->
<g id="edge7" class="edge">
<title>all_promise_id&#45;&gt;max_promise_id</title>
<g id="a_edge7"><a xlink:href="27-max_promise_id.html">
<path fill="none" stroke="black" stroke-width="5" d="M568.47,-993.61C567.92,-992.29 567.34,-990.92 566.76,-989.52"/>
<polygon fill="black" stroke="black" stroke-width="5" points="552.85,-956.23 568.86,-971.22 558.55,-964.69 562.4,-973.92 560.56,-974.69 558.71,-975.46 554.86,-966.23 552.26,-978.16 552.85,-956.23 552.85,-956.23"/>
<ellipse fill="none" stroke="black" stroke-width="5" cx="563.64" cy="-982.07" rx="8" ry="8"/>
</a>
</g>
</g>
<!-- all_advocate_val -->
<g id="node29" class="node">
<title>all_advocate_val</title>
<g id="a_node29"><a xlink:href="all_advocate_val.html" xlink:title="all_advocate_val">
<polygon fill="none" stroke="black" points="792.52,-734.93 654.64,-734.93 654.64,-698.93 792.52,-698.93 792.52,-734.93"/>
<text text-anchor="middle" x="723.58" y="-711.53" font-family="Times,serif" font-size="18.00">all_advocate_val</text>
</a>
</g>
</g>
<!-- promise&#45;&gt;all_advocate_val -->
<g id="edge42" class="edge">
<title>promise&#45;&gt;all_advocate_val</title>
<g id="a_edge42"><a xlink:href="58-all_advocate_val.html">
<path fill="none" stroke="black" stroke-width="5" d="M648.11,-773.47C658.65,-765.71 671.69,-756.11 683.95,-747.09"/>
<polygon fill="black" stroke="black" stroke-width="5" points="689.5,-753.87 700.42,-734.97 679.12,-739.78 689.5,-753.87"/>
</a>
</g>
</g>
<!-- agreeing_acceptors -->
<g id="node30" class="node">
<title>agreeing_acceptors</title>
<g id="a_node30"><a xlink:href="agreeing_acceptors.html" xlink:title="agreeing_acceptors">
<polygon fill="none" stroke="black" points="599,-734.93 444.16,-734.93 444.16,-698.93 599,-698.93 599,-734.93"/>
<text text-anchor="middle" x="521.58" y="-711.53" font-family="Times,serif" font-size="18.00">agreeing_acceptors</text>
</a>
</g>
</g>
<!-- promise&#45;&gt;agreeing_acceptors -->
<g id="edge41" class="edge">
<title>promise&#45;&gt;agreeing_acceptors</title>
<g id="a_edge41"><a xlink:href="57-agreeing_acceptors.html">
<path fill="none" stroke="black" stroke-width="5" d="M603.54,-773.65C591.87,-765.71 577.33,-755.83 563.75,-746.59"/>
<polygon fill="black" stroke="black" stroke-width="5" points="568.23,-739.06 546.77,-735.05 558.39,-753.53 568.23,-739.06"/>
</a>
</g>
</g>
<!-- agreeing_acceptors_for_slot -->
<g id="node32" class="node">
<title>agreeing_acceptors_for_slot</title>
<g id="a_node32"><a xlink:href="agreeing_acceptors_for_slot.html" xlink:title="agreeing_acceptors_for_slot">
<ellipse fill="none" stroke="black" cx="598.58" cy="-643.54" rx="155.51" ry="18.27"/>
<text text-anchor="middle" x="598.58" y="-638.14" font-family="Times,serif" font-size="18.00">agreeing_acceptors_for_slot</text>
</a>
</g>
</g>
<!-- promise&#45;&gt;agreeing_acceptors_for_slot -->
<g id="edge45" class="edge">
<title>promise&#45;&gt;agreeing_acceptors_for_slot</title>
<g id="a_edge45"><a xlink:href="60-agreeing_acceptors_for_slot.html">
<path fill="none" stroke="black" stroke-width="5" d="M623.2,-771.85C618.91,-749.67 611.4,-710.82 605.79,-681.85"/>
<polygon fill="black" stroke="black" stroke-width="5" points="614.36,-680.04 601.97,-662.07 597.18,-683.36 614.36,-680.04"/>
</a>
</g>
</g>
<!-- accept_sent -->
<g id="node34" class="node">
<title>accept_sent</title>
<g id="a_node34"><a xlink:href="accept_sent.html" xlink:title="accept_sent">
<polygon fill="none" stroke="black" points="518.53,-478.62 418.63,-478.62 418.63,-442.62 518.53,-442.62 518.53,-478.62"/>
<text text-anchor="middle" x="468.58" y="-455.22" font-family="Times,serif" font-size="18.00">accept_sent</text>
</a>
</g>
</g>
<!-- promise&#45;&gt;accept_sent -->
<g id="edge49" class="edge">
<title>promise&#45;&gt;accept_sent</title>
<g id="a_edge49"><a xlink:href="62-accept_sent.html">
<path fill="none" stroke="black" stroke-width="5" d="M578.47,-782.93C515.92,-773.26 414.58,-752.3 414.58,-717.93 414.58,-717.93 414.58,-717.93 414.58,-533 414.58,-518.11 422.15,-504.36 431.62,-492.99"/>
<polygon fill="black" stroke="black" stroke-width="5" points="437.94,-499.04 445.68,-478.63 425.43,-486.8 437.94,-499.04"/>
</a>
</g>
</g>
<!-- majority -->
<g id="node36" class="node">
<title>majority</title>
<g id="a_node36"><a xlink:href="majority.html" xlink:title="majority">
<ellipse fill="none" stroke="black" cx="445.58" cy="-313.46" rx="54.38" ry="18.27"/>
<text text-anchor="middle" x="445.58" y="-308.06" font-family="Times,serif" font-size="18.00">majority</text>
</a>
</g>
</g>
<!-- promise&#45;&gt;majority -->
<g id="edge53" class="edge">
<title>promise&#45;&gt;majority</title>
<g id="a_edge53"><a xlink:href="64-majority.html">
<path fill="none" stroke="black" stroke-width="5" d="M576.29,-785.19C503.28,-777.8 376.58,-759.06 376.58,-717.93 376.58,-717.93 376.58,-717.93 376.58,-386.23 376.58,-368.34 387.86,-353.19 401.29,-341.48"/>
<polygon fill="black" stroke="black" stroke-width="5" points="406.73,-348.34 417.51,-329.36 396.25,-334.32 406.73,-348.34"/>
</a>
</g>
</g>
<!-- all_accept_val -->
<g id="node9" class="node">
<title>all_accept_val</title>
<g id="a_node9"><a xlink:href="all_accept_val.html" xlink:title="all_accept_val">
<polygon fill="none" stroke="black" points="633.52,-183.92 513.64,-183.92 513.64,-147.92 633.52,-147.92 633.52,-183.92"/>
<text text-anchor="middle" x="573.58" y="-160.52" font-family="Times,serif" font-size="18.00">all_accept_val</text>
</a>
</g>
</g>
<!-- all_accept_val&#45;&gt;max_accept_val -->
<g id="edge14" class="edge">
<title>all_accept_val&#45;&gt;max_accept_val</title>
<g id="a_edge14"><a xlink:href="32-max_accept_val.html">
<path fill="none" stroke="black" stroke-width="5" d="M633.67,-149.79C672.74,-139.95 724.41,-126.94 768.37,-115.87"/>
<polygon fill="black" stroke="black" stroke-width="5" points="803.4,-107.05 786.2,-120.66 794.19,-111.43 784.49,-113.87 784,-111.93 783.51,-109.99 793.21,-107.55 781.81,-103.21 803.4,-107.05 803.4,-107.05"/>
<ellipse fill="none" stroke="black" stroke-width="5" cx="776.25" cy="-113.89" rx="8" ry="8"/>
</a>
</g>
</g>
<!-- accept -->
<g id="node10" class="node">
<title>accept</title>
<g id="a_node10"><a xlink:href="accept.html" xlink:title="accept">
<ellipse fill="none" stroke="black" cx="445.58" cy="-239.69" rx="43.62" ry="18.27"/>
<text text-anchor="middle" x="445.58" y="-234.29" font-family="Times,serif" font-size="18.00">accept</text>
</a>
</g>
</g>
<!-- accept&#45;&gt;all_accept_val -->
<g id="edge13" class="edge">
<title>accept&#45;&gt;all_accept_val</title>
<g id="a_edge13"><a xlink:href="31-all_accept_val.html">
<path fill="none" stroke="black" stroke-width="5" d="M470.87,-224.51C486.39,-215.81 506.77,-204.38 525.28,-194"/>
<polygon fill="black" stroke="black" stroke-width="5" points="529.76,-201.53 542.92,-184.11 521.2,-186.26 529.76,-201.53"/>
</a>
</g>
</g>
<!-- accept&#45;&gt;accepted -->
<g id="edge15" class="edge">
<title>accept&#45;&gt;accepted</title>
<g id="a_edge15"><a xlink:href="34-accepted.html">
<path fill="none" stroke="black" stroke-width="5" stroke-dasharray="5,2" d="M421.5,-224.17C406.58,-215.17 386.99,-203.36 369.48,-192.8"/>
<polygon fill="black" stroke="black" stroke-width="5" points="373.92,-185.26 352.27,-182.42 364.88,-200.24 373.92,-185.26"/>
</a>
</g>
</g>
<!-- accepted_to_proposer -->
<g id="node27" class="node">
<title>accepted_to_proposer</title>
<g id="a_node27"><a xlink:href="accepted_to_proposer.html" xlink:title="accepted_to_proposer">
<ellipse fill="none" stroke="black" cx="277.58" cy="-92.15" rx="122.98" ry="18.27"/>
<text text-anchor="middle" x="277.58" y="-86.75" font-family="Times,serif" font-size="18.00">accepted_to_proposer</text>
</a>
</g>
</g>
<!-- accepted&#45;&gt;accepted_to_proposer -->
<g id="edge58" class="edge">
<title>accepted&#45;&gt;accepted_to_proposer</title>
<g id="a_edge58"><a xlink:href="68-accepted_to_proposer.html">
<path fill="none" stroke="black" stroke-width="5" stroke-dasharray="5,2" d="M314.97,-147.92C310.7,-141.66 305.7,-134.34 300.77,-127.12"/>
<polygon fill="black" stroke="black" stroke-width="5" points="307.95,-122.12 289.45,-110.54 293.5,-131.99 307.95,-122.12"/>
</a>
</g>
</g>
<!-- learnerlist -->
<g id="node12" class="node">
<title>learnerlist</title>
<g id="a_node12"><a xlink:href="learnerlist.html" xlink:title="learnerlist">
<polygon fill="none" stroke="black" points="136.54,-110.15 48.61,-110.15 48.61,-74.15 136.54,-74.15 136.54,-110.15"/>
<text text-anchor="middle" x="92.58" y="-86.75" font-family="Times,serif" font-size="18.00">learnerlist</text>
</a>
</g>
</g>
<!-- accepted_to_learner -->
<g id="node26" class="node">
<title>accepted_to_learner</title>
<g id="a_node26"><a xlink:href="accepted_to_learner.html" xlink:title="accepted_to_learner">
<ellipse fill="none" stroke="black" cx="185.58" cy="-18.38" rx="113.55" ry="18.27"/>
<text text-anchor="middle" x="185.58" y="-12.98" font-family="Times,serif" font-size="18.00">accepted_to_learner</text>
</a>
</g>
</g>
<!-- learnerlist&#45;&gt;accepted_to_learner -->
<g id="edge34" class="edge">
<title>learnerlist&#45;&gt;accepted_to_learner</title>
<g id="a_edge34"><a xlink:href="51-accepted_to_learner.html">
<path fill="none" stroke="black" stroke-width="5" stroke-dasharray="5,2" d="M114.62,-74.15C124.39,-66.6 136.18,-57.51 147.32,-48.91"/>
<polygon fill="black" stroke="black" stroke-width="5" points="152.89,-55.67 163.37,-36.52 142.2,-41.81 152.89,-55.67"/>
</a>
</g>
</g>
<!-- connect_learner -->
<g id="node13" class="node">
<title>connect_learner</title>
<ellipse fill="none" stroke="black" cx="92.58" cy="-165.92" rx="92.66" ry="18.27"/>
<text text-anchor="middle" x="92.58" y="-160.52" font-family="Times,serif" font-size="18.00">connect_learner</text>
</g>
<!-- connect_learner&#45;&gt;learnerlist -->
<g id="edge17" class="edge">
<title>connect_learner&#45;&gt;learnerlist</title>
<g id="a_edge17"><a xlink:href="39-learnerlist.html">
<path fill="none" stroke="black" stroke-width="5" d="M92.58,-147.18C92.58,-142.07 92.58,-136.28 92.58,-130.45"/>
<polygon fill="black" stroke="black" stroke-width="5" points="101.33,-130.2 92.58,-110.2 83.83,-130.2 101.33,-130.2"/>
</a>
</g>
</g>
<!-- nodelist -->
<g id="node14" class="node">
<title>nodelist</title>
<g id="a_node14"><a xlink:href="nodelist.html" xlink:title="nodelist">
<polygon fill="none" stroke="black" points="329.08,-1212.93 256.08,-1212.93 256.08,-1176.93 329.08,-1176.93 329.08,-1212.93"/>
<text text-anchor="middle" x="292.58" y="-1189.53" font-family="Times,serif" font-size="18.00">nodelist</text>
</a>
</g>
</g>
<!-- nodelist&#45;&gt;prepare -->
<g id="edge40" class="edge">
<title>nodelist&#45;&gt;prepare</title>
<g id="a_edge40"><a xlink:href="56-prepare.html">
<path fill="none" stroke="black" stroke-width="5" stroke-dasharray="5,2" d="M329.21,-1187.05C394.33,-1174.81 530.97,-1149.14 611.49,-1134.01"/>
<polygon fill="black" stroke="black" stroke-width="5" points="613.36,-1142.56 631.4,-1130.27 610.13,-1125.36 613.36,-1142.56"/>
</a>
</g>
</g>
<!-- nodelist&#45;&gt;accept -->
<g id="edge56" class="edge">
<title>nodelist&#45;&gt;accept</title>
<g id="a_edge56"><a xlink:href="67-accept.html">
<path fill="none" stroke="black" stroke-width="5" stroke-dasharray="5,2" d="M255.88,-1191.84C182.06,-1186.64 22.58,-1169.87 22.58,-1122.16 22.58,-1122.16 22.58,-1122.16 22.58,-312.46 22.58,-276.4 264.65,-253.83 382.54,-244.97"/>
<polygon fill="black" stroke="black" stroke-width="5" points="383.38,-253.69 402.69,-243.5 382.11,-236.23 383.38,-253.69"/>
</a>
</g>
</g>
<!-- num_acceptors -->
<g id="node19" class="node">
<title>num_acceptors</title>
<g id="a_node19"><a xlink:href="num_acceptors.html" xlink:title="num_acceptors">
<ellipse fill="none" stroke="black" cx="222.58" cy="-534" rx="88.22" ry="18.27"/>
<text text-anchor="middle" x="222.58" y="-528.6" font-family="Times,serif" font-size="18.00">num_acceptors</text>
</a>
</g>
</g>
<!-- nodelist&#45;&gt;num_acceptors -->
<g id="edge22" class="edge">
<title>nodelist&#45;&gt;num_acceptors</title>
<g id="a_edge22"><a xlink:href="43-num_acceptors.html">
<path fill="none" stroke="black" stroke-width="5" d="M295.56,-1176.88C297.83,-1162.37 300.58,-1140.96 300.58,-1122.16 300.58,-1122.16 300.58,-1122.16 300.58,-642.54 300.58,-618.01 287.12,-595.31 271.38,-577.14"/>
<polygon fill="black" stroke="black" stroke-width="5" points="245.56,-552.03 266.17,-559.52 254.12,-557.57 261.29,-564.54 259.9,-565.97 258.5,-567.41 251.33,-560.44 253.62,-572.43 245.56,-552.03 245.56,-552.03"/>
<ellipse fill="none" stroke="black" stroke-width="5" cx="265.63" cy="-571.55" rx="8" ry="8"/>
</a>
</g>
</g>
<!-- acceptors_group_zero -->
<g id="node28" class="node">
<title>acceptors_group_zero</title>
<g id="a_node28"><a xlink:href="acceptors_group_zero.html" xlink:title="acceptors_group_zero">
<ellipse fill="none" stroke="black" cx="161.58" cy="-1066.39" rx="123.88" ry="18.27"/>
<text text-anchor="middle" x="161.58" y="-1060.99" font-family="Times,serif" font-size="18.00">acceptors_group_zero</text>
</a>
</g>
</g>
<!-- nodelist&#45;&gt;acceptors_group_zero -->
<g id="edge36" class="edge">
<title>nodelist&#45;&gt;acceptors_group_zero</title>
<g id="a_edge36"><a xlink:href="53-acceptors_group_zero.html">
<path fill="none" stroke="black" stroke-width="5" d="M274.91,-1176.86C254.21,-1156.86 219.48,-1123.32 193.91,-1098.62"/>
<polygon fill="black" stroke="black" stroke-width="5" points="199.85,-1092.19 179.38,-1084.59 187.69,-1104.78 199.85,-1092.19"/>
</a>
</g>
</g>
<!-- connect -->
<g id="node15" class="node">
<title>connect</title>
<ellipse fill="none" stroke="black" cx="343.58" cy="-1342.47" rx="50.78" ry="18.27"/>
<text text-anchor="middle" x="343.58" y="-1337.07" font-family="Times,serif" font-size="18.00">connect</text>
</g>
<!-- connect&#45;&gt;nodelist -->
<g id="edge18" class="edge">
<title>connect&#45;&gt;nodelist</title>
<g id="a_edge18"><a xlink:href="40-nodelist.html">
<path fill="none" stroke="black" stroke-width="5" d="M327.72,-1324.74C319.1,-1314.63 309.1,-1301.03 303.58,-1287.08 296.84,-1270.08 293.94,-1250.01 292.78,-1233.04"/>
<polygon fill="black" stroke="black" stroke-width="5" points="301.52,-1232.71 292.09,-1213.02 284.03,-1233.31 301.52,-1232.71"/>
</a>
</g>
</g>
<!-- acceptor_to_proxy -->
<g id="node18" class="node">
<title>acceptor_to_proxy</title>
<g id="a_node18"><a xlink:href="acceptor_to_proxy.html" xlink:title="acceptor_to_proxy">
<ellipse fill="none" stroke="black" cx="419.58" cy="-1268.7" rx="106.97" ry="18.27"/>
<text text-anchor="middle" x="419.58" y="-1263.3" font-family="Times,serif" font-size="18.00">acceptor_to_proxy</text>
</a>
</g>
</g>
<!-- connect&#45;&gt;acceptor_to_proxy -->
<g id="edge20" class="edge">
<title>connect&#45;&gt;acceptor_to_proxy</title>
<g id="a_edge20"><a xlink:href="42-acceptor_to_proxy.html">
<path fill="none" stroke="black" stroke-width="5" stroke-dasharray="5,2" d="M361.21,-1324.82C368.71,-1317.73 377.73,-1309.22 386.41,-1301.02"/>
<polygon fill="black" stroke="black" stroke-width="5" points="392.72,-1307.1 401.25,-1287 380.71,-1294.37 392.72,-1307.1"/>
</a>
</g>
</g>
<!-- proxylist -->
<g id="node16" class="node">
<title>proxylist</title>
<g id="a_node16"><a xlink:href="proxylist.html" xlink:title="proxylist">
<polygon fill="none" stroke="black" points="505.58,-1360.47 425.58,-1360.47 425.58,-1324.47 505.58,-1324.47 505.58,-1360.47"/>
<text text-anchor="middle" x="465.58" y="-1337.07" font-family="Times,serif" font-size="18.00">proxylist</text>
</a>
</g>
</g>
<!-- proxylist&#45;&gt;acceptor_to_proxy -->
<g id="edge21" class="edge">
<title>proxylist&#45;&gt;acceptor_to_proxy</title>
<g id="a_edge21"><a xlink:href="42-acceptor_to_proxy.html">
<path fill="none" stroke="black" stroke-width="5" stroke-dasharray="5,2" d="M454.68,-1324.46C450.73,-1318.29 446.11,-1311.09 441.54,-1303.97"/>
<polygon fill="black" stroke="black" stroke-width="5" points="448.88,-1299.2 430.72,-1287.08 434.15,-1308.64 448.88,-1299.2"/>
</a>
</g>
</g>
<!-- prepare_to_proxy -->
<g id="node25" class="node">
<title>prepare_to_proxy</title>
<g id="a_node25"><a xlink:href="prepare_to_proxy.html" xlink:title="prepare_to_proxy">
<ellipse fill="none" stroke="black" cx="694.58" cy="-1194.93" rx="101.58" ry="18.27"/>
<text text-anchor="middle" x="694.58" y="-1189.53" font-family="Times,serif" font-size="18.00">prepare_to_proxy</text>
</a>
</g>
</g>
<!-- proxylist&#45;&gt;prepare_to_proxy -->
<g id="edge32" class="edge">
<title>proxylist&#45;&gt;prepare_to_proxy</title>
<g id="a_edge32"><a xlink:href="50-prepare_to_proxy.html">
<path fill="none" stroke="black" stroke-width="5" stroke-dasharray="5,2" d="M488.78,-1324.44C502.65,-1314.01 520.47,-1300.19 535.58,-1287.08 553.33,-1271.68 554.13,-1263.5 573.58,-1250.31 591.38,-1238.25 612.29,-1227.75 631.68,-1219.28"/>
<polygon fill="black" stroke="black" stroke-width="5" points="635.28,-1227.26 650.39,-1211.5 628.56,-1211.1 635.28,-1227.26"/>
</a>
</g>
</g>
<!-- connect_proxy -->
<g id="node17" class="node">
<title>connect_proxy</title>
<ellipse fill="none" stroke="black" cx="465.58" cy="-1440.85" rx="86.9" ry="18.27"/>
<text text-anchor="middle" x="465.58" y="-1435.45" font-family="Times,serif" font-size="18.00">connect_proxy</text>
</g>
<!-- connect_proxy&#45;&gt;proxylist -->
<g id="edge19" class="edge">
<title>connect_proxy&#45;&gt;proxylist</title>
<g id="a_edge19"><a xlink:href="41-proxylist.html">
<path fill="none" stroke="black" stroke-width="5" d="M465.58,-1422.17C465.58,-1410.62 465.58,-1395.09 465.58,-1380.89"/>
<polygon fill="black" stroke="black" stroke-width="5" points="474.33,-1380.71 465.58,-1360.71 456.83,-1380.71 474.33,-1380.71"/>
</a>
</g>
</g>
<!-- acceptor_to_proxy&#45;&gt;nodelist -->
<g id="edge35" class="edge">
<title>acceptor_to_proxy&#45;&gt;nodelist</title>
<g id="a_edge35"><a xlink:href="52-nodelist.html">
<path fill="none" stroke="black" stroke-width="5" d="M389.8,-1250.87C375.13,-1242.58 357.07,-1232.37 340.52,-1223.02"/>
<polygon fill="black" stroke="black" stroke-width="5" points="344.77,-1215.37 323.05,-1213.15 336.16,-1230.61 344.77,-1215.37"/>
</a>
</g>
</g>
<!-- num_acceptors&#45;&gt;accepted_to_proposer -->
<g id="edge59" class="edge">
<title>num_acceptors&#45;&gt;accepted_to_proposer</title>
<g id="a_edge59"><a xlink:href="68-accepted_to_proposer.html">
<path fill="none" stroke="black" stroke-width="5" stroke-dasharray="5,2" d="M226.42,-515.5C229.24,-501.1 232.58,-480.14 232.58,-461.62 232.58,-461.62 232.58,-461.62 232.58,-164.92 232.58,-151.12 238.63,-137.8 246.29,-126.45"/>
<polygon fill="black" stroke="black" stroke-width="5" points="253.4,-131.56 259.02,-110.47 239.71,-120.66 253.4,-131.56"/>
</a>
</g>
</g>
<!-- num_acceptors&#45;&gt;accept_sent -->
<g id="edge47" class="edge">
<title>num_acceptors&#45;&gt;accept_sent</title>
<g id="a_edge47"><a xlink:href="62-accept_sent.html">
<path fill="none" stroke="black" stroke-width="5" d="M271.77,-518.73C308.2,-508.16 358.33,-493.61 398.88,-481.84"/>
<polygon fill="black" stroke="black" stroke-width="5" points="401.44,-490.21 418.21,-476.23 396.56,-473.4 401.44,-490.21"/>
</a>
</g>
</g>
<!-- num_acceptors&#45;&gt;majority -->
<g id="edge51" class="edge">
<title>num_acceptors&#45;&gt;majority</title>
<g id="a_edge51"><a xlink:href="64-majority.html">
<path fill="none" stroke="black" stroke-width="5" d="M234.48,-515.64C262.64,-474.94 333.37,-374.96 365.58,-349.85 372.78,-344.23 381.01,-339.3 389.39,-335.05"/>
<polygon fill="black" stroke="black" stroke-width="5" points="393.01,-343.01 407.63,-326.8 385.81,-327.07 393.01,-343.01"/>
</a>
</g>
</g>
<!-- clientlist -->
<g id="node20" class="node">
<title>clientlist</title>
<g id="a_node20"><a xlink:href="clientlist.html" xlink:title="clientlist">
<polygon fill="none" stroke="black" points="978.57,-1360.47 900.59,-1360.47 900.59,-1324.47 978.57,-1324.47 978.57,-1360.47"/>
<text text-anchor="middle" x="939.58" y="-1337.07" font-family="Times,serif" font-size="18.00">clientlist</text>
</a>
</g>
</g>
<!-- client_request -->
<g id="node21" class="node">
<title>client_request</title>
<ellipse fill="none" stroke="black" cx="726.58" cy="-1440.85" rx="82.91" ry="18.27"/>
<text text-anchor="middle" x="726.58" y="-1435.45" font-family="Times,serif" font-size="18.00">client_request</text>
</g>
<!-- client_request&#45;&gt;clientlist -->
<g id="edge23" class="edge">
<title>client_request&#45;&gt;clientlist</title>
<g id="a_edge23"><a xlink:href="44-clientlist.html">
<path fill="none" stroke="black" stroke-width="5" d="M761.27,-1424.15C794.33,-1409.2 844.65,-1386.42 883.41,-1368.88"/>
<polygon fill="black" stroke="black" stroke-width="5" points="887.05,-1376.84 901.66,-1360.62 879.83,-1360.9 887.05,-1376.84"/>
</a>
</g>
</g>
<!-- propose_num -->
<g id="node22" class="node">
<title>propose_num</title>
<g id="a_node22"><a xlink:href="propose_num.html" xlink:title="propose_num">
<polygon fill="none" stroke="black" points="839.57,-1360.47 725.59,-1360.47 725.59,-1324.47 839.57,-1324.47 839.57,-1360.47"/>
<text text-anchor="middle" x="782.58" y="-1337.07" font-family="Times,serif" font-size="18.00">propose_num</text>
</a>
</g>
</g>
<!-- client_request&#45;&gt;propose_num -->
<g id="edge25" class="edge">
<title>client_request&#45;&gt;propose_num</title>
<g id="a_edge25"><a xlink:href="45-propose_num.html" xlink:title=" +/&#45;">
<path fill="none" stroke="black" stroke-width="5" d="M736.85,-1422.17C741.85,-1413.56 748.14,-1402.74 754.44,-1391.9"/>
<polygon fill="black" stroke="black" stroke-width="5" points="772.56,-1360.71 770.3,-1382.52 769.27,-1370.36 764.24,-1379.01 762.51,-1378 760.78,-1377 765.81,-1368.35 754.73,-1373.48 772.56,-1360.71 772.56,-1360.71"/>
<ellipse fill="none" stroke="black" stroke-width="5" cx="758.49" cy="-1384.92" rx="8" ry="8"/>
</a>
</g>
<g id="a_edge25&#45;label"><a xlink:href="45-propose_num.html" xlink:title=" +/&#45;">
<text text-anchor="middle" x="773.4" y="-1382.45" font-family="Times,serif" font-size="18.00"> +/&#45;</text>
</a>
</g>
</g>
<!-- slot_num -->
<g id="node23" class="node">
<title>slot_num</title>
<g id="a_node23"><a xlink:href="slot_num.html" xlink:title="slot_num">
<polygon fill="none" stroke="black" points="626.09,-1360.47 543.07,-1360.47 543.07,-1324.47 626.09,-1324.47 626.09,-1360.47"/>
<text text-anchor="middle" x="584.58" y="-1337.07" font-family="Times,serif" font-size="18.00">slot_num</text>
</a>
</g>
</g>
<!-- client_request&#45;&gt;slot_num -->
<g id="edge27" class="edge">
<title>client_request&#45;&gt;slot_num</title>
<g id="a_edge27"><a xlink:href="47-slot_num.html" xlink:title=" +/&#45;">
<path fill="none" stroke="black" stroke-width="5" d="M699.24,-1423.33C686.54,-1415.51 671.33,-1405.91 657.93,-1396.85 650.88,-1392.09 643.54,-1386.95 636.34,-1381.82"/>
<polygon fill="black" stroke="black" stroke-width="5" points="607.09,-1360.47 628.55,-1364.99 616.34,-1364.75 624.42,-1370.65 623.24,-1372.26 622.06,-1373.88 613.99,-1367.98 617.94,-1379.53 607.09,-1360.47 607.09,-1360.47"/>
<ellipse fill="none" stroke="black" stroke-width="5" cx="629.7" cy="-1376.98" rx="8" ry="8"/>
</a>
</g>
<g id="a_edge27&#45;label"><a xlink:href="47-slot_num.html" xlink:title=" +/&#45;">
<text text-anchor="middle" x="670.4" y="-1382.45" font-family="Times,serif" font-size="18.00"> +/&#45;</text>
</a>
</g>
</g>
<!-- client_request_temp -->
<g id="node24" class="node">
<title>client_request_temp</title>
<g id="a_node24"><a xlink:href="client_request_temp.html" xlink:title="client_request_temp">
<ellipse fill="none" stroke="black" cx="697.58" cy="-1268.7" rx="114.53" ry="18.27"/>
<text text-anchor="middle" x="697.58" y="-1263.3" font-family="Times,serif" font-size="18.00">client_request_temp</text>
</a>
</g>
</g>
<!-- client_request&#45;&gt;client_request_temp -->
<g id="edge28" class="edge">
<title>client_request&#45;&gt;client_request_temp</title>
<g id="a_edge28"><a xlink:href="49-client_request_temp.html">
<path fill="none" stroke="black" stroke-width="5" d="M723.58,-1422.28C718.97,-1395.21 710.02,-1342.69 703.92,-1306.91"/>
<polygon fill="black" stroke="black" stroke-width="5" points="712.54,-1305.42 700.56,-1287.17 695.29,-1308.36 712.54,-1305.42"/>
</a>
</g>
</g>
<!-- propose_num&#45;&gt;propose_num -->
<g id="edge24" class="edge">
<title>propose_num&#45;&gt;propose_num</title>
<g id="a_edge24"><a xlink:href="45-propose_num.html" xlink:title=" +/&#45;">
<path fill="none" stroke="black" stroke-width="5" d="M839.8,-1348.85C839.96,-1348.83 840.13,-1348.82 840.29,-1348.81"/>
<polygon fill="black" stroke="black" stroke-width="5" points="839.8,-1336.09 849.56,-1355.73 842.18,-1346 842.56,-1356 840.57,-1356.07 838.57,-1356.15 838.18,-1346.16 831.57,-1356.42 839.8,-1336.09 839.8,-1336.09"/>
<ellipse fill="none" stroke="black" stroke-width="5" cx="840.87" cy="-1364.07" rx="8" ry="8"/>
</a>
</g>
<g id="a_edge24&#45;label"><a xlink:href="45-propose_num.html" xlink:title=" +/&#45;">
<text text-anchor="middle" x="870.4" y="-1337.07" font-family="Times,serif" font-size="18.00"> +/&#45;</text>
</a>
</g>
</g>
<!-- propose_num&#45;&gt;client_request_temp -->
<g id="edge29" class="edge">
<title>propose_num&#45;&gt;client_request_temp</title>
<g id="a_edge29"><a xlink:href="49-client_request_temp.html">
<path fill="none" stroke="black" stroke-width="5" d="M762.43,-1324.46C753.71,-1317.09 743.23,-1308.25 733.27,-1299.83"/>
<polygon fill="black" stroke="black" stroke-width="5" points="738.8,-1293.05 717.87,-1286.83 727.51,-1306.42 738.8,-1293.05"/>
</a>
</g>
</g>
<!-- slot_num&#45;&gt;slot_num -->
<g id="edge26" class="edge">
<title>slot_num&#45;&gt;slot_num</title>
<g id="a_edge26"><a xlink:href="47-slot_num.html" xlink:title=" +/&#45;">
<path fill="none" stroke="black" stroke-width="5" d="M626.29,-1349.11C626.45,-1349.1 626.6,-1349.1 626.76,-1349.09"/>
<polygon fill="black" stroke="black" stroke-width="5" points="626.29,-1335.82 636,-1355.49 628.64,-1345.74 629,-1355.74 627,-1355.81 625.01,-1355.88 624.65,-1345.89 618.01,-1356.13 626.29,-1335.82 626.29,-1335.82"/>
<ellipse fill="none" stroke="black" stroke-width="5" cx="627.29" cy="-1363.8" rx="8" ry="8"/>
</a>
</g>
<g id="a_edge26&#45;label"><a xlink:href="47-slot_num.html" xlink:title=" +/&#45;">
<text text-anchor="middle" x="656.91" y="-1337.07" font-family="Times,serif" font-size="18.00"> +/&#45;</text>
</a>
</g>
</g>
<!-- slot_num&#45;&gt;client_request_temp -->
<g id="edge30" class="edge">
<title>slot_num&#45;&gt;client_request_temp</title>
<g id="a_edge30"><a xlink:href="49-client_request_temp.html">
<path fill="none" stroke="black" stroke-width="5" d="M611.36,-1324.46C624.02,-1316.41 639.47,-1306.6 653.78,-1297.52"/>
<polygon fill="black" stroke="black" stroke-width="5" points="658.8,-1304.69 670.99,-1286.58 649.42,-1289.92 658.8,-1304.69"/>
</a>
</g>
</g>
<!-- client_request_temp&#45;&gt;prepare_to_proxy -->
<g id="edge31" class="edge">
<title>client_request_temp&#45;&gt;prepare_to_proxy</title>
<g id="a_edge31"><a xlink:href="50-prepare_to_proxy.html">
<path fill="none" stroke="black" stroke-width="5" stroke-dasharray="5,2" d="M696.84,-1249.96C696.63,-1244.92 696.39,-1239.23 696.15,-1233.48"/>
<polygon fill="black" stroke="black" stroke-width="5" points="704.89,-1233.08 695.31,-1213.46 687.4,-1233.81 704.89,-1233.08"/>
</a>
</g>
</g>
<!-- prepare_to_proxy&#45;&gt;prepare -->
<g id="edge39" class="edge">
<title>prepare_to_proxy&#45;&gt;prepare</title>
<g id="a_edge39"><a xlink:href="56-prepare.html">
<path fill="none" stroke="black" stroke-width="5" stroke-dasharray="5,2" d="M689.74,-1176.55C688.25,-1171.22 686.55,-1165.13 684.84,-1159"/>
<polygon fill="black" stroke="black" stroke-width="5" points="693.24,-1156.54 679.44,-1139.62 676.38,-1161.24 693.24,-1156.54"/>
</a>
</g>
</g>
<!-- prepare_to_proxy&#45;&gt;all_advocate_val -->
<g id="edge38" class="edge">
<title>prepare_to_proxy&#45;&gt;all_advocate_val</title>
<g id="a_edge38"><a xlink:href="55-all_advocate_val.html" xlink:title=" +/&#45;">
<path fill="none" stroke="black" stroke-width="5" d="M784.4,-1186.24C859.9,-1177.21 955.58,-1158.58 955.58,-1122.16 955.58,-1122.16 955.58,-1122.16 955.58,-789.31 955.58,-758.09 877.86,-739.1 812.38,-728.63"/>
<polygon fill="black" stroke="black" stroke-width="5" points="813.64,-719.97 792.56,-725.66 811.04,-737.28 813.64,-719.97"/>
</a>
</g>
<g id="a_edge38&#45;label"><a xlink:href="55-all_advocate_val.html" xlink:title=" +/&#45;">
<text text-anchor="middle" x="968.4" y="-932.45" font-family="Times,serif" font-size="18.00"> +/&#45;</text>
</a>
</g>
</g>
<!-- accepted_to_proposer&#45;&gt;accepted_to_learner -->
<g id="edge33" class="edge">
<title>accepted_to_proposer&#45;&gt;accepted_to_learner</title>
<g id="a_edge33"><a xlink:href="51-accepted_to_learner.html">
<path fill="none" stroke="black" stroke-width="5" stroke-dasharray="5,2" d="M255.31,-73.78C245.82,-66.38 234.47,-57.52 223.71,-49.13"/>
<polygon fill="black" stroke="black" stroke-width="5" points="228.8,-42 207.64,-36.6 218.03,-55.8 228.8,-42"/>
</a>
</g>
</g>
<!-- acceptors_group_zero&#45;&gt;num_acceptors -->
<g id="edge37" class="edge">
<title>acceptors_group_zero&#45;&gt;num_acceptors</title>
<g id="a_edge37"><a xlink:href="54-num_acceptors.html">
<path fill="none" stroke="black" stroke-width="5" d="M171.39,-1048.04C180.47,-1030.31 192.58,-1001.72 192.58,-975.23 192.58,-975.23 192.58,-975.23 192.58,-642.54 192.58,-623.86 196.83,-604 202.13,-586.5"/>
<polygon fill="black" stroke="black" stroke-width="5" points="214.54,-552.47 216.14,-574.34 212.99,-562.55 209.57,-571.95 207.69,-571.26 205.81,-570.58 209.24,-561.18 199.23,-568.18 214.54,-552.47 214.54,-552.47"/>
<ellipse fill="none" stroke="black" stroke-width="5" cx="204.95" cy="-578.78" rx="8" ry="8"/>
</a>
</g>
</g>
<!-- max_advocate_val -->
<g id="node31" class="node">
<title>max_advocate_val</title>
<g id="a_node31"><a xlink:href="max_advocate_val.html" xlink:title="max_advocate_val">
<ellipse fill="none" stroke="black" cx="698.58" cy="-588.77" rx="106.96" ry="18.27"/>
<text text-anchor="middle" x="698.58" y="-583.37" font-family="Times,serif" font-size="18.00">max_advocate_val</text>
</a>
</g>
</g>
<!-- all_advocate_val&#45;&gt;max_advocate_val -->
<g id="edge43" class="edge">
<title>all_advocate_val&#45;&gt;max_advocate_val</title>
<g id="a_edge43"><a xlink:href="59-max_advocate_val.html">
<path fill="none" stroke="black" stroke-width="5" d="M740.95,-698.59C753.19,-684.76 767.56,-664.56 760.17,-637.29"/>
<polygon fill="black" stroke="black" stroke-width="5" points="743.06,-605.6 760.48,-618.92 749.57,-613.45 754.32,-622.25 752.56,-623.2 750.8,-624.15 746.05,-615.35 744.64,-627.48 743.06,-605.6 743.06,-605.6"/>
<ellipse fill="none" stroke="black" stroke-width="5" cx="756.36" cy="-630.24" rx="8" ry="8"/>
</a>
</g>
</g>
<!-- agreeing_acceptors&#45;&gt;agreeing_acceptors_for_slot -->
<g id="edge44" class="edge">
<title>agreeing_acceptors&#45;&gt;agreeing_acceptors_for_slot</title>
<g id="a_edge44"><a xlink:href="60-agreeing_acceptors_for_slot.html">
<path fill="none" stroke="black" stroke-width="5" d="M540.22,-698.65C547.63,-691.77 556.41,-683.64 564.86,-675.8"/>
<polygon fill="black" stroke="black" stroke-width="5" points="571.13,-681.92 579.84,-661.91 559.23,-669.09 571.13,-681.92"/>
</a>
</g>
</g>
<!-- max_advocate_val&#45;&gt;accept -->
<g id="edge57" class="edge">
<title>max_advocate_val&#45;&gt;accept</title>
<g id="a_edge57"><a xlink:href="67-accept.html">
<path fill="none" stroke="black" stroke-width="5" stroke-dasharray="5,2" d="M709.52,-570.21C719.46,-552.55 732.58,-524.21 732.58,-497.62 732.58,-497.62 732.58,-497.62 732.58,-312.46 732.58,-266.71 593.59,-249.88 509.06,-243.88"/>
<polygon fill="black" stroke="black" stroke-width="5" points="509.38,-235.13 488.86,-242.57 508.25,-252.59 509.38,-235.13"/>
</a>
</g>
</g>
<!-- agreeing_acceptor_size -->
<g id="node33" class="node">
<title>agreeing_acceptor_size</title>
<g id="a_node33"><a xlink:href="agreeing_acceptor_size.html" xlink:title="agreeing_acceptor_size">
<ellipse fill="none" stroke="black" cx="573.58" cy="-534" rx="130.99" ry="18.27"/>
<text text-anchor="middle" x="573.58" y="-528.6" font-family="Times,serif" font-size="18.00">agreeing_acceptor_size</text>
</a>
</g>
</g>
<!-- agreeing_acceptors_for_slot&#45;&gt;agreeing_acceptor_size -->
<g id="edge46" class="edge">
<title>agreeing_acceptors_for_slot&#45;&gt;agreeing_acceptor_size</title>
<g id="a_edge46"><a xlink:href="61-agreeing_acceptor_size.html">
<path fill="none" stroke="black" stroke-width="5" d="M593.35,-624.97C591.73,-619.3 590.01,-612.98 588.58,-607.16 587.05,-600.94 585.55,-594.39 584.12,-587.88"/>
<polygon fill="black" stroke="black" stroke-width="5" points="576.87,-552.58 589.71,-570.36 580.84,-561.97 582.86,-571.76 580.9,-572.17 578.94,-572.57 576.93,-562.77 572.08,-573.98 576.87,-552.58 576.87,-552.58"/>
<ellipse fill="none" stroke="black" stroke-width="5" cx="582.51" cy="-580" rx="8" ry="8"/>
</a>
</g>
</g>
<!-- agreeing_acceptor_size&#45;&gt;accept_sent -->
<g id="edge48" class="edge">
<title>agreeing_acceptor_size&#45;&gt;accept_sent</title>
<g id="a_edge48"><a xlink:href="62-accept_sent.html">
<path fill="none" stroke="black" stroke-width="5" d="M548.43,-515.9C537.08,-508.19 523.37,-498.87 510.54,-490.15"/>
<polygon fill="black" stroke="black" stroke-width="5" points="515.35,-482.83 493.89,-478.82 505.51,-497.3 515.35,-482.83"/>
</a>
</g>
</g>
<!-- agreeing_acceptor_size&#45;&gt;majority -->
<g id="edge52" class="edge">
<title>agreeing_acceptor_size&#45;&gt;majority</title>
<g id="a_edge52"><a xlink:href="64-majority.html">
<path fill="none" stroke="black" stroke-width="5" d="M578.74,-515.62C587.14,-483.55 599.99,-414.18 569.58,-368.85 556.43,-349.24 534.51,-336.65 512.73,-328.59"/>
<polygon fill="black" stroke="black" stroke-width="5" points="515.15,-320.17 493.44,-322.49 509.88,-336.86 515.15,-320.17"/>
</a>
</g>
</g>
<!-- sent_for_slot -->
<g id="node35" class="node">
<title>sent_for_slot</title>
<g id="a_node35"><a xlink:href="sent_for_slot.html" xlink:title="sent_for_slot">
<ellipse fill="none" stroke="black" cx="482.58" cy="-387.23" rx="77.55" ry="18.27"/>
<text text-anchor="middle" x="482.58" y="-381.83" font-family="Times,serif" font-size="18.00">sent_for_slot</text>
</a>
</g>
</g>
<!-- accept_sent&#45;&gt;sent_for_slot -->
<g id="edge50" class="edge">
<title>accept_sent&#45;&gt;sent_for_slot</title>
<g id="a_edge50"><a xlink:href="63-sent_for_slot.html">
<path fill="none" stroke="black" stroke-width="5" d="M471.97,-442.34C472.05,-441.9 472.14,-441.46 472.23,-441.02"/>
<polygon fill="black" stroke="black" stroke-width="5" points="479.17,-405.6 484.15,-426.96 479.21,-415.8 477.29,-425.61 475.32,-425.23 473.36,-424.84 475.29,-415.03 466.49,-423.5 479.17,-405.6 479.17,-405.6"/>
<ellipse fill="none" stroke="black" stroke-width="5" cx="473.78" cy="-433.08" rx="8" ry="8"/>
</a>
</g>
</g>
<!-- sent_for_slot&#45;&gt;majority -->
<g id="edge54" class="edge">
<title>sent_for_slot&#45;&gt;majority</title>
<g id="a_edge54"><a xlink:href="64-majority.html">
<path fill="none" stroke="black" stroke-width="5" d="M473.62,-368.86C470.62,-363.04 467.16,-356.33 463.72,-349.65"/>
<polygon fill="black" stroke="black" stroke-width="5" points="471.39,-345.44 454.45,-331.68 455.84,-353.46 471.39,-345.44"/>
</a>
</g>
</g>
<!-- majority&#45;&gt;accept -->
<g id="edge55" class="edge">
<title>majority&#45;&gt;accept</title>
<g id="a_edge55"><a xlink:href="67-accept.html">
<path fill="none" stroke="black" stroke-width="5" stroke-dasharray="5,2" d="M445.58,-294.72C445.58,-289.68 445.58,-283.99 445.58,-278.25"/>
<polygon fill="black" stroke="black" stroke-width="5" points="454.33,-278.23 445.58,-258.23 436.83,-278.23 454.33,-278.23"/>
</a>
</g>
</g>
<!-- S -->
<g id="node37" class="node">
<title>S</title>
<g id="a_node37"><a xlink:href="javascript:advanceTo(-2)" xlink:title="S">
<polygon fill="none" stroke="blue" stroke-width="3" points="854.58,-1466.85 827.58,-1440.85 854.58,-1414.85 881.58,-1440.85 854.58,-1466.85"/>
<text text-anchor="middle" x="854.58" y="-1435.45" font-family="Times,serif" font-size="18.00">S</text>
</a>
</g>
</g>
<!-- T -->
<g id="node38" class="node">
<title>T</title>
<g id="a_node38"><a xlink:href="javascript:advanceTo(0)" xlink:title="T">
<polygon fill="none" stroke="blue" stroke-width="3" points="926.58,-1466.85 899.58,-1440.85 926.58,-1414.85 953.58,-1440.85 926.58,-1466.85"/>
<text text-anchor="middle" x="926.58" y="-1435.45" font-family="Times,serif" font-size="18.00">T</text>
</a>
</g>
</g>
<!-- accepted_to_client -->
<g id="node39" class="node">
<title>accepted_to_client</title>
<ellipse fill="none" stroke="black" cx="1078.58" cy="-1440.85" rx="106.95" ry="18.27"/>
<text text-anchor="middle" x="1078.58" y="-1435.45" font-family="Times,serif" font-size="18.00">accepted_to_client</text>
</g>
<!-- all_acceptors -->
<g id="node40" class="node">
<title>all_acceptors</title>
<polygon fill="none" stroke="black" points="1314.03,-1458.85 1203.13,-1458.85 1203.13,-1422.85 1314.03,-1422.85 1314.03,-1458.85"/>
<text text-anchor="middle" x="1258.58" y="-1435.45" font-family="Times,serif" font-size="18.00">all_acceptors</text>
</g>
</g>
</svg>
