<?xml version="1.0" encoding="UTF-8" standalone="no"?>
<!DOCTYPE svg PUBLIC "-//W3C//DTD SVG 1.1//EN"
 "http://www.w3.org/Graphics/SVG/1.1/DTD/svg11.dtd">
<!-- Generated by graphviz version 2.43.0 (0)
 -->
<!-- Title: G Pages: 1 -->
<svg width="1046pt" height="1399pt"
 viewBox="0.00 0.00 1045.99 1399.31" xmlns="http://www.w3.org/2000/svg" xmlns:xlink="http://www.w3.org/1999/xlink">
<g id="graph0" class="graph" transform="scale(1 1) rotate(0) translate(4 1395.31)">
<script type='text/javascript'>
  <![CDATA[

var windows = new Array()
var info = new Array()

function openWin(target, time) {
  win = window.open(target + "_" + time + ".html", target, "location=no,width=400,height=180,left=0,status=no");
  // hm, an associative array, how strange.
  info[target] = 1
}

function advanceTo(time) {
  arr = gup("wins").split(",");
  for (i=0; i < arr.length; i++) {
    if (arr[i] != "") {
      openWin(arr[i], time);
    }
  }
  str = '';
  // getting 'key_cols'
  for (var i in info) {
    str = str + ',' + i;
  }
  self.window.location.href = 'tm_' + time + '.svg?wins=' + str;
}

// off the netz
function gup(name) {
  name = name.replace(/[[]/,"\[").replace(/[]]/,"\]");
  var regexS = "[\?&]"+name+"=([^&#]*)";
  var regex = new RegExp(regexS);
  var results = regex.exec(window.location.href);
  if (results == null)
    return "";
  else
    return results[1];
}

  ]]>
</script>

<polygon fill="white" stroke="transparent" points="-4,4 -4,-1395.31 1041.99,-1395.31 1041.99,4 -4,4"/>
<!-- cur_prep -->
<g id="node1" class="node">
<title>cur_prep</title>
<g id="a_node1"><a xlink:href="cur_prep.html" xlink:title="cur_prep">
<ellipse fill="none" stroke="black" cx="279" cy="-1028.62" rx="56.59" ry="18.27"/>
<text text-anchor="middle" x="279" y="-1023.22" font-family="Times,serif" font-size="18.00">cur_prep</text>
</a>
</g>
</g>
<!-- existing_id -->
<g id="node3" class="node">
<title>existing_id</title>
<g id="a_node3"><a xlink:href="existing_id.html" xlink:title="existing_id">
<ellipse fill="none" stroke="black" cx="460" cy="-864.08" rx="67.76" ry="18.27"/>
<text text-anchor="middle" x="460" y="-858.68" font-family="Times,serif" font-size="18.00">existing_id</text>
</a>
</g>
</g>
<!-- cur_prep&#45;&gt;existing_id -->
<g id="edge3" class="edge">
<title>cur_prep&#45;&gt;existing_id</title>
<g id="a_edge3"><a xlink:href="23-existing_id.html">
<path fill="none" stroke="black" stroke-width="5" d="M297.35,-1011.14C327.56,-984.01 388.2,-929.55 426.3,-895.34"/>
<polygon fill="black" stroke="black" stroke-width="5" points="432.3,-901.72 441.33,-881.85 420.6,-888.7 432.3,-901.72"/>
</a>
</g>
</g>
<!-- existing_val -->
<g id="node5" class="node">
<title>existing_val</title>
<g id="a_node5"><a xlink:href="existing_val.html" xlink:title="existing_val">
<ellipse fill="none" stroke="black" cx="244" cy="-18.38" rx="73.56" ry="18.27"/>
<text text-anchor="middle" x="244" y="-12.98" font-family="Times,serif" font-size="18.00">existing_val</text>
</a>
</g>
</g>
<!-- cur_prep&#45;&gt;existing_val -->
<g id="edge5" class="edge">
<title>cur_prep&#45;&gt;existing_val</title>
<g id="a_edge5"><a xlink:href="24-existing_val.html">
<path fill="none" stroke="black" stroke-width="5" d="M261.06,-1011.09C216.89,-969.34 102.25,-854.42 44,-734.93 4.13,-653.14 0,-625.98 0,-535 0,-535 0,-535 0,-91.15 0,-57.5 86.53,-38.47 156.53,-28.59"/>
<polygon fill="black" stroke="black" stroke-width="5" points="158,-37.22 176.68,-25.93 155.71,-19.88 158,-37.22"/>
</a>
</g>
</g>
<!-- prepare -->
<g id="node2" class="node">
<title>prepare</title>
<g id="a_node2"><a xlink:href="prepare.html" xlink:title="prepare">
<ellipse fill="none" stroke="black" cx="364" cy="-1119.39" rx="49.43" ry="18.27"/>
<text text-anchor="middle" x="364" y="-1113.99" font-family="Times,serif" font-size="18.00">prepare</text>
</a>
</g>
</g>
<!-- prepare&#45;&gt;cur_prep -->
<g id="edge1" class="edge">
<title>prepare&#45;&gt;cur_prep</title>
<g id="a_edge1"><a xlink:href="22-cur_prep.html">
<path fill="none" stroke="black" stroke-width="5" d="M348.01,-1101.69C337.16,-1090.36 322.46,-1075.01 309.42,-1061.39"/>
<polygon fill="black" stroke="black" stroke-width="5" points="315.36,-1054.94 295.21,-1046.54 302.72,-1067.04 315.36,-1054.94"/>
</a>
</g>
</g>
<!-- all_promise_id -->
<g id="node7" class="node">
<title>all_promise_id</title>
<g id="a_node7"><a xlink:href="all_promise_id.html" xlink:title="all_promise_id">
<polygon fill="none" stroke="black" points="537.98,-1046.62 414.02,-1046.62 414.02,-1010.62 537.98,-1010.62 537.98,-1046.62"/>
<text text-anchor="middle" x="476" y="-1023.22" font-family="Times,serif" font-size="18.00">all_promise_id</text>
</a>
</g>
</g>
<!-- prepare&#45;&gt;all_promise_id -->
<g id="edge6" class="edge">
<title>prepare&#45;&gt;all_promise_id</title>
<g id="a_edge6"><a xlink:href="25-all_promise_id.html" xlink:title=" +/&#45;">
<path fill="none" stroke="black" stroke-width="5" d="M384.02,-1102.52C399.07,-1090.59 420.13,-1073.9 438.3,-1059.5"/>
<polygon fill="black" stroke="black" stroke-width="5" points="444,-1066.15 454.24,-1046.87 433.13,-1052.43 444,-1066.15"/>
</a>
</g>
<g id="a_edge6&#45;label"><a xlink:href="25-all_promise_id.html" xlink:title=" +/&#45;">
<text text-anchor="middle" x="442.82" y="-1068.6" font-family="Times,serif" font-size="18.00"> +/&#45;</text>
</a>
</g>
</g>
<!-- promise -->
<g id="node8" class="node">
<title>promise</title>
<g id="a_node8"><a xlink:href="promise.html" xlink:title="promise">
<ellipse fill="none" stroke="black" cx="367" cy="-790.31" rx="52.14" ry="18.27"/>
<text text-anchor="middle" x="367" y="-784.91" font-family="Times,serif" font-size="18.00">promise</text>
</a>
</g>
</g>
<!-- prepare&#45;&gt;promise -->
<g id="edge8" class="edge">
<title>prepare&#45;&gt;promise</title>
<g id="a_edge8"><a xlink:href="27-promise.html">
<path fill="none" stroke="black" stroke-width="5" stroke-dasharray="5,2" d="M364,-1100.7C364,-1082.79 364,-1054.28 364,-1029.62 364,-1029.62 364,-1029.62 364,-863.08 364,-851.9 364.37,-839.75 364.85,-828.68"/>
<polygon fill="black" stroke="black" stroke-width="5" points="373.58,-829.13 365.87,-808.71 356.11,-828.23 373.58,-829.13"/>
</a>
</g>
</g>
<!-- existing_id&#45;&gt;promise -->
<g id="edge12" class="edge">
<title>existing_id&#45;&gt;promise</title>
<g id="a_edge12"><a xlink:href="29-promise.html">
<path fill="none" stroke="black" stroke-width="5" stroke-dasharray="5,2" d="M438.43,-846.43C428.19,-838.53 415.66,-828.86 403.97,-819.84"/>
<polygon fill="black" stroke="black" stroke-width="5" points="408.99,-812.66 387.81,-807.37 398.3,-826.52 408.99,-812.66"/>
</a>
</g>
</g>
<!-- max_promise_id -->
<g id="node4" class="node">
<title>max_promise_id</title>
<g id="a_node4"><a xlink:href="max_promise_id.html" xlink:title="max_promise_id">
<ellipse fill="none" stroke="black" cx="548" cy="-937.85" rx="96.72" ry="18.27"/>
<text text-anchor="middle" x="548" y="-932.45" font-family="Times,serif" font-size="18.00">max_promise_id</text>
</a>
</g>
</g>
<!-- max_promise_id&#45;&gt;existing_id -->
<g id="edge2" class="edge">
<title>max_promise_id&#45;&gt;existing_id</title>
<g id="a_edge2"><a xlink:href="23-existing_id.html">
<path fill="none" stroke="black" stroke-width="5" d="M527.15,-919.84C521.41,-915.16 514.93,-909.88 508.32,-904.49"/>
<polygon fill="black" stroke="black" stroke-width="5" points="480.4,-881.72 501.59,-887.38 489.42,-886.49 497.16,-892.81 495.9,-894.36 494.64,-895.91 486.89,-889.59 490.21,-901.33 480.4,-881.72 480.4,-881.72"/>
<ellipse fill="none" stroke="black" stroke-width="5" cx="502.1" cy="-899.42" rx="8" ry="8"/>
</a>
</g>
</g>
<!-- max_promise_id&#45;&gt;promise -->
<g id="edge9" class="edge">
<title>max_promise_id&#45;&gt;promise</title>
<g id="a_edge9"><a xlink:href="27-promise.html">
<path fill="none" stroke="black" stroke-width="5" stroke-dasharray="5,2" d="M551.04,-919.26C553.47,-899.14 554.06,-866.34 537,-845.7 512.99,-816.64 473.42,-802.92 438.5,-796.52"/>
<polygon fill="black" stroke="black" stroke-width="5" points="439.7,-787.85 418.62,-793.54 437.1,-805.16 439.7,-787.85"/>
</a>
</g>
</g>
<!-- accepted -->
<g id="node11" class="node">
<title>accepted</title>
<g id="a_node11"><a xlink:href="accepted.html" xlink:title="accepted">
<ellipse fill="none" stroke="black" cx="833" cy="-165.92" rx="55.65" ry="18.27"/>
<text text-anchor="middle" x="833" y="-160.52" font-family="Times,serif" font-size="18.00">accepted</text>
</a>
</g>
</g>
<!-- max_promise_id&#45;&gt;accepted -->
<g id="edge16" class="edge">
<title>max_promise_id&#45;&gt;accepted</title>
<g id="a_edge16"><a xlink:href="32-accepted.html">
<path fill="none" stroke="black" stroke-width="5" stroke-dasharray="5,2" d="M640.65,-932.33C683.9,-924.67 726,-906.56 726,-865.08 726,-865.08 726,-865.08 726,-587.77 726,-465.01 868,-473.61 868,-350.85 868,-350.85 868,-350.85 868,-238.69 868,-225.64 863.26,-212.48 857.28,-201.05"/>
<polygon fill="black" stroke="black" stroke-width="5" points="864.58,-196.22 846.63,-183.79 849.68,-205.41 864.58,-196.22"/>
</a>
</g>
</g>
<!-- existing_val&#45;&gt;promise -->
<g id="edge11" class="edge">
<title>existing_val&#45;&gt;promise</title>
<g id="a_edge11"><a xlink:href="28-promise.html">
<path fill="none" stroke="black" stroke-width="5" stroke-dasharray="5,2" d="M244,-36.79C244,-51.32 244,-72.59 244,-91.15 244,-717.93 244,-717.93 244,-717.93 244,-747.96 271.77,-765.57 300.92,-775.78"/>
<polygon fill="black" stroke="black" stroke-width="5" points="298.83,-784.29 320.5,-781.6 303.82,-767.51 298.83,-784.29"/>
</a>
</g>
</g>
<!-- max_accept_val -->
<g id="node6" class="node">
<title>max_accept_val</title>
<g id="a_node6"><a xlink:href="max_accept_val.html" xlink:title="max_accept_val">
<ellipse fill="none" stroke="black" cx="366" cy="-92.15" rx="94" ry="18.27"/>
<text text-anchor="middle" x="366" y="-86.75" font-family="Times,serif" font-size="18.00">max_accept_val</text>
</a>
</g>
</g>
<!-- max_accept_val&#45;&gt;existing_val -->
<g id="edge4" class="edge">
<title>max_accept_val&#45;&gt;existing_val</title>
<g id="a_edge4"><a xlink:href="24-existing_val.html">
<path fill="none" stroke="black" stroke-width="5" d="M337.7,-74.51C327.24,-68.35 314.94,-61.12 302.77,-53.96"/>
<polygon fill="black" stroke="black" stroke-width="5" points="271.72,-35.69 293.52,-38.08 281.36,-39.04 289.97,-44.11 288.96,-45.83 287.95,-47.56 279.33,-42.49 284.4,-53.59 271.72,-35.69 271.72,-35.69"/>
<ellipse fill="none" stroke="black" stroke-width="5" cx="295.86" cy="-49.89" rx="8" ry="8"/>
</a>
</g>
</g>
<!-- max_accept_val&#45;&gt;promise -->
<g id="edge10" class="edge">
<title>max_accept_val&#45;&gt;promise</title>
<g id="a_edge10"><a xlink:href="27-promise.html">
<path fill="none" stroke="black" stroke-width="5" stroke-dasharray="5,2" d="M326.95,-109.01C305.01,-120.76 282,-139.22 282,-164.92 282,-717.93 282,-717.93 282,-717.93 282,-738.85 297.29,-754.86 314.89,-766.37"/>
<polygon fill="black" stroke="black" stroke-width="5" points="310.7,-774.05 332.43,-776.21 319.27,-758.79 310.7,-774.05"/>
</a>
</g>
</g>
<!-- all_promise_id&#45;&gt;max_promise_id -->
<g id="edge7" class="edge">
<title>all_promise_id&#45;&gt;max_promise_id</title>
<g id="a_edge7"><a xlink:href="26-max_promise_id.html">
<path fill="none" stroke="black" stroke-width="5" d="M489.88,-1010.5C496.02,-1002.94 503.55,-993.65 511.14,-984.29"/>
<polygon fill="black" stroke="black" stroke-width="5" points="533.91,-956.22 528.31,-977.42 529.17,-965.24 522.87,-973.01 521.32,-971.75 519.76,-970.49 526.06,-962.72 514.33,-966.08 533.91,-956.22 533.91,-956.22"/>
<ellipse fill="none" stroke="black" stroke-width="5" cx="516.28" cy="-977.96" rx="8" ry="8"/>
</a>
</g>
</g>
<!-- accept_sent -->
<g id="node20" class="node">
<title>accept_sent</title>
<g id="a_node20"><a xlink:href="accept_sent.html" xlink:title="accept_sent">
<polygon fill="none" stroke="black" points="775.95,-478.62 676.05,-478.62 676.05,-442.62 775.95,-442.62 775.95,-478.62"/>
<text text-anchor="middle" x="726" y="-455.22" font-family="Times,serif" font-size="18.00">accept_sent</text>
</a>
</g>
</g>
<!-- promise&#45;&gt;accept_sent -->
<g id="edge43" class="edge">
<title>promise&#45;&gt;accept_sent</title>
<g id="a_edge43"><a xlink:href="54-accept_sent.html">
<path fill="none" stroke="black" stroke-width="5" d="M419.29,-788.36C510.25,-785.28 688,-772.3 688,-717.93 688,-717.93 688,-717.93 688,-533 688,-519.96 693,-506.98 699.38,-495.74"/>
<polygon fill="black" stroke="black" stroke-width="5" points="706.9,-500.24 710.76,-478.76 692.36,-490.5 706.9,-500.24"/>
</a>
</g>
</g>
<!-- all_advocate_val -->
<g id="node22" class="node">
<title>all_advocate_val</title>
<g id="a_node22"><a xlink:href="all_advocate_val.html" xlink:title="all_advocate_val">
<polygon fill="none" stroke="black" points="190.94,-734.93 53.06,-734.93 53.06,-698.93 190.94,-698.93 190.94,-734.93"/>
<text text-anchor="middle" x="122" y="-711.53" font-family="Times,serif" font-size="18.00">all_advocate_val</text>
</a>
</g>
</g>
<!-- promise&#45;&gt;all_advocate_val -->
<g id="edge36" class="edge">
<title>promise&#45;&gt;all_advocate_val</title>
<g id="a_edge36"><a xlink:href="50-all_advocate_val.html">
<path fill="none" stroke="black" stroke-width="5" d="M325.49,-778.98C298.93,-772.22 263.82,-762.98 233,-753.93 219.68,-750.01 205.54,-745.61 191.97,-741.27"/>
<polygon fill="black" stroke="black" stroke-width="5" points="194.38,-732.85 172.65,-735.01 188.98,-749.5 194.38,-732.85"/>
</a>
</g>
</g>
<!-- agreeing_acceptors -->
<g id="node24" class="node">
<title>agreeing_acceptors</title>
<g id="a_node24"><a xlink:href="agreeing_acceptors.html" xlink:title="agreeing_acceptors">
<polygon fill="none" stroke="black" points="562.42,-734.93 407.58,-734.93 407.58,-698.93 562.42,-698.93 562.42,-734.93"/>
<text text-anchor="middle" x="485" y="-711.53" font-family="Times,serif" font-size="18.00">agreeing_acceptors</text>
</a>
</g>
</g>
<!-- promise&#45;&gt;agreeing_acceptors -->
<g id="edge35" class="edge">
<title>promise&#45;&gt;agreeing_acceptors</title>
<g id="a_edge35"><a xlink:href="49-agreeing_acceptors.html">
<path fill="none" stroke="black" stroke-width="5" d="M392.31,-774C406.09,-765.66 423.55,-755.1 439.6,-745.39"/>
<polygon fill="black" stroke="black" stroke-width="5" points="444.25,-752.8 456.83,-734.96 435.19,-737.83 444.25,-752.8"/>
</a>
</g>
</g>
<!-- agreeing_acceptors_for_slot -->
<g id="node26" class="node">
<title>agreeing_acceptors_for_slot</title>
<g id="a_node26"><a xlink:href="agreeing_acceptors_for_slot.html" xlink:title="agreeing_acceptors_for_slot">
<ellipse fill="none" stroke="black" cx="504" cy="-643.54" rx="155.51" ry="18.27"/>
<text text-anchor="middle" x="504" y="-638.14" font-family="Times,serif" font-size="18.00">agreeing_acceptors_for_slot</text>
</a>
</g>
</g>
<!-- promise&#45;&gt;agreeing_acceptors_for_slot -->
<g id="edge39" class="edge">
<title>promise&#45;&gt;agreeing_acceptors_for_slot</title>
<g id="a_edge39"><a xlink:href="52-agreeing_acceptors_for_slot.html">
<path fill="none" stroke="black" stroke-width="5" d="M369.29,-771.73C372.69,-751.96 380.74,-719.89 399,-698.93 409.22,-687.19 422.59,-677.64 436.35,-670.01"/>
<polygon fill="black" stroke="black" stroke-width="5" points="440.39,-677.77 454.43,-661.05 432.63,-662.09 440.39,-677.77"/>
</a>
</g>
</g>
<!-- majority -->
<g id="node29" class="node">
<title>majority</title>
<g id="a_node29"><a xlink:href="majority.html" xlink:title="majority">
<ellipse fill="none" stroke="black" cx="724" cy="-313.46" rx="54.38" ry="18.27"/>
<text text-anchor="middle" x="724" y="-308.06" font-family="Times,serif" font-size="18.00">majority</text>
</a>
</g>
</g>
<!-- promise&#45;&gt;majority -->
<g id="edge47" class="edge">
<title>promise&#45;&gt;majority</title>
<g id="a_edge47"><a xlink:href="58-majority.html">
<path fill="none" stroke="black" stroke-width="5" d="M348.42,-773.1C335.29,-759.76 320,-739.59 320,-717.93 320,-717.93 320,-717.93 320,-386.23 320,-353 534.63,-330.09 651.01,-320.1"/>
<polygon fill="black" stroke="black" stroke-width="5" points="651.98,-328.8 671.18,-318.42 650.52,-311.36 651.98,-328.8"/>
</a>
</g>
</g>
<!-- all_accept_val -->
<g id="node9" class="node">
<title>all_accept_val</title>
<g id="a_node9"><a xlink:href="all_accept_val.html" xlink:title="all_accept_val">
<polygon fill="none" stroke="black" points="756.94,-183.92 637.06,-183.92 637.06,-147.92 756.94,-147.92 756.94,-183.92"/>
<text text-anchor="middle" x="697" y="-160.52" font-family="Times,serif" font-size="18.00">all_accept_val</text>
</a>
</g>
</g>
<!-- all_accept_val&#45;&gt;max_accept_val -->
<g id="edge14" class="edge">
<title>all_accept_val&#45;&gt;max_accept_val</title>
<g id="a_edge14"><a xlink:href="31-max_accept_val.html">
<path fill="none" stroke="black" stroke-width="5" d="M636.71,-149.8C633.43,-149.02 630.17,-148.26 627,-147.54 573.64,-135.36 513.89,-122.83 465.04,-112.87"/>
<polygon fill="black" stroke="black" stroke-width="5" points="429.7,-105.72 451.09,-100.87 439.9,-105.75 449.7,-107.73 449.3,-109.69 448.91,-111.65 439.11,-109.67 447.52,-118.51 429.7,-105.72 429.7,-105.72"/>
<ellipse fill="none" stroke="black" stroke-width="5" cx="457.15" cy="-111.27" rx="8" ry="8"/>
</a>
</g>
</g>
<!-- accept -->
<g id="node10" class="node">
<title>accept</title>
<g id="a_node10"><a xlink:href="accept.html" xlink:title="accept">
<ellipse fill="none" stroke="black" cx="725" cy="-239.69" rx="43.62" ry="18.27"/>
<text text-anchor="middle" x="725" y="-234.29" font-family="Times,serif" font-size="18.00">accept</text>
</a>
</g>
</g>
<!-- accept&#45;&gt;all_accept_val -->
<g id="edge13" class="edge">
<title>accept&#45;&gt;all_accept_val</title>
<g id="a_edge13"><a xlink:href="30-all_accept_val.html">
<path fill="none" stroke="black" stroke-width="5" d="M718.22,-221.32C716.06,-215.77 713.57,-209.4 711.08,-203.02"/>
<polygon fill="black" stroke="black" stroke-width="5" points="719.14,-199.59 703.72,-184.14 702.83,-205.95 719.14,-199.59"/>
</a>
</g>
</g>
<!-- accept&#45;&gt;accepted -->
<g id="edge15" class="edge">
<title>accept&#45;&gt;accepted</title>
<g id="a_edge15"><a xlink:href="32-accepted.html">
<path fill="none" stroke="black" stroke-width="5" stroke-dasharray="5,2" d="M747.38,-223.82C760.34,-215.21 777.07,-204.09 792.29,-193.98"/>
<polygon fill="black" stroke="black" stroke-width="5" points="797.34,-201.13 809.15,-182.77 787.65,-186.55 797.34,-201.13"/>
</a>
</g>
</g>
<!-- accepted_to_learner -->
<g id="node30" class="node">
<title>accepted_to_learner</title>
<g id="a_node30"><a xlink:href="accepted_to_learner.html" xlink:title="accepted_to_learner">
<ellipse fill="none" stroke="black" cx="833" cy="-92.15" rx="113.55" ry="18.27"/>
<text text-anchor="middle" x="833" y="-86.75" font-family="Times,serif" font-size="18.00">accepted_to_learner</text>
</a>
</g>
</g>
<!-- accepted&#45;&gt;accepted_to_learner -->
<g id="edge52" class="edge">
<title>accepted&#45;&gt;accepted_to_learner</title>
<g id="a_edge52"><a xlink:href="60-accepted_to_learner.html">
<path fill="none" stroke="black" stroke-width="5" stroke-dasharray="5,2" d="M833,-147.18C833,-142.14 833,-136.45 833,-130.71"/>
<polygon fill="black" stroke="black" stroke-width="5" points="841.75,-130.69 833,-110.69 824.25,-130.69 841.75,-130.69"/>
</a>
</g>
</g>
<!-- learnerlist -->
<g id="node12" class="node">
<title>learnerlist</title>
<g id="a_node12"><a xlink:href="learnerlist.html" xlink:title="learnerlist">
<polygon fill="none" stroke="black" points="617.96,-183.92 530.04,-183.92 530.04,-147.92 617.96,-147.92 617.96,-183.92"/>
<text text-anchor="middle" x="574" y="-160.52" font-family="Times,serif" font-size="18.00">learnerlist</text>
</a>
</g>
</g>
<!-- learnerlist&#45;&gt;accepted_to_learner -->
<g id="edge53" class="edge">
<title>learnerlist&#45;&gt;accepted_to_learner</title>
<g id="a_edge53"><a xlink:href="60-accepted_to_learner.html">
<path fill="none" stroke="black" stroke-width="5" stroke-dasharray="5,2" d="M618.15,-150.5C621.47,-149.48 624.79,-148.48 628,-147.54 669.58,-135.34 716.24,-122.87 754.54,-112.95"/>
<polygon fill="black" stroke="black" stroke-width="5" points="756.82,-121.39 774.01,-107.93 752.46,-104.45 756.82,-121.39"/>
</a>
</g>
</g>
<!-- connect_learner -->
<g id="node13" class="node">
<title>connect_learner</title>
<ellipse fill="none" stroke="black" cx="571" cy="-239.69" rx="92.66" ry="18.27"/>
<text text-anchor="middle" x="571" y="-234.29" font-family="Times,serif" font-size="18.00">connect_learner</text>
</g>
<!-- connect_learner&#45;&gt;learnerlist -->
<g id="edge17" class="edge">
<title>connect_learner&#45;&gt;learnerlist</title>
<g id="a_edge17"><a xlink:href="37-learnerlist.html">
<path fill="none" stroke="black" stroke-width="5" d="M571.74,-220.95C571.96,-215.84 572.2,-210.05 572.44,-204.22"/>
<polygon fill="black" stroke="black" stroke-width="5" points="581.19,-204.31 573.29,-183.97 563.71,-203.58 581.19,-204.31"/>
</a>
</g>
</g>
<!-- nodelist -->
<g id="node14" class="node">
<title>nodelist</title>
<g id="a_node14"><a xlink:href="nodelist.html" xlink:title="nodelist">
<polygon fill="none" stroke="black" points="933.5,-1211.16 860.5,-1211.16 860.5,-1175.16 933.5,-1175.16 933.5,-1211.16"/>
<text text-anchor="middle" x="897" y="-1187.76" font-family="Times,serif" font-size="18.00">nodelist</text>
</a>
</g>
</g>
<!-- nodelist&#45;&gt;prepare -->
<g id="edge34" class="edge">
<title>nodelist&#45;&gt;prepare</title>
<g id="a_edge34"><a xlink:href="48-prepare.html">
<path fill="none" stroke="black" stroke-width="5" stroke-dasharray="5,2" d="M860.36,-1187.23C771.45,-1175.25 543.22,-1144.52 429.89,-1129.26"/>
<polygon fill="black" stroke="black" stroke-width="5" points="430.79,-1120.55 409.8,-1126.56 428.45,-1137.9 430.79,-1120.55"/>
</a>
</g>
</g>
<!-- nodelist&#45;&gt;accept -->
<g id="edge50" class="edge">
<title>nodelist&#45;&gt;accept</title>
<g id="a_edge50"><a xlink:href="59-accept.html">
<path fill="none" stroke="black" stroke-width="5" stroke-dasharray="5,2" d="M933.71,-1188.65C974.29,-1182.51 1034,-1165.77 1034,-1120.39 1034,-1120.39 1034,-1120.39 1034,-587.77 1034,-430.83 855.56,-311.98 769.88,-263.97"/>
<polygon fill="black" stroke="black" stroke-width="5" points="773.9,-256.19 752.15,-254.3 765.52,-271.56 773.9,-256.19"/>
</a>
</g>
</g>
<!-- num_acceptors -->
<g id="node16" class="node">
<title>num_acceptors</title>
<g id="a_node16"><a xlink:href="num_acceptors.html" xlink:title="num_acceptors">
<ellipse fill="none" stroke="black" cx="918" cy="-534" rx="88.22" ry="18.27"/>
<text text-anchor="middle" x="918" y="-528.6" font-family="Times,serif" font-size="18.00">num_acceptors</text>
</a>
</g>
</g>
<!-- nodelist&#45;&gt;num_acceptors -->
<g id="edge19" class="edge">
<title>nodelist&#45;&gt;num_acceptors</title>
<g id="a_edge19"><a xlink:href="39-num_acceptors.html">
<path fill="none" stroke="black" stroke-width="5" d="M898.86,-1175.07C900.28,-1160.54 902,-1139.12 902,-1120.39 902,-1120.39 902,-1120.39 902,-642.54 902,-624.62 904.2,-605.19 906.97,-587.85"/>
<polygon fill="black" stroke="black" stroke-width="5" points="913.8,-552.39 918.85,-573.73 913.87,-562.59 911.98,-572.41 910.02,-572.03 908.05,-571.65 909.94,-561.83 901.18,-570.33 913.8,-552.39 913.8,-552.39"/>
<ellipse fill="none" stroke="black" stroke-width="5" cx="908.5" cy="-579.89" rx="8" ry="8"/>
</a>
</g>
</g>
<!-- connect -->
<g id="node15" class="node">
<title>connect</title>
<ellipse fill="none" stroke="black" cx="891" cy="-1266.93" rx="50.78" ry="18.27"/>
<text text-anchor="middle" x="891" y="-1261.53" font-family="Times,serif" font-size="18.00">connect</text>
</g>
<!-- connect&#45;&gt;nodelist -->
<g id="edge18" class="edge">
<title>connect&#45;&gt;nodelist</title>
<g id="a_edge18"><a xlink:href="38-nodelist.html">
<path fill="none" stroke="black" stroke-width="5" d="M892.48,-1248.19C892.92,-1242.98 893.41,-1237.09 893.91,-1231.15"/>
<polygon fill="black" stroke="black" stroke-width="5" points="902.63,-1231.86 895.58,-1211.2 885.19,-1230.4 902.63,-1231.86"/>
</a>
</g>
</g>
<!-- num_acceptors&#45;&gt;accept_sent -->
<g id="edge41" class="edge">
<title>num_acceptors&#45;&gt;accept_sent</title>
<g id="a_edge41"><a xlink:href="54-accept_sent.html">
<path fill="none" stroke="black" stroke-width="5" d="M876.81,-517.69C851.74,-508.37 819.18,-496.26 790.73,-485.68"/>
<polygon fill="black" stroke="black" stroke-width="5" points="793.62,-477.42 771.83,-478.66 787.53,-493.83 793.62,-477.42"/>
</a>
</g>
</g>
<!-- num_acceptors&#45;&gt;majority -->
<g id="edge45" class="edge">
<title>num_acceptors&#45;&gt;majority</title>
<g id="a_edge45"><a xlink:href="58-majority.html">
<path fill="none" stroke="black" stroke-width="5" d="M909.9,-515.68C894.31,-483.7 857.5,-414.47 811,-368.85 799.55,-357.61 785.39,-347.55 771.84,-339.23"/>
<polygon fill="black" stroke="black" stroke-width="5" points="775.76,-331.39 754.06,-329.01 767.04,-346.56 775.76,-331.39"/>
</a>
</g>
</g>
<!-- num_acceptors&#45;&gt;accepted_to_learner -->
<g id="edge54" class="edge">
<title>num_acceptors&#45;&gt;accepted_to_learner</title>
<g id="a_edge54"><a xlink:href="60-accepted_to_learner.html">
<path fill="none" stroke="black" stroke-width="5" stroke-dasharray="5,2" d="M918,-515.4C918,-500.95 918,-479.96 918,-461.62 918,-461.62 918,-461.62 918,-164.92 918,-146.2 905.81,-131.37 890.67,-120.16"/>
<polygon fill="black" stroke="black" stroke-width="5" points="895.1,-112.62 873.51,-109.41 885.81,-127.45 895.1,-112.62"/>
</a>
</g>
</g>
<!-- clientlist -->
<g id="node17" class="node">
<title>clientlist</title>
<g id="a_node17"><a xlink:href="clientlist.html" xlink:title="clientlist">
<polygon fill="none" stroke="black" points="1037.99,-1284.93 960.01,-1284.93 960.01,-1248.93 1037.99,-1248.93 1037.99,-1284.93"/>
<text text-anchor="middle" x="999" y="-1261.53" font-family="Times,serif" font-size="18.00">clientlist</text>
</a>
</g>
</g>
<!-- client_request -->
<g id="node18" class="node">
<title>client_request</title>
<ellipse fill="none" stroke="black" cx="369" cy="-1365.31" rx="82.91" ry="18.27"/>
<text text-anchor="middle" x="369" y="-1359.91" font-family="Times,serif" font-size="18.00">client_request</text>
</g>
<!-- client_request&#45;&gt;clientlist -->
<g id="edge20" class="edge">
<title>client_request&#45;&gt;clientlist</title>
<g id="a_edge20"><a xlink:href="40-clientlist.html">
<path fill="none" stroke="black" stroke-width="5" d="M414.44,-1349.89C429.15,-1345.78 445.64,-1341.76 461,-1339.31 617.01,-1314.46 659.93,-1345.8 816,-1321.31 858.56,-1314.63 905.16,-1300.94 940.68,-1289.1"/>
<polygon fill="black" stroke="black" stroke-width="5" points="943.6,-1297.35 959.69,-1282.59 937.93,-1280.79 943.6,-1297.35"/>
</a>
</g>
</g>
<!-- propose_num -->
<g id="node19" class="node">
<title>propose_num</title>
<g id="a_node19"><a xlink:href="propose_num.html" xlink:title="propose_num">
<polygon fill="none" stroke="black" points="262.99,-1284.93 149.01,-1284.93 149.01,-1248.93 262.99,-1248.93 262.99,-1284.93"/>
<text text-anchor="middle" x="206" y="-1261.53" font-family="Times,serif" font-size="18.00">propose_num</text>
</a>
</g>
</g>
<!-- client_request&#45;&gt;propose_num -->
<g id="edge22" class="edge">
<title>client_request&#45;&gt;propose_num</title>
<g id="a_edge22"><a xlink:href="41-propose_num.html" xlink:title=" +/&#45;">
<path fill="none" stroke="black" stroke-width="5" d="M340.21,-1347.91C326.31,-1339.95 309.42,-1330.21 294.35,-1321.31 284.88,-1315.72 274.86,-1309.74 265.11,-1303.88"/>
<polygon fill="black" stroke="black" stroke-width="5" points="234.16,-1285.15 255.93,-1287.8 243.75,-1288.61 252.31,-1293.79 251.27,-1295.5 250.24,-1297.21 241.68,-1292.04 246.61,-1303.2 234.16,-1285.15 234.16,-1285.15"/>
<ellipse fill="none" stroke="black" stroke-width="5" cx="258.12" cy="-1299.64" rx="8" ry="8"/>
</a>
</g>
<g id="a_edge22&#45;label"><a xlink:href="41-propose_num.html" xlink:title=" +/&#45;">
<text text-anchor="middle" x="307.82" y="-1306.91" font-family="Times,serif" font-size="18.00"> +/&#45;</text>
</a>
</g>
</g>
<!-- client_request&#45;&gt;accept_sent -->
<g id="edge23" class="edge">
<title>client_request&#45;&gt;accept_sent</title>
<g id="a_edge23"><a xlink:href="43-accept_sent.html">
<path fill="none" stroke="black" stroke-width="5" d="M418.04,-1350.41C431.89,-1346.64 447,-1342.68 461,-1339.31 536.28,-1321.22 802,-1345.35 802,-1267.93 802,-1267.93 802,-1267.93 802,-533 802,-516.01 791.79,-501.89 778.85,-490.81"/>
<polygon fill="black" stroke="black" stroke-width="5" points="783.56,-483.42 762.22,-478.82 773.32,-497.61 783.56,-483.42"/>
</a>
</g>
</g>
<!-- slot_num -->
<g id="node21" class="node">
<title>slot_num</title>
<g id="a_node21"><a xlink:href="slot_num.html" xlink:title="slot_num">
<polygon fill="none" stroke="black" points="445.51,-1284.93 362.49,-1284.93 362.49,-1248.93 445.51,-1248.93 445.51,-1284.93"/>
<text text-anchor="middle" x="404" y="-1261.53" font-family="Times,serif" font-size="18.00">slot_num</text>
</a>
</g>
</g>
<!-- client_request&#45;&gt;slot_num -->
<g id="edge29" class="edge">
<title>client_request&#45;&gt;slot_num</title>
<g id="a_edge29"><a xlink:href="45-slot_num.html" xlink:title=" +/&#45;">
<path fill="none" stroke="black" stroke-width="5" d="M375.42,-1346.63C378.27,-1338.77 381.8,-1329.07 385.38,-1319.2"/>
<polygon fill="black" stroke="black" stroke-width="5" points="397.74,-1285.17 399.37,-1307.04 396.21,-1295.25 392.79,-1304.65 390.91,-1303.97 389.03,-1303.29 392.45,-1293.89 382.45,-1300.9 397.74,-1285.17 397.74,-1285.17"/>
<ellipse fill="none" stroke="black" stroke-width="5" cx="388.18" cy="-1311.49" rx="8" ry="8"/>
</a>
</g>
<g id="a_edge29&#45;label"><a xlink:href="45-slot_num.html" xlink:title=" +/&#45;">
<text text-anchor="middle" x="402.82" y="-1306.91" font-family="Times,serif" font-size="18.00"> +/&#45;</text>
</a>
</g>
</g>
<!-- client_request&#45;&gt;all_advocate_val -->
<g id="edge25" class="edge">
<title>client_request&#45;&gt;all_advocate_val</title>
<g id="a_edge25"><a xlink:href="44-all_advocate_val.html" xlink:title=" +/&#45;">
<path fill="none" stroke="black" stroke-width="5" d="M294.39,-1357.36C197.88,-1346.26 42,-1320.23 42,-1267.93 42,-1267.93 42,-1267.93 42,-789.31 42,-771.92 52.66,-757.71 66.19,-746.68"/>
<polygon fill="black" stroke="black" stroke-width="5" points="71.4,-753.73 82.94,-735.2 61.5,-739.29 71.4,-753.73"/>
</a>
</g>
<g id="a_edge25&#45;label"><a xlink:href="44-all_advocate_val.html" xlink:title=" +/&#45;">
<text text-anchor="middle" x="54.82" y="-1023.22" font-family="Times,serif" font-size="18.00"> +/&#45;</text>
</a>
</g>
</g>
<!-- client_request_temp -->
<g id="node23" class="node">
<title>client_request_temp</title>
<g id="a_node23"><a xlink:href="client_request_temp.html" xlink:title="client_request_temp">
<ellipse fill="none" stroke="black" cx="261" cy="-1193.16" rx="114.53" ry="18.27"/>
<text text-anchor="middle" x="261" y="-1187.76" font-family="Times,serif" font-size="18.00">client_request_temp</text>
</a>
</g>
</g>
<!-- client_request&#45;&gt;client_request_temp -->
<g id="edge30" class="edge">
<title>client_request&#45;&gt;client_request_temp</title>
<g id="a_edge30"><a xlink:href="47-client_request_temp.html">
<path fill="none" stroke="black" stroke-width="5" d="M363.02,-1346.84C354.48,-1323.27 337.33,-1280.56 315,-1248.54 309.38,-1240.49 302.51,-1232.55 295.58,-1225.34"/>
<polygon fill="black" stroke="black" stroke-width="5" points="301.64,-1219.04 281.21,-1211.35 289.43,-1231.57 301.64,-1219.04"/>
</a>
</g>
</g>
<!-- propose_num&#45;&gt;propose_num -->
<g id="edge21" class="edge">
<title>propose_num&#45;&gt;propose_num</title>
<g id="a_edge21"><a xlink:href="41-propose_num.html" xlink:title=" +/&#45;">
<path fill="none" stroke="black" stroke-width="5" d="M263.22,-1273.31C263.38,-1273.29 263.55,-1273.28 263.71,-1273.27"/>
<polygon fill="black" stroke="black" stroke-width="5" points="263.22,-1260.55 272.98,-1280.19 265.6,-1270.46 265.99,-1280.46 263.99,-1280.53 261.99,-1280.61 261.61,-1270.62 254.99,-1280.88 263.22,-1260.55 263.22,-1260.55"/>
<ellipse fill="none" stroke="black" stroke-width="5" cx="264.29" cy="-1288.53" rx="8" ry="8"/>
</a>
</g>
<g id="a_edge21&#45;label"><a xlink:href="41-propose_num.html" xlink:title=" +/&#45;">
<text text-anchor="middle" x="293.82" y="-1261.53" font-family="Times,serif" font-size="18.00"> +/&#45;</text>
</a>
</g>
</g>
<!-- propose_num&#45;&gt;all_advocate_val -->
<g id="edge27" class="edge">
<title>propose_num&#45;&gt;all_advocate_val</title>
<g id="a_edge27"><a xlink:href="44-all_advocate_val.html" xlink:title=" +/&#45;">
<path fill="none" stroke="black" stroke-width="5" d="M161.74,-1248.83C139.83,-1237.2 118,-1219.29 118,-1194.16 118,-1194.16 118,-1194.16 118,-789.31 118,-778.26 118.48,-766.25 119.12,-755.3"/>
<polygon fill="black" stroke="black" stroke-width="5" points="127.87,-755.48 120.51,-734.93 110.41,-754.29 127.87,-755.48"/>
</a>
</g>
<g id="a_edge27&#45;label"><a xlink:href="44-all_advocate_val.html" xlink:title=" +/&#45;">
<text text-anchor="middle" x="130.82" y="-977.83" font-family="Times,serif" font-size="18.00"> +/&#45;</text>
</a>
</g>
</g>
<!-- propose_num&#45;&gt;client_request_temp -->
<g id="edge31" class="edge">
<title>propose_num&#45;&gt;client_request_temp</title>
<g id="a_edge31"><a xlink:href="47-client_request_temp.html">
<path fill="none" stroke="black" stroke-width="5" d="M219.03,-1248.92C223.96,-1242.49 229.76,-1234.93 235.44,-1227.51"/>
<polygon fill="black" stroke="black" stroke-width="5" points="242.46,-1232.74 247.68,-1211.54 228.57,-1222.1 242.46,-1232.74"/>
</a>
</g>
</g>
<!-- sent_for_slot -->
<g id="node28" class="node">
<title>sent_for_slot</title>
<g id="a_node28"><a xlink:href="sent_for_slot.html" xlink:title="sent_for_slot">
<ellipse fill="none" stroke="black" cx="724" cy="-387.23" rx="77.55" ry="18.27"/>
<text text-anchor="middle" x="724" y="-381.83" font-family="Times,serif" font-size="18.00">sent_for_slot</text>
</a>
</g>
</g>
<!-- accept_sent&#45;&gt;sent_for_slot -->
<g id="edge44" class="edge">
<title>accept_sent&#45;&gt;sent_for_slot</title>
<g id="a_edge44"><a xlink:href="57-sent_for_slot.html">
<path fill="none" stroke="black" stroke-width="5" d="M725.52,-442.34C725.51,-442.25 725.51,-442.16 725.51,-442.08"/>
<polygon fill="black" stroke="black" stroke-width="5" points="724.49,-405.85 734.05,-425.59 726.77,-415.79 727.05,-425.79 725.05,-425.84 723.05,-425.9 722.77,-415.9 716.06,-426.09 724.49,-405.85 724.49,-405.85"/>
<ellipse fill="none" stroke="black" stroke-width="5" cx="725.28" cy="-433.84" rx="8" ry="8"/>
</a>
</g>
</g>
<!-- slot_num&#45;&gt;accept_sent -->
<g id="edge24" class="edge">
<title>slot_num&#45;&gt;accept_sent</title>
<g id="a_edge24"><a xlink:href="43-accept_sent.html">
<path fill="none" stroke="black" stroke-width="5" d="M445.65,-1266.29C540.41,-1265.98 764,-1258.45 764,-1194.16 764,-1194.16 764,-1194.16 764,-587.77 764,-556.14 752.91,-521.87 742.72,-497.05"/>
<polygon fill="black" stroke="black" stroke-width="5" points="750.69,-493.45 734.62,-478.68 734.68,-500.51 750.69,-493.45"/>
</a>
</g>
</g>
<!-- slot_num&#45;&gt;slot_num -->
<g id="edge28" class="edge">
<title>slot_num&#45;&gt;slot_num</title>
<g id="a_edge28"><a xlink:href="45-slot_num.html" xlink:title=" +/&#45;">
<path fill="none" stroke="black" stroke-width="5" d="M445.71,-1273.57C445.87,-1273.56 446.03,-1273.56 446.18,-1273.55"/>
<polygon fill="black" stroke="black" stroke-width="5" points="445.71,-1260.28 455.42,-1279.95 448.07,-1270.21 448.42,-1280.2 446.43,-1280.27 444.43,-1280.34 444.07,-1270.35 437.43,-1280.59 445.71,-1260.28 445.71,-1260.28"/>
<ellipse fill="none" stroke="black" stroke-width="5" cx="446.71" cy="-1288.27" rx="8" ry="8"/>
</a>
</g>
<g id="a_edge28&#45;label"><a xlink:href="45-slot_num.html" xlink:title=" +/&#45;">
<text text-anchor="middle" x="476.33" y="-1261.53" font-family="Times,serif" font-size="18.00"> +/&#45;</text>
</a>
</g>
</g>
<!-- slot_num&#45;&gt;all_advocate_val -->
<g id="edge26" class="edge">
<title>slot_num&#45;&gt;all_advocate_val</title>
<g id="a_edge26"><a xlink:href="44-all_advocate_val.html" xlink:title=" +/&#45;">
<path fill="none" stroke="black" stroke-width="5" d="M404.78,-1248.92C404.8,-1229.06 401.95,-1196.2 385,-1174.77 360.95,-1144.36 337.88,-1159.85 306,-1137.77 236.56,-1089.69 194,-1068.7 194,-984.23 194,-984.23 194,-984.23 194,-789.31 194,-772.54 184.03,-758.37 171.51,-747.18"/>
<polygon fill="black" stroke="black" stroke-width="5" points="176.7,-740.13 155.47,-735.04 166.14,-754.09 176.7,-740.13"/>
</a>
</g>
<g id="a_edge26&#45;label"><a xlink:href="44-all_advocate_val.html" xlink:title=" +/&#45;">
<text text-anchor="middle" x="207.82" y="-977.83" font-family="Times,serif" font-size="18.00"> +/&#45;</text>
</a>
</g>
</g>
<!-- slot_num&#45;&gt;client_request_temp -->
<g id="edge32" class="edge">
<title>slot_num&#45;&gt;client_request_temp</title>
<g id="a_edge32"><a xlink:href="47-client_request_temp.html">
<path fill="none" stroke="black" stroke-width="5" d="M379.8,-1248.77C370.15,-1242.31 358.79,-1235.18 348,-1229.54 340.25,-1225.5 331.93,-1221.59 323.62,-1217.95"/>
<polygon fill="black" stroke="black" stroke-width="5" points="326.93,-1209.85 305.1,-1210.21 320.18,-1226 326.93,-1209.85"/>
</a>
</g>
</g>
<!-- max_advocate_val -->
<g id="node25" class="node">
<title>max_advocate_val</title>
<g id="a_node25"><a xlink:href="max_advocate_val.html" xlink:title="max_advocate_val">
<ellipse fill="none" stroke="black" cx="122" cy="-588.77" rx="106.96" ry="18.27"/>
<text text-anchor="middle" x="122" y="-583.37" font-family="Times,serif" font-size="18.00">max_advocate_val</text>
</a>
</g>
</g>
<!-- all_advocate_val&#45;&gt;max_advocate_val -->
<g id="edge37" class="edge">
<title>all_advocate_val&#45;&gt;max_advocate_val</title>
<g id="a_edge37"><a xlink:href="51-max_advocate_val.html">
<path fill="none" stroke="black" stroke-width="5" d="M122,-698.91C122,-684.6 122,-663.34 122,-643.37"/>
<polygon fill="black" stroke="black" stroke-width="5" points="122,-607.33 131,-627.33 124,-617.33 124,-627.33 122,-627.33 120,-627.33 120,-617.33 113,-627.33 122,-607.33 122,-607.33"/>
<ellipse fill="none" stroke="black" stroke-width="5" cx="122" cy="-635.33" rx="8" ry="8"/>
</a>
</g>
</g>
<!-- client_request_temp&#45;&gt;prepare -->
<g id="edge33" class="edge">
<title>client_request_temp&#45;&gt;prepare</title>
<g id="a_edge33"><a xlink:href="48-prepare.html">
<path fill="none" stroke="black" stroke-width="5" stroke-dasharray="5,2" d="M285.41,-1175.15C297.24,-1166.91 311.74,-1156.81 325.04,-1147.53"/>
<polygon fill="black" stroke="black" stroke-width="5" points="330.12,-1154.66 341.53,-1136.05 320.11,-1140.3 330.12,-1154.66"/>
</a>
</g>
</g>
<!-- agreeing_acceptors&#45;&gt;agreeing_acceptors_for_slot -->
<g id="edge38" class="edge">
<title>agreeing_acceptors&#45;&gt;agreeing_acceptors_for_slot</title>
<g id="a_edge38"><a xlink:href="52-agreeing_acceptors_for_slot.html">
<path fill="none" stroke="black" stroke-width="5" d="M489.6,-698.65C490.98,-693.46 492.55,-687.56 494.13,-681.62"/>
<polygon fill="black" stroke="black" stroke-width="5" points="502.62,-683.74 499.31,-662.16 485.71,-679.23 502.62,-683.74"/>
</a>
</g>
</g>
<!-- max_advocate_val&#45;&gt;accept -->
<g id="edge51" class="edge">
<title>max_advocate_val&#45;&gt;accept</title>
<g id="a_edge51"><a xlink:href="59-accept.html">
<path fill="none" stroke="black" stroke-width="5" stroke-dasharray="5,2" d="M129.41,-570.41C149.84,-524.93 211.78,-402.28 306,-349.85 452.92,-268.1 511.59,-305.16 673,-258.08 673.1,-258.05 673.2,-258.02 673.3,-257.99"/>
<polygon fill="black" stroke="black" stroke-width="5" points="675.91,-266.34 692.39,-252.03 670.69,-249.64 675.91,-266.34"/>
</a>
</g>
</g>
<!-- agreeing_acceptor_size -->
<g id="node27" class="node">
<title>agreeing_acceptor_size</title>
<g id="a_node27"><a xlink:href="agreeing_acceptor_size.html" xlink:title="agreeing_acceptor_size">
<ellipse fill="none" stroke="black" cx="529" cy="-534" rx="130.99" ry="18.27"/>
<text text-anchor="middle" x="529" y="-528.6" font-family="Times,serif" font-size="18.00">agreeing_acceptor_size</text>
</a>
</g>
</g>
<!-- agreeing_acceptors_for_slot&#45;&gt;agreeing_acceptor_size -->
<g id="edge40" class="edge">
<title>agreeing_acceptors_for_slot&#45;&gt;agreeing_acceptor_size</title>
<g id="a_edge40"><a xlink:href="53-agreeing_acceptor_size.html">
<path fill="none" stroke="black" stroke-width="5" d="M508.13,-624.78C510.51,-614.53 513.65,-601.03 516.76,-587.63"/>
<polygon fill="black" stroke="black" stroke-width="5" points="524.95,-552.43 529.19,-573.95 524.63,-562.62 522.37,-572.36 520.42,-571.91 518.47,-571.46 520.74,-561.72 511.65,-569.87 524.95,-552.43 524.95,-552.43"/>
<ellipse fill="none" stroke="black" stroke-width="5" cx="518.61" cy="-579.7" rx="8" ry="8"/>
</a>
</g>
</g>
<!-- agreeing_acceptor_size&#45;&gt;accept_sent -->
<g id="edge42" class="edge">
<title>agreeing_acceptor_size&#45;&gt;accept_sent</title>
<g id="a_edge42"><a xlink:href="54-accept_sent.html">
<path fill="none" stroke="black" stroke-width="5" d="M574.2,-516.62C599.55,-507.44 631.64,-495.81 659.78,-485.61"/>
<polygon fill="black" stroke="black" stroke-width="5" points="663.14,-493.7 678.96,-478.66 657.17,-477.25 663.14,-493.7"/>
</a>
</g>
</g>
<!-- agreeing_acceptor_size&#45;&gt;majority -->
<g id="edge46" class="edge">
<title>agreeing_acceptor_size&#45;&gt;majority</title>
<g id="a_edge46"><a xlink:href="58-majority.html">
<path fill="none" stroke="black" stroke-width="5" d="M537.34,-515.43C553.21,-483.35 590.39,-414.38 637,-368.85 648.47,-357.64 662.64,-347.58 676.19,-339.26"/>
<polygon fill="black" stroke="black" stroke-width="5" points="680.99,-346.59 693.97,-329.04 672.27,-331.42 680.99,-346.59"/>
</a>
</g>
</g>
<!-- sent_for_slot&#45;&gt;majority -->
<g id="edge48" class="edge">
<title>sent_for_slot&#45;&gt;majority</title>
<g id="a_edge48"><a xlink:href="58-majority.html">
<path fill="none" stroke="black" stroke-width="5" d="M724,-368.49C724,-363.45 724,-357.76 724,-352.02"/>
<polygon fill="black" stroke="black" stroke-width="5" points="732.75,-352 724,-332 715.25,-352 732.75,-352"/>
</a>
</g>
</g>
<!-- majority&#45;&gt;accept -->
<g id="edge49" class="edge">
<title>majority&#45;&gt;accept</title>
<g id="a_edge49"><a xlink:href="59-accept.html">
<path fill="none" stroke="black" stroke-width="5" stroke-dasharray="5,2" d="M724.25,-294.72C724.32,-289.68 724.4,-283.99 724.48,-278.25"/>
<polygon fill="black" stroke="black" stroke-width="5" points="733.23,-278.35 724.76,-258.23 715.73,-278.11 733.23,-278.35"/>
</a>
</g>
</g>
<!-- S -->
<g id="node31" class="node">
<title>S</title>
<g id="a_node31"><a xlink:href="javascript:advanceTo(-2)" xlink:title="S">
<polygon fill="none" stroke="blue" stroke-width="3" points="497,-1391.31 470,-1365.31 497,-1339.31 524,-1365.31 497,-1391.31"/>
<text text-anchor="middle" x="497" y="-1359.91" font-family="Times,serif" font-size="18.00">S</text>
</a>
</g>
</g>
<!-- T -->
<g id="node32" class="node">
<title>T</title>
<g id="a_node32"><a xlink:href="javascript:advanceTo(0)" xlink:title="T">
<polygon fill="none" stroke="blue" stroke-width="3" points="569,-1391.31 542,-1365.31 569,-1339.31 596,-1365.31 569,-1391.31"/>
<text text-anchor="middle" x="569" y="-1359.91" font-family="Times,serif" font-size="18.00">T</text>
</a>
</g>
</g>
<!-- accepted_to_client -->
<g id="node33" class="node">
<title>accepted_to_client</title>
<ellipse fill="none" stroke="black" cx="721" cy="-1365.31" rx="106.95" ry="18.27"/>
<text text-anchor="middle" x="721" y="-1359.91" font-family="Times,serif" font-size="18.00">accepted_to_client</text>
</g>
<!-- all_acceptors -->
<g id="node34" class="node">
<title>all_acceptors</title>
<polygon fill="none" stroke="black" points="956.45,-1383.31 845.55,-1383.31 845.55,-1347.31 956.45,-1347.31 956.45,-1383.31"/>
<text text-anchor="middle" x="901" y="-1359.91" font-family="Times,serif" font-size="18.00">all_acceptors</text>
</g>
</g>
</svg>
