<?xml version="1.0" encoding="UTF-8" standalone="no"?>
<!DOCTYPE svg PUBLIC "-//W3C//DTD SVG 1.1//EN"
 "http://www.w3.org/Graphics/SVG/1.1/DTD/svg11.dtd">
<!-- Generated by graphviz version 2.43.0 (0)
 -->
<!-- Title: G Pages: 1 -->
<svg width="1156pt" height="1430pt"
 viewBox="0.00 0.00 1155.99 1430.00" xmlns="http://www.w3.org/2000/svg" xmlns:xlink="http://www.w3.org/1999/xlink">
<g id="graph0" class="graph" transform="scale(1 1) rotate(0) translate(4 1426)">
<script type='text/javascript'>
  <![CDATA[

var windows = new Array()
var info = new Array()

function openWin(target, time) {
  win = window.open(target + "_" + time + ".html", target, "location=no,width=400,height=180,left=0,status=no");
  // hm, an associative array, how strange.
  info[target] = 1
}

function advanceTo(time) {
  arr = gup("wins").split(",");
  for (i=0; i < arr.length; i++) {
    if (arr[i] != "") {
      openWin(arr[i], time);
    }
  }
  str = '';
  // getting 'key_cols'
  for (var i in info) {
    str = str + ',' + i;
  }
  self.window.location.href = 'tm_' + time + '.svg?wins=' + str;
}

// off the netz
function gup(name) {
  name = name.replace(/[[]/,"\[").replace(/[]]/,"\]");
  var regexS = "[\?&]"+name+"=([^&#]*)";
  var regex = new RegExp(regexS);
  var results = regex.exec(window.location.href);
  if (results == null)
    return "";
  else
    return results[1];
}

  ]]>
</script>

<polygon fill="white" stroke="transparent" points="-4,4 -4,-1426 1151.99,-1426 1151.99,4 -4,4"/>
<!-- cur_prep -->
<g id="node1" class="node">
<title>cur_prep</title>
<g id="a_node1"><a xlink:href="cur_prep.html" xlink:title="cur_prep">
<ellipse fill="none" stroke="black" cx="615" cy="-1076.31" rx="56.59" ry="18.27"/>
<text text-anchor="middle" x="615" y="-1070.91" font-family="Times,serif" font-size="18.00">cur_prep</text>
</a>
</g>
</g>
<!-- existing_id -->
<g id="node3" class="node">
<title>existing_id</title>
<g id="a_node3"><a xlink:href="existing_id.html" xlink:title="existing_id">
<ellipse fill="none" stroke="black" cx="615" cy="-985.54" rx="67.76" ry="18.27"/>
<text text-anchor="middle" x="615" y="-980.14" font-family="Times,serif" font-size="18.00">existing_id</text>
</a>
</g>
</g>
<!-- cur_prep&#45;&gt;existing_id -->
<g id="edge3" class="edge">
<title>cur_prep&#45;&gt;existing_id</title>
<g id="a_edge3"><a xlink:href="23-existing_id.html">
<path fill="none" stroke="black" stroke-width="5" d="M615,-1057.77C615,-1048.17 615,-1035.88 615,-1024.22"/>
<polygon fill="black" stroke="black" stroke-width="5" points="623.75,-1024.04 615,-1004.04 606.25,-1024.04 623.75,-1024.04"/>
</a>
</g>
</g>
<!-- existing_val -->
<g id="node5" class="node">
<title>existing_val</title>
<g id="a_node5"><a xlink:href="existing_val.html" xlink:title="existing_val">
<ellipse fill="none" stroke="black" cx="647" cy="-731.77" rx="73.56" ry="18.27"/>
<text text-anchor="middle" x="647" y="-726.37" font-family="Times,serif" font-size="18.00">existing_val</text>
</a>
</g>
</g>
<!-- cur_prep&#45;&gt;existing_val -->
<g id="edge5" class="edge">
<title>cur_prep&#45;&gt;existing_val</title>
<g id="a_edge5"><a xlink:href="24-existing_val.html">
<path fill="none" stroke="black" stroke-width="5" d="M652.51,-1062.43C684.04,-1048.93 724,-1024.37 724,-986.54 724,-986.54 724,-986.54 724,-804.16 724,-785.88 712.19,-770.97 697.82,-759.59"/>
<polygon fill="black" stroke="black" stroke-width="5" points="702.47,-752.18 681,-748.26 692.69,-766.69 702.47,-752.18"/>
</a>
</g>
</g>
<!-- prepare -->
<g id="node2" class="node">
<title>prepare</title>
<g id="a_node2"><a xlink:href="prepare.html" xlink:title="prepare">
<ellipse fill="none" stroke="black" cx="519" cy="-1150.08" rx="49.43" ry="18.27"/>
<text text-anchor="middle" x="519" y="-1144.68" font-family="Times,serif" font-size="18.00">prepare</text>
</a>
</g>
</g>
<!-- prepare&#45;&gt;cur_prep -->
<g id="edge1" class="edge">
<title>prepare&#45;&gt;cur_prep</title>
<g id="a_edge1"><a xlink:href="22-cur_prep.html">
<path fill="none" stroke="black" stroke-width="5" d="M540.31,-1133.15C551.17,-1125.03 564.7,-1114.91 577.26,-1105.53"/>
<polygon fill="black" stroke="black" stroke-width="5" points="582.64,-1112.43 593.42,-1093.44 572.16,-1098.41 582.64,-1112.43"/>
</a>
</g>
</g>
<!-- max_promise_id -->
<g id="node4" class="node">
<title>max_promise_id</title>
<g id="a_node4"><a xlink:href="max_promise_id.html" xlink:title="max_promise_id">
<polygon fill="none" stroke="black" points="608.48,-913.16 471.52,-913.16 471.52,-877.16 608.48,-877.16 608.48,-913.16"/>
<text text-anchor="middle" x="540" y="-889.76" font-family="Times,serif" font-size="18.00">max_promise_id</text>
</a>
</g>
</g>
<!-- prepare&#45;&gt;max_promise_id -->
<g id="edge7" class="edge">
<title>prepare&#45;&gt;max_promise_id</title>
<g id="a_edge7"><a xlink:href="25-max_promise_id.html" xlink:title=" +/&#45;">
<path fill="none" stroke="black" stroke-width="5" d="M520.44,-1131.7C523.52,-1094.7 530.81,-1006.86 535.57,-949.54"/>
<polygon fill="black" stroke="black" stroke-width="5" points="538.57,-913.33 545.89,-934 539.74,-923.46 538.91,-933.43 536.92,-933.26 534.93,-933.09 535.75,-923.13 527.95,-932.51 538.57,-913.33 538.57,-913.33"/>
<ellipse fill="none" stroke="black" stroke-width="5" cx="536.26" cy="-941.23" rx="8" ry="8"/>
</a>
</g>
<g id="a_edge7&#45;label"><a xlink:href="25-max_promise_id.html" xlink:title=" +/&#45;">
<text text-anchor="middle" x="542.82" y="-1025.53" font-family="Times,serif" font-size="18.00"> +/&#45;</text>
</a>
</g>
</g>
<!-- promise -->
<g id="node7" class="node">
<title>promise</title>
<g id="a_node7"><a xlink:href="promise.html" xlink:title="promise">
<ellipse fill="none" stroke="black" cx="545" cy="-658" rx="52.14" ry="18.27"/>
<text text-anchor="middle" x="545" y="-652.6" font-family="Times,serif" font-size="18.00">promise</text>
</a>
</g>
</g>
<!-- prepare&#45;&gt;promise -->
<g id="edge9" class="edge">
<title>prepare&#45;&gt;promise</title>
<g id="a_edge9"><a xlink:href="28-promise.html">
<path fill="none" stroke="black" stroke-width="5" stroke-dasharray="5,2" d="M478.62,-1139.2C448.67,-1129.18 413,-1110.31 413,-1077.31 413,-1077.31 413,-1077.31 413,-730.77 413,-697.89 445,-679.99 477.49,-670.29"/>
<polygon fill="black" stroke="black" stroke-width="5" points="479.73,-678.75 496.97,-665.36 475.44,-661.78 479.73,-678.75"/>
</a>
</g>
</g>
<!-- existing_id&#45;&gt;max_promise_id -->
<g id="edge8" class="edge">
<title>existing_id&#45;&gt;max_promise_id</title>
<g id="a_edge8"><a xlink:href="27-max_promise_id.html" xlink:title=" +/&#45;">
<path fill="none" stroke="black" stroke-width="5" d="M602.56,-967.31C594.67,-956.65 584.09,-942.83 574,-931.16 573.1,-930.12 572.19,-929.08 571.25,-928.03"/>
<polygon fill="black" stroke="black" stroke-width="5" points="577.43,-921.82 557.36,-913.23 564.67,-933.8 577.43,-921.82"/>
</a>
</g>
<g id="a_edge8&#45;label"><a xlink:href="27-max_promise_id.html" xlink:title=" +/&#45;">
<text text-anchor="middle" x="600.82" y="-934.76" font-family="Times,serif" font-size="18.00"> +/&#45;</text>
</a>
</g>
</g>
<!-- existing_id&#45;&gt;promise -->
<g id="edge13" class="edge">
<title>existing_id&#45;&gt;promise</title>
<g id="a_edge13"><a xlink:href="30-promise.html">
<path fill="none" stroke="black" stroke-width="5" stroke-dasharray="5,2" d="M633.33,-967.53C679.64,-922.51 793.27,-797.93 730,-713.39 715.51,-694.02 658.44,-679.19 611.48,-669.95"/>
<polygon fill="black" stroke="black" stroke-width="5" points="613.06,-661.34 591.79,-666.27 609.84,-678.54 613.06,-661.34"/>
</a>
</g>
</g>
<!-- max_promise_id&#45;&gt;existing_id -->
<g id="edge2" class="edge">
<title>max_promise_id&#45;&gt;existing_id</title>
<g id="a_edge2"><a xlink:href="23-existing_id.html">
<path fill="none" stroke="black" stroke-width="5" d="M549.27,-913.26C553.28,-920.2 558.36,-928.44 569.14,-941.32"/>
<polygon fill="black" stroke="black" stroke-width="5" points="593.48,-967.99 573.35,-959.28 585.26,-961.95 578.52,-954.56 580,-953.21 581.48,-951.87 588.22,-959.25 586.65,-947.15 593.48,-967.99 593.48,-967.99"/>
<ellipse fill="none" stroke="black" stroke-width="5" cx="574.61" cy="-947.31" rx="8" ry="8"/>
</a>
</g>
</g>
<!-- max_promise_id&#45;&gt;max_promise_id -->
<g id="edge6" class="edge">
<title>max_promise_id&#45;&gt;max_promise_id</title>
<g id="a_edge6"><a xlink:href="25-max_promise_id.html" xlink:title=" +/&#45;">
<path fill="none" stroke="black" stroke-width="5" d="M608.52,-902.72C608.68,-902.7 608.85,-902.68 609.02,-902.66"/>
<polygon fill="black" stroke="black" stroke-width="5" points="608.52,-887.6 618.17,-907.29 610.85,-897.52 611.18,-907.52 609.18,-907.58 607.18,-907.65 606.85,-897.66 600.18,-907.88 608.52,-887.6 608.52,-887.6"/>
<ellipse fill="none" stroke="black" stroke-width="5" cx="609.44" cy="-915.58" rx="8" ry="8"/>
</a>
</g>
<g id="a_edge6&#45;label"><a xlink:href="25-max_promise_id.html" xlink:title=" +/&#45;">
<text text-anchor="middle" x="639.31" y="-889.76" font-family="Times,serif" font-size="18.00"> +/&#45;</text>
</a>
</g>
</g>
<!-- max_accept_val -->
<g id="node6" class="node">
<title>max_accept_val</title>
<g id="a_node6"><a xlink:href="max_accept_val.html" xlink:title="max_accept_val">
<polygon fill="none" stroke="black" points="573.44,-823.16 440.56,-823.16 440.56,-787.16 573.44,-787.16 573.44,-823.16"/>
<text text-anchor="middle" x="507" y="-799.76" font-family="Times,serif" font-size="18.00">max_accept_val</text>
</a>
</g>
</g>
<!-- max_promise_id&#45;&gt;max_accept_val -->
<g id="edge18" class="edge">
<title>max_promise_id&#45;&gt;max_accept_val</title>
<g id="a_edge18"><a xlink:href="33-max_accept_val.html" xlink:title=" +/&#45;">
<path fill="none" stroke="black" stroke-width="5" d="M533.48,-876.77C531.3,-870.95 528.74,-864.13 526.09,-857.07"/>
<polygon fill="black" stroke="black" stroke-width="5" points="513.39,-823.21 528.84,-838.77 518.78,-831.87 522.29,-841.23 520.42,-841.93 518.54,-842.64 515.03,-833.27 511.99,-845.09 513.39,-823.21 513.39,-823.21"/>
<ellipse fill="none" stroke="black" stroke-width="5" cx="523.23" cy="-849.42" rx="8" ry="8"/>
</a>
</g>
<g id="a_edge18&#45;label"><a xlink:href="33-max_accept_val.html" xlink:title=" +/&#45;">
<text text-anchor="middle" x="539.82" y="-844.76" font-family="Times,serif" font-size="18.00"> +/&#45;</text>
</a>
</g>
</g>
<!-- max_promise_id&#45;&gt;promise -->
<g id="edge10" class="edge">
<title>max_promise_id&#45;&gt;promise</title>
<g id="a_edge10"><a xlink:href="28-promise.html">
<path fill="none" stroke="black" stroke-width="5" stroke-dasharray="5,2" d="M572.08,-877.05C591.31,-864.85 614.09,-846.5 625,-823.16 631.78,-808.66 632.85,-801.1 625,-787.16 609.44,-759.53 582.31,-776.05 564,-750.16 553.04,-734.66 548.14,-714.2 546.04,-696.59"/>
<polygon fill="black" stroke="black" stroke-width="5" points="554.75,-695.75 544.64,-676.4 537.29,-696.96 554.75,-695.75"/>
</a>
</g>
</g>
<!-- accepted -->
<g id="node8" class="node">
<title>accepted</title>
<g id="a_node8"><a xlink:href="accepted.html" xlink:title="accepted">
<ellipse fill="none" stroke="black" cx="273" cy="-92.15" rx="55.65" ry="18.27"/>
<text text-anchor="middle" x="273" y="-86.75" font-family="Times,serif" font-size="18.00">accepted</text>
</a>
</g>
</g>
<!-- max_promise_id&#45;&gt;accepted -->
<g id="edge15" class="edge">
<title>max_promise_id&#45;&gt;accepted</title>
<g id="a_edge15"><a xlink:href="31-accepted.html">
<path fill="none" stroke="black" stroke-width="5" stroke-dasharray="5,2" d="M507.52,-877.05C484.82,-864.13 454.64,-844.93 432,-823.16 321.74,-717.1 300.59,-675.64 249,-531.62 234.85,-492.11 223,-482.81 223,-440.85 223,-440.85 223,-440.85 223,-164.92 223,-150.13 230.24,-136.2 239.21,-124.62"/>
<polygon fill="black" stroke="black" stroke-width="5" points="245.97,-130.2 252.95,-109.51 233.02,-118.42 245.97,-130.2"/>
</a>
</g>
</g>
<!-- existing_val&#45;&gt;promise -->
<g id="edge12" class="edge">
<title>existing_val&#45;&gt;promise</title>
<g id="a_edge12"><a xlink:href="29-promise.html">
<path fill="none" stroke="black" stroke-width="5" stroke-dasharray="5,2" d="M623.6,-714.31C611.82,-706.02 597.23,-695.75 583.83,-686.33"/>
<polygon fill="black" stroke="black" stroke-width="5" points="588.63,-679.01 567.24,-674.65 578.56,-693.32 588.63,-679.01"/>
</a>
</g>
</g>
<!-- max_accept_val&#45;&gt;existing_val -->
<g id="edge4" class="edge">
<title>max_accept_val&#45;&gt;existing_val</title>
<g id="a_edge4"><a xlink:href="24-existing_val.html">
<path fill="none" stroke="black" stroke-width="5" d="M540.53,-787.06C553.55,-780.42 568.89,-772.6 583.82,-764.99"/>
<polygon fill="black" stroke="black" stroke-width="5" points="616.13,-748.51 602.4,-765.61 608.13,-754.83 599.22,-759.38 598.32,-757.6 597.41,-755.81 606.32,-751.27 594.23,-749.58 616.13,-748.51 616.13,-748.51"/>
<ellipse fill="none" stroke="black" stroke-width="5" cx="591.19" cy="-761.23" rx="8" ry="8"/>
</a>
</g>
</g>
<!-- max_accept_val&#45;&gt;max_accept_val -->
<g id="edge16" class="edge">
<title>max_accept_val&#45;&gt;max_accept_val</title>
<g id="a_edge16"><a xlink:href="33-max_accept_val.html" xlink:title=" +/&#45;">
<path fill="none" stroke="black" stroke-width="5" d="M573.57,-811.37C573.74,-811.36 573.9,-811.34 574.07,-811.33"/>
<polygon fill="black" stroke="black" stroke-width="5" points="573.57,-798.94 583.36,-818.56 575.97,-808.85 576.37,-818.84 574.37,-818.92 572.37,-819 571.97,-809.01 565.38,-819.28 573.57,-798.94 573.57,-798.94"/>
<ellipse fill="none" stroke="black" stroke-width="5" cx="574.69" cy="-826.92" rx="8" ry="8"/>
</a>
</g>
<g id="a_edge16&#45;label"><a xlink:href="33-max_accept_val.html" xlink:title=" +/&#45;">
<text text-anchor="middle" x="604.29" y="-799.76" font-family="Times,serif" font-size="18.00"> +/&#45;</text>
</a>
</g>
</g>
<!-- max_accept_val&#45;&gt;promise -->
<g id="edge11" class="edge">
<title>max_accept_val&#45;&gt;promise</title>
<g id="a_edge11"><a xlink:href="28-promise.html">
<path fill="none" stroke="black" stroke-width="5" stroke-dasharray="5,2" d="M509.89,-786.82C513.23,-767.9 519.29,-736.42 531.43,-695.76"/>
<polygon fill="black" stroke="black" stroke-width="5" points="539.86,-698.14 537.45,-676.44 523.15,-692.93 539.86,-698.14"/>
</a>
</g>
</g>
<!-- accept_sent -->
<g id="node18" class="node">
<title>accept_sent</title>
<g id="a_node18"><a xlink:href="accept_sent.html" xlink:title="accept_sent">
<polygon fill="none" stroke="black" points="855.95,-331.08 756.05,-331.08 756.05,-295.08 855.95,-295.08 855.95,-331.08"/>
<text text-anchor="middle" x="806" y="-307.68" font-family="Times,serif" font-size="18.00">accept_sent</text>
</a>
</g>
</g>
<!-- promise&#45;&gt;accept_sent -->
<g id="edge48" class="edge">
<title>promise&#45;&gt;accept_sent</title>
<g id="a_edge48"><a xlink:href="58-accept_sent.html" xlink:title=" +/&#45;">
<path fill="none" stroke="black" stroke-width="5" d="M595.07,-652.34C626.85,-647.8 668.05,-638.91 701,-621.62 774.25,-583.17 804.75,-571.37 838,-495.62 856.42,-453.64 844.21,-401.81 829.88,-364.29"/>
<polygon fill="black" stroke="black" stroke-width="5" points="815.24,-331.12 831.55,-345.78 821.11,-339.46 825.15,-348.61 823.32,-349.41 821.49,-350.22 817.45,-341.07 815.08,-353.05 815.24,-331.12 815.24,-331.12"/>
<ellipse fill="none" stroke="black" stroke-width="5" cx="826.55" cy="-356.73" rx="8" ry="8"/>
</a>
</g>
<g id="a_edge48&#45;label"><a xlink:href="58-accept_sent.html" xlink:title=" +/&#45;">
<text text-anchor="middle" x="858.82" y="-471.83" font-family="Times,serif" font-size="18.00"> +/&#45;</text>
</a>
</g>
</g>
<!-- highest_id_responded -->
<g id="node20" class="node">
<title>highest_id_responded</title>
<g id="a_node20"><a xlink:href="highest_id_responded.html" xlink:title="highest_id_responded">
<polygon fill="none" stroke="black" points="201.97,-585.62 28.03,-585.62 28.03,-549.62 201.97,-549.62 201.97,-585.62"/>
<text text-anchor="middle" x="115" y="-562.22" font-family="Times,serif" font-size="18.00">highest_id_responded</text>
</a>
</g>
</g>
<!-- promise&#45;&gt;highest_id_responded -->
<g id="edge40" class="edge">
<title>promise&#45;&gt;highest_id_responded</title>
<g id="a_edge40"><a xlink:href="52-highest_id_responded.html" xlink:title=" +/&#45;">
<path fill="none" stroke="black" stroke-width="5" d="M501,-647.96C438.59,-635.13 322.07,-611.18 233.32,-592.94"/>
<polygon fill="black" stroke="black" stroke-width="5" points="197.82,-585.64 219.22,-580.85 208.02,-585.7 217.82,-587.71 217.41,-589.67 217.01,-591.63 207.21,-589.61 215.6,-598.48 197.82,-585.64 197.82,-585.64"/>
<ellipse fill="none" stroke="black" stroke-width="5" cx="225.25" cy="-591.28" rx="8" ry="8"/>
</a>
</g>
<g id="a_edge40&#45;label"><a xlink:href="52-highest_id_responded.html" xlink:title=" +/&#45;">
<text text-anchor="middle" x="381.82" y="-607.22" font-family="Times,serif" font-size="18.00"> +/&#45;</text>
</a>
</g>
</g>
<!-- advocate_val -->
<g id="node21" class="node">
<title>advocate_val</title>
<g id="a_node21"><a xlink:href="advocate_val.html" xlink:title="advocate_val">
<polygon fill="none" stroke="black" points="361.45,-495.23 250.55,-495.23 250.55,-459.23 361.45,-459.23 361.45,-495.23"/>
<text text-anchor="middle" x="306" y="-471.83" font-family="Times,serif" font-size="18.00">advocate_val</text>
</a>
</g>
</g>
<!-- promise&#45;&gt;advocate_val -->
<g id="edge42" class="edge">
<title>promise&#45;&gt;advocate_val</title>
<g id="a_edge42"><a xlink:href="54-advocate_val.html" xlink:title=" +/&#45;">
<path fill="none" stroke="black" stroke-width="5" d="M524.81,-640.92C494.67,-617.03 435.45,-570.55 361.07,-516.47"/>
<polygon fill="black" stroke="black" stroke-width="5" points="331.86,-495.41 353.34,-499.8 341.14,-499.63 349.25,-505.48 348.08,-507.1 346.91,-508.73 338.8,-502.88 342.81,-514.4 331.86,-495.41 331.86,-495.41"/>
<ellipse fill="none" stroke="black" stroke-width="5" cx="354.57" cy="-511.78" rx="8" ry="8"/>
</a>
</g>
<g id="a_edge42&#45;label"><a xlink:href="54-advocate_val.html" xlink:title=" +/&#45;">
<text text-anchor="middle" x="465.82" y="-562.22" font-family="Times,serif" font-size="18.00"> +/&#45;</text>
</a>
</g>
</g>
<!-- agreeing_acceptors -->
<g id="node23" class="node">
<title>agreeing_acceptors</title>
<g id="a_node23"><a xlink:href="agreeing_acceptors.html" xlink:title="agreeing_acceptors">
<polygon fill="none" stroke="black" points="705.42,-585.62 550.58,-585.62 550.58,-549.62 705.42,-549.62 705.42,-585.62"/>
<text text-anchor="middle" x="628" y="-562.22" font-family="Times,serif" font-size="18.00">agreeing_acceptors</text>
</a>
</g>
</g>
<!-- promise&#45;&gt;agreeing_acceptors -->
<g id="edge38" class="edge">
<title>promise&#45;&gt;agreeing_acceptors</title>
<g id="a_edge38"><a xlink:href="51-agreeing_acceptors.html">
<path fill="none" stroke="black" stroke-width="5" d="M560.61,-640.38C571.14,-629.16 585.38,-614.01 598.05,-600.51"/>
<polygon fill="black" stroke="black" stroke-width="5" points="604.58,-606.34 611.89,-585.77 591.82,-594.36 604.58,-606.34"/>
</a>
</g>
</g>
<!-- agreeing_acceptors_for_slot -->
<g id="node24" class="node">
<title>agreeing_acceptors_for_slot</title>
<g id="a_node24"><a xlink:href="agreeing_acceptors_for_slot.html" xlink:title="agreeing_acceptors_for_slot">
<ellipse fill="none" stroke="black" cx="673" cy="-477.23" rx="155.51" ry="18.27"/>
<text text-anchor="middle" x="673" y="-471.83" font-family="Times,serif" font-size="18.00">agreeing_acceptors_for_slot</text>
</a>
</g>
</g>
<!-- promise&#45;&gt;agreeing_acceptors_for_slot -->
<g id="edge44" class="edge">
<title>promise&#45;&gt;agreeing_acceptors_for_slot</title>
<g id="a_edge44"><a xlink:href="56-agreeing_acceptors_for_slot.html">
<path fill="none" stroke="black" stroke-width="5" d="M593.56,-651.05C633.4,-643.33 687.42,-625.7 714,-585.62 729.06,-562.91 716.4,-533.89 701.3,-511.74"/>
<polygon fill="black" stroke="black" stroke-width="5" points="708.2,-506.36 689.15,-495.7 694.25,-516.93 708.2,-506.36"/>
</a>
</g>
</g>
<!-- majority -->
<g id="node26" class="node">
<title>majority</title>
<g id="a_node26"><a xlink:href="majority.html" xlink:title="majority">
<ellipse fill="none" stroke="black" cx="527" cy="-239.69" rx="54.38" ry="18.27"/>
<text text-anchor="middle" x="527" y="-234.29" font-family="Times,serif" font-size="18.00">majority</text>
</a>
</g>
</g>
<!-- promise&#45;&gt;majority -->
<g id="edge52" class="edge">
<title>promise&#45;&gt;majority</title>
<g id="a_edge52"><a xlink:href="60-majority.html">
<path fill="none" stroke="black" stroke-width="5" d="M537.33,-639.74C521.99,-603.61 489,-517.02 489,-440.85 489,-440.85 489,-440.85 489,-312.08 489,-298.79 494.2,-285.56 500.75,-274.18"/>
<polygon fill="black" stroke="black" stroke-width="5" points="508.03,-279.02 511.98,-257.55 493.53,-269.22 508.03,-279.02"/>
</a>
</g>
</g>
<!-- accepted_to_learner -->
<g id="node27" class="node">
<title>accepted_to_learner</title>
<g id="a_node27"><a xlink:href="accepted_to_learner.html" xlink:title="accepted_to_learner">
<ellipse fill="none" stroke="black" cx="273" cy="-18.38" rx="113.55" ry="18.27"/>
<text text-anchor="middle" x="273" y="-12.98" font-family="Times,serif" font-size="18.00">accepted_to_learner</text>
</a>
</g>
</g>
<!-- accepted&#45;&gt;accepted_to_learner -->
<g id="edge57" class="edge">
<title>accepted&#45;&gt;accepted_to_learner</title>
<g id="a_edge57"><a xlink:href="62-accepted_to_learner.html">
<path fill="none" stroke="black" stroke-width="5" stroke-dasharray="5,2" d="M273,-73.41C273,-68.37 273,-62.68 273,-56.94"/>
<polygon fill="black" stroke="black" stroke-width="5" points="281.75,-56.92 273,-36.92 264.25,-56.92 281.75,-56.92"/>
</a>
</g>
</g>
<!-- accept -->
<g id="node9" class="node">
<title>accept</title>
<g id="a_node9"><a xlink:href="accept.html" xlink:title="accept">
<ellipse fill="none" stroke="black" cx="397" cy="-165.92" rx="43.62" ry="18.27"/>
<text text-anchor="middle" x="397" y="-160.52" font-family="Times,serif" font-size="18.00">accept</text>
</a>
</g>
</g>
<!-- accept&#45;&gt;max_accept_val -->
<g id="edge17" class="edge">
<title>accept&#45;&gt;max_accept_val</title>
<g id="a_edge17"><a xlink:href="33-max_accept_val.html" xlink:title=" +/&#45;">
<path fill="none" stroke="black" stroke-width="5" d="M397,-184.33C397,-198.86 397,-220.13 397,-238.69 397,-478.23 397,-478.23 397,-478.23 397,-526.26 396.36,-539.29 409,-585.62 425.6,-646.43 456.9,-711.85 479.68,-755.1"/>
<polygon fill="black" stroke="black" stroke-width="5" points="497.07,-787 479.59,-773.75 490.52,-779.18 485.74,-770.4 487.49,-769.44 489.25,-768.48 494.04,-777.26 495.4,-765.13 497.07,-787 497.07,-787"/>
<ellipse fill="none" stroke="black" stroke-width="5" cx="483.66" cy="-762.42" rx="8" ry="8"/>
</a>
</g>
<g id="a_edge17&#45;label"><a xlink:href="33-max_accept_val.html" xlink:title=" +/&#45;">
<text text-anchor="middle" x="409.82" y="-471.83" font-family="Times,serif" font-size="18.00"> +/&#45;</text>
</a>
</g>
</g>
<!-- accept&#45;&gt;accepted -->
<g id="edge14" class="edge">
<title>accept&#45;&gt;accepted</title>
<g id="a_edge14"><a xlink:href="31-accepted.html">
<path fill="none" stroke="black" stroke-width="5" stroke-dasharray="5,2" d="M372.2,-150.57C356.41,-141.43 335.5,-129.33 316.95,-118.59"/>
<polygon fill="black" stroke="black" stroke-width="5" points="321.16,-110.92 299.47,-108.47 312.39,-126.06 321.16,-110.92"/>
</a>
</g>
</g>
<!-- learnerlist -->
<g id="node10" class="node">
<title>learnerlist</title>
<g id="a_node10"><a xlink:href="learnerlist.html" xlink:title="learnerlist">
<polygon fill="none" stroke="black" points="146.96,-110.15 59.04,-110.15 59.04,-74.15 146.96,-74.15 146.96,-110.15"/>
<text text-anchor="middle" x="103" y="-86.75" font-family="Times,serif" font-size="18.00">learnerlist</text>
</a>
</g>
</g>
<!-- learnerlist&#45;&gt;accepted_to_learner -->
<g id="edge58" class="edge">
<title>learnerlist&#45;&gt;accepted_to_learner</title>
<g id="a_edge58"><a xlink:href="62-accepted_to_learner.html">
<path fill="none" stroke="black" stroke-width="5" stroke-dasharray="5,2" d="M143.29,-74.15C164.87,-65.03 191.84,-53.65 215.58,-43.63"/>
<polygon fill="black" stroke="black" stroke-width="5" points="219.15,-51.62 234.17,-35.78 212.34,-35.49 219.15,-51.62"/>
</a>
</g>
</g>
<!-- connect_learner -->
<g id="node11" class="node">
<title>connect_learner</title>
<ellipse fill="none" stroke="black" cx="102" cy="-165.92" rx="92.66" ry="18.27"/>
<text text-anchor="middle" x="102" y="-160.52" font-family="Times,serif" font-size="18.00">connect_learner</text>
</g>
<!-- connect_learner&#45;&gt;learnerlist -->
<g id="edge19" class="edge">
<title>connect_learner&#45;&gt;learnerlist</title>
<g id="a_edge19"><a xlink:href="38-learnerlist.html">
<path fill="none" stroke="black" stroke-width="5" d="M102.25,-147.18C102.32,-142.07 102.4,-136.28 102.48,-130.45"/>
<polygon fill="black" stroke="black" stroke-width="5" points="111.23,-130.32 102.76,-110.2 93.73,-130.07 111.23,-130.32"/>
</a>
</g>
</g>
<!-- nodelist -->
<g id="node12" class="node">
<title>nodelist</title>
<g id="a_node12"><a xlink:href="nodelist.html" xlink:title="nodelist">
<polygon fill="none" stroke="black" points="1042.5,-1241.85 969.5,-1241.85 969.5,-1205.85 1042.5,-1205.85 1042.5,-1241.85"/>
<text text-anchor="middle" x="1006" y="-1218.45" font-family="Times,serif" font-size="18.00">nodelist</text>
</a>
</g>
</g>
<!-- nodelist&#45;&gt;prepare -->
<g id="edge37" class="edge">
<title>nodelist&#45;&gt;prepare</title>
<g id="a_edge37"><a xlink:href="50-prepare.html">
<path fill="none" stroke="black" stroke-width="5" stroke-dasharray="5,2" d="M969.4,-1217.46C887.34,-1205.36 687.77,-1175.95 584.04,-1160.66"/>
<polygon fill="black" stroke="black" stroke-width="5" points="585.09,-1151.98 564.03,-1157.72 582.54,-1169.29 585.09,-1151.98"/>
</a>
</g>
</g>
<!-- nodelist&#45;&gt;accept -->
<g id="edge55" class="edge">
<title>nodelist&#45;&gt;accept</title>
<g id="a_edge55"><a xlink:href="61-accept.html">
<path fill="none" stroke="black" stroke-width="5" stroke-dasharray="5,2" d="M1042.67,-1216.66C1077.64,-1208.41 1125,-1190.04 1125,-1151.08 1125,-1151.08 1125,-1151.08 1125,-276.08 1125,-209.15 637.52,-178.66 460.37,-169.8"/>
<polygon fill="black" stroke="black" stroke-width="5" points="460.76,-161.06 440.36,-168.82 459.91,-178.53 460.76,-161.06"/>
</a>
</g>
</g>
<!-- num_acceptors -->
<g id="node14" class="node">
<title>num_acceptors</title>
<g id="a_node14"><a xlink:href="num_acceptors.html" xlink:title="num_acceptors">
<ellipse fill="none" stroke="black" cx="1009" cy="-403.46" rx="88.22" ry="18.27"/>
<text text-anchor="middle" x="1009" y="-398.06" font-family="Times,serif" font-size="18.00">num_acceptors</text>
</a>
</g>
</g>
<!-- nodelist&#45;&gt;num_acceptors -->
<g id="edge21" class="edge">
<title>nodelist&#45;&gt;num_acceptors</title>
<g id="a_edge21"><a xlink:href="40-num_acceptors.html">
<path fill="none" stroke="black" stroke-width="5" d="M1007.12,-1205.75C1007.97,-1191.21 1009,-1169.79 1009,-1151.08 1009,-1151.08 1009,-1151.08 1009,-476.23 1009,-470.29 1009,-464.06 1009,-457.87"/>
<polygon fill="black" stroke="black" stroke-width="5" points="1009,-421.87 1018,-441.87 1011,-431.87 1011,-441.87 1009,-441.87 1007,-441.87 1007,-431.87 1000,-441.87 1009,-421.87 1009,-421.87"/>
<ellipse fill="none" stroke="black" stroke-width="5" cx="1009" cy="-449.87" rx="8" ry="8"/>
</a>
</g>
</g>
<!-- connect -->
<g id="node13" class="node">
<title>connect</title>
<ellipse fill="none" stroke="black" cx="1001" cy="-1297.62" rx="50.78" ry="18.27"/>
<text text-anchor="middle" x="1001" y="-1292.22" font-family="Times,serif" font-size="18.00">connect</text>
</g>
<!-- connect&#45;&gt;nodelist -->
<g id="edge20" class="edge">
<title>connect&#45;&gt;nodelist</title>
<g id="a_edge20"><a xlink:href="39-nodelist.html">
<path fill="none" stroke="black" stroke-width="5" d="M1002.24,-1278.88C1002.59,-1273.76 1003,-1267.98 1003.4,-1262.15"/>
<polygon fill="black" stroke="black" stroke-width="5" points="1012.15,-1262.45 1004.81,-1241.89 994.69,-1261.24 1012.15,-1262.45"/>
</a>
</g>
</g>
<!-- num_acceptors&#45;&gt;accept_sent -->
<g id="edge46" class="edge">
<title>num_acceptors&#45;&gt;accept_sent</title>
<g id="a_edge46"><a xlink:href="58-accept_sent.html" xlink:title=" +/&#45;">
<path fill="none" stroke="black" stroke-width="5" d="M980.1,-385.87C959.98,-374.68 932.32,-360.02 907,-349.08 901.53,-346.72 895.85,-344.4 890.1,-342.15"/>
<polygon fill="black" stroke="black" stroke-width="5" points="856.14,-329.81 878.01,-328.18 866.22,-331.34 875.62,-334.76 874.93,-336.64 874.25,-338.52 864.85,-335.1 871.86,-345.1 856.14,-329.81 856.14,-329.81"/>
<ellipse fill="none" stroke="black" stroke-width="5" cx="882.45" cy="-339.37" rx="8" ry="8"/>
</a>
</g>
<g id="a_edge46&#45;label"><a xlink:href="58-accept_sent.html" xlink:title=" +/&#45;">
<text text-anchor="middle" x="956.82" y="-352.68" font-family="Times,serif" font-size="18.00"> +/&#45;</text>
</a>
</g>
</g>
<!-- num_acceptors&#45;&gt;majority -->
<g id="edge50" class="edge">
<title>num_acceptors&#45;&gt;majority</title>
<g id="a_edge50"><a xlink:href="60-majority.html">
<path fill="none" stroke="black" stroke-width="5" d="M999.5,-385.17C993.06,-374.23 983.93,-360.12 974,-349.08 948.65,-320.9 942.7,-310.32 908,-295.08 854.2,-271.45 694.46,-254.62 599.76,-246.4"/>
<polygon fill="black" stroke="black" stroke-width="5" points="600.42,-237.67 579.75,-244.7 598.94,-255.11 600.42,-237.67"/>
</a>
</g>
</g>
<!-- num_acceptors&#45;&gt;accepted_to_learner -->
<g id="edge59" class="edge">
<title>num_acceptors&#45;&gt;accepted_to_learner</title>
<g id="a_edge59"><a xlink:href="62-accepted_to_learner.html">
<path fill="none" stroke="black" stroke-width="5" stroke-dasharray="5,2" d="M1037.16,-385.96C1059.5,-370.51 1087,-345.19 1087,-314.08 1087,-314.08 1087,-314.08 1087,-91.15 1087,-57.22 632.22,-33.92 402.52,-24.31"/>
<polygon fill="black" stroke="black" stroke-width="5" points="402.7,-15.56 382.36,-23.48 401.98,-33.05 402.7,-15.56"/>
</a>
</g>
</g>
<!-- clientlist -->
<g id="node15" class="node">
<title>clientlist</title>
<g id="a_node15"><a xlink:href="clientlist.html" xlink:title="clientlist">
<polygon fill="none" stroke="black" points="1147.99,-1315.62 1070.01,-1315.62 1070.01,-1279.62 1147.99,-1279.62 1147.99,-1315.62"/>
<text text-anchor="middle" x="1109" y="-1292.22" font-family="Times,serif" font-size="18.00">clientlist</text>
</a>
</g>
</g>
<!-- client_request -->
<g id="node16" class="node">
<title>client_request</title>
<ellipse fill="none" stroke="black" cx="409" cy="-1396" rx="82.91" ry="18.27"/>
<text text-anchor="middle" x="409" y="-1390.6" font-family="Times,serif" font-size="18.00">client_request</text>
</g>
<!-- client_request&#45;&gt;clientlist -->
<g id="edge22" class="edge">
<title>client_request&#45;&gt;clientlist</title>
<g id="a_edge22"><a xlink:href="41-clientlist.html">
<path fill="none" stroke="black" stroke-width="5" d="M454.43,-1380.5C469.14,-1376.39 485.62,-1372.38 501,-1370 690.91,-1340.62 743.22,-1382.22 933,-1352 973.14,-1345.61 1016.88,-1332.38 1050.72,-1320.68"/>
<polygon fill="black" stroke="black" stroke-width="5" points="1053.98,-1328.81 1069.88,-1313.86 1048.11,-1312.32 1053.98,-1328.81"/>
</a>
</g>
</g>
<!-- propose_num -->
<g id="node17" class="node">
<title>propose_num</title>
<g id="a_node17"><a xlink:href="propose_num.html" xlink:title="propose_num">
<polygon fill="none" stroke="black" points="550.99,-1315.62 437.01,-1315.62 437.01,-1279.62 550.99,-1279.62 550.99,-1315.62"/>
<text text-anchor="middle" x="494" y="-1292.22" font-family="Times,serif" font-size="18.00">propose_num</text>
</a>
</g>
</g>
<!-- client_request&#45;&gt;propose_num -->
<g id="edge24" class="edge">
<title>client_request&#45;&gt;propose_num</title>
<g id="a_edge24"><a xlink:href="42-propose_num.html" xlink:title=" +/&#45;">
<path fill="none" stroke="black" stroke-width="5" d="M424.2,-1377.77C432.84,-1367.97 444.09,-1355.21 455.03,-1342.81"/>
<polygon fill="black" stroke="black" stroke-width="5" points="478.94,-1315.7 472.46,-1336.65 473.82,-1324.52 467.21,-1332.03 465.71,-1330.7 464.21,-1329.38 470.82,-1321.88 458.96,-1324.75 478.94,-1315.7 478.94,-1315.7"/>
<ellipse fill="none" stroke="black" stroke-width="5" cx="460.42" cy="-1336.7" rx="8" ry="8"/>
</a>
</g>
<g id="a_edge24&#45;label"><a xlink:href="42-propose_num.html" xlink:title=" +/&#45;">
<text text-anchor="middle" x="474.82" y="-1337.6" font-family="Times,serif" font-size="18.00"> +/&#45;</text>
</a>
</g>
</g>
<!-- client_request&#45;&gt;accept_sent -->
<g id="edge25" class="edge">
<title>client_request&#45;&gt;accept_sent</title>
<g id="a_edge25"><a xlink:href="44-accept_sent.html">
<path fill="none" stroke="black" stroke-width="5" d="M457.01,-1381.02C471.11,-1377.17 486.62,-1373.18 501,-1370 593.02,-1349.69 919,-1392.85 919,-1298.62 919,-1298.62 919,-1298.62 919,-521.62 919,-437.46 888.86,-418.3 841,-349.08 840.31,-348.08 839.6,-347.09 838.85,-346.11"/>
<polygon fill="black" stroke="black" stroke-width="5" points="845.35,-340.24 825.52,-331.12 832.27,-351.88 845.35,-340.24"/>
</a>
</g>
</g>
<!-- slot_num -->
<g id="node19" class="node">
<title>slot_num</title>
<g id="a_node19"><a xlink:href="slot_num.html" xlink:title="slot_num">
<polygon fill="none" stroke="black" points="337.51,-1315.62 254.49,-1315.62 254.49,-1279.62 337.51,-1279.62 337.51,-1315.62"/>
<text text-anchor="middle" x="296" y="-1292.22" font-family="Times,serif" font-size="18.00">slot_num</text>
</a>
</g>
</g>
<!-- client_request&#45;&gt;slot_num -->
<g id="edge32" class="edge">
<title>client_request&#45;&gt;slot_num</title>
<g id="a_edge32"><a xlink:href="47-slot_num.html" xlink:title=" +/&#45;">
<path fill="none" stroke="black" stroke-width="5" d="M389.06,-1377.99C376.47,-1367.26 359.63,-1352.9 343.75,-1339.35"/>
<polygon fill="black" stroke="black" stroke-width="5" points="316.12,-1315.78 337.18,-1321.92 325.03,-1320.75 332.64,-1327.24 331.34,-1328.76 330.04,-1330.28 322.43,-1323.79 325.5,-1335.61 316.12,-1315.78 316.12,-1315.78"/>
<ellipse fill="none" stroke="black" stroke-width="5" cx="337.43" cy="-1333.95" rx="8" ry="8"/>
</a>
</g>
<g id="a_edge32&#45;label"><a xlink:href="47-slot_num.html" xlink:title=" +/&#45;">
<text text-anchor="middle" x="368.82" y="-1337.6" font-family="Times,serif" font-size="18.00"> +/&#45;</text>
</a>
</g>
</g>
<!-- client_request&#45;&gt;highest_id_responded -->
<g id="edge27" class="edge">
<title>client_request&#45;&gt;highest_id_responded</title>
<g id="a_edge27"><a xlink:href="45-highest_id_responded.html">
<path fill="none" stroke="black" stroke-width="5" d="M346.38,-1383.89C271.75,-1368.82 157,-1339.08 157,-1298.62 157,-1298.62 157,-1298.62 157,-657 157,-637.81 148.82,-618.35 139.69,-602.59"/>
<polygon fill="black" stroke="black" stroke-width="5" points="146.98,-597.76 128.75,-585.76 132.31,-607.3 146.98,-597.76"/>
</a>
</g>
</g>
<!-- client_request&#45;&gt;advocate_val -->
<g id="edge29" class="edge">
<title>client_request&#45;&gt;advocate_val</title>
<g id="a_edge29"><a xlink:href="46-advocate_val.html" xlink:title=" +/&#45;">
<path fill="none" stroke="black" stroke-width="5" d="M327.71,-1392.22C208.43,-1385.88 0,-1365.28 0,-1298.62 0,-1298.62 0,-1298.62 0,-566.62 0,-518.79 139.7,-495.25 230.32,-485"/>
<polygon fill="black" stroke="black" stroke-width="5" points="231.27,-493.7 250.23,-482.87 229.41,-476.3 231.27,-493.7"/>
</a>
</g>
<g id="a_edge29&#45;label"><a xlink:href="46-advocate_val.html" xlink:title=" +/&#45;">
<text text-anchor="middle" x="12.82" y="-934.76" font-family="Times,serif" font-size="18.00"> +/&#45;</text>
</a>
</g>
</g>
<!-- client_request_temp -->
<g id="node22" class="node">
<title>client_request_temp</title>
<g id="a_node22"><a xlink:href="client_request_temp.html" xlink:title="client_request_temp">
<ellipse fill="none" stroke="black" cx="491" cy="-1223.85" rx="114.53" ry="18.27"/>
<text text-anchor="middle" x="491" y="-1218.45" font-family="Times,serif" font-size="18.00">client_request_temp</text>
</a>
</g>
</g>
<!-- client_request&#45;&gt;client_request_temp -->
<g id="edge33" class="edge">
<title>client_request&#45;&gt;client_request_temp</title>
<g id="a_edge33"><a xlink:href="49-client_request_temp.html">
<path fill="none" stroke="black" stroke-width="5" d="M408.27,-1377.32C408.07,-1353.5 410.48,-1310.51 428,-1279.23 433.1,-1270.13 440.33,-1261.84 448.09,-1254.63"/>
<polygon fill="black" stroke="black" stroke-width="5" points="453.83,-1261.24 463.73,-1241.78 442.72,-1247.71 453.83,-1261.24"/>
</a>
</g>
</g>
<!-- propose_num&#45;&gt;propose_num -->
<g id="edge23" class="edge">
<title>propose_num&#45;&gt;propose_num</title>
<g id="a_edge23"><a xlink:href="42-propose_num.html" xlink:title=" +/&#45;">
<path fill="none" stroke="black" stroke-width="5" d="M551.22,-1304C551.38,-1303.99 551.55,-1303.97 551.71,-1303.96"/>
<polygon fill="black" stroke="black" stroke-width="5" points="551.22,-1291.24 560.98,-1310.88 553.6,-1301.16 553.99,-1311.15 551.99,-1311.23 549.99,-1311.3 549.61,-1301.31 542.99,-1311.57 551.22,-1291.24 551.22,-1291.24"/>
<ellipse fill="none" stroke="black" stroke-width="5" cx="552.29" cy="-1319.22" rx="8" ry="8"/>
</a>
</g>
<g id="a_edge23&#45;label"><a xlink:href="42-propose_num.html" xlink:title=" +/&#45;">
<text text-anchor="middle" x="581.82" y="-1292.22" font-family="Times,serif" font-size="18.00"> +/&#45;</text>
</a>
</g>
</g>
<!-- propose_num&#45;&gt;client_request_temp -->
<g id="edge34" class="edge">
<title>propose_num&#45;&gt;client_request_temp</title>
<g id="a_edge34"><a xlink:href="49-client_request_temp.html">
<path fill="none" stroke="black" stroke-width="5" d="M493.29,-1279.61C493.07,-1274.41 492.82,-1268.48 492.57,-1262.48"/>
<polygon fill="black" stroke="black" stroke-width="5" points="501.3,-1261.85 491.73,-1242.23 483.82,-1262.58 501.3,-1261.85"/>
</a>
</g>
</g>
<!-- accept_sent&#45;&gt;accept_sent -->
<g id="edge49" class="edge">
<title>accept_sent&#45;&gt;accept_sent</title>
<g id="a_edge49"><a xlink:href="58-accept_sent.html" xlink:title=" +/&#45;">
<path fill="none" stroke="black" stroke-width="5" d="M856.1,-319.59C856.26,-319.58 856.42,-319.57 856.58,-319.56"/>
<polygon fill="black" stroke="black" stroke-width="5" points="856.1,-306.57 865.84,-326.22 858.47,-316.48 858.84,-326.48 856.84,-326.55 854.84,-326.63 854.47,-316.63 847.85,-326.89 856.1,-306.57 856.1,-306.57"/>
<ellipse fill="none" stroke="black" stroke-width="5" cx="857.14" cy="-334.55" rx="8" ry="8"/>
</a>
</g>
<g id="a_edge49&#45;label"><a xlink:href="58-accept_sent.html" xlink:title=" +/&#45;">
<text text-anchor="middle" x="886.8" y="-307.68" font-family="Times,serif" font-size="18.00"> +/&#45;</text>
</a>
</g>
</g>
<!-- accept_sent&#45;&gt;majority -->
<g id="edge53" class="edge">
<title>accept_sent&#45;&gt;majority</title>
<g id="a_edge53"><a xlink:href="60-majority.html">
<path fill="none" stroke="black" stroke-width="5" d="M755.8,-299.23C708.92,-287.24 638.82,-269.3 588.58,-256.45"/>
<polygon fill="black" stroke="black" stroke-width="5" points="590.6,-247.93 569.05,-251.45 586.26,-264.89 590.6,-247.93"/>
</a>
</g>
</g>
<!-- slot_num&#45;&gt;accept_sent -->
<g id="edge26" class="edge">
<title>slot_num&#45;&gt;accept_sent</title>
<g id="a_edge26"><a xlink:href="44-accept_sent.html">
<path fill="none" stroke="black" stroke-width="5" d="M316.91,-1279.43C330.62,-1266.14 346,-1246.41 346,-1224.85 346,-1224.85 346,-1224.85 346,-939.16 346,-761.37 362.42,-711.01 437,-549.62 473.8,-469.99 474.92,-436.48 546,-385.08 602.1,-344.5 680.21,-327.11 736.14,-319.66"/>
<polygon fill="black" stroke="black" stroke-width="5" points="737.2,-328.35 756.03,-317.3 735.14,-310.97 737.2,-328.35"/>
</a>
</g>
</g>
<!-- slot_num&#45;&gt;slot_num -->
<g id="edge31" class="edge">
<title>slot_num&#45;&gt;slot_num</title>
<g id="a_edge31"><a xlink:href="47-slot_num.html" xlink:title=" +/&#45;">
<path fill="none" stroke="black" stroke-width="5" d="M337.71,-1304.26C337.87,-1304.26 338.03,-1304.25 338.18,-1304.24"/>
<polygon fill="black" stroke="black" stroke-width="5" points="337.71,-1290.97 347.42,-1310.64 340.07,-1300.9 340.42,-1310.89 338.43,-1310.96 336.43,-1311.03 336.07,-1301.04 329.43,-1311.28 337.71,-1290.97 337.71,-1290.97"/>
<ellipse fill="none" stroke="black" stroke-width="5" cx="338.71" cy="-1318.96" rx="8" ry="8"/>
</a>
</g>
<g id="a_edge31&#45;label"><a xlink:href="47-slot_num.html" xlink:title=" +/&#45;">
<text text-anchor="middle" x="368.33" y="-1292.22" font-family="Times,serif" font-size="18.00"> +/&#45;</text>
</a>
</g>
</g>
<!-- slot_num&#45;&gt;highest_id_responded -->
<g id="edge28" class="edge">
<title>slot_num&#45;&gt;highest_id_responded</title>
<g id="a_edge28"><a xlink:href="45-highest_id_responded.html">
<path fill="none" stroke="black" stroke-width="5" d="M259.3,-1279.39C239.47,-1267.3 219,-1248.97 219,-1224.85 219,-1224.85 219,-1224.85 219,-657 219,-630.28 198.82,-609.96 176.24,-595.57"/>
<polygon fill="black" stroke="black" stroke-width="5" points="180.52,-587.94 158.8,-585.72 171.92,-603.18 180.52,-587.94"/>
</a>
</g>
</g>
<!-- slot_num&#45;&gt;advocate_val -->
<g id="edge30" class="edge">
<title>slot_num&#45;&gt;advocate_val</title>
<g id="a_edge30"><a xlink:href="46-advocate_val.html" xlink:title=" +/&#45;">
<path fill="none" stroke="black" stroke-width="5" d="M294.51,-1279.52C293.37,-1264.99 292,-1243.57 292,-1224.85 292,-1224.85 292,-1224.85 292,-894.16 292,-771.66 323.86,-743.77 333,-621.62 333.6,-613.64 333.85,-611.57 333,-603.62 329.79,-573.46 322.35,-539.9 316.09,-515.09"/>
<polygon fill="black" stroke="black" stroke-width="5" points="324.49,-512.6 310.93,-495.49 307.56,-517.06 324.49,-512.6"/>
</a>
</g>
<g id="a_edge30&#45;label"><a xlink:href="46-advocate_val.html" xlink:title=" +/&#45;">
<text text-anchor="middle" x="304.82" y="-889.76" font-family="Times,serif" font-size="18.00"> +/&#45;</text>
</a>
</g>
</g>
<!-- slot_num&#45;&gt;client_request_temp -->
<g id="edge35" class="edge">
<title>slot_num&#45;&gt;client_request_temp</title>
<g id="a_edge35"><a xlink:href="49-client_request_temp.html">
<path fill="none" stroke="black" stroke-width="5" d="M337.83,-1281.22C364.15,-1271.54 398.59,-1258.86 428.15,-1247.98"/>
<polygon fill="black" stroke="black" stroke-width="5" points="431.46,-1256.09 447.21,-1240.97 425.42,-1239.66 431.46,-1256.09"/>
</a>
</g>
</g>
<!-- highest_id_responded&#45;&gt;highest_id_responded -->
<g id="edge39" class="edge">
<title>highest_id_responded&#45;&gt;highest_id_responded</title>
<g id="a_edge39"><a xlink:href="52-highest_id_responded.html" xlink:title=" +/&#45;">
<path fill="none" stroke="black" stroke-width="5" d="M202.29,-574.75C202.46,-574.74 202.62,-574.71 202.79,-574.69"/>
<polygon fill="black" stroke="black" stroke-width="5" points="202.29,-560.48 211.99,-580.15 204.64,-570.4 204.99,-580.4 202.99,-580.47 200.99,-580.54 200.64,-570.54 194,-580.78 202.29,-560.48 202.29,-560.48"/>
<ellipse fill="none" stroke="black" stroke-width="5" cx="203.27" cy="-588.46" rx="8" ry="8"/>
</a>
</g>
<g id="a_edge39&#45;label"><a xlink:href="52-highest_id_responded.html" xlink:title=" +/&#45;">
<text text-anchor="middle" x="232.81" y="-562.22" font-family="Times,serif" font-size="18.00"> +/&#45;</text>
</a>
</g>
</g>
<!-- highest_id_responded&#45;&gt;advocate_val -->
<g id="edge41" class="edge">
<title>highest_id_responded&#45;&gt;advocate_val</title>
<g id="a_edge41"><a xlink:href="54-advocate_val.html" xlink:title=" +/&#45;">
<path fill="none" stroke="black" stroke-width="5" d="M151.83,-549.58C175.66,-538.55 207.46,-523.83 235.99,-510.63"/>
<polygon fill="black" stroke="black" stroke-width="5" points="268.96,-495.37 254.59,-511.94 260.73,-501.39 251.65,-505.59 250.81,-503.77 249.97,-501.96 259.05,-497.76 247.03,-495.6 268.96,-495.37 268.96,-495.37"/>
<ellipse fill="none" stroke="black" stroke-width="5" cx="243.55" cy="-507.13" rx="8" ry="8"/>
</a>
</g>
<g id="a_edge41&#45;label"><a xlink:href="54-advocate_val.html" xlink:title=" +/&#45;">
<text text-anchor="middle" x="240.82" y="-517.22" font-family="Times,serif" font-size="18.00"> +/&#45;</text>
</a>
</g>
</g>
<!-- advocate_val&#45;&gt;accept -->
<g id="edge56" class="edge">
<title>advocate_val&#45;&gt;accept</title>
<g id="a_edge56"><a xlink:href="61-accept.html">
<path fill="none" stroke="black" stroke-width="5" stroke-dasharray="5,2" d="M315.98,-459.16C323.31,-445 332,-424.08 332,-404.46 332,-404.46 332,-404.46 332,-238.69 332,-221.01 342.98,-205.73 355.92,-193.88"/>
<polygon fill="black" stroke="black" stroke-width="5" points="361.75,-200.43 372.06,-181.18 350.93,-186.67 361.75,-200.43"/>
</a>
</g>
</g>
<!-- client_request_temp&#45;&gt;prepare -->
<g id="edge36" class="edge">
<title>client_request_temp&#45;&gt;prepare</title>
<g id="a_edge36"><a xlink:href="50-prepare.html">
<path fill="none" stroke="black" stroke-width="5" stroke-dasharray="5,2" d="M497.78,-1205.48C499.93,-1199.96 502.39,-1193.65 504.86,-1187.32"/>
<polygon fill="black" stroke="black" stroke-width="5" points="513.07,-1190.35 512.19,-1168.54 496.77,-1183.99 513.07,-1190.35"/>
</a>
</g>
</g>
<!-- agreeing_acceptors&#45;&gt;agreeing_acceptors_for_slot -->
<g id="edge43" class="edge">
<title>agreeing_acceptors&#45;&gt;agreeing_acceptors_for_slot</title>
<g id="a_edge43"><a xlink:href="56-agreeing_acceptors_for_slot.html">
<path fill="none" stroke="black" stroke-width="5" d="M636.68,-549.58C641.84,-539.44 648.59,-526.18 654.86,-513.86"/>
<polygon fill="black" stroke="black" stroke-width="5" points="662.77,-517.62 664.04,-495.83 647.17,-509.68 662.77,-517.62"/>
</a>
</g>
</g>
<!-- agreeing_acceptor_size -->
<g id="node25" class="node">
<title>agreeing_acceptor_size</title>
<g id="a_node25"><a xlink:href="agreeing_acceptor_size.html" xlink:title="agreeing_acceptor_size">
<ellipse fill="none" stroke="black" cx="686" cy="-403.46" rx="130.99" ry="18.27"/>
<text text-anchor="middle" x="686" y="-398.06" font-family="Times,serif" font-size="18.00">agreeing_acceptor_size</text>
</a>
</g>
</g>
<!-- agreeing_acceptors_for_slot&#45;&gt;agreeing_acceptor_size -->
<g id="edge45" class="edge">
<title>agreeing_acceptors_for_slot&#45;&gt;agreeing_acceptor_size</title>
<g id="a_edge45"><a xlink:href="57-agreeing_acceptor_size.html">
<path fill="none" stroke="black" stroke-width="5" d="M676.21,-458.49C676.28,-458.14 676.34,-457.79 676.4,-457.44"/>
<polygon fill="black" stroke="black" stroke-width="5" points="682.82,-422 688.11,-443.28 683.01,-432.2 681.23,-442.04 679.26,-441.68 677.29,-441.32 679.07,-431.48 670.4,-440.08 682.82,-422 682.82,-422"/>
<ellipse fill="none" stroke="black" stroke-width="5" cx="677.83" cy="-449.55" rx="8" ry="8"/>
</a>
</g>
</g>
<!-- agreeing_acceptor_size&#45;&gt;accept_sent -->
<g id="edge47" class="edge">
<title>agreeing_acceptor_size&#45;&gt;accept_sent</title>
<g id="a_edge47"><a xlink:href="58-accept_sent.html" xlink:title=" +/&#45;">
<path fill="none" stroke="black" stroke-width="5" d="M709.42,-385.21C722.06,-375.9 738.2,-364.02 753.65,-352.64"/>
<polygon fill="black" stroke="black" stroke-width="5" points="782.64,-331.29 771.87,-350.39 775.77,-338.83 767.72,-344.76 766.53,-343.15 765.35,-341.54 773.4,-335.61 761.2,-335.9 782.64,-331.29 782.64,-331.29"/>
<ellipse fill="none" stroke="black" stroke-width="5" cx="760.09" cy="-347.89" rx="8" ry="8"/>
</a>
</g>
<g id="a_edge47&#45;label"><a xlink:href="58-accept_sent.html" xlink:title=" +/&#45;">
<text text-anchor="middle" x="768.82" y="-352.68" font-family="Times,serif" font-size="18.00"> +/&#45;</text>
</a>
</g>
</g>
<!-- agreeing_acceptor_size&#45;&gt;majority -->
<g id="edge51" class="edge">
<title>agreeing_acceptor_size&#45;&gt;majority</title>
<g id="a_edge51"><a xlink:href="60-majority.html">
<path fill="none" stroke="black" stroke-width="5" d="M668.98,-385.15C642.43,-358.13 590.74,-305.54 557.6,-271.82"/>
<polygon fill="black" stroke="black" stroke-width="5" points="563.68,-265.53 543.42,-257.4 551.2,-277.79 563.68,-265.53"/>
</a>
</g>
</g>
<!-- majority&#45;&gt;accept -->
<g id="edge54" class="edge">
<title>majority&#45;&gt;accept</title>
<g id="a_edge54"><a xlink:href="61-accept.html">
<path fill="none" stroke="black" stroke-width="5" stroke-dasharray="5,2" d="M499.75,-223.65C482.48,-214.12 459.78,-201.58 440.11,-190.72"/>
<polygon fill="black" stroke="black" stroke-width="5" points="444.19,-182.98 422.45,-180.97 435.73,-198.3 444.19,-182.98"/>
</a>
</g>
</g>
<!-- S -->
<g id="node28" class="node">
<title>S</title>
<g id="a_node28"><a xlink:href="javascript:advanceTo(-2)" xlink:title="S">
<polygon fill="none" stroke="blue" stroke-width="3" points="537,-1422 510,-1396 537,-1370 564,-1396 537,-1422"/>
<text text-anchor="middle" x="537" y="-1390.6" font-family="Times,serif" font-size="18.00">S</text>
</a>
</g>
</g>
<!-- T -->
<g id="node29" class="node">
<title>T</title>
<g id="a_node29"><a xlink:href="javascript:advanceTo(0)" xlink:title="T">
<polygon fill="none" stroke="blue" stroke-width="3" points="609,-1422 582,-1396 609,-1370 636,-1396 609,-1422"/>
<text text-anchor="middle" x="609" y="-1390.6" font-family="Times,serif" font-size="18.00">T</text>
</a>
</g>
</g>
<!-- accepted_to_client -->
<g id="node30" class="node">
<title>accepted_to_client</title>
<ellipse fill="none" stroke="black" cx="761" cy="-1396" rx="106.95" ry="18.27"/>
<text text-anchor="middle" x="761" y="-1390.6" font-family="Times,serif" font-size="18.00">accepted_to_client</text>
</g>
<!-- all_acceptors -->
<g id="node31" class="node">
<title>all_acceptors</title>
<polygon fill="none" stroke="black" points="996.45,-1414 885.55,-1414 885.55,-1378 996.45,-1378 996.45,-1414"/>
<text text-anchor="middle" x="941" y="-1390.6" font-family="Times,serif" font-size="18.00">all_acceptors</text>
</g>
</g>
</svg>
