<?xml version="1.0" encoding="UTF-8" standalone="no"?>
<!DOCTYPE svg PUBLIC "-//W3C//DTD SVG 1.1//EN"
 "http://www.w3.org/Graphics/SVG/1.1/DTD/svg11.dtd">
<!-- Generated by graphviz version 2.43.0 (0)
 -->
<!-- Title: G Pages: 1 -->
<svg width="560pt" height="569pt"
 viewBox="0.00 0.00 559.72 569.39" xmlns="http://www.w3.org/2000/svg" xmlns:xlink="http://www.w3.org/1999/xlink">
<g id="graph0" class="graph" transform="scale(1 1) rotate(0) translate(4 565.39)">
<script type='text/javascript'>
  <![CDATA[

var windows = new Array()
var info = new Array()

function openWin(target, time) {
  win = window.open(target + "_" + time + ".html", target, "location=no,width=400,height=180,left=0,status=no");
  // hm, an associative array, how strange.
  info[target] = 1
}

function advanceTo(time) {
  arr = gup("wins").split(",");
  for (i=0; i < arr.length; i++) {
    if (arr[i] != "") {
      openWin(arr[i], time);
    }
  }
  str = '';
  // getting 'key_cols'
  for (var i in info) {
    str = str + ',' + i;
  }
  self.window.location.href = 'tm_' + time + '.svg?wins=' + str;
}

// off the netz
function gup(name) {
  name = name.replace(/[[]/,"\[").replace(/[]]/,"\]");
  var regexS = "[\?&]"+name+"=([^&#]*)";
  var regex = new RegExp(regexS);
  var results = regex.exec(window.location.href);
  if (results == null)
    return "";
  else
    return results[1];
}

  ]]>
</script>

<polygon fill="white" stroke="transparent" points="-4,4 -4,-565.39 555.72,-565.39 555.72,4 -4,4"/>
<!-- promise -->
<g id="node1" class="node">
<title>promise</title>
<g id="a_node1"><a xlink:href="promise.html" xlink:title="promise">
<ellipse fill="none" stroke="black" cx="209.72" cy="-309.46" rx="52.14" ry="18.27"/>
<text text-anchor="middle" x="209.72" y="-304.06" font-family="Times,serif" font-size="18.00">promise</text>
</a>
</g>
</g>
<!-- majority -->
<g id="node12" class="node">
<title>majority</title>
<g id="a_node12"><a xlink:href="majority.html" xlink:title="majority">
<ellipse fill="none" stroke="black" cx="209.72" cy="-236.69" rx="54.38" ry="18.27"/>
<text text-anchor="middle" x="209.72" y="-231.29" font-family="Times,serif" font-size="18.00">majority</text>
</a>
</g>
</g>
<!-- promise&#45;&gt;majority -->
<g id="edge9" class="edge">
<title>promise&#45;&gt;majority</title>
<g id="a_edge9"><a xlink:href="34-majority.html">
<path fill="none" stroke="black" stroke-width="5" d="M209.72,-290.97C209.72,-286.24 209.72,-280.94 209.72,-275.55"/>
<polygon fill="black" stroke="black" stroke-width="5" points="218.47,-275.48 209.72,-255.48 200.97,-275.48 218.47,-275.48"/>
</a>
</g>
</g>
<!-- prepare -->
<g id="node2" class="node">
<title>prepare</title>
<g id="a_node2"><a xlink:href="prepare.html" xlink:title="prepare">
<ellipse fill="none" stroke="black" cx="209.72" cy="-382.23" rx="49.43" ry="18.27"/>
<text text-anchor="middle" x="209.72" y="-376.83" font-family="Times,serif" font-size="18.00">prepare</text>
</a>
</g>
</g>
<!-- prepare&#45;&gt;promise -->
<g id="edge1" class="edge">
<title>prepare&#45;&gt;promise</title>
<g id="a_edge1"><a xlink:href="22-promise.html">
<path fill="none" stroke="black" stroke-width="5" stroke-dasharray="5,2" d="M209.72,-363.74C209.72,-359.01 209.72,-353.71 209.72,-348.32"/>
<polygon fill="black" stroke="black" stroke-width="5" points="218.47,-348.25 209.72,-328.25 200.97,-348.25 218.47,-348.25"/>
</a>
</g>
</g>
<!-- accepted -->
<g id="node3" class="node">
<title>accepted</title>
<g id="a_node3"><a xlink:href="accepted.html" xlink:title="accepted">
<ellipse fill="none" stroke="black" cx="209.72" cy="-91.15" rx="55.65" ry="18.27"/>
<text text-anchor="middle" x="209.72" y="-85.75" font-family="Times,serif" font-size="18.00">accepted</text>
</a>
</g>
</g>
<!-- accepted_to_client -->
<g id="node13" class="node">
<title>accepted_to_client</title>
<g id="a_node13"><a xlink:href="accepted_to_client.html" xlink:title="accepted_to_client">
<ellipse fill="none" stroke="black" cx="106.72" cy="-18.38" rx="106.95" ry="18.27"/>
<text text-anchor="middle" x="106.72" y="-12.98" font-family="Times,serif" font-size="18.00">accepted_to_client</text>
</a>
</g>
</g>
<!-- accepted&#45;&gt;accepted_to_client -->
<g id="edge12" class="edge">
<title>accepted&#45;&gt;accepted_to_client</title>
<g id="a_edge12"><a xlink:href="36-accepted_to_client.html">
<path fill="none" stroke="black" stroke-width="5" stroke-dasharray="5,2" d="M186.61,-74.27C175.35,-66.54 161.47,-57 148.45,-48.05"/>
<polygon fill="black" stroke="black" stroke-width="5" points="153,-40.56 131.56,-36.45 143.09,-54.99 153,-40.56"/>
</a>
</g>
</g>
<!-- accepted_to_learner -->
<g id="node14" class="node">
<title>accepted_to_learner</title>
<g id="a_node14"><a xlink:href="accepted_to_learner.html" xlink:title="accepted_to_learner">
<ellipse fill="none" stroke="black" cx="350.72" cy="-18.38" rx="113.55" ry="18.27"/>
<text text-anchor="middle" x="350.72" y="-12.98" font-family="Times,serif" font-size="18.00">accepted_to_learner</text>
</a>
</g>
</g>
<!-- accepted&#45;&gt;accepted_to_learner -->
<g id="edge14" class="edge">
<title>accepted&#45;&gt;accepted_to_learner</title>
<g id="a_edge14"><a xlink:href="37-accepted_to_learner.html">
<path fill="none" stroke="black" stroke-width="5" stroke-dasharray="5,2" d="M239.28,-75.32C256.69,-66.58 279.19,-55.29 299.42,-45.14"/>
<polygon fill="black" stroke="black" stroke-width="5" points="303.55,-52.85 317.5,-36.06 295.7,-37.21 303.55,-52.85"/>
</a>
</g>
</g>
<!-- accept -->
<g id="node4" class="node">
<title>accept</title>
<g id="a_node4"><a xlink:href="accept.html" xlink:title="accept">
<ellipse fill="none" stroke="black" cx="209.72" cy="-163.92" rx="43.62" ry="18.27"/>
<text text-anchor="middle" x="209.72" y="-158.52" font-family="Times,serif" font-size="18.00">accept</text>
</a>
</g>
</g>
<!-- accept&#45;&gt;accepted -->
<g id="edge2" class="edge">
<title>accept&#45;&gt;accepted</title>
<g id="a_edge2"><a xlink:href="23-accepted.html">
<path fill="none" stroke="black" stroke-width="5" stroke-dasharray="5,2" d="M209.72,-145.43C209.72,-140.7 209.72,-135.4 209.72,-130.01"/>
<polygon fill="black" stroke="black" stroke-width="5" points="218.47,-129.94 209.72,-109.94 200.97,-129.94 218.47,-129.94"/>
</a>
</g>
</g>
<!-- learnerlist -->
<g id="node5" class="node">
<title>learnerlist</title>
<g id="a_node5"><a xlink:href="learnerlist.html" xlink:title="learnerlist">
<polygon fill="none" stroke="black" points="404.69,-109.15 316.76,-109.15 316.76,-73.15 404.69,-73.15 404.69,-109.15"/>
<text text-anchor="middle" x="360.72" y="-85.75" font-family="Times,serif" font-size="18.00">learnerlist</text>
</a>
</g>
</g>
<!-- learnerlist&#45;&gt;accepted_to_learner -->
<g id="edge15" class="edge">
<title>learnerlist&#45;&gt;accepted_to_learner</title>
<g id="a_edge15"><a xlink:href="37-accepted_to_learner.html">
<path fill="none" stroke="black" stroke-width="5" stroke-dasharray="5,2" d="M358.3,-73.02C357.6,-68.06 356.81,-62.43 356,-56.73"/>
<polygon fill="black" stroke="black" stroke-width="5" points="364.65,-55.43 353.19,-36.85 347.33,-57.88 364.65,-55.43"/>
</a>
</g>
</g>
<!-- connect_learner -->
<g id="node6" class="node">
<title>connect_learner</title>
<ellipse fill="none" stroke="black" cx="363.72" cy="-163.92" rx="92.66" ry="18.27"/>
<text text-anchor="middle" x="363.72" y="-158.52" font-family="Times,serif" font-size="18.00">connect_learner</text>
</g>
<!-- connect_learner&#45;&gt;learnerlist -->
<g id="edge3" class="edge">
<title>connect_learner&#45;&gt;learnerlist</title>
<g id="a_edge3"><a xlink:href="29-learnerlist.html">
<path fill="none" stroke="black" stroke-width="5" d="M362.98,-145.43C362.77,-140.55 362.54,-135.04 362.31,-129.48"/>
<polygon fill="black" stroke="black" stroke-width="5" points="371.05,-129.06 361.46,-109.45 353.56,-129.8 371.05,-129.06"/>
</a>
</g>
</g>
<!-- nodelist -->
<g id="node7" class="node">
<title>nodelist</title>
<g id="a_node7"><a xlink:href="nodelist.html" xlink:title="nodelist">
<polygon fill="none" stroke="black" points="393.22,-473 320.23,-473 320.23,-437 393.22,-437 393.22,-473"/>
<text text-anchor="middle" x="356.72" y="-449.6" font-family="Times,serif" font-size="18.00">nodelist</text>
</a>
</g>
</g>
<!-- nodelist&#45;&gt;prepare -->
<g id="edge8" class="edge">
<title>nodelist&#45;&gt;prepare</title>
<g id="a_edge8"><a xlink:href="33-prepare.html">
<path fill="none" stroke="black" stroke-width="5" stroke-dasharray="5,2" d="M321.14,-436.87C301.98,-427.65 278.09,-416.15 257.35,-406.16"/>
<polygon fill="black" stroke="black" stroke-width="5" points="260.87,-398.14 239.05,-397.35 253.28,-413.91 260.87,-398.14"/>
</a>
</g>
</g>
<!-- nodelist&#45;&gt;accept -->
<g id="edge11" class="edge">
<title>nodelist&#45;&gt;accept</title>
<g id="a_edge11"><a xlink:href="35-accept.html">
<path fill="none" stroke="black" stroke-width="5" stroke-dasharray="5,2" d="M353.81,-436.9C346.2,-396.02 322.76,-290.66 272.72,-218.31 266.18,-208.85 257.55,-200.07 248.78,-192.49"/>
<polygon fill="black" stroke="black" stroke-width="5" points="253.9,-185.38 232.78,-179.85 243.06,-199.11 253.9,-185.38"/>
</a>
</g>
</g>
<!-- connect -->
<g id="node8" class="node">
<title>connect</title>
<ellipse fill="none" stroke="black" cx="356.72" cy="-535.39" rx="50.78" ry="18.27"/>
<text text-anchor="middle" x="356.72" y="-529.99" font-family="Times,serif" font-size="18.00">connect</text>
</g>
<!-- connect&#45;&gt;nodelist -->
<g id="edge4" class="edge">
<title>connect&#45;&gt;nodelist</title>
<g id="a_edge4"><a xlink:href="30-nodelist.html">
<path fill="none" stroke="black" stroke-width="5" d="M356.72,-516.99C356.72,-509.94 356.72,-501.51 356.72,-493.2"/>
<polygon fill="black" stroke="black" stroke-width="5" points="365.47,-493.08 356.72,-473.08 347.97,-493.08 365.47,-493.08"/>
</a>
</g>
</g>
<!-- clientlist -->
<g id="node9" class="node">
<title>clientlist</title>
<g id="a_node9"><a xlink:href="clientlist.html" xlink:title="clientlist">
<polygon fill="none" stroke="black" points="124.71,-400.23 46.73,-400.23 46.73,-364.23 124.71,-364.23 124.71,-400.23"/>
<text text-anchor="middle" x="85.72" y="-376.83" font-family="Times,serif" font-size="18.00">clientlist</text>
</a>
</g>
</g>
<!-- clientlist&#45;&gt;accepted_to_client -->
<g id="edge13" class="edge">
<title>clientlist&#45;&gt;accepted_to_client</title>
<g id="a_edge13"><a xlink:href="36-accepted_to_client.html">
<path fill="none" stroke="black" stroke-width="5" stroke-dasharray="5,2" d="M87.9,-364.03C91.1,-337.13 96.72,-283.43 96.72,-237.69 96.72,-237.69 96.72,-237.69 96.72,-162.92 96.72,-127.05 99.87,-86.25 102.63,-57.35"/>
<polygon fill="black" stroke="black" stroke-width="5" points="111.38,-57.82 104.7,-37.04 93.97,-56.05 111.38,-57.82"/>
</a>
</g>
</g>
<!-- client_request -->
<g id="node10" class="node">
<title>client_request</title>
<ellipse fill="none" stroke="black" cx="116.72" cy="-535.39" rx="82.91" ry="18.27"/>
<text text-anchor="middle" x="116.72" y="-529.99" font-family="Times,serif" font-size="18.00">client_request</text>
</g>
<!-- client_request&#45;&gt;clientlist -->
<g id="edge5" class="edge">
<title>client_request&#45;&gt;clientlist</title>
<g id="a_edge5"><a xlink:href="31-clientlist.html">
<path fill="none" stroke="black" stroke-width="5" d="M96.03,-517.53C84.1,-506.41 70.21,-490.73 63.72,-473.39 57.19,-455.9 61.08,-435.77 67.29,-418.97"/>
<polygon fill="black" stroke="black" stroke-width="5" points="75.36,-422.37 75.48,-400.54 59.36,-415.27 75.36,-422.37"/>
</a>
</g>
</g>
<!-- client_request_temp -->
<g id="node11" class="node">
<title>client_request_temp</title>
<g id="a_node11"><a xlink:href="client_request_temp.html" xlink:title="client_request_temp">
<ellipse fill="none" stroke="black" cx="187.72" cy="-455" rx="114.53" ry="18.27"/>
<text text-anchor="middle" x="187.72" y="-449.6" font-family="Times,serif" font-size="18.00">client_request_temp</text>
</a>
</g>
</g>
<!-- client_request&#45;&gt;client_request_temp -->
<g id="edge6" class="edge">
<title>client_request&#45;&gt;client_request_temp</title>
<g id="a_edge6"><a xlink:href="32-client_request_temp.html">
<path fill="none" stroke="black" stroke-width="5" d="M132.48,-516.99C140.11,-508.57 149.52,-498.18 158.4,-488.37"/>
<polygon fill="black" stroke="black" stroke-width="5" points="165.07,-494.05 172.01,-473.35 152.1,-482.3 165.07,-494.05"/>
</a>
</g>
</g>
<!-- client_request_temp&#45;&gt;prepare -->
<g id="edge7" class="edge">
<title>client_request_temp&#45;&gt;prepare</title>
<g id="a_edge7"><a xlink:href="33-prepare.html">
<path fill="none" stroke="black" stroke-width="5" stroke-dasharray="5,2" d="M193.16,-436.51C194.76,-431.37 196.57,-425.54 198.39,-419.68"/>
<polygon fill="black" stroke="black" stroke-width="5" points="206.77,-422.22 204.35,-400.52 190.06,-417.03 206.77,-422.22"/>
</a>
</g>
</g>
<!-- majority&#45;&gt;accept -->
<g id="edge10" class="edge">
<title>majority&#45;&gt;accept</title>
<g id="a_edge10"><a xlink:href="35-accept.html">
<path fill="none" stroke="black" stroke-width="5" stroke-dasharray="5,2" d="M209.72,-218.2C209.72,-213.47 209.72,-208.17 209.72,-202.78"/>
<polygon fill="black" stroke="black" stroke-width="5" points="218.47,-202.71 209.72,-182.71 200.97,-202.71 218.47,-202.71"/>
</a>
</g>
</g>
<!-- S -->
<g id="node15" class="node">
<title>S</title>
<g id="a_node15"><a xlink:href="javascript:advanceTo(-2)" xlink:title="S">
<polygon fill="none" stroke="blue" stroke-width="3" points="452.72,-561.39 425.72,-535.39 452.72,-509.39 479.72,-535.39 452.72,-561.39"/>
<text text-anchor="middle" x="452.72" y="-529.99" font-family="Times,serif" font-size="18.00">S</text>
</a>
</g>
</g>
<!-- T -->
<g id="node16" class="node">
<title>T</title>
<g id="a_node16"><a xlink:href="javascript:advanceTo(0)" xlink:title="T">
<polygon fill="none" stroke="blue" stroke-width="3" points="524.72,-561.39 497.72,-535.39 524.72,-509.39 551.72,-535.39 524.72,-561.39"/>
<text text-anchor="middle" x="524.72" y="-529.99" font-family="Times,serif" font-size="18.00">T</text>
</a>
</g>
</g>
</g>
</svg>
