<?xml version="1.0" encoding="UTF-8" standalone="no"?>
<!DOCTYPE svg PUBLIC "-//W3C//DTD SVG 1.1//EN"
 "http://www.w3.org/Graphics/SVG/1.1/DTD/svg11.dtd">
<!-- Generated by graphviz version 2.43.0 (0)
 -->
<!-- Title: G Pages: 1 -->
<svg width="1127pt" height="899pt"
 viewBox="0.00 0.00 1127.37 899.16" xmlns="http://www.w3.org/2000/svg" xmlns:xlink="http://www.w3.org/1999/xlink">
<g id="graph0" class="graph" transform="scale(1 1) rotate(0) translate(4 895.16)">
<script type='text/javascript'>
  <![CDATA[

var windows = new Array()
var info = new Array()

function openWin(target, time) {
  win = window.open(target + "_" + time + ".html", target, "location=no,width=400,height=180,left=0,status=no");
  // hm, an associative array, how strange.
  info[target] = 1
}

function advanceTo(time) {
  arr = gup("wins").split(",");
  for (i=0; i < arr.length; i++) {
    if (arr[i] != "") {
      openWin(arr[i], time);
    }
  }
  str = '';
  // getting 'key_cols'
  for (var i in info) {
    str = str + ',' + i;
  }
  self.window.location.href = 'tm_' + time + '.svg?wins=' + str;
}

// off the netz
function gup(name) {
  name = name.replace(/[[]/,"\[").replace(/[]]/,"\]");
  var regexS = "[\?&]"+name+"=([^&#]*)";
  var regex = new RegExp(regexS);
  var results = regex.exec(window.location.href);
  if (results == null)
    return "";
  else
    return results[1];
}

  ]]>
</script>

<polygon fill="white" stroke="transparent" points="-4,4 -4,-895.16 1123.37,-895.16 1123.37,4 -4,4"/>
<!-- promise -->
<g id="node1" class="node">
<title>promise</title>
<g id="a_node1"><a xlink:href="promise.html" xlink:title="promise">
<ellipse fill="none" stroke="black" cx="641.72" cy="-493.46" rx="52.14" ry="18.27"/>
<text text-anchor="middle" x="641.72" y="-488.06" font-family="Times,serif" font-size="18.00">promise</text>
</a>
</g>
</g>
<!-- accept_sent -->
<g id="node13" class="node">
<title>accept_sent</title>
<g id="a_node13"><a xlink:href="accept_sent.html" xlink:title="accept_sent">
<polygon fill="none" stroke="black" points="509.68,-331.08 409.77,-331.08 409.77,-295.08 509.68,-295.08 509.68,-331.08"/>
<text text-anchor="middle" x="459.72" y="-307.68" font-family="Times,serif" font-size="18.00">accept_sent</text>
</a>
</g>
</g>
<!-- promise&#45;&gt;accept_sent -->
<g id="edge33" class="edge">
<title>promise&#45;&gt;accept_sent</title>
<g id="a_edge33"><a xlink:href="50-accept_sent.html" xlink:title=" +/&#45;">
<path fill="none" stroke="black" stroke-width="5" d="M639.23,-474.79C635.14,-451.65 624.99,-410.98 601.72,-385.08 585.8,-367.35 564.45,-353.51 543.14,-342.93"/>
<polygon fill="black" stroke="black" stroke-width="5" points="509.94,-328.74 531.87,-328.33 519.92,-330.83 529.12,-334.76 528.33,-336.6 527.54,-338.44 518.35,-334.51 524.79,-344.88 509.94,-328.74 509.94,-328.74"/>
<ellipse fill="none" stroke="black" stroke-width="5" cx="535.69" cy="-339.75" rx="8" ry="8"/>
</a>
</g>
<g id="a_edge33&#45;label"><a xlink:href="50-accept_sent.html" xlink:title=" +/&#45;">
<text text-anchor="middle" x="636.55" y="-397.68" font-family="Times,serif" font-size="18.00"> +/&#45;</text>
</a>
</g>
</g>
<!-- agreeing_acceptors -->
<g id="node15" class="node">
<title>agreeing_acceptors</title>
<g id="a_node15"><a xlink:href="agreeing_acceptors.html" xlink:title="agreeing_acceptors">
<polygon fill="none" stroke="black" points="550.14,-421.08 395.3,-421.08 395.3,-385.08 550.14,-385.08 550.14,-421.08"/>
<text text-anchor="middle" x="472.72" y="-397.68" font-family="Times,serif" font-size="18.00">agreeing_acceptors</text>
</a>
</g>
</g>
<!-- promise&#45;&gt;agreeing_acceptors -->
<g id="edge26" class="edge">
<title>promise&#45;&gt;agreeing_acceptors</title>
<g id="a_edge26"><a xlink:href="44-agreeing_acceptors.html" xlink:title=" +/&#45;">
<path fill="none" stroke="black" stroke-width="5" d="M619.35,-476.79C610.77,-470.7 600.92,-463.63 592.08,-457.08 581.55,-449.27 580.2,-445.4 568.72,-439.08 566.48,-437.84 564.17,-436.63 561.84,-435.45"/>
<polygon fill="black" stroke="black" stroke-width="5" points="528.58,-421.16 550.5,-420.79 538.55,-423.27 547.74,-427.22 546.95,-429.06 546.16,-430.9 536.98,-426.95 543.4,-437.33 528.58,-421.16 528.58,-421.16"/>
<ellipse fill="none" stroke="black" stroke-width="5" cx="554.3" cy="-432.22" rx="8" ry="8"/>
</a>
</g>
<g id="a_edge26&#45;label"><a xlink:href="44-agreeing_acceptors.html" xlink:title=" +/&#45;">
<text text-anchor="middle" x="605.55" y="-442.68" font-family="Times,serif" font-size="18.00"> +/&#45;</text>
</a>
</g>
</g>
<!-- highest_id_responded -->
<g id="node16" class="node">
<title>highest_id_responded</title>
<g id="a_node16"><a xlink:href="highest_id_responded.html" xlink:title="highest_id_responded">
<polygon fill="none" stroke="black" points="1022.7,-421.08 848.75,-421.08 848.75,-385.08 1022.7,-385.08 1022.7,-421.08"/>
<text text-anchor="middle" x="935.72" y="-397.68" font-family="Times,serif" font-size="18.00">highest_id_responded</text>
</a>
</g>
</g>
<!-- promise&#45;&gt;highest_id_responded -->
<g id="edge28" class="edge">
<title>promise&#45;&gt;highest_id_responded</title>
<g id="a_edge28"><a xlink:href="46-highest_id_responded.html" xlink:title=" +/&#45;">
<path fill="none" stroke="black" stroke-width="5" d="M680.16,-480.91C721.68,-468.42 789.32,-448.09 844.59,-431.48"/>
<polygon fill="black" stroke="black" stroke-width="5" points="879.14,-421.09 862.57,-435.47 870.13,-425.88 860.56,-428.76 859.98,-426.85 859.41,-424.93 868.98,-422.05 857.39,-418.23 879.14,-421.09 879.14,-421.09"/>
<ellipse fill="none" stroke="black" stroke-width="5" cx="852.32" cy="-429.15" rx="8" ry="8"/>
</a>
</g>
<g id="a_edge28&#45;label"><a xlink:href="46-highest_id_responded.html" xlink:title=" +/&#45;">
<text text-anchor="middle" x="827.55" y="-442.68" font-family="Times,serif" font-size="18.00"> +/&#45;</text>
</a>
</g>
</g>
<!-- advocate_val -->
<g id="node17" class="node">
<title>advocate_val</title>
<g id="a_node17"><a xlink:href="advocate_val.html" xlink:title="advocate_val">
<polygon fill="none" stroke="black" points="876.17,-331.08 765.28,-331.08 765.28,-295.08 876.17,-295.08 876.17,-331.08"/>
<text text-anchor="middle" x="820.72" y="-307.68" font-family="Times,serif" font-size="18.00">advocate_val</text>
</a>
</g>
</g>
<!-- promise&#45;&gt;advocate_val -->
<g id="edge30" class="edge">
<title>promise&#45;&gt;advocate_val</title>
<g id="a_edge30"><a xlink:href="48-advocate_val.html" xlink:title=" +/&#45;">
<path fill="none" stroke="black" stroke-width="5" d="M675.29,-479.26C687.5,-473.53 700.94,-466.05 711.72,-457.08 743.81,-430.4 772.1,-392.59 791.82,-362.55"/>
<polygon fill="black" stroke="black" stroke-width="5" points="811.02,-331.51 808.15,-353.25 807.46,-341.07 802.2,-349.57 800.5,-348.52 798.8,-347.47 804.06,-338.96 792.84,-343.78 811.02,-331.51 811.02,-331.51"/>
<ellipse fill="none" stroke="black" stroke-width="5" cx="796.29" cy="-355.32" rx="8" ry="8"/>
</a>
</g>
<g id="a_edge30&#45;label"><a xlink:href="48-advocate_val.html" xlink:title=" +/&#45;">
<text text-anchor="middle" x="787.55" y="-397.68" font-family="Times,serif" font-size="18.00"> +/&#45;</text>
</a>
</g>
</g>
<!-- majority -->
<g id="node19" class="node">
<title>majority</title>
<g id="a_node19"><a xlink:href="majority.html" xlink:title="majority">
<ellipse fill="none" stroke="black" cx="411.72" cy="-239.69" rx="54.38" ry="18.27"/>
<text text-anchor="middle" x="411.72" y="-234.29" font-family="Times,serif" font-size="18.00">majority</text>
</a>
</g>
</g>
<!-- promise&#45;&gt;majority -->
<g id="edge37" class="edge">
<title>promise&#45;&gt;majority</title>
<g id="a_edge37"><a xlink:href="52-majority.html">
<path fill="none" stroke="black" stroke-width="5" d="M648.79,-474.97C656.52,-453.07 666.23,-414.82 653.72,-385.08 623.39,-312.96 536.51,-274.6 475.58,-255.97"/>
<polygon fill="black" stroke="black" stroke-width="5" points="477.66,-247.46 456.03,-250.38 472.85,-264.29 477.66,-247.46"/>
</a>
</g>
</g>
<!-- prepare -->
<g id="node2" class="node">
<title>prepare</title>
<g id="a_node2"><a xlink:href="prepare.html" xlink:title="prepare">
<ellipse fill="none" stroke="black" cx="541.72" cy="-584.23" rx="49.43" ry="18.27"/>
<text text-anchor="middle" x="541.72" y="-578.83" font-family="Times,serif" font-size="18.00">prepare</text>
</a>
</g>
</g>
<!-- prepare&#45;&gt;promise -->
<g id="edge1" class="edge">
<title>prepare&#45;&gt;promise</title>
<g id="a_edge1"><a xlink:href="22-promise.html">
<path fill="none" stroke="black" stroke-width="5" stroke-dasharray="5,2" d="M560.06,-566.95C573.44,-555.08 591.96,-538.64 607.97,-524.42"/>
<polygon fill="black" stroke="black" stroke-width="5" points="614.01,-530.76 623.16,-510.94 602.39,-517.68 614.01,-530.76"/>
</a>
</g>
</g>
<!-- accepted -->
<g id="node3" class="node">
<title>accepted</title>
<g id="a_node3"><a xlink:href="accepted.html" xlink:title="accepted">
<ellipse fill="none" stroke="black" cx="336.72" cy="-92.15" rx="55.65" ry="18.27"/>
<text text-anchor="middle" x="336.72" y="-86.75" font-family="Times,serif" font-size="18.00">accepted</text>
</a>
</g>
</g>
<!-- accepted_to_client -->
<g id="node20" class="node">
<title>accepted_to_client</title>
<g id="a_node20"><a xlink:href="accepted_to_client.html" xlink:title="accepted_to_client">
<ellipse fill="none" stroke="black" cx="106.72" cy="-18.38" rx="106.95" ry="18.27"/>
<text text-anchor="middle" x="106.72" y="-12.98" font-family="Times,serif" font-size="18.00">accepted_to_client</text>
</a>
</g>
</g>
<!-- accepted&#45;&gt;accepted_to_client -->
<g id="edge42" class="edge">
<title>accepted&#45;&gt;accepted_to_client</title>
<g id="a_edge42"><a xlink:href="54-accepted_to_client.html">
<path fill="none" stroke="black" stroke-width="5" stroke-dasharray="5,2" d="M297.71,-78.98C264.19,-68.52 215.09,-53.2 175.06,-40.71"/>
<polygon fill="black" stroke="black" stroke-width="5" points="177.66,-32.35 155.96,-34.75 172.45,-49.06 177.66,-32.35"/>
</a>
</g>
</g>
<!-- accepted_to_learner -->
<g id="node21" class="node">
<title>accepted_to_learner</title>
<g id="a_node21"><a xlink:href="accepted_to_learner.html" xlink:title="accepted_to_learner">
<ellipse fill="none" stroke="black" cx="345.72" cy="-18.38" rx="113.55" ry="18.27"/>
<text text-anchor="middle" x="345.72" y="-12.98" font-family="Times,serif" font-size="18.00">accepted_to_learner</text>
</a>
</g>
</g>
<!-- accepted&#45;&gt;accepted_to_learner -->
<g id="edge44" class="edge">
<title>accepted&#45;&gt;accepted_to_learner</title>
<g id="a_edge44"><a xlink:href="55-accepted_to_learner.html">
<path fill="none" stroke="black" stroke-width="5" stroke-dasharray="5,2" d="M338.9,-73.78C339.55,-68.62 340.29,-62.75 341.03,-56.83"/>
<polygon fill="black" stroke="black" stroke-width="5" points="349.73,-57.78 343.53,-36.85 332.36,-55.6 349.73,-57.78"/>
</a>
</g>
</g>
<!-- accept -->
<g id="node4" class="node">
<title>accept</title>
<g id="a_node4"><a xlink:href="accept.html" xlink:title="accept">
<ellipse fill="none" stroke="black" cx="336.72" cy="-165.92" rx="43.62" ry="18.27"/>
<text text-anchor="middle" x="336.72" y="-160.52" font-family="Times,serif" font-size="18.00">accept</text>
</a>
</g>
</g>
<!-- accept&#45;&gt;accepted -->
<g id="edge2" class="edge">
<title>accept&#45;&gt;accepted</title>
<g id="a_edge2"><a xlink:href="23-accepted.html">
<path fill="none" stroke="black" stroke-width="5" stroke-dasharray="5,2" d="M336.72,-147.18C336.72,-142.14 336.72,-136.45 336.72,-130.71"/>
<polygon fill="black" stroke="black" stroke-width="5" points="345.47,-130.69 336.72,-110.69 327.97,-130.69 345.47,-130.69"/>
</a>
</g>
</g>
<!-- learnerlist -->
<g id="node5" class="node">
<title>learnerlist</title>
<g id="a_node5"><a xlink:href="learnerlist.html" xlink:title="learnerlist">
<polygon fill="none" stroke="black" points="516.69,-110.15 428.76,-110.15 428.76,-74.15 516.69,-74.15 516.69,-110.15"/>
<text text-anchor="middle" x="472.72" y="-86.75" font-family="Times,serif" font-size="18.00">learnerlist</text>
</a>
</g>
</g>
<!-- learnerlist&#45;&gt;accepted_to_learner -->
<g id="edge45" class="edge">
<title>learnerlist&#45;&gt;accepted_to_learner</title>
<g id="a_edge45"><a xlink:href="55-accepted_to_learner.html">
<path fill="none" stroke="black" stroke-width="5" stroke-dasharray="5,2" d="M442.63,-74.15C427.84,-65.79 409.67,-55.52 393.08,-46.15"/>
<polygon fill="black" stroke="black" stroke-width="5" points="397.32,-38.49 375.6,-36.27 388.71,-53.73 397.32,-38.49"/>
</a>
</g>
</g>
<!-- connect_learner -->
<g id="node6" class="node">
<title>connect_learner</title>
<ellipse fill="none" stroke="black" cx="490.72" cy="-165.92" rx="92.66" ry="18.27"/>
<text text-anchor="middle" x="490.72" y="-160.52" font-family="Times,serif" font-size="18.00">connect_learner</text>
</g>
<!-- connect_learner&#45;&gt;learnerlist -->
<g id="edge3" class="edge">
<title>connect_learner&#45;&gt;learnerlist</title>
<g id="a_edge3"><a xlink:href="29-learnerlist.html">
<path fill="none" stroke="black" stroke-width="5" d="M486.37,-147.55C485.02,-142.17 483.48,-136.03 481.93,-129.86"/>
<polygon fill="black" stroke="black" stroke-width="5" points="490.39,-127.64 477.04,-110.37 473.42,-131.9 490.39,-127.64"/>
</a>
</g>
</g>
<!-- nodelist -->
<g id="node7" class="node">
<title>nodelist</title>
<g id="a_node7"><a xlink:href="nodelist.html" xlink:title="nodelist">
<polygon fill="none" stroke="black" points="371.22,-676 298.23,-676 298.23,-640 371.22,-640 371.22,-676"/>
<text text-anchor="middle" x="334.72" y="-652.6" font-family="Times,serif" font-size="18.00">nodelist</text>
</a>
</g>
</g>
<!-- nodelist&#45;&gt;prepare -->
<g id="edge24" class="edge">
<title>nodelist&#45;&gt;prepare</title>
<g id="a_edge24"><a xlink:href="43-prepare.html">
<path fill="none" stroke="black" stroke-width="5" stroke-dasharray="5,2" d="M371.25,-644.34C403.47,-633.17 450.87,-616.73 487.51,-604.03"/>
<polygon fill="black" stroke="black" stroke-width="5" points="490.56,-612.23 506.59,-597.41 484.83,-595.7 490.56,-612.23"/>
</a>
</g>
</g>
<!-- nodelist&#45;&gt;accept -->
<g id="edge40" class="edge">
<title>nodelist&#45;&gt;accept</title>
<g id="a_edge40"><a xlink:href="53-accept.html">
<path fill="none" stroke="black" stroke-width="5" stroke-dasharray="5,2" d="M332.86,-639.91C331.44,-625.39 329.72,-603.97 329.72,-585.23 329.72,-585.23 329.72,-585.23 329.72,-238.69 329.72,-227.47 330.58,-215.31 331.7,-204.24"/>
<polygon fill="black" stroke="black" stroke-width="5" points="340.4,-205.18 334.08,-184.28 323.02,-203.1 340.4,-205.18"/>
</a>
</g>
</g>
<!-- connect -->
<g id="node8" class="node">
<title>connect</title>
<ellipse fill="none" stroke="black" cx="311.72" cy="-766.77" rx="50.78" ry="18.27"/>
<text text-anchor="middle" x="311.72" y="-761.37" font-family="Times,serif" font-size="18.00">connect</text>
</g>
<!-- connect&#45;&gt;nodelist -->
<g id="edge4" class="edge">
<title>connect&#45;&gt;nodelist</title>
<g id="a_edge4"><a xlink:href="30-nodelist.html">
<path fill="none" stroke="black" stroke-width="5" d="M315.52,-748.14C318.57,-733.99 322.95,-713.64 326.76,-695.96"/>
<polygon fill="black" stroke="black" stroke-width="5" points="335.34,-697.7 331,-676.3 318.23,-694.01 335.34,-697.7"/>
</a>
</g>
</g>
<!-- num_acceptors -->
<g id="node9" class="node">
<title>num_acceptors</title>
<g id="a_node9"><a xlink:href="num_acceptors.html" xlink:title="num_acceptors">
<polygon fill="none" stroke="black" points="259.18,-421.08 134.27,-421.08 134.27,-385.08 259.18,-385.08 259.18,-421.08"/>
<text text-anchor="middle" x="196.72" y="-397.68" font-family="Times,serif" font-size="18.00">num_acceptors</text>
</a>
</g>
</g>
<!-- connect&#45;&gt;num_acceptors -->
<g id="edge5" class="edge">
<title>connect&#45;&gt;num_acceptors</title>
<g id="a_edge5"><a xlink:href="31-num_acceptors.html" xlink:title=" +/&#45;">
<path fill="none" stroke="black" stroke-width="5" d="M306.18,-748.33C289.52,-695.94 239.47,-538.51 213.21,-455.93"/>
<polygon fill="black" stroke="black" stroke-width="5" points="202.21,-421.35 216.85,-437.68 207.15,-430.27 210.18,-439.8 208.27,-440.41 206.37,-441.01 203.34,-431.48 199.7,-443.14 202.21,-421.35 202.21,-421.35"/>
<ellipse fill="none" stroke="black" stroke-width="5" cx="210.7" cy="-448.03" rx="8" ry="8"/>
</a>
</g>
<g id="a_edge5&#45;label"><a xlink:href="31-num_acceptors.html" xlink:title=" +/&#45;">
<text text-anchor="middle" x="273.55" y="-578.83" font-family="Times,serif" font-size="18.00"> +/&#45;</text>
</a>
</g>
</g>
<!-- num_acceptors&#45;&gt;num_acceptors -->
<g id="edge6" class="edge">
<title>num_acceptors&#45;&gt;num_acceptors</title>
<g id="a_edge6"><a xlink:href="31-num_acceptors.html" xlink:title=" +/&#45;">
<path fill="none" stroke="black" stroke-width="5" d="M259.49,-410.75C259.65,-410.73 259.81,-410.71 259.97,-410.69"/>
<polygon fill="black" stroke="black" stroke-width="5" points="259.49,-395.41 269.12,-415.11 261.8,-405.34 262.12,-415.34 260.12,-415.4 258.13,-415.46 257.81,-405.47 251.13,-415.69 259.49,-395.41 259.49,-395.41"/>
<ellipse fill="none" stroke="black" stroke-width="5" cx="260.38" cy="-423.4" rx="8" ry="8"/>
</a>
</g>
<g id="a_edge6&#45;label"><a xlink:href="31-num_acceptors.html" xlink:title=" +/&#45;">
<text text-anchor="middle" x="290.03" y="-397.68" font-family="Times,serif" font-size="18.00"> +/&#45;</text>
</a>
</g>
</g>
<!-- num_acceptors&#45;&gt;accept_sent -->
<g id="edge31" class="edge">
<title>num_acceptors&#45;&gt;accept_sent</title>
<g id="a_edge31"><a xlink:href="50-accept_sent.html" xlink:title=" +/&#45;">
<path fill="none" stroke="black" stroke-width="5" d="M247.74,-385.01C284,-372.88 333.51,-356.31 375.57,-342.24"/>
<polygon fill="black" stroke="black" stroke-width="5" points="409.74,-330.8 393.63,-345.68 400.89,-335.87 391.41,-339.05 390.77,-337.15 390.14,-335.25 399.62,-332.08 387.91,-328.61 409.74,-330.8 409.74,-330.8"/>
<ellipse fill="none" stroke="black" stroke-width="5" cx="383.18" cy="-339.69" rx="8" ry="8"/>
</a>
</g>
<g id="a_edge31&#45;label"><a xlink:href="50-accept_sent.html" xlink:title=" +/&#45;">
<text text-anchor="middle" x="365.55" y="-352.68" font-family="Times,serif" font-size="18.00"> +/&#45;</text>
</a>
</g>
</g>
<!-- num_acceptors&#45;&gt;majority -->
<g id="edge35" class="edge">
<title>num_acceptors&#45;&gt;majority</title>
<g id="a_edge35"><a xlink:href="52-majority.html">
<path fill="none" stroke="black" stroke-width="5" d="M220.22,-385.07C228.04,-379.38 236.78,-372.98 244.72,-367.08 289.71,-333.66 341.06,-294.67 374.81,-268.93"/>
<polygon fill="black" stroke="black" stroke-width="5" points="380.14,-275.87 390.72,-256.77 369.52,-261.96 380.14,-275.87"/>
</a>
</g>
</g>
<!-- num_acceptors&#45;&gt;accepted_to_learner -->
<g id="edge46" class="edge">
<title>num_acceptors&#45;&gt;accepted_to_learner</title>
<g id="a_edge46"><a xlink:href="55-accepted_to_learner.html">
<path fill="none" stroke="black" stroke-width="5" stroke-dasharray="5,2" d="M207.67,-384.97C217.61,-367.76 230.72,-340.12 230.72,-314.08 230.72,-314.08 230.72,-314.08 230.72,-91.15 230.72,-68.77 246.6,-53.11 266.56,-42.27"/>
<polygon fill="black" stroke="black" stroke-width="5" points="270.28,-50.19 284.86,-33.93 263.03,-34.26 270.28,-50.19"/>
</a>
</g>
</g>
<!-- clientlist -->
<g id="node10" class="node">
<title>clientlist</title>
<g id="a_node10"><a xlink:href="clientlist.html" xlink:title="clientlist">
<polygon fill="none" stroke="black" points="181.71,-730.39 103.73,-730.39 103.73,-694.39 181.71,-694.39 181.71,-730.39"/>
<text text-anchor="middle" x="142.72" y="-706.99" font-family="Times,serif" font-size="18.00">clientlist</text>
</a>
</g>
</g>
<!-- clientlist&#45;&gt;accepted_to_client -->
<g id="edge43" class="edge">
<title>clientlist&#45;&gt;accepted_to_client</title>
<g id="a_edge43"><a xlink:href="54-accepted_to_client.html">
<path fill="none" stroke="black" stroke-width="5" stroke-dasharray="5,2" d="M131.33,-694.32C120.79,-676.83 106.72,-648.48 106.72,-621.62 106.72,-621.62 106.72,-621.62 106.72,-91.15 106.72,-80.13 106.72,-68.16 106.72,-57.2"/>
<polygon fill="black" stroke="black" stroke-width="5" points="115.47,-56.79 106.72,-36.79 97.97,-56.79 115.47,-56.79"/>
</a>
</g>
</g>
<!-- client_request -->
<g id="node11" class="node">
<title>client_request</title>
<ellipse fill="none" stroke="black" cx="585.72" cy="-865.16" rx="82.91" ry="18.27"/>
<text text-anchor="middle" x="585.72" y="-859.76" font-family="Times,serif" font-size="18.00">client_request</text>
</g>
<!-- client_request&#45;&gt;clientlist -->
<g id="edge7" class="edge">
<title>client_request&#45;&gt;clientlist</title>
<g id="a_edge7"><a xlink:href="33-clientlist.html">
<path fill="none" stroke="black" stroke-width="5" d="M503.5,-862.65C408.95,-859.55 260.72,-850.08 213.72,-821.16 186.89,-804.64 168.11,-773.75 156.64,-749.26"/>
<polygon fill="black" stroke="black" stroke-width="5" points="164.59,-745.62 148.7,-730.65 148.5,-752.48 164.59,-745.62"/>
</a>
</g>
</g>
<!-- propose_num -->
<g id="node12" class="node">
<title>propose_num</title>
<g id="a_node12"><a xlink:href="propose_num.html" xlink:title="propose_num">
<polygon fill="none" stroke="black" points="546.71,-784.77 432.73,-784.77 432.73,-748.77 546.71,-748.77 546.71,-784.77"/>
<text text-anchor="middle" x="489.72" y="-761.37" font-family="Times,serif" font-size="18.00">propose_num</text>
</a>
</g>
</g>
<!-- client_request&#45;&gt;propose_num -->
<g id="edge9" class="edge">
<title>client_request&#45;&gt;propose_num</title>
<g id="a_edge9"><a xlink:href="34-propose_num.html" xlink:title=" +/&#45;">
<path fill="none" stroke="black" stroke-width="5" d="M568.56,-846.92C558.39,-836.71 545.02,-823.29 532.18,-810.4"/>
<polygon fill="black" stroke="black" stroke-width="5" points="506.74,-784.85 527.23,-792.67 515.21,-790.53 522.27,-797.61 520.85,-799.02 519.43,-800.44 512.38,-793.35 514.47,-805.38 506.74,-784.85 506.74,-784.85"/>
<ellipse fill="none" stroke="black" stroke-width="5" cx="526.5" cy="-804.69" rx="8" ry="8"/>
</a>
</g>
<g id="a_edge9&#45;label"><a xlink:href="34-propose_num.html" xlink:title=" +/&#45;">
<text text-anchor="middle" x="553.55" y="-806.76" font-family="Times,serif" font-size="18.00"> +/&#45;</text>
</a>
</g>
</g>
<!-- client_request&#45;&gt;accept_sent -->
<g id="edge10" class="edge">
<title>client_request&#45;&gt;accept_sent</title>
<g id="a_edge10"><a xlink:href="36-accept_sent.html">
<path fill="none" stroke="black" stroke-width="5" d="M507.6,-858.84C402.26,-849.48 227.72,-825.3 227.72,-767.77 227.72,-767.77 227.72,-767.77 227.72,-620.62 227.72,-496.86 349.44,-391.56 416.55,-342.9"/>
<polygon fill="black" stroke="black" stroke-width="5" points="421.8,-349.92 433.11,-331.25 411.72,-335.61 421.8,-349.92"/>
</a>
</g>
</g>
<!-- slot_num -->
<g id="node14" class="node">
<title>slot_num</title>
<g id="a_node14"><a xlink:href="slot_num.html" xlink:title="slot_num">
<polygon fill="none" stroke="black" points="745.23,-784.77 662.22,-784.77 662.22,-748.77 745.23,-748.77 745.23,-784.77"/>
<text text-anchor="middle" x="703.72" y="-761.37" font-family="Times,serif" font-size="18.00">slot_num</text>
</a>
</g>
</g>
<!-- client_request&#45;&gt;slot_num -->
<g id="edge19" class="edge">
<title>client_request&#45;&gt;slot_num</title>
<g id="a_edge19"><a xlink:href="40-slot_num.html" xlink:title=" +/&#45;">
<path fill="none" stroke="black" stroke-width="5" d="M606.55,-847.15C619.95,-836.2 637.95,-821.5 654.81,-807.72"/>
<polygon fill="black" stroke="black" stroke-width="5" points="682.71,-784.94 672.91,-804.56 676.23,-792.81 668.49,-799.14 667.22,-797.59 665.96,-796.04 673.7,-789.71 661.53,-790.62 682.71,-784.94 682.71,-784.94"/>
<ellipse fill="none" stroke="black" stroke-width="5" cx="661.02" cy="-802.65" rx="8" ry="8"/>
</a>
</g>
<g id="a_edge19&#45;label"><a xlink:href="40-slot_num.html" xlink:title=" +/&#45;">
<text text-anchor="middle" x="672.55" y="-806.76" font-family="Times,serif" font-size="18.00"> +/&#45;</text>
</a>
</g>
</g>
<!-- client_request&#45;&gt;agreeing_acceptors -->
<g id="edge12" class="edge">
<title>client_request&#45;&gt;agreeing_acceptors</title>
<g id="a_edge12"><a xlink:href="37-agreeing_acceptors.html">
<path fill="none" stroke="black" stroke-width="5" d="M513.69,-855.98C461.01,-845.52 398.72,-821.74 398.72,-767.77 398.72,-767.77 398.72,-767.77 398.72,-492.46 398.72,-469.44 413.66,-449.27 430.11,-434.03"/>
<polygon fill="black" stroke="black" stroke-width="5" points="435.75,-440.72 445.59,-421.24 424.6,-427.23 435.75,-440.72"/>
</a>
</g>
</g>
<!-- client_request&#45;&gt;highest_id_responded -->
<g id="edge14" class="edge">
<title>client_request&#45;&gt;highest_id_responded</title>
<g id="a_edge14"><a xlink:href="38-highest_id_responded.html">
<path fill="none" stroke="black" stroke-width="5" d="M635.45,-850.47C730.31,-824.31 927.72,-769.65 927.72,-767.77 927.72,-767.77 927.72,-767.77 927.72,-492.46 927.72,-475.6 929.19,-457.01 930.86,-441.24"/>
<polygon fill="black" stroke="black" stroke-width="5" points="939.56,-442.21 933.24,-421.31 922.18,-440.13 939.56,-442.21"/>
</a>
</g>
</g>
<!-- client_request&#45;&gt;advocate_val -->
<g id="edge16" class="edge">
<title>client_request&#45;&gt;advocate_val</title>
<g id="a_edge16"><a xlink:href="39-advocate_val.html" xlink:title=" +/&#45;">
<path fill="none" stroke="black" stroke-width="5" d="M633.72,-850.14C647.83,-846.28 663.33,-842.3 677.72,-839.16 769.35,-819.12 1093.72,-861.57 1093.72,-767.77 1093.72,-767.77 1093.72,-767.77 1093.72,-402.08 1093.72,-360.4 977.03,-335.61 896.23,-323.43"/>
<polygon fill="black" stroke="black" stroke-width="5" points="897.34,-314.75 876.3,-320.57 894.85,-332.07 897.34,-314.75"/>
</a>
</g>
<g id="a_edge16&#45;label"><a xlink:href="39-advocate_val.html" xlink:title=" +/&#45;">
<text text-anchor="middle" x="1106.55" y="-578.83" font-family="Times,serif" font-size="18.00"> +/&#45;</text>
</a>
</g>
</g>
<!-- client_request_temp -->
<g id="node18" class="node">
<title>client_request_temp</title>
<g id="a_node18"><a xlink:href="client_request_temp.html" xlink:title="client_request_temp">
<ellipse fill="none" stroke="black" cx="541.72" cy="-658" rx="114.53" ry="18.27"/>
<text text-anchor="middle" x="541.72" y="-652.6" font-family="Times,serif" font-size="18.00">client_request_temp</text>
</a>
</g>
</g>
<!-- client_request&#45;&gt;client_request_temp -->
<g id="edge20" class="edge">
<title>client_request&#45;&gt;client_request_temp</title>
<g id="a_edge20"><a xlink:href="42-client_request_temp.html">
<path fill="none" stroke="black" stroke-width="5" d="M591.9,-846.53C599.03,-823.51 608.58,-782.17 598.72,-748.39 592.84,-728.23 580.89,-708.29 569.44,-692.38"/>
<polygon fill="black" stroke="black" stroke-width="5" points="576.21,-686.83 557.07,-676.32 562.34,-697.51 576.21,-686.83"/>
</a>
</g>
</g>
<!-- propose_num&#45;&gt;propose_num -->
<g id="edge8" class="edge">
<title>propose_num&#45;&gt;propose_num</title>
<g id="a_edge8"><a xlink:href="34-propose_num.html" xlink:title=" +/&#45;">
<path fill="none" stroke="black" stroke-width="5" d="M546.94,-774.57C547.11,-774.55 547.27,-774.54 547.43,-774.52"/>
<polygon fill="black" stroke="black" stroke-width="5" points="546.94,-758.97 556.57,-778.68 549.26,-768.91 549.57,-778.9 547.57,-778.97 545.57,-779.03 545.26,-769.03 538.58,-779.25 546.94,-758.97 546.94,-758.97"/>
<ellipse fill="none" stroke="black" stroke-width="5" cx="547.82" cy="-786.96" rx="8" ry="8"/>
</a>
</g>
<g id="a_edge8&#45;label"><a xlink:href="34-propose_num.html" xlink:title=" +/&#45;">
<text text-anchor="middle" x="577.54" y="-761.37" font-family="Times,serif" font-size="18.00"> +/&#45;</text>
</a>
</g>
</g>
<!-- propose_num&#45;&gt;client_request_temp -->
<g id="edge21" class="edge">
<title>propose_num&#45;&gt;client_request_temp</title>
<g id="a_edge21"><a xlink:href="42-client_request_temp.html">
<path fill="none" stroke="black" stroke-width="5" d="M498.08,-748.62C505.16,-734.07 515.56,-712.73 524.42,-694.53"/>
<polygon fill="black" stroke="black" stroke-width="5" points="532.33,-698.28 533.22,-676.47 516.59,-690.62 532.33,-698.28"/>
</a>
</g>
</g>
<!-- accept_sent&#45;&gt;accept_sent -->
<g id="edge34" class="edge">
<title>accept_sent&#45;&gt;accept_sent</title>
<g id="a_edge34"><a xlink:href="50-accept_sent.html" xlink:title=" +/&#45;">
<path fill="none" stroke="black" stroke-width="5" d="M509.82,-319.59C509.98,-319.58 510.14,-319.57 510.31,-319.56"/>
<polygon fill="black" stroke="black" stroke-width="5" points="509.82,-306.57 519.56,-326.22 512.19,-316.48 512.57,-326.48 510.57,-326.55 508.57,-326.63 508.19,-316.63 501.57,-326.89 509.82,-306.57 509.82,-306.57"/>
<ellipse fill="none" stroke="black" stroke-width="5" cx="510.87" cy="-334.55" rx="8" ry="8"/>
</a>
</g>
<g id="a_edge34&#45;label"><a xlink:href="50-accept_sent.html" xlink:title=" +/&#45;">
<text text-anchor="middle" x="540.52" y="-307.68" font-family="Times,serif" font-size="18.00"> +/&#45;</text>
</a>
</g>
</g>
<!-- accept_sent&#45;&gt;majority -->
<g id="edge38" class="edge">
<title>accept_sent&#45;&gt;majority</title>
<g id="a_edge38"><a xlink:href="52-majority.html">
<path fill="none" stroke="black" stroke-width="5" d="M448.1,-294.8C443.98,-288.66 439.18,-281.52 434.44,-274.48"/>
<polygon fill="black" stroke="black" stroke-width="5" points="441.66,-269.53 423.24,-257.81 427.13,-279.29 441.66,-269.53"/>
</a>
</g>
</g>
<!-- slot_num&#45;&gt;accept_sent -->
<g id="edge11" class="edge">
<title>slot_num&#45;&gt;accept_sent</title>
<g id="a_edge11"><a xlink:href="36-accept_sent.html">
<path fill="none" stroke="black" stroke-width="5" d="M708.72,-748.56C714.34,-727.59 722.72,-691.01 722.72,-659 722.72,-659 722.72,-659 722.72,-492.46 722.72,-398.82 607.12,-350.94 529.2,-329.3"/>
<polygon fill="black" stroke="black" stroke-width="5" points="531.37,-320.82 509.81,-324.23 526.95,-337.75 531.37,-320.82"/>
</a>
</g>
</g>
<!-- slot_num&#45;&gt;slot_num -->
<g id="edge18" class="edge">
<title>slot_num&#45;&gt;slot_num</title>
<g id="a_edge18"><a xlink:href="40-slot_num.html" xlink:title=" +/&#45;">
<path fill="none" stroke="black" stroke-width="5" d="M745.43,-774.89C745.59,-774.88 745.75,-774.87 745.91,-774.86"/>
<polygon fill="black" stroke="black" stroke-width="5" points="745.43,-758.65 755.01,-778.38 747.72,-768.59 748.02,-778.58 746.02,-778.64 744.02,-778.7 743.73,-768.7 737.02,-778.91 745.43,-758.65 745.43,-758.65"/>
<ellipse fill="none" stroke="black" stroke-width="5" cx="746.25" cy="-786.64" rx="8" ry="8"/>
</a>
</g>
<g id="a_edge18&#45;label"><a xlink:href="40-slot_num.html" xlink:title=" +/&#45;">
<text text-anchor="middle" x="776.05" y="-761.37" font-family="Times,serif" font-size="18.00"> +/&#45;</text>
</a>
</g>
</g>
<!-- slot_num&#45;&gt;agreeing_acceptors -->
<g id="edge13" class="edge">
<title>slot_num&#45;&gt;agreeing_acceptors</title>
<g id="a_edge13"><a xlink:href="37-agreeing_acceptors.html">
<path fill="none" stroke="black" stroke-width="5" d="M700.78,-748.63C696,-723.56 685.08,-675.95 665.72,-639.62 622.21,-557.93 547.95,-477.82 505.35,-435.32"/>
<polygon fill="black" stroke="black" stroke-width="5" points="511.35,-428.96 490.95,-421.2 499.1,-441.45 511.35,-428.96"/>
</a>
</g>
</g>
<!-- slot_num&#45;&gt;highest_id_responded -->
<g id="edge15" class="edge">
<title>slot_num&#45;&gt;highest_id_responded</title>
<g id="a_edge15"><a xlink:href="38-highest_id_responded.html">
<path fill="none" stroke="black" stroke-width="5" d="M745.51,-762.49C773.33,-758.51 809.46,-749.74 835.72,-730.39 865.91,-708.14 880.72,-696.51 880.72,-659 880.72,-659 880.72,-659 880.72,-492.46 880.72,-471.76 891.74,-451.88 903.91,-436.24"/>
<polygon fill="black" stroke="black" stroke-width="5" points="910.57,-441.92 917.1,-421.1 897.37,-430.43 910.57,-441.92"/>
</a>
</g>
</g>
<!-- slot_num&#45;&gt;advocate_val -->
<g id="edge17" class="edge">
<title>slot_num&#45;&gt;advocate_val</title>
<g id="a_edge17"><a xlink:href="39-advocate_val.html" xlink:title=" +/&#45;">
<path fill="none" stroke="black" stroke-width="5" d="M744.99,-748.69C779.02,-731.54 821.72,-701.55 821.72,-659 821.72,-659 821.72,-659 821.72,-492.46 821.72,-443.71 821.35,-387.46 821.05,-351.37"/>
<polygon fill="black" stroke="black" stroke-width="5" points="829.8,-351.22 820.88,-331.3 812.3,-351.37 829.8,-351.22"/>
</a>
</g>
<g id="a_edge17&#45;label"><a xlink:href="39-advocate_val.html" xlink:title=" +/&#45;">
<text text-anchor="middle" x="834.55" y="-533.45" font-family="Times,serif" font-size="18.00"> +/&#45;</text>
</a>
</g>
</g>
<!-- slot_num&#45;&gt;client_request_temp -->
<g id="edge22" class="edge">
<title>slot_num&#45;&gt;client_request_temp</title>
<g id="a_edge22"><a xlink:href="42-client_request_temp.html">
<path fill="none" stroke="black" stroke-width="5" d="M687.82,-748.47C670.6,-730.01 643.96,-702.37 631.72,-694.39 625.11,-690.07 617.89,-686.15 610.51,-682.62"/>
<polygon fill="black" stroke="black" stroke-width="5" points="613.91,-674.56 592.08,-674.66 606.96,-690.62 613.91,-674.56"/>
</a>
</g>
</g>
<!-- agreeing_acceptors&#45;&gt;accept_sent -->
<g id="edge32" class="edge">
<title>agreeing_acceptors&#45;&gt;accept_sent</title>
<g id="a_edge32"><a xlink:href="50-accept_sent.html" xlink:title=" +/&#45;">
<path fill="none" stroke="black" stroke-width="5" d="M470.16,-384.69C469.37,-379.35 468.45,-373.18 467.5,-366.75"/>
<polygon fill="black" stroke="black" stroke-width="5" points="462.24,-331.13 474.07,-349.6 465.68,-340.73 467.14,-350.62 465.17,-350.91 463.19,-351.21 461.73,-341.31 456.26,-352.23 462.24,-331.13 462.24,-331.13"/>
<ellipse fill="none" stroke="black" stroke-width="5" cx="466.33" cy="-358.83" rx="8" ry="8"/>
</a>
</g>
<g id="a_edge32&#45;label"><a xlink:href="50-accept_sent.html" xlink:title=" +/&#45;">
<text text-anchor="middle" x="480.55" y="-352.68" font-family="Times,serif" font-size="18.00"> +/&#45;</text>
</a>
</g>
</g>
<!-- agreeing_acceptors&#45;&gt;agreeing_acceptors -->
<g id="edge25" class="edge">
<title>agreeing_acceptors&#45;&gt;agreeing_acceptors</title>
<g id="a_edge25"><a xlink:href="44-agreeing_acceptors.html" xlink:title=" +/&#45;">
<path fill="none" stroke="black" stroke-width="5" d="M550.26,-410.44C550.42,-410.42 550.59,-410.4 550.76,-410.38"/>
<polygon fill="black" stroke="black" stroke-width="5" points="550.26,-395.72 559.93,-415.4 552.6,-405.64 552.94,-415.64 550.94,-415.7 548.94,-415.77 548.6,-405.78 541.94,-416.01 550.26,-395.72 550.26,-395.72"/>
<ellipse fill="none" stroke="black" stroke-width="5" cx="551.21" cy="-423.7" rx="8" ry="8"/>
</a>
</g>
<g id="a_edge25&#45;label"><a xlink:href="44-agreeing_acceptors.html" xlink:title=" +/&#45;">
<text text-anchor="middle" x="581.01" y="-397.68" font-family="Times,serif" font-size="18.00"> +/&#45;</text>
</a>
</g>
</g>
<!-- agreeing_acceptors&#45;&gt;majority -->
<g id="edge36" class="edge">
<title>agreeing_acceptors&#45;&gt;majority</title>
<g id="a_edge36"><a xlink:href="52-majority.html">
<path fill="none" stroke="black" stroke-width="5" d="M400.62,-385.02C392.82,-380.4 385.86,-374.53 380.72,-367.08 361.94,-339.84 374.8,-302.4 389.23,-275.35"/>
<polygon fill="black" stroke="black" stroke-width="5" points="396.97,-279.46 399.6,-257.78 381.9,-270.56 396.97,-279.46"/>
</a>
</g>
</g>
<!-- highest_id_responded&#45;&gt;highest_id_responded -->
<g id="edge27" class="edge">
<title>highest_id_responded&#45;&gt;highest_id_responded</title>
<g id="a_edge27"><a xlink:href="46-highest_id_responded.html" xlink:title=" +/&#45;">
<path fill="none" stroke="black" stroke-width="5" d="M1023.02,-410.22C1023.18,-410.2 1023.35,-410.18 1023.51,-410.16"/>
<polygon fill="black" stroke="black" stroke-width="5" points="1023.02,-395.94 1032.71,-415.61 1025.36,-405.86 1025.71,-415.86 1023.72,-415.93 1021.72,-416 1021.37,-406 1014.72,-416.24 1023.02,-395.94 1023.02,-395.94"/>
<ellipse fill="none" stroke="black" stroke-width="5" cx="1024" cy="-423.92" rx="8" ry="8"/>
</a>
</g>
<g id="a_edge27&#45;label"><a xlink:href="46-highest_id_responded.html" xlink:title=" +/&#45;">
<text text-anchor="middle" x="1053.53" y="-397.68" font-family="Times,serif" font-size="18.00"> +/&#45;</text>
</a>
</g>
</g>
<!-- highest_id_responded&#45;&gt;advocate_val -->
<g id="edge29" class="edge">
<title>highest_id_responded&#45;&gt;advocate_val</title>
<g id="a_edge29"><a xlink:href="48-advocate_val.html" xlink:title=" +/&#45;">
<path fill="none" stroke="black" stroke-width="5" d="M913.28,-384.9C901.4,-375.82 886.31,-364.26 871.77,-353.14"/>
<polygon fill="black" stroke="black" stroke-width="5" points="843.11,-331.21 864.47,-336.22 852.27,-335.7 860.21,-341.78 859,-343.37 857.78,-344.95 849.84,-338.88 853.53,-350.51 843.11,-331.21 843.11,-331.21"/>
<ellipse fill="none" stroke="black" stroke-width="5" cx="865.35" cy="-348.23" rx="8" ry="8"/>
</a>
</g>
<g id="a_edge29&#45;label"><a xlink:href="48-advocate_val.html" xlink:title=" +/&#45;">
<text text-anchor="middle" x="900.55" y="-352.68" font-family="Times,serif" font-size="18.00"> +/&#45;</text>
</a>
</g>
</g>
<!-- advocate_val&#45;&gt;accept -->
<g id="edge41" class="edge">
<title>advocate_val&#45;&gt;accept</title>
<g id="a_edge41"><a xlink:href="53-accept.html">
<path fill="none" stroke="black" stroke-width="5" stroke-dasharray="5,2" d="M783.05,-294.99C768.17,-288.59 750.81,-281.55 734.72,-276.08 584.1,-224.85 541.13,-229.95 388.72,-184.31 388.63,-184.28 388.53,-184.25 388.43,-184.22"/>
<polygon fill="black" stroke="black" stroke-width="5" points="391.34,-175.96 369.63,-178.28 386.06,-192.65 391.34,-175.96"/>
</a>
</g>
</g>
<!-- client_request_temp&#45;&gt;prepare -->
<g id="edge23" class="edge">
<title>client_request_temp&#45;&gt;prepare</title>
<g id="a_edge23"><a xlink:href="43-prepare.html">
<path fill="none" stroke="black" stroke-width="5" stroke-dasharray="5,2" d="M541.72,-639.26C541.72,-634.22 541.72,-628.53 541.72,-622.79"/>
<polygon fill="black" stroke="black" stroke-width="5" points="550.47,-622.77 541.72,-602.77 532.97,-622.77 550.47,-622.77"/>
</a>
</g>
</g>
<!-- majority&#45;&gt;accept -->
<g id="edge39" class="edge">
<title>majority&#45;&gt;accept</title>
<g id="a_edge39"><a xlink:href="53-accept.html">
<path fill="none" stroke="black" stroke-width="5" stroke-dasharray="5,2" d="M394.33,-222.05C386.55,-214.61 377.14,-205.6 368.19,-197.04"/>
<polygon fill="black" stroke="black" stroke-width="5" points="374.01,-190.49 353.51,-182.99 361.91,-203.14 374.01,-190.49"/>
</a>
</g>
</g>
<!-- S -->
<g id="node22" class="node">
<title>S</title>
<g id="a_node22"><a xlink:href="javascript:advanceTo(-2)" xlink:title="S">
<polygon fill="none" stroke="blue" stroke-width="3" points="713.72,-891.16 686.72,-865.16 713.72,-839.16 740.72,-865.16 713.72,-891.16"/>
<text text-anchor="middle" x="713.72" y="-859.76" font-family="Times,serif" font-size="18.00">S</text>
</a>
</g>
</g>
<!-- T -->
<g id="node23" class="node">
<title>T</title>
<g id="a_node23"><a xlink:href="javascript:advanceTo(0)" xlink:title="T">
<polygon fill="none" stroke="blue" stroke-width="3" points="785.72,-891.16 758.72,-865.16 785.72,-839.16 812.72,-865.16 785.72,-891.16"/>
<text text-anchor="middle" x="785.72" y="-859.76" font-family="Times,serif" font-size="18.00">T</text>
</a>
</g>
</g>
</g>
</svg>
