<?xml version="1.0" encoding="UTF-8" standalone="no"?>
<!DOCTYPE svg PUBLIC "-//W3C//DTD SVG 1.1//EN"
 "http://www.w3.org/Graphics/SVG/1.1/DTD/svg11.dtd">
<!-- Generated by graphviz version 2.43.0 (0)
 -->
<!-- Title: G Pages: 1 -->
<svg width="675pt" height="282pt"
 viewBox="0.00 0.00 674.68 281.91" xmlns="http://www.w3.org/2000/svg" xmlns:xlink="http://www.w3.org/1999/xlink">
<g id="graph0" class="graph" transform="scale(1 1) rotate(0) translate(4 277.91)">
<script type='text/javascript'>
  <![CDATA[

var windows = new Array()
var info = new Array()

function openWin(target, time) {
  win = window.open(target + "_" + time + ".html", target, "location=no,width=400,height=180,left=0,status=no");
  // hm, an associative array, how strange.
  info[target] = 1
}

function advanceTo(time) {
  arr = gup("wins").split(",");
  for (i=0; i < arr.length; i++) {
    if (arr[i] != "") {
      openWin(arr[i], time);
    }
  }
  str = '';
  // getting 'key_cols'
  for (var i in info) {
    str = str + ',' + i;
  }
  self.window.location.href = 'tm_' + time + '.svg?wins=' + str;
}

// off the netz
function gup(name) {
  name = name.replace(/[[]/,"\[").replace(/[]]/,"\]");
  var regexS = "[\?&]"+name+"=([^&#]*)";
  var regex = new RegExp(regexS);
  var results = regex.exec(window.location.href);
  if (results == null)
    return "";
  else
    return results[1];
}

  ]]>
</script>

<polygon fill="white" stroke="transparent" points="-4,4 -4,-277.91 670.68,-277.91 670.68,4 -4,4"/>
<!-- accept, accepted, accepted_to_client, accepted_to_learner, client_request, client_request_temp, clientlist, majority, prepare, promise, stdio -->
<g id="node1" class="node">
<title>accept, accepted, accepted_to_client, accepted_to_learner, client_request, client_request_temp, clientlist, majority, prepare, promise, stdio</title>
<g id="a_node1"><a xlink:href="PaxosAcceptorModule_PaxosClientModule_PaxosLearnerModule_PaxosProposerModule_PaxosProtocol_viz_expanded.svg" xlink:title="accept, accepted, accepted_to_client, accepted_to_learner,\nclient_request, client_request_temp, clientlist, majority,\nprepare, promise, stdio">
<polygon fill="none" stroke="red" stroke-width="3" points="666.52,-27.82 666.52,-67.09 471.35,-94.86 195.33,-94.86 0.16,-67.09 0.16,-27.82 195.33,-0.05 471.35,-0.05 666.52,-27.82"/>
<text text-anchor="middle" x="333.34" y="-60.05" font-family="Times,serif" font-size="18.00">accept, accepted, accepted_to_client, accepted_to_learner,</text>
<text text-anchor="middle" x="333.34" y="-42.05" font-family="Times,serif" font-size="18.00">client_request, client_request_temp, clientlist, majority,</text>
<text text-anchor="middle" x="333.34" y="-24.05" font-family="Times,serif" font-size="18.00">prepare, promise, stdio</text>
</a>
</g>
</g>
<!-- learnerlist -->
<g id="node2" class="node">
<title>learnerlist</title>
<g id="a_node2"><a xlink:href="learnerlist.html" xlink:title="learnerlist">
<polygon fill="none" stroke="black" points="279.3,-167.91 191.37,-167.91 191.37,-131.91 279.3,-131.91 279.3,-167.91"/>
<text text-anchor="middle" x="235.34" y="-144.51" font-family="Times,serif" font-size="18.00">learnerlist</text>
</a>
</g>
</g>
<!-- learnerlist&#45;&gt;accept, accepted, accepted_to_client, accepted_to_learner, client_request, client_request_temp, clientlist, majority, prepare, promise, stdio -->
<g id="edge7" class="edge">
<title>learnerlist&#45;&gt;accept, accepted, accepted_to_client, accepted_to_learner, client_request, client_request_temp, clientlist, majority, prepare, promise, stdio</title>
<g id="a_edge7"><a xlink:href="39-accept, accepted, accepted_to_client, accepted_to_learner, client_request, client_request_temp, clientlist, majority, prepare, promise, stdio.html">
<path fill="none" stroke="black" stroke-width="5" stroke-dasharray="5,2" d="M251.96,-131.87C258.25,-125.42 265.83,-117.65 273.8,-109.48"/>
<polygon fill="black" stroke="black" stroke-width="5" points="280.18,-115.47 287.89,-95.04 267.66,-103.25 280.18,-115.47"/>
</a>
</g>
</g>
<!-- connect_learner -->
<g id="node3" class="node">
<title>connect_learner</title>
<ellipse fill="none" stroke="black" cx="235.34" cy="-247.91" rx="92.66" ry="18.27"/>
<text text-anchor="middle" x="235.34" y="-242.51" font-family="Times,serif" font-size="18.00">connect_learner</text>
</g>
<!-- connect_learner&#45;&gt;learnerlist -->
<g id="edge1" class="edge">
<title>connect_learner&#45;&gt;learnerlist</title>
<g id="a_edge1"><a xlink:href="29-learnerlist.html">
<path fill="none" stroke="black" stroke-width="5" d="M235.34,-229.3C235.34,-217.79 235.34,-202.33 235.34,-188.17"/>
<polygon fill="black" stroke="black" stroke-width="5" points="244.09,-188.08 235.34,-168.08 226.59,-188.08 244.09,-188.08"/>
</a>
</g>
</g>
<!-- nodelist -->
<g id="node4" class="node">
<title>nodelist</title>
<g id="a_node4"><a xlink:href="nodelist.html" xlink:title="nodelist">
<polygon fill="none" stroke="black" points="369.84,-167.91 296.84,-167.91 296.84,-131.91 369.84,-131.91 369.84,-167.91"/>
<text text-anchor="middle" x="333.34" y="-144.51" font-family="Times,serif" font-size="18.00">nodelist</text>
</a>
</g>
</g>
<!-- nodelist&#45;&gt;accept, accepted, accepted_to_client, accepted_to_learner, client_request, client_request_temp, clientlist, majority, prepare, promise, stdio -->
<g id="edge5" class="edge">
<title>nodelist&#45;&gt;accept, accepted, accepted_to_client, accepted_to_learner, client_request, client_request_temp, clientlist, majority, prepare, promise, stdio</title>
<g id="a_edge5"><a xlink:href="35-accept, accepted, accepted_to_client, accepted_to_learner, client_request, client_request_temp, clientlist, majority, prepare, promise, stdio.html">
<path fill="none" stroke="black" stroke-width="5" stroke-dasharray="5,2" d="M333.34,-131.87C333.34,-126.93 333.34,-121.22 333.34,-115.15"/>
<polygon fill="black" stroke="black" stroke-width="5" points="342.09,-115.04 333.34,-95.04 324.59,-115.04 342.09,-115.04"/>
</a>
</g>
</g>
<!-- connect -->
<g id="node5" class="node">
<title>connect</title>
<ellipse fill="none" stroke="black" cx="423.34" cy="-247.91" rx="50.78" ry="18.27"/>
<text text-anchor="middle" x="423.34" y="-242.51" font-family="Times,serif" font-size="18.00">connect</text>
</g>
<!-- connect&#45;&gt;nodelist -->
<g id="edge2" class="edge">
<title>connect&#45;&gt;nodelist</title>
<g id="a_edge2"><a xlink:href="30-nodelist.html">
<path fill="none" stroke="black" stroke-width="5" d="M407.66,-230.18C395.42,-217.13 378.06,-198.61 363.19,-182.75"/>
<polygon fill="black" stroke="black" stroke-width="5" points="369.5,-176.69 349.44,-168.08 356.74,-188.66 369.5,-176.69"/>
</a>
</g>
</g>
<!-- num_acceptors -->
<g id="node6" class="node">
<title>num_acceptors</title>
<g id="a_node6"><a xlink:href="num_acceptors.html" xlink:title="num_acceptors">
<polygon fill="none" stroke="black" points="512.8,-167.91 387.88,-167.91 387.88,-131.91 512.8,-131.91 512.8,-167.91"/>
<text text-anchor="middle" x="450.34" y="-144.51" font-family="Times,serif" font-size="18.00">num_acceptors</text>
</a>
</g>
</g>
<!-- connect&#45;&gt;num_acceptors -->
<g id="edge3" class="edge">
<title>connect&#45;&gt;num_acceptors</title>
<g id="a_edge3"><a xlink:href="31-num_acceptors.html" xlink:title=" +/&#45;">
<path fill="none" stroke="black" stroke-width="5" d="M428.29,-229.3C430.44,-221.67 433.07,-212.31 435.76,-202.74"/>
<polygon fill="black" stroke="black" stroke-width="5" points="445.51,-168.08 448.76,-189.77 444.73,-178.25 442.02,-187.87 440.09,-187.33 438.17,-186.79 440.88,-177.16 431.43,-184.9 445.51,-168.08 445.51,-168.08"/>
<ellipse fill="none" stroke="black" stroke-width="5" cx="437.93" cy="-195.03" rx="8" ry="8"/>
</a>
</g>
<g id="a_edge3&#45;label"><a xlink:href="31-num_acceptors.html" xlink:title=" +/&#45;">
<text text-anchor="middle" x="452.16" y="-189.51" font-family="Times,serif" font-size="18.00"> +/&#45;</text>
</a>
</g>
</g>
<!-- num_acceptors&#45;&gt;accept, accepted, accepted_to_client, accepted_to_learner, client_request, client_request_temp, clientlist, majority, prepare, promise, stdio -->
<g id="edge6" class="edge">
<title>num_acceptors&#45;&gt;accept, accepted, accepted_to_client, accepted_to_learner, client_request, client_request_temp, clientlist, majority, prepare, promise, stdio</title>
<g id="a_edge6"><a xlink:href="36-accept, accepted, accepted_to_client, accepted_to_learner, client_request, client_request_temp, clientlist, majority, prepare, promise, stdio.html">
<path fill="none" stroke="black" stroke-width="5" stroke-dasharray="5,2" d="M430.49,-131.87C422.61,-125.1 413.04,-116.88 403.01,-108.27"/>
<polygon fill="black" stroke="black" stroke-width="5" points="408.48,-101.43 387.6,-95.04 397.08,-114.71 408.48,-101.43"/>
</a>
</g>
</g>
<!-- num_acceptors&#45;&gt;num_acceptors -->
<g id="edge4" class="edge">
<title>num_acceptors&#45;&gt;num_acceptors</title>
<g id="a_edge4"><a xlink:href="31-num_acceptors.html" xlink:title=" +/&#45;">
<path fill="none" stroke="black" stroke-width="5" d="M513.1,-156.18C513.26,-156.17 513.43,-156.15 513.59,-156.14"/>
<polygon fill="black" stroke="black" stroke-width="5" points="513.1,-143.63 522.88,-163.26 515.49,-153.55 515.88,-163.54 513.88,-163.62 511.88,-163.69 511.49,-153.7 504.89,-163.97 513.1,-143.63 513.1,-143.63"/>
<ellipse fill="none" stroke="black" stroke-width="5" cx="514.19" cy="-171.61" rx="8" ry="8"/>
</a>
</g>
<g id="a_edge4&#45;label"><a xlink:href="31-num_acceptors.html" xlink:title=" +/&#45;">
<text text-anchor="middle" x="543.64" y="-144.51" font-family="Times,serif" font-size="18.00"> +/&#45;</text>
</a>
</g>
</g>
<!-- S -->
<g id="node7" class="node">
<title>S</title>
<g id="a_node7"><a xlink:href="javascript:advanceTo(-2)" xlink:title="S">
<polygon fill="none" stroke="blue" stroke-width="3" points="519.34,-273.91 492.34,-247.91 519.34,-221.91 546.34,-247.91 519.34,-273.91"/>
<text text-anchor="middle" x="519.34" y="-242.51" font-family="Times,serif" font-size="18.00">S</text>
</a>
</g>
</g>
<!-- T -->
<g id="node8" class="node">
<title>T</title>
<g id="a_node8"><a xlink:href="javascript:advanceTo(0)" xlink:title="T">
<polygon fill="none" stroke="blue" stroke-width="3" points="591.34,-273.91 564.34,-247.91 591.34,-221.91 618.34,-247.91 591.34,-273.91"/>
<text text-anchor="middle" x="591.34" y="-242.51" font-family="Times,serif" font-size="18.00">T</text>
</a>
</g>
</g>
</g>
</svg>
