<?xml version="1.0" encoding="UTF-8" standalone="no"?>
<!DOCTYPE svg PUBLIC "-//W3C//DTD SVG 1.1//EN"
 "http://www.w3.org/Graphics/SVG/1.1/DTD/svg11.dtd">
<!-- Generated by graphviz version 2.43.0 (0)
 -->
<!-- Title: G Pages: 1 -->
<svg width="651pt" height="611pt"
 viewBox="0.00 0.00 651.48 611.39" xmlns="http://www.w3.org/2000/svg" xmlns:xlink="http://www.w3.org/1999/xlink">
<g id="graph0" class="graph" transform="scale(1 1) rotate(0) translate(4 607.39)">
<script type='text/javascript'>
  <![CDATA[

var windows = new Array()
var info = new Array()

function openWin(target, time) {
  win = window.open(target + "_" + time + ".html", target, "location=no,width=400,height=180,left=0,status=no");
  // hm, an associative array, how strange.
  info[target] = 1
}

function advanceTo(time) {
  arr = gup("wins").split(",");
  for (i=0; i < arr.length; i++) {
    if (arr[i] != "") {
      openWin(arr[i], time);
    }
  }
  str = '';
  // getting 'key_cols'
  for (var i in info) {
    str = str + ',' + i;
  }
  self.window.location.href = 'tm_' + time + '.svg?wins=' + str;
}

// off the netz
function gup(name) {
  name = name.replace(/[[]/,"\[").replace(/[]]/,"\]");
  var regexS = "[\?&]"+name+"=([^&#]*)";
  var regex = new RegExp(regexS);
  var results = regex.exec(window.location.href);
  if (results == null)
    return "";
  else
    return results[1];
}

  ]]>
</script>

<polygon fill="white" stroke="transparent" points="-4,4 -4,-607.39 647.48,-607.39 647.48,4 -4,4"/>
<!-- promise -->
<g id="node1" class="node">
<title>promise</title>
<g id="a_node1"><a xlink:href="promise.html" xlink:title="promise">
<ellipse fill="none" stroke="black" cx="238.48" cy="-313.46" rx="52.14" ry="18.27"/>
<text text-anchor="middle" x="238.48" y="-308.06" font-family="Times,serif" font-size="18.00">promise</text>
</a>
</g>
</g>
<!-- majority -->
<g id="node13" class="node">
<title>majority</title>
<g id="a_node13"><a xlink:href="majority.html" xlink:title="majority">
<ellipse fill="none" stroke="black" cx="237.48" cy="-239.69" rx="54.38" ry="18.27"/>
<text text-anchor="middle" x="237.48" y="-234.29" font-family="Times,serif" font-size="18.00">majority</text>
</a>
</g>
</g>
<!-- promise&#45;&gt;majority -->
<g id="edge11" class="edge">
<title>promise&#45;&gt;majority</title>
<g id="a_edge11"><a xlink:href="36-majority.html">
<path fill="none" stroke="black" stroke-width="5" d="M238.23,-294.72C238.16,-289.68 238.08,-283.99 238,-278.25"/>
<polygon fill="black" stroke="black" stroke-width="5" points="246.75,-278.11 237.72,-258.23 229.25,-278.35 246.75,-278.11"/>
</a>
</g>
</g>
<!-- prepare -->
<g id="node2" class="node">
<title>prepare</title>
<g id="a_node2"><a xlink:href="prepare.html" xlink:title="prepare">
<ellipse fill="none" stroke="black" cx="238.48" cy="-387.23" rx="49.43" ry="18.27"/>
<text text-anchor="middle" x="238.48" y="-381.83" font-family="Times,serif" font-size="18.00">prepare</text>
</a>
</g>
</g>
<!-- prepare&#45;&gt;promise -->
<g id="edge1" class="edge">
<title>prepare&#45;&gt;promise</title>
<g id="a_edge1"><a xlink:href="22-promise.html">
<path fill="none" stroke="black" stroke-width="5" stroke-dasharray="5,2" d="M238.48,-368.49C238.48,-363.45 238.48,-357.76 238.48,-352.02"/>
<polygon fill="black" stroke="black" stroke-width="5" points="247.23,-352 238.48,-332 229.73,-352 247.23,-352"/>
</a>
</g>
</g>
<!-- accepted -->
<g id="node3" class="node">
<title>accepted</title>
<g id="a_node3"><a xlink:href="accepted.html" xlink:title="accepted">
<ellipse fill="none" stroke="black" cx="328.48" cy="-92.15" rx="55.65" ry="18.27"/>
<text text-anchor="middle" x="328.48" y="-86.75" font-family="Times,serif" font-size="18.00">accepted</text>
</a>
</g>
</g>
<!-- accepted_to_client -->
<g id="node14" class="node">
<title>accepted_to_client</title>
<g id="a_node14"><a xlink:href="accepted_to_client.html" xlink:title="accepted_to_client">
<ellipse fill="none" stroke="black" cx="450.48" cy="-18.38" rx="106.95" ry="18.27"/>
<text text-anchor="middle" x="450.48" y="-12.98" font-family="Times,serif" font-size="18.00">accepted_to_client</text>
</a>
</g>
</g>
<!-- accepted&#45;&gt;accepted_to_client -->
<g id="edge15" class="edge">
<title>accepted&#45;&gt;accepted_to_client</title>
<g id="a_edge15"><a xlink:href="38-accepted_to_client.html">
<path fill="none" stroke="black" stroke-width="5" stroke-dasharray="5,2" d="M354.65,-75.76C369.15,-67.23 387.6,-56.38 404.43,-46.48"/>
<polygon fill="black" stroke="black" stroke-width="5" points="408.99,-53.94 421.79,-36.26 400.12,-38.86 408.99,-53.94"/>
</a>
</g>
</g>
<!-- accepted_to_learner -->
<g id="node15" class="node">
<title>accepted_to_learner</title>
<g id="a_node15"><a xlink:href="accepted_to_learner.html" xlink:title="accepted_to_learner">
<ellipse fill="none" stroke="black" cx="174.48" cy="-18.38" rx="113.55" ry="18.27"/>
<text text-anchor="middle" x="174.48" y="-12.98" font-family="Times,serif" font-size="18.00">accepted_to_learner</text>
</a>
</g>
</g>
<!-- accepted&#45;&gt;accepted_to_learner -->
<g id="edge17" class="edge">
<title>accepted&#45;&gt;accepted_to_learner</title>
<g id="a_edge17"><a xlink:href="39-accepted_to_learner.html">
<path fill="none" stroke="black" stroke-width="5" stroke-dasharray="5,2" d="M297.68,-76.8C277.84,-67.55 251.49,-55.27 228.25,-44.45"/>
<polygon fill="black" stroke="black" stroke-width="5" points="231.9,-36.49 210.08,-35.97 224.51,-52.35 231.9,-36.49"/>
</a>
</g>
</g>
<!-- accept -->
<g id="node4" class="node">
<title>accept</title>
<g id="a_node4"><a xlink:href="accept.html" xlink:title="accept">
<ellipse fill="none" stroke="black" cx="328.48" cy="-165.92" rx="43.62" ry="18.27"/>
<text text-anchor="middle" x="328.48" y="-160.52" font-family="Times,serif" font-size="18.00">accept</text>
</a>
</g>
</g>
<!-- accept&#45;&gt;accepted -->
<g id="edge2" class="edge">
<title>accept&#45;&gt;accepted</title>
<g id="a_edge2"><a xlink:href="23-accepted.html">
<path fill="none" stroke="black" stroke-width="5" stroke-dasharray="5,2" d="M328.48,-147.18C328.48,-142.14 328.48,-136.45 328.48,-130.71"/>
<polygon fill="black" stroke="black" stroke-width="5" points="337.23,-130.69 328.48,-110.69 319.73,-130.69 337.23,-130.69"/>
</a>
</g>
</g>
<!-- learnerlist -->
<g id="node5" class="node">
<title>learnerlist</title>
<g id="a_node5"><a xlink:href="learnerlist.html" xlink:title="learnerlist">
<polygon fill="none" stroke="black" points="218.44,-110.15 130.51,-110.15 130.51,-74.15 218.44,-74.15 218.44,-110.15"/>
<text text-anchor="middle" x="174.48" y="-86.75" font-family="Times,serif" font-size="18.00">learnerlist</text>
</a>
</g>
</g>
<!-- learnerlist&#45;&gt;accepted_to_learner -->
<g id="edge18" class="edge">
<title>learnerlist&#45;&gt;accepted_to_learner</title>
<g id="a_edge18"><a xlink:href="39-accepted_to_learner.html">
<path fill="none" stroke="black" stroke-width="5" stroke-dasharray="5,2" d="M174.48,-74.15C174.48,-68.95 174.48,-63.01 174.48,-57.01"/>
<polygon fill="black" stroke="black" stroke-width="5" points="183.23,-56.77 174.48,-36.77 165.73,-56.77 183.23,-56.77"/>
</a>
</g>
</g>
<!-- connect_learner -->
<g id="node6" class="node">
<title>connect_learner</title>
<ellipse fill="none" stroke="black" cx="174.48" cy="-165.92" rx="92.66" ry="18.27"/>
<text text-anchor="middle" x="174.48" y="-160.52" font-family="Times,serif" font-size="18.00">connect_learner</text>
</g>
<!-- connect_learner&#45;&gt;learnerlist -->
<g id="edge3" class="edge">
<title>connect_learner&#45;&gt;learnerlist</title>
<g id="a_edge3"><a xlink:href="29-learnerlist.html">
<path fill="none" stroke="black" stroke-width="5" d="M174.48,-147.18C174.48,-142.07 174.48,-136.28 174.48,-130.45"/>
<polygon fill="black" stroke="black" stroke-width="5" points="183.23,-130.2 174.48,-110.2 165.73,-130.2 183.23,-130.2"/>
</a>
</g>
</g>
<!-- nodelist -->
<g id="node7" class="node">
<title>nodelist</title>
<g id="a_node7"><a xlink:href="nodelist.html" xlink:title="nodelist">
<polygon fill="none" stroke="black" points="211.98,-514 138.98,-514 138.98,-478 211.98,-478 211.98,-514"/>
<text text-anchor="middle" x="175.48" y="-490.6" font-family="Times,serif" font-size="18.00">nodelist</text>
</a>
</g>
</g>
<!-- nodelist&#45;&gt;prepare -->
<g id="edge10" class="edge">
<title>nodelist&#45;&gt;prepare</title>
<g id="a_edge10"><a xlink:href="35-prepare.html">
<path fill="none" stroke="black" stroke-width="5" stroke-dasharray="5,2" d="M185.6,-477.85C194.33,-463.06 207.2,-441.25 218.05,-422.85"/>
<polygon fill="black" stroke="black" stroke-width="5" points="225.75,-427.02 228.38,-405.34 210.68,-418.12 225.75,-427.02"/>
</a>
</g>
</g>
<!-- nodelist&#45;&gt;accept -->
<g id="edge14" class="edge">
<title>nodelist&#45;&gt;accept</title>
<g id="a_edge14"><a xlink:href="37-accept.html">
<path fill="none" stroke="black" stroke-width="5" stroke-dasharray="5,2" d="M209.6,-477.88C252.19,-455.36 319.48,-415.46 319.48,-388.23 319.48,-388.23 319.48,-388.23 319.48,-238.69 319.48,-227.51 320.57,-215.43 321.99,-204.42"/>
<polygon fill="black" stroke="black" stroke-width="5" points="330.65,-205.64 325.03,-184.54 313.35,-202.99 330.65,-205.64"/>
</a>
</g>
</g>
<!-- connect -->
<g id="node8" class="node">
<title>connect</title>
<ellipse fill="none" stroke="black" cx="127.48" cy="-577.39" rx="50.78" ry="18.27"/>
<text text-anchor="middle" x="127.48" y="-571.99" font-family="Times,serif" font-size="18.00">connect</text>
</g>
<!-- connect&#45;&gt;nodelist -->
<g id="edge4" class="edge">
<title>connect&#45;&gt;nodelist</title>
<g id="a_edge4"><a xlink:href="30-nodelist.html">
<path fill="none" stroke="black" stroke-width="5" d="M137.89,-559.16C142.8,-551.05 148.84,-541.07 154.62,-531.49"/>
<polygon fill="black" stroke="black" stroke-width="5" points="162.22,-535.84 165.08,-514.19 147.25,-526.78 162.22,-535.84"/>
</a>
</g>
</g>
<!-- num_acceptors -->
<g id="node9" class="node">
<title>num_acceptors</title>
<g id="a_node9"><a xlink:href="num_acceptors.html" xlink:title="num_acceptors">
<polygon fill="none" stroke="black" points="124.94,-331.46 0.02,-331.46 0.02,-295.46 124.94,-295.46 124.94,-331.46"/>
<text text-anchor="middle" x="62.48" y="-308.06" font-family="Times,serif" font-size="18.00">num_acceptors</text>
</a>
</g>
</g>
<!-- connect&#45;&gt;num_acceptors -->
<g id="edge5" class="edge">
<title>connect&#45;&gt;num_acceptors</title>
<g id="a_edge5"><a xlink:href="31-num_acceptors.html" xlink:title=" +/&#45;">
<path fill="none" stroke="black" stroke-width="5" d="M123.11,-558.79C113.52,-520.12 90.26,-426.42 75.5,-366.94"/>
<polygon fill="black" stroke="black" stroke-width="5" points="66.74,-331.64 80.29,-348.88 71.09,-340.86 73.5,-350.57 71.56,-351.05 69.62,-351.53 67.21,-341.82 62.82,-353.22 66.74,-331.64 66.74,-331.64"/>
<ellipse fill="none" stroke="black" stroke-width="5" cx="73.48" cy="-358.81" rx="8" ry="8"/>
</a>
</g>
<g id="a_edge5&#45;label"><a xlink:href="31-num_acceptors.html" xlink:title=" +/&#45;">
<text text-anchor="middle" x="111.3" y="-436.22" font-family="Times,serif" font-size="18.00"> +/&#45;</text>
</a>
</g>
</g>
<!-- num_acceptors&#45;&gt;num_acceptors -->
<g id="edge6" class="edge">
<title>num_acceptors&#45;&gt;num_acceptors</title>
<g id="a_edge6"><a xlink:href="31-num_acceptors.html" xlink:title=" +/&#45;">
<path fill="none" stroke="black" stroke-width="5" d="M125.24,-319.74C125.4,-319.72 125.57,-319.71 125.73,-319.69"/>
<polygon fill="black" stroke="black" stroke-width="5" points="125.24,-307.19 135.02,-326.82 127.63,-317.1 128.02,-327.1 126.02,-327.17 124.02,-327.25 123.63,-317.26 117.03,-327.53 125.24,-307.19 125.24,-307.19"/>
<ellipse fill="none" stroke="black" stroke-width="5" cx="126.33" cy="-335.17" rx="8" ry="8"/>
</a>
</g>
<g id="a_edge6&#45;label"><a xlink:href="31-num_acceptors.html" xlink:title=" +/&#45;">
<text text-anchor="middle" x="155.78" y="-308.06" font-family="Times,serif" font-size="18.00"> +/&#45;</text>
</a>
</g>
</g>
<!-- num_acceptors&#45;&gt;majority -->
<g id="edge12" class="edge">
<title>num_acceptors&#45;&gt;majority</title>
<g id="a_edge12"><a xlink:href="36-majority.html">
<path fill="none" stroke="black" stroke-width="5" d="M103.95,-295.45C128.36,-285.45 159.44,-272.7 185.47,-262.02"/>
<polygon fill="black" stroke="black" stroke-width="5" points="189.02,-270.02 204.2,-254.34 182.38,-253.83 189.02,-270.02"/>
</a>
</g>
</g>
<!-- num_acceptors&#45;&gt;accepted_to_learner -->
<g id="edge19" class="edge">
<title>num_acceptors&#45;&gt;accepted_to_learner</title>
<g id="a_edge19"><a xlink:href="39-accepted_to_learner.html">
<path fill="none" stroke="black" stroke-width="5" stroke-dasharray="5,2" d="M59.13,-295.43C56.57,-280.93 53.48,-259.53 53.48,-240.69 53.48,-240.69 53.48,-240.69 53.48,-91.15 53.48,-68.18 69.81,-52.4 90.48,-41.63"/>
<polygon fill="black" stroke="black" stroke-width="5" points="94.18,-49.56 109.02,-33.55 87.19,-33.52 94.18,-49.56"/>
</a>
</g>
</g>
<!-- clientlist -->
<g id="node10" class="node">
<title>clientlist</title>
<g id="a_node10"><a xlink:href="clientlist.html" xlink:title="clientlist">
<polygon fill="none" stroke="black" points="516.47,-459.62 438.49,-459.62 438.49,-423.62 516.47,-423.62 516.47,-459.62"/>
<text text-anchor="middle" x="477.48" y="-436.22" font-family="Times,serif" font-size="18.00">clientlist</text>
</a>
</g>
</g>
<!-- clientlist&#45;&gt;accepted_to_client -->
<g id="edge16" class="edge">
<title>clientlist&#45;&gt;accepted_to_client</title>
<g id="a_edge16"><a xlink:href="38-accepted_to_client.html">
<path fill="none" stroke="black" stroke-width="5" stroke-dasharray="5,2" d="M474.73,-423.46C472.08,-405.43 468.48,-376.22 468.48,-350.85 468.48,-350.85 468.48,-350.85 468.48,-91.15 468.48,-79.57 466.24,-67.24 463.35,-56.13"/>
<polygon fill="black" stroke="black" stroke-width="5" points="471.64,-53.31 457.39,-36.78 454.92,-58.47 471.64,-53.31"/>
</a>
</g>
</g>
<!-- client_request -->
<g id="node11" class="node">
<title>client_request</title>
<ellipse fill="none" stroke="black" cx="416.48" cy="-577.39" rx="82.91" ry="18.27"/>
<text text-anchor="middle" x="416.48" y="-571.99" font-family="Times,serif" font-size="18.00">client_request</text>
</g>
<!-- client_request&#45;&gt;clientlist -->
<g id="edge7" class="edge">
<title>client_request&#45;&gt;clientlist</title>
<g id="a_edge7"><a xlink:href="33-clientlist.html">
<path fill="none" stroke="black" stroke-width="5" d="M435.52,-559.32C447.06,-547.82 460.95,-531.64 468.48,-514.39 473.13,-503.73 475.59,-491.38 476.84,-479.97"/>
<polygon fill="black" stroke="black" stroke-width="5" points="485.59,-480.34 478.01,-459.87 468.12,-479.33 485.59,-480.34"/>
</a>
</g>
</g>
<!-- client_request_temp -->
<g id="node12" class="node">
<title>client_request_temp</title>
<g id="a_node12"><a xlink:href="client_request_temp.html" xlink:title="client_request_temp">
<ellipse fill="none" stroke="black" cx="344.48" cy="-496" rx="114.53" ry="18.27"/>
<text text-anchor="middle" x="344.48" y="-490.6" font-family="Times,serif" font-size="18.00">client_request_temp</text>
</a>
</g>
</g>
<!-- client_request&#45;&gt;client_request_temp -->
<g id="edge8" class="edge">
<title>client_request&#45;&gt;client_request_temp</title>
<g id="a_edge8"><a xlink:href="34-client_request_temp.html">
<path fill="none" stroke="black" stroke-width="5" d="M400.86,-559.16C392.98,-550.48 383.18,-539.67 373.96,-529.5"/>
<polygon fill="black" stroke="black" stroke-width="5" points="380.24,-523.4 360.32,-514.47 367.28,-535.16 380.24,-523.4"/>
</a>
</g>
</g>
<!-- client_request_temp&#45;&gt;prepare -->
<g id="edge9" class="edge">
<title>client_request_temp&#45;&gt;prepare</title>
<g id="a_edge9"><a xlink:href="35-prepare.html">
<path fill="none" stroke="black" stroke-width="5" stroke-dasharray="5,2" d="M326.98,-477.37C311.28,-461.56 287.89,-438 269.1,-419.08"/>
<polygon fill="black" stroke="black" stroke-width="5" points="275.26,-412.86 254.96,-404.83 262.84,-425.19 275.26,-412.86"/>
</a>
</g>
</g>
<!-- majority&#45;&gt;accept -->
<g id="edge13" class="edge">
<title>majority&#45;&gt;accept</title>
<g id="a_edge13"><a xlink:href="37-accept.html">
<path fill="none" stroke="black" stroke-width="5" stroke-dasharray="5,2" d="M258.13,-222.41C268.46,-214.26 281.27,-204.16 293.11,-194.82"/>
<polygon fill="black" stroke="black" stroke-width="5" points="298.56,-201.66 308.85,-182.41 287.72,-187.92 298.56,-201.66"/>
</a>
</g>
</g>
<!-- S -->
<g id="node16" class="node">
<title>S</title>
<g id="a_node16"><a xlink:href="javascript:advanceTo(-2)" xlink:title="S">
<polygon fill="none" stroke="blue" stroke-width="3" points="544.48,-603.39 517.48,-577.39 544.48,-551.39 571.48,-577.39 544.48,-603.39"/>
<text text-anchor="middle" x="544.48" y="-571.99" font-family="Times,serif" font-size="18.00">S</text>
</a>
</g>
</g>
<!-- T -->
<g id="node17" class="node">
<title>T</title>
<g id="a_node17"><a xlink:href="javascript:advanceTo(0)" xlink:title="T">
<polygon fill="none" stroke="blue" stroke-width="3" points="616.48,-603.39 589.48,-577.39 616.48,-551.39 643.48,-577.39 616.48,-603.39"/>
<text text-anchor="middle" x="616.48" y="-571.99" font-family="Times,serif" font-size="18.00">T</text>
</a>
</g>
</g>
</g>
</svg>
