<?xml version="1.0" encoding="UTF-8" standalone="no"?>
<!DOCTYPE svg PUBLIC "-//W3C//DTD SVG 1.1//EN"
 "http://www.w3.org/Graphics/SVG/1.1/DTD/svg11.dtd">
<!-- Generated by graphviz version 2.43.0 (0)
 -->
<!-- Title: G Pages: 1 -->
<svg width="1034pt" height="1324pt"
 viewBox="0.00 0.00 1033.74 1323.77" xmlns="http://www.w3.org/2000/svg" xmlns:xlink="http://www.w3.org/1999/xlink">
<g id="graph0" class="graph" transform="scale(1 1) rotate(0) translate(4 1319.77)">
<script type='text/javascript'>
  <![CDATA[

var windows = new Array()
var info = new Array()

function openWin(target, time) {
  win = window.open(target + "_" + time + ".html", target, "location=no,width=400,height=180,left=0,status=no");
  // hm, an associative array, how strange.
  info[target] = 1
}

function advanceTo(time) {
  arr = gup("wins").split(",");
  for (i=0; i < arr.length; i++) {
    if (arr[i] != "") {
      openWin(arr[i], time);
    }
  }
  str = '';
  // getting 'key_cols'
  for (var i in info) {
    str = str + ',' + i;
  }
  self.window.location.href = 'tm_' + time + '.svg?wins=' + str;
}

// off the netz
function gup(name) {
  name = name.replace(/[[]/,"\[").replace(/[]]/,"\]");
  var regexS = "[\?&]"+name+"=([^&#]*)";
  var regex = new RegExp(regexS);
  var results = regex.exec(window.location.href);
  if (results == null)
    return "";
  else
    return results[1];
}

  ]]>
</script>

<polygon fill="white" stroke="transparent" points="-4,4 -4,-1319.77 1029.74,-1319.77 1029.74,4 -4,4"/>
<!-- cur_prep -->
<g id="node1" class="node">
<title>cur_prep</title>
<g id="a_node1"><a xlink:href="cur_prep.html" xlink:title="cur_prep">
<ellipse fill="none" stroke="black" cx="266.99" cy="-970.08" rx="56.59" ry="18.27"/>
<text text-anchor="middle" x="266.99" y="-964.68" font-family="Times,serif" font-size="18.00">cur_prep</text>
</a>
</g>
</g>
<!-- existing_id -->
<g id="node3" class="node">
<title>existing_id</title>
<g id="a_node3"><a xlink:href="existing_id.html" xlink:title="existing_id">
<ellipse fill="none" stroke="black" cx="335.99" cy="-805.54" rx="67.76" ry="18.27"/>
<text text-anchor="middle" x="335.99" y="-800.14" font-family="Times,serif" font-size="18.00">existing_id</text>
</a>
</g>
</g>
<!-- cur_prep&#45;&gt;existing_id -->
<g id="edge3" class="edge">
<title>cur_prep&#45;&gt;existing_id</title>
<g id="a_edge3"><a xlink:href="23-existing_id.html">
<path fill="none" stroke="black" stroke-width="5" d="M258.24,-951.82C248.23,-929.45 235.14,-889.9 250.99,-860.93 257.72,-848.64 268.54,-838.72 280.23,-830.89"/>
<polygon fill="black" stroke="black" stroke-width="5" points="284.65,-838.45 297.62,-820.88 275.92,-823.28 284.65,-838.45"/>
</a>
</g>
</g>
<!-- existing_val -->
<g id="node5" class="node">
<title>existing_val</title>
<g id="a_node5"><a xlink:href="existing_val.html" xlink:title="existing_val">
<ellipse fill="none" stroke="black" cx="177.99" cy="-18.38" rx="73.56" ry="18.27"/>
<text text-anchor="middle" x="177.99" y="-12.98" font-family="Times,serif" font-size="18.00">existing_val</text>
</a>
</g>
</g>
<!-- cur_prep&#45;&gt;existing_val -->
<g id="edge5" class="edge">
<title>cur_prep&#45;&gt;existing_val</title>
<g id="a_edge5"><a xlink:href="24-existing_val.html">
<path fill="none" stroke="black" stroke-width="5" d="M244.55,-953.2C192.51,-914.32 67.99,-808.64 67.99,-687.39 67.99,-687.39 67.99,-687.39 67.99,-91.15 67.99,-67.07 86.71,-50.65 108.71,-39.66"/>
<polygon fill="black" stroke="black" stroke-width="5" points="112.19,-47.68 127.18,-31.81 105.35,-31.58 112.19,-47.68"/>
</a>
</g>
</g>
<!-- prepare -->
<g id="node2" class="node">
<title>prepare</title>
<g id="a_node2"><a xlink:href="prepare.html" xlink:title="prepare">
<ellipse fill="none" stroke="black" cx="403.99" cy="-1043.85" rx="49.43" ry="18.27"/>
<text text-anchor="middle" x="403.99" y="-1038.45" font-family="Times,serif" font-size="18.00">prepare</text>
</a>
</g>
</g>
<!-- prepare&#45;&gt;cur_prep -->
<g id="edge1" class="edge">
<title>prepare&#45;&gt;cur_prep</title>
<g id="a_edge1"><a xlink:href="22-cur_prep.html">
<path fill="none" stroke="black" stroke-width="5" d="M376.6,-1028.5C358.57,-1019.06 334.52,-1006.45 313.54,-995.46"/>
<polygon fill="black" stroke="black" stroke-width="5" points="317.54,-987.68 295.76,-986.15 309.41,-1003.18 317.54,-987.68"/>
</a>
</g>
</g>
<!-- all_promise_id -->
<g id="node7" class="node">
<title>all_promise_id</title>
<g id="a_node7"><a xlink:href="all_promise_id.html" xlink:title="all_promise_id">
<polygon fill="none" stroke="black" points="465.98,-988.08 342.01,-988.08 342.01,-952.08 465.98,-952.08 465.98,-988.08"/>
<text text-anchor="middle" x="403.99" y="-964.68" font-family="Times,serif" font-size="18.00">all_promise_id</text>
</a>
</g>
</g>
<!-- prepare&#45;&gt;all_promise_id -->
<g id="edge6" class="edge">
<title>prepare&#45;&gt;all_promise_id</title>
<g id="a_edge6"><a xlink:href="25-all_promise_id.html">
<path fill="none" stroke="black" stroke-width="5" d="M403.99,-1025.11C403.99,-1019.99 403.99,-1014.21 403.99,-1008.38"/>
<polygon fill="black" stroke="black" stroke-width="5" points="412.74,-1008.12 403.99,-988.12 395.24,-1008.12 412.74,-1008.12"/>
</a>
</g>
</g>
<!-- promise -->
<g id="node8" class="node">
<title>promise</title>
<g id="a_node8"><a xlink:href="promise.html" xlink:title="promise">
<ellipse fill="none" stroke="black" cx="431.99" cy="-731.77" rx="52.14" ry="18.27"/>
<text text-anchor="middle" x="431.99" y="-726.37" font-family="Times,serif" font-size="18.00">promise</text>
</a>
</g>
</g>
<!-- prepare&#45;&gt;promise -->
<g id="edge8" class="edge">
<title>prepare&#45;&gt;promise</title>
<g id="a_edge8"><a xlink:href="27-promise.html">
<path fill="none" stroke="black" stroke-width="5" stroke-dasharray="5,2" d="M439.05,-1030.87C464.32,-1019.76 493.99,-1000.46 493.99,-971.08 493.99,-971.08 493.99,-971.08 493.99,-804.54 493.99,-787.75 484.16,-772.95 472.33,-761.22"/>
<polygon fill="black" stroke="black" stroke-width="5" points="477.76,-754.36 456.86,-748.08 466.44,-767.7 477.76,-754.36"/>
</a>
</g>
</g>
<!-- existing_id&#45;&gt;promise -->
<g id="edge12" class="edge">
<title>existing_id&#45;&gt;promise</title>
<g id="a_edge12"><a xlink:href="29-promise.html">
<path fill="none" stroke="black" stroke-width="5" stroke-dasharray="5,2" d="M358.26,-787.9C369.03,-779.85 382.25,-769.96 394.51,-760.8"/>
<polygon fill="black" stroke="black" stroke-width="5" points="400.06,-767.57 410.84,-748.59 389.58,-753.56 400.06,-767.57"/>
</a>
</g>
</g>
<!-- max_promise_id -->
<g id="node4" class="node">
<title>max_promise_id</title>
<g id="a_node4"><a xlink:href="max_promise_id.html" xlink:title="max_promise_id">
<ellipse fill="none" stroke="black" cx="356.99" cy="-879.31" rx="96.72" ry="18.27"/>
<text text-anchor="middle" x="356.99" y="-873.91" font-family="Times,serif" font-size="18.00">max_promise_id</text>
</a>
</g>
</g>
<!-- max_promise_id&#45;&gt;existing_id -->
<g id="edge2" class="edge">
<title>max_promise_id&#45;&gt;existing_id</title>
<g id="a_edge2"><a xlink:href="23-existing_id.html">
<path fill="none" stroke="black" stroke-width="5" d="M351.91,-860.94C351.71,-860.24 351.5,-859.52 351.29,-858.8"/>
<polygon fill="black" stroke="black" stroke-width="5" points="341.1,-824 355.36,-840.67 345.83,-833.04 348.64,-842.64 346.72,-843.2 344.8,-843.76 341.99,-834.16 338.08,-845.73 341.1,-824 341.1,-824"/>
<ellipse fill="none" stroke="black" stroke-width="5" cx="348.97" cy="-850.88" rx="8" ry="8"/>
</a>
</g>
</g>
<!-- max_promise_id&#45;&gt;promise -->
<g id="edge9" class="edge">
<title>max_promise_id&#45;&gt;promise</title>
<g id="a_edge9"><a xlink:href="27-promise.html">
<path fill="none" stroke="black" stroke-width="5" stroke-dasharray="5,2" d="M380.13,-861.35C391.72,-851.66 404.96,-838.53 412.99,-823.93 421.98,-807.58 426.73,-787.46 429.23,-770.28"/>
<polygon fill="black" stroke="black" stroke-width="5" points="437.94,-771.1 431.37,-750.28 420.54,-769.23 437.94,-771.1"/>
</a>
</g>
</g>
<!-- accepted -->
<g id="node11" class="node">
<title>accepted</title>
<g id="a_node11"><a xlink:href="accepted.html" xlink:title="accepted">
<ellipse fill="none" stroke="black" cx="689.99" cy="-165.92" rx="55.65" ry="18.27"/>
<text text-anchor="middle" x="689.99" y="-160.52" font-family="Times,serif" font-size="18.00">accepted</text>
</a>
</g>
</g>
<!-- max_promise_id&#45;&gt;accepted -->
<g id="edge16" class="edge">
<title>max_promise_id&#45;&gt;accepted</title>
<g id="a_edge16"><a xlink:href="32-accepted.html">
<path fill="none" stroke="black" stroke-width="5" stroke-dasharray="5,2" d="M324.69,-861.97C256.9,-826.59 105.99,-741.73 105.99,-687.39 105.99,-687.39 105.99,-687.39 105.99,-513.62 105.99,-399.68 144,-356.44 239.99,-295.08 358.83,-219.12 523.46,-187.25 617.1,-174.6"/>
<polygon fill="black" stroke="black" stroke-width="5" points="618.35,-183.26 637.08,-172.05 616.14,-165.9 618.35,-183.26"/>
</a>
</g>
</g>
<!-- existing_val&#45;&gt;promise -->
<g id="edge11" class="edge">
<title>existing_val&#45;&gt;promise</title>
<g id="a_edge11"><a xlink:href="28-promise.html">
<path fill="none" stroke="black" stroke-width="5" stroke-dasharray="5,2" d="M177.99,-36.79C177.99,-51.32 177.99,-72.59 177.99,-91.15 177.99,-203.31 177.99,-203.31 177.99,-203.31 177.99,-342.48 219.99,-374.44 219.99,-513.62 219.99,-642.39 219.99,-642.39 219.99,-642.39 219.99,-704.37 298.14,-723.67 359.55,-729.26"/>
<polygon fill="black" stroke="black" stroke-width="5" points="359.02,-738 379.59,-730.68 360.26,-720.54 359.02,-738"/>
</a>
</g>
</g>
<!-- max_accept_val -->
<g id="node6" class="node">
<title>max_accept_val</title>
<g id="a_node6"><a xlink:href="max_accept_val.html" xlink:title="max_accept_val">
<ellipse fill="none" stroke="black" cx="299.99" cy="-92.15" rx="94" ry="18.27"/>
<text text-anchor="middle" x="299.99" y="-86.75" font-family="Times,serif" font-size="18.00">max_accept_val</text>
</a>
</g>
</g>
<!-- max_accept_val&#45;&gt;existing_val -->
<g id="edge4" class="edge">
<title>max_accept_val&#45;&gt;existing_val</title>
<g id="a_edge4"><a xlink:href="24-existing_val.html">
<path fill="none" stroke="black" stroke-width="5" d="M271.7,-74.51C261.23,-68.35 248.94,-61.12 236.77,-53.96"/>
<polygon fill="black" stroke="black" stroke-width="5" points="205.72,-35.69 227.52,-38.08 215.35,-39.04 223.97,-44.11 222.95,-45.83 221.94,-47.56 213.32,-42.49 218.39,-53.59 205.72,-35.69 205.72,-35.69"/>
<ellipse fill="none" stroke="black" stroke-width="5" cx="229.85" cy="-49.89" rx="8" ry="8"/>
</a>
</g>
</g>
<!-- max_accept_val&#45;&gt;promise -->
<g id="edge10" class="edge">
<title>max_accept_val&#45;&gt;promise</title>
<g id="a_edge10"><a xlink:href="27-promise.html">
<path fill="none" stroke="black" stroke-width="5" stroke-dasharray="5,2" d="M281.02,-110.39C268.35,-123.85 253.99,-143.76 253.99,-164.92 253.99,-387.85 253.99,-387.85 253.99,-387.85 253.99,-443.77 257.99,-457.69 257.99,-513.62 257.99,-642.39 257.99,-642.39 257.99,-642.39 257.99,-691.41 313.58,-713.25 361.92,-722.98"/>
<polygon fill="black" stroke="black" stroke-width="5" points="360.47,-731.61 381.67,-726.4 363.45,-714.36 360.47,-731.61"/>
</a>
</g>
</g>
<!-- all_promise_id&#45;&gt;max_promise_id -->
<g id="edge7" class="edge">
<title>all_promise_id&#45;&gt;max_promise_id</title>
<g id="a_edge7"><a xlink:href="26-max_promise_id.html">
<path fill="none" stroke="black" stroke-width="5" d="M394.93,-951.96C391.51,-945.5 387.42,-937.77 383.21,-929.82"/>
<polygon fill="black" stroke="black" stroke-width="5" points="366.19,-897.68 383.5,-911.14 372.64,-905.58 377.32,-914.42 375.55,-915.35 373.78,-916.29 369.1,-907.45 367.59,-919.56 366.19,-897.68 366.19,-897.68"/>
<ellipse fill="none" stroke="black" stroke-width="5" cx="379.29" cy="-922.42" rx="8" ry="8"/>
</a>
</g>
</g>
<!-- accept_sent -->
<g id="node20" class="node">
<title>accept_sent</title>
<g id="a_node20"><a xlink:href="accept_sent.html" xlink:title="accept_sent">
<polygon fill="none" stroke="black" points="402.95,-404.85 303.04,-404.85 303.04,-368.85 402.95,-368.85 402.95,-404.85"/>
<text text-anchor="middle" x="352.99" y="-381.45" font-family="Times,serif" font-size="18.00">accept_sent</text>
</a>
</g>
</g>
<!-- promise&#45;&gt;accept_sent -->
<g id="edge46" class="edge">
<title>promise&#45;&gt;accept_sent</title>
<g id="a_edge46"><a xlink:href="57-accept_sent.html" xlink:title=" +/&#45;">
<path fill="none" stroke="black" stroke-width="5" d="M390.08,-720.59C352.75,-708.72 303.99,-685.06 303.99,-642.39 303.99,-642.39 303.99,-642.39 303.99,-476.23 303.99,-461.71 309.12,-447.33 316.05,-434.53"/>
<polygon fill="black" stroke="black" stroke-width="5" points="336.68,-404.92 332.63,-426.48 332.6,-414.27 326.89,-422.47 325.25,-421.33 323.61,-420.19 329.32,-411.98 317.86,-416.19 336.68,-404.92 336.68,-404.92"/>
<ellipse fill="none" stroke="black" stroke-width="5" cx="320.68" cy="-427.9" rx="8" ry="8"/>
</a>
</g>
<g id="a_edge46&#45;label"><a xlink:href="57-accept_sent.html" xlink:title=" +/&#45;">
<text text-anchor="middle" x="316.82" y="-545.6" font-family="Times,serif" font-size="18.00"> +/&#45;</text>
</a>
</g>
</g>
<!-- highest_id_responded -->
<g id="node22" class="node">
<title>highest_id_responded</title>
<g id="a_node22"><a xlink:href="highest_id_responded.html" xlink:title="highest_id_responded">
<polygon fill="none" stroke="black" points="892.97,-659.39 719.02,-659.39 719.02,-623.39 892.97,-623.39 892.97,-659.39"/>
<text text-anchor="middle" x="805.99" y="-635.99" font-family="Times,serif" font-size="18.00">highest_id_responded</text>
</a>
</g>
</g>
<!-- promise&#45;&gt;highest_id_responded -->
<g id="edge38" class="edge">
<title>promise&#45;&gt;highest_id_responded</title>
<g id="a_edge38"><a xlink:href="51-highest_id_responded.html" xlink:title=" +/&#45;">
<path fill="none" stroke="black" stroke-width="5" d="M477.95,-722.77C514.65,-716.14 567.33,-706.1 612.99,-695.39 646.03,-687.63 681.95,-678.08 713.74,-669.23"/>
<polygon fill="black" stroke="black" stroke-width="5" points="748.43,-659.41 731.64,-673.52 739.36,-664.06 729.74,-666.78 729.19,-664.86 728.65,-662.93 738.27,-660.21 726.74,-656.2 748.43,-659.41 748.43,-659.41"/>
<ellipse fill="none" stroke="black" stroke-width="5" cx="721.49" cy="-667.04" rx="8" ry="8"/>
</a>
</g>
<g id="a_edge38&#45;label"><a xlink:href="51-highest_id_responded.html" xlink:title=" +/&#45;">
<text text-anchor="middle" x="694.82" y="-680.99" font-family="Times,serif" font-size="18.00"> +/&#45;</text>
</a>
</g>
</g>
<!-- advocate_val -->
<g id="node23" class="node">
<title>advocate_val</title>
<g id="a_node23"><a xlink:href="advocate_val.html" xlink:title="advocate_val">
<polygon fill="none" stroke="black" points="863.44,-569 752.55,-569 752.55,-533 863.44,-533 863.44,-569"/>
<text text-anchor="middle" x="807.99" y="-545.6" font-family="Times,serif" font-size="18.00">advocate_val</text>
</a>
</g>
</g>
<!-- promise&#45;&gt;advocate_val -->
<g id="edge40" class="edge">
<title>promise&#45;&gt;advocate_val</title>
<g id="a_edge40"><a xlink:href="53-advocate_val.html" xlink:title=" +/&#45;">
<path fill="none" stroke="black" stroke-width="5" d="M479.23,-723.85C506.06,-718.61 539.66,-709.77 566.99,-695.39 631.97,-661.19 627.72,-622.86 691.99,-587.39 700.14,-582.89 708.93,-578.89 717.9,-575.36"/>
<polygon fill="black" stroke="black" stroke-width="5" points="752.39,-563.91 736.24,-578.75 743.53,-568.96 734.04,-572.11 733.41,-570.21 732.78,-568.31 742.27,-565.16 730.57,-561.67 752.39,-563.91 752.39,-563.91"/>
<ellipse fill="none" stroke="black" stroke-width="5" cx="725.82" cy="-572.73" rx="8" ry="8"/>
</a>
</g>
<g id="a_edge40&#45;label"><a xlink:href="53-advocate_val.html" xlink:title=" +/&#45;">
<text text-anchor="middle" x="657.82" y="-635.99" font-family="Times,serif" font-size="18.00"> +/&#45;</text>
</a>
</g>
</g>
<!-- agreeing_acceptors -->
<g id="node25" class="node">
<title>agreeing_acceptors</title>
<g id="a_node25"><a xlink:href="agreeing_acceptors.html" xlink:title="agreeing_acceptors">
<polygon fill="none" stroke="black" points="525.41,-659.39 370.57,-659.39 370.57,-623.39 525.41,-623.39 525.41,-659.39"/>
<text text-anchor="middle" x="447.99" y="-635.99" font-family="Times,serif" font-size="18.00">agreeing_acceptors</text>
</a>
</g>
</g>
<!-- promise&#45;&gt;agreeing_acceptors -->
<g id="edge36" class="edge">
<title>promise&#45;&gt;agreeing_acceptors</title>
<g id="a_edge36"><a xlink:href="50-agreeing_acceptors.html">
<path fill="none" stroke="black" stroke-width="5" d="M435.16,-713.31C436.92,-703.56 439.19,-691.04 441.33,-679.23"/>
<polygon fill="black" stroke="black" stroke-width="5" points="449.94,-680.75 444.89,-659.51 432.72,-677.63 449.94,-680.75"/>
</a>
</g>
</g>
<!-- agreeing_acceptors_for_slot -->
<g id="node26" class="node">
<title>agreeing_acceptors_for_slot</title>
<g id="a_node26"><a xlink:href="agreeing_acceptors_for_slot.html" xlink:title="agreeing_acceptors_for_slot">
<ellipse fill="none" stroke="black" cx="502.99" cy="-551" rx="155.51" ry="18.27"/>
<text text-anchor="middle" x="502.99" y="-545.6" font-family="Times,serif" font-size="18.00">agreeing_acceptors_for_slot</text>
</a>
</g>
</g>
<!-- promise&#45;&gt;agreeing_acceptors_for_slot -->
<g id="edge42" class="edge">
<title>promise&#45;&gt;agreeing_acceptors_for_slot</title>
<g id="a_edge42"><a xlink:href="55-agreeing_acceptors_for_slot.html">
<path fill="none" stroke="black" stroke-width="5" d="M408.81,-714.93C381.34,-694.13 341.72,-656.38 361.99,-623.39 375.3,-601.73 397.45,-586.4 420.29,-575.65"/>
<polygon fill="black" stroke="black" stroke-width="5" points="423.95,-583.61 439.03,-567.82 417.2,-567.46 423.95,-583.61"/>
</a>
</g>
</g>
<!-- majority -->
<g id="node28" class="node">
<title>majority</title>
<g id="a_node28"><a xlink:href="majority.html" xlink:title="majority">
<ellipse fill="none" stroke="black" cx="686.99" cy="-313.46" rx="54.38" ry="18.27"/>
<text text-anchor="middle" x="686.99" y="-308.06" font-family="Times,serif" font-size="18.00">majority</text>
</a>
</g>
</g>
<!-- promise&#45;&gt;majority -->
<g id="edge50" class="edge">
<title>promise&#45;&gt;majority</title>
<g id="a_edge50"><a xlink:href="59-majority.html">
<path fill="none" stroke="black" stroke-width="5" d="M454.52,-714.95C500.34,-682.82 603.08,-610.95 638.99,-587.39 651.68,-579.07 658.52,-581.23 667.99,-569.39 684.09,-549.27 686.99,-540.38 686.99,-514.62 686.99,-514.62 686.99,-514.62 686.99,-385.85 686.99,-374.96 686.99,-363.13 686.99,-352.3"/>
<polygon fill="black" stroke="black" stroke-width="5" points="695.74,-352.06 686.99,-332.06 678.24,-352.06 695.74,-352.06"/>
</a>
</g>
</g>
<!-- all_accept_val -->
<g id="node9" class="node">
<title>all_accept_val</title>
<g id="a_node9"><a xlink:href="all_accept_val.html" xlink:title="all_accept_val">
<polygon fill="none" stroke="black" points="401.93,-183.92 282.06,-183.92 282.06,-147.92 401.93,-147.92 401.93,-183.92"/>
<text text-anchor="middle" x="341.99" y="-160.52" font-family="Times,serif" font-size="18.00">all_accept_val</text>
</a>
</g>
</g>
<!-- all_accept_val&#45;&gt;max_accept_val -->
<g id="edge14" class="edge">
<title>all_accept_val&#45;&gt;max_accept_val</title>
<g id="a_edge14"><a xlink:href="31-max_accept_val.html">
<path fill="none" stroke="black" stroke-width="5" d="M332.04,-147.92C330.91,-145.98 329.71,-143.94 328.48,-141.83"/>
<polygon fill="black" stroke="black" stroke-width="5" points="310.17,-110.54 328.04,-123.25 316.95,-118.16 322,-126.79 320.27,-127.8 318.54,-128.81 313.49,-120.18 312.5,-132.35 310.17,-110.54 310.17,-110.54"/>
<ellipse fill="none" stroke="black" stroke-width="5" cx="324.31" cy="-134.71" rx="8" ry="8"/>
</a>
</g>
</g>
<!-- accept -->
<g id="node10" class="node">
<title>accept</title>
<g id="a_node10"><a xlink:href="accept.html" xlink:title="accept">
<ellipse fill="none" stroke="black" cx="689.99" cy="-239.69" rx="43.62" ry="18.27"/>
<text text-anchor="middle" x="689.99" y="-234.29" font-family="Times,serif" font-size="18.00">accept</text>
</a>
</g>
</g>
<!-- accept&#45;&gt;all_accept_val -->
<g id="edge13" class="edge">
<title>accept&#45;&gt;all_accept_val</title>
<g id="a_edge13"><a xlink:href="30-all_accept_val.html">
<path fill="none" stroke="black" stroke-width="5" d="M651.42,-230.74C596.3,-219.37 493.72,-198.22 421.83,-183.39"/>
<polygon fill="black" stroke="black" stroke-width="5" points="423.33,-174.76 401.98,-179.29 419.8,-191.9 423.33,-174.76"/>
</a>
</g>
</g>
<!-- accept&#45;&gt;accepted -->
<g id="edge15" class="edge">
<title>accept&#45;&gt;accepted</title>
<g id="a_edge15"><a xlink:href="32-accepted.html">
<path fill="none" stroke="black" stroke-width="5" stroke-dasharray="5,2" d="M689.99,-220.95C689.99,-215.91 689.99,-210.22 689.99,-204.48"/>
<polygon fill="black" stroke="black" stroke-width="5" points="698.74,-204.46 689.99,-184.46 681.24,-204.46 698.74,-204.46"/>
</a>
</g>
</g>
<!-- accepted_to_learner -->
<g id="node29" class="node">
<title>accepted_to_learner</title>
<g id="a_node29"><a xlink:href="accepted_to_learner.html" xlink:title="accepted_to_learner">
<ellipse fill="none" stroke="black" cx="844.99" cy="-92.15" rx="113.55" ry="18.27"/>
<text text-anchor="middle" x="844.99" y="-86.75" font-family="Times,serif" font-size="18.00">accepted_to_learner</text>
</a>
</g>
</g>
<!-- accepted&#45;&gt;accepted_to_learner -->
<g id="edge55" class="edge">
<title>accepted&#45;&gt;accepted_to_learner</title>
<g id="a_edge55"><a xlink:href="61-accepted_to_learner.html">
<path fill="none" stroke="black" stroke-width="5" stroke-dasharray="5,2" d="M720.99,-150.57C740.97,-141.32 767.49,-129.04 790.87,-118.22"/>
<polygon fill="black" stroke="black" stroke-width="5" points="794.69,-126.09 809.17,-109.74 787.34,-110.21 794.69,-126.09"/>
</a>
</g>
</g>
<!-- learnerlist -->
<g id="node12" class="node">
<title>learnerlist</title>
<g id="a_node12"><a xlink:href="learnerlist.html" xlink:title="learnerlist">
<polygon fill="none" stroke="black" points="888.96,-183.92 801.03,-183.92 801.03,-147.92 888.96,-147.92 888.96,-183.92"/>
<text text-anchor="middle" x="844.99" y="-160.52" font-family="Times,serif" font-size="18.00">learnerlist</text>
</a>
</g>
</g>
<!-- learnerlist&#45;&gt;accepted_to_learner -->
<g id="edge56" class="edge">
<title>learnerlist&#45;&gt;accepted_to_learner</title>
<g id="a_edge56"><a xlink:href="61-accepted_to_learner.html">
<path fill="none" stroke="black" stroke-width="5" stroke-dasharray="5,2" d="M844.99,-147.92C844.99,-142.72 844.99,-136.78 844.99,-130.78"/>
<polygon fill="black" stroke="black" stroke-width="5" points="853.74,-130.54 844.99,-110.54 836.24,-130.54 853.74,-130.54"/>
</a>
</g>
</g>
<!-- connect_learner -->
<g id="node13" class="node">
<title>connect_learner</title>
<ellipse fill="none" stroke="black" cx="844.99" cy="-239.69" rx="92.66" ry="18.27"/>
<text text-anchor="middle" x="844.99" y="-234.29" font-family="Times,serif" font-size="18.00">connect_learner</text>
</g>
<!-- connect_learner&#45;&gt;learnerlist -->
<g id="edge17" class="edge">
<title>connect_learner&#45;&gt;learnerlist</title>
<g id="a_edge17"><a xlink:href="37-learnerlist.html">
<path fill="none" stroke="black" stroke-width="5" d="M844.99,-220.95C844.99,-215.84 844.99,-210.05 844.99,-204.22"/>
<polygon fill="black" stroke="black" stroke-width="5" points="853.74,-203.97 844.99,-183.97 836.24,-203.97 853.74,-203.97"/>
</a>
</g>
</g>
<!-- nodelist -->
<g id="node14" class="node">
<title>nodelist</title>
<g id="a_node14"><a xlink:href="nodelist.html" xlink:title="nodelist">
<polygon fill="none" stroke="black" points="832.49,-1135.62 759.5,-1135.62 759.5,-1099.62 832.49,-1099.62 832.49,-1135.62"/>
<text text-anchor="middle" x="795.99" y="-1112.22" font-family="Times,serif" font-size="18.00">nodelist</text>
</a>
</g>
</g>
<!-- nodelist&#45;&gt;prepare -->
<g id="edge35" class="edge">
<title>nodelist&#45;&gt;prepare</title>
<g id="a_edge35"><a xlink:href="49-prepare.html">
<path fill="none" stroke="black" stroke-width="5" stroke-dasharray="5,2" d="M759.47,-1109.93C692.62,-1097.69 549.88,-1071.56 467.06,-1056.4"/>
<polygon fill="black" stroke="black" stroke-width="5" points="468.62,-1047.79 447.37,-1052.79 465.47,-1065 468.62,-1047.79"/>
</a>
</g>
</g>
<!-- nodelist&#45;&gt;accept -->
<g id="edge53" class="edge">
<title>nodelist&#45;&gt;accept</title>
<g id="a_edge53"><a xlink:href="60-accept.html">
<path fill="none" stroke="black" stroke-width="5" stroke-dasharray="5,2" d="M832.72,-1100.56C853.75,-1088.62 875.99,-1070.04 875.99,-1044.85 875.99,-1044.85 875.99,-1044.85 875.99,-768.16 875.99,-710.91 929.03,-714.36 944.99,-659.39 967.49,-581.95 1121.66,-905.15 932.99,-295.08 930.04,-285.54 929.49,-281.33 920.99,-276.08 887.19,-255.16 781.89,-266.32 742.99,-258.08 742.45,-257.96 741.91,-257.85 741.37,-257.72"/>
<polygon fill="black" stroke="black" stroke-width="5" points="743.52,-249.24 721.92,-252.4 738.9,-266.12 743.52,-249.24"/>
</a>
</g>
</g>
<!-- num_acceptors -->
<g id="node16" class="node">
<title>num_acceptors</title>
<g id="a_node16"><a xlink:href="num_acceptors.html" xlink:title="num_acceptors">
<ellipse fill="none" stroke="black" cx="802.99" cy="-477.23" rx="88.22" ry="18.27"/>
<text text-anchor="middle" x="802.99" y="-471.83" font-family="Times,serif" font-size="18.00">num_acceptors</text>
</a>
</g>
</g>
<!-- nodelist&#45;&gt;num_acceptors -->
<g id="edge19" class="edge">
<title>nodelist&#45;&gt;num_acceptors</title>
<g id="a_edge19"><a xlink:href="39-num_acceptors.html">
<path fill="none" stroke="black" stroke-width="5" d="M786.02,-1099.55C778.68,-1085.39 769.99,-1064.46 769.99,-1044.85 769.99,-1044.85 769.99,-1044.85 769.99,-768.16 769.99,-712.11 692.77,-745.16 666.99,-695.39 663.32,-688.28 666.04,-685.33 666.99,-677.39 671.92,-636.5 668.76,-623.25 688.99,-587.39 705.94,-557.34 719.09,-556.48 743.99,-532.62 748.32,-528.47 752.85,-524.19 757.41,-519.93"/>
<polygon fill="black" stroke="black" stroke-width="5" points="783.96,-495.44 775.36,-515.61 777.96,-503.69 770.61,-510.47 769.26,-509 767.9,-507.53 775.25,-500.75 763.15,-502.38 783.96,-495.44 783.96,-495.44"/>
<ellipse fill="none" stroke="black" stroke-width="5" cx="763.38" cy="-514.42" rx="8" ry="8"/>
</a>
</g>
</g>
<!-- connect -->
<g id="node15" class="node">
<title>connect</title>
<ellipse fill="none" stroke="black" cx="795.99" cy="-1191.39" rx="50.78" ry="18.27"/>
<text text-anchor="middle" x="795.99" y="-1185.99" font-family="Times,serif" font-size="18.00">connect</text>
</g>
<!-- connect&#45;&gt;nodelist -->
<g id="edge18" class="edge">
<title>connect&#45;&gt;nodelist</title>
<g id="a_edge18"><a xlink:href="38-nodelist.html">
<path fill="none" stroke="black" stroke-width="5" d="M795.99,-1172.65C795.99,-1167.53 795.99,-1161.75 795.99,-1155.91"/>
<polygon fill="black" stroke="black" stroke-width="5" points="804.74,-1155.66 795.99,-1135.66 787.24,-1155.66 804.74,-1155.66"/>
</a>
</g>
</g>
<!-- num_acceptors&#45;&gt;accept_sent -->
<g id="edge44" class="edge">
<title>num_acceptors&#45;&gt;accept_sent</title>
<g id="a_edge44"><a xlink:href="57-accept_sent.html" xlink:title=" +/&#45;">
<path fill="none" stroke="black" stroke-width="5" d="M740.9,-464.04C662.36,-448.61 526.76,-421.98 438.49,-404.64"/>
<polygon fill="black" stroke="black" stroke-width="5" points="403.02,-397.67 424.38,-392.7 413.22,-397.64 423.03,-399.57 422.65,-401.53 422.26,-403.49 412.45,-401.56 420.91,-410.36 403.02,-397.67 403.02,-397.67"/>
<ellipse fill="none" stroke="black" stroke-width="5" cx="430.5" cy="-403.07" rx="8" ry="8"/>
</a>
</g>
<g id="a_edge44&#45;label"><a xlink:href="57-accept_sent.html" xlink:title=" +/&#45;">
<text text-anchor="middle" x="630.82" y="-426.45" font-family="Times,serif" font-size="18.00"> +/&#45;</text>
</a>
</g>
</g>
<!-- num_acceptors&#45;&gt;majority -->
<g id="edge48" class="edge">
<title>num_acceptors&#45;&gt;majority</title>
<g id="a_edge48"><a xlink:href="59-majority.html">
<path fill="none" stroke="black" stroke-width="5" d="M790.58,-458.92C771.66,-432.53 735.24,-381.74 711.02,-347.97"/>
<polygon fill="black" stroke="black" stroke-width="5" points="718.08,-342.8 699.32,-331.65 703.86,-353 718.08,-342.8"/>
</a>
</g>
</g>
<!-- num_acceptors&#45;&gt;accepted_to_learner -->
<g id="edge57" class="edge">
<title>num_acceptors&#45;&gt;accepted_to_learner</title>
<g id="a_edge57"><a xlink:href="61-accepted_to_learner.html">
<path fill="none" stroke="black" stroke-width="5" stroke-dasharray="5,2" d="M819.54,-459.15C851.67,-424.62 921.61,-342.62 946.99,-258.08 962.5,-206.44 918.69,-154.87 883.71,-123.49"/>
<polygon fill="black" stroke="black" stroke-width="5" points="888.94,-116.45 868.03,-110.18 877.61,-129.79 888.94,-116.45"/>
</a>
</g>
</g>
<!-- clientlist -->
<g id="node17" class="node">
<title>clientlist</title>
<g id="a_node17"><a xlink:href="clientlist.html" xlink:title="clientlist">
<polygon fill="none" stroke="black" points="77.98,-1209.39 0.01,-1209.39 0.01,-1173.39 77.98,-1173.39 77.98,-1209.39"/>
<text text-anchor="middle" x="38.99" y="-1185.99" font-family="Times,serif" font-size="18.00">clientlist</text>
</a>
</g>
</g>
<!-- client_request -->
<g id="node18" class="node">
<title>client_request</title>
<ellipse fill="none" stroke="black" cx="301.99" cy="-1289.77" rx="82.91" ry="18.27"/>
<text text-anchor="middle" x="301.99" y="-1284.37" font-family="Times,serif" font-size="18.00">client_request</text>
</g>
<!-- client_request&#45;&gt;clientlist -->
<g id="edge20" class="edge">
<title>client_request&#45;&gt;clientlist</title>
<g id="a_edge20"><a xlink:href="40-clientlist.html">
<path fill="none" stroke="black" stroke-width="5" d="M223.7,-1283.67C182.52,-1278.36 132.35,-1267.58 91.99,-1245.77 82.05,-1240.4 72.78,-1232.56 64.85,-1224.53"/>
<polygon fill="black" stroke="black" stroke-width="5" points="71.29,-1218.6 51.46,-1209.47 58.21,-1230.23 71.29,-1218.6"/>
</a>
</g>
</g>
<!-- propose_num -->
<g id="node19" class="node">
<title>propose_num</title>
<g id="a_node19"><a xlink:href="propose_num.html" xlink:title="propose_num">
<polygon fill="none" stroke="black" points="358.98,-1209.39 245.01,-1209.39 245.01,-1173.39 358.98,-1173.39 358.98,-1209.39"/>
<text text-anchor="middle" x="301.99" y="-1185.99" font-family="Times,serif" font-size="18.00">propose_num</text>
</a>
</g>
</g>
<!-- client_request&#45;&gt;propose_num -->
<g id="edge22" class="edge">
<title>client_request&#45;&gt;propose_num</title>
<g id="a_edge22"><a xlink:href="41-propose_num.html" xlink:title=" +/&#45;">
<path fill="none" stroke="black" stroke-width="5" d="M301.99,-1271.1C301.99,-1263.78 301.99,-1254.87 301.99,-1245.72"/>
<polygon fill="black" stroke="black" stroke-width="5" points="301.99,-1209.63 310.99,-1229.63 303.99,-1219.63 303.99,-1229.63 301.99,-1229.63 299.99,-1229.63 299.99,-1219.63 292.99,-1229.63 301.99,-1209.63 301.99,-1209.63"/>
<ellipse fill="none" stroke="black" stroke-width="5" cx="301.99" cy="-1237.63" rx="8" ry="8"/>
</a>
</g>
<g id="a_edge22&#45;label"><a xlink:href="41-propose_num.html" xlink:title=" +/&#45;">
<text text-anchor="middle" x="314.82" y="-1231.37" font-family="Times,serif" font-size="18.00"> +/&#45;</text>
</a>
</g>
</g>
<!-- client_request&#45;&gt;accept_sent -->
<g id="edge23" class="edge">
<title>client_request&#45;&gt;accept_sent</title>
<g id="a_edge23"><a xlink:href="43-accept_sent.html">
<path fill="none" stroke="black" stroke-width="5" d="M227.34,-1281.85C171.95,-1272.11 105.99,-1248.7 105.99,-1192.39 105.99,-1192.39 105.99,-1192.39 105.99,-804.54 105.99,-749.8 143.99,-742.13 143.99,-687.39 143.99,-687.39 143.99,-687.39 143.99,-476.23 143.99,-414.6 222.04,-395.29 282.75,-389.59"/>
<polygon fill="black" stroke="black" stroke-width="5" points="283.62,-398.3 302.93,-388.12 282.35,-380.85 283.62,-398.3"/>
</a>
</g>
</g>
<!-- slot_num -->
<g id="node21" class="node">
<title>slot_num</title>
<g id="a_node21"><a xlink:href="slot_num.html" xlink:title="slot_num">
<polygon fill="none" stroke="black" points="502.5,-1209.39 419.49,-1209.39 419.49,-1173.39 502.5,-1173.39 502.5,-1209.39"/>
<text text-anchor="middle" x="460.99" y="-1185.99" font-family="Times,serif" font-size="18.00">slot_num</text>
</a>
</g>
</g>
<!-- client_request&#45;&gt;slot_num -->
<g id="edge30" class="edge">
<title>client_request&#45;&gt;slot_num</title>
<g id="a_edge30"><a xlink:href="46-slot_num.html" xlink:title=" +/&#45;">
<path fill="none" stroke="black" stroke-width="5" d="M329.33,-1272.2C349.23,-1260.14 376.94,-1243.35 401.8,-1228.27"/>
<polygon fill="black" stroke="black" stroke-width="5" points="432.95,-1209.39 420.51,-1227.45 425.44,-1216.28 416.88,-1221.47 415.85,-1219.76 414.81,-1218.05 423.36,-1212.86 411.18,-1212.06 432.95,-1209.39 432.95,-1209.39"/>
<ellipse fill="none" stroke="black" stroke-width="5" cx="409.01" cy="-1223.9" rx="8" ry="8"/>
</a>
</g>
<g id="a_edge30&#45;label"><a xlink:href="46-slot_num.html" xlink:title=" +/&#45;">
<text text-anchor="middle" x="413.82" y="-1231.37" font-family="Times,serif" font-size="18.00"> +/&#45;</text>
</a>
</g>
</g>
<!-- client_request&#45;&gt;highest_id_responded -->
<g id="edge25" class="edge">
<title>client_request&#45;&gt;highest_id_responded</title>
<g id="a_edge25"><a xlink:href="44-highest_id_responded.html">
<path fill="none" stroke="black" stroke-width="5" d="M348.95,-1274.57C363.31,-1270.62 379.21,-1266.63 393.99,-1263.77 508.52,-1241.65 913.99,-1309.03 913.99,-1192.39 913.99,-1192.39 913.99,-1192.39 913.99,-730.77 913.99,-703.74 893.48,-683.49 870.34,-669.23"/>
<polygon fill="black" stroke="black" stroke-width="5" points="874.17,-661.36 852.42,-659.49 865.81,-676.73 874.17,-661.36"/>
</a>
</g>
</g>
<!-- client_request&#45;&gt;advocate_val -->
<g id="edge27" class="edge">
<title>client_request&#45;&gt;advocate_val</title>
<g id="a_edge27"><a xlink:href="45-advocate_val.html" xlink:title=" +/&#45;">
<path fill="none" stroke="black" stroke-width="5" d="M347.41,-1274.22C362.12,-1270.1 378.61,-1266.11 393.99,-1263.77 503.26,-1247.17 786.58,-1281.98 890.99,-1245.77 928.97,-1232.6 963.99,-1232.58 963.99,-1192.39 963.99,-1192.39 963.99,-1192.39 963.99,-640.39 963.99,-599.68 923.3,-577.5 883.48,-565.54"/>
<polygon fill="black" stroke="black" stroke-width="5" points="885.44,-557.01 863.87,-560.38 880.99,-573.93 885.44,-557.01"/>
</a>
</g>
<g id="a_edge27&#45;label"><a xlink:href="45-advocate_val.html" xlink:title=" +/&#45;">
<text text-anchor="middle" x="976.82" y="-919.3" font-family="Times,serif" font-size="18.00"> +/&#45;</text>
</a>
</g>
</g>
<!-- client_request_temp -->
<g id="node24" class="node">
<title>client_request_temp</title>
<g id="a_node24"><a xlink:href="client_request_temp.html" xlink:title="client_request_temp">
<ellipse fill="none" stroke="black" cx="248.99" cy="-1117.62" rx="114.53" ry="18.27"/>
<text text-anchor="middle" x="248.99" y="-1112.22" font-family="Times,serif" font-size="18.00">client_request_temp</text>
</a>
</g>
</g>
<!-- client_request&#45;&gt;client_request_temp -->
<g id="edge31" class="edge">
<title>client_request&#45;&gt;client_request_temp</title>
<g id="a_edge31"><a xlink:href="48-client_request_temp.html">
<path fill="none" stroke="black" stroke-width="5" d="M281.48,-1271.73C265.66,-1257.16 245.01,-1234.64 235.99,-1209.77 229.75,-1192.55 231.7,-1172.48 235.76,-1155.56"/>
<polygon fill="black" stroke="black" stroke-width="5" points="244.18,-1157.95 241.58,-1136.27 227.43,-1152.89 244.18,-1157.95"/>
</a>
</g>
</g>
<!-- propose_num&#45;&gt;propose_num -->
<g id="edge21" class="edge">
<title>propose_num&#45;&gt;propose_num</title>
<g id="a_edge21"><a xlink:href="41-propose_num.html" xlink:title=" +/&#45;">
<path fill="none" stroke="black" stroke-width="5" d="M359.22,-1197.77C359.38,-1197.76 359.54,-1197.74 359.7,-1197.73"/>
<polygon fill="black" stroke="black" stroke-width="5" points="359.22,-1185.01 368.98,-1204.65 361.6,-1194.93 361.98,-1204.92 359.98,-1205 357.98,-1205.07 357.6,-1195.08 350.99,-1205.34 359.22,-1185.01 359.22,-1185.01"/>
<ellipse fill="none" stroke="black" stroke-width="5" cx="360.29" cy="-1212.99" rx="8" ry="8"/>
</a>
</g>
<g id="a_edge21&#45;label"><a xlink:href="41-propose_num.html" xlink:title=" +/&#45;">
<text text-anchor="middle" x="389.81" y="-1185.99" font-family="Times,serif" font-size="18.00"> +/&#45;</text>
</a>
</g>
</g>
<!-- propose_num&#45;&gt;client_request_temp -->
<g id="edge32" class="edge">
<title>propose_num&#45;&gt;client_request_temp</title>
<g id="a_edge32"><a xlink:href="48-client_request_temp.html">
<path fill="none" stroke="black" stroke-width="5" d="M289.43,-1173.38C284.75,-1167.04 279.26,-1159.6 273.85,-1152.28"/>
<polygon fill="black" stroke="black" stroke-width="5" points="280.75,-1146.89 261.83,-1136 266.68,-1157.29 280.75,-1146.89"/>
</a>
</g>
</g>
<!-- accept_sent&#45;&gt;accept_sent -->
<g id="edge47" class="edge">
<title>accept_sent&#45;&gt;accept_sent</title>
<g id="a_edge47"><a xlink:href="57-accept_sent.html" xlink:title=" +/&#45;">
<path fill="none" stroke="black" stroke-width="5" d="M403.09,-393.36C403.25,-393.35 403.42,-393.34 403.58,-393.33"/>
<polygon fill="black" stroke="black" stroke-width="5" points="403.09,-380.34 412.83,-399.99 405.46,-390.25 405.84,-400.25 403.84,-400.32 401.84,-400.4 401.47,-390.4 394.84,-400.66 403.09,-380.34 403.09,-380.34"/>
<ellipse fill="none" stroke="black" stroke-width="5" cx="404.14" cy="-408.32" rx="8" ry="8"/>
</a>
</g>
<g id="a_edge47&#45;label"><a xlink:href="57-accept_sent.html" xlink:title=" +/&#45;">
<text text-anchor="middle" x="433.79" y="-381.45" font-family="Times,serif" font-size="18.00"> +/&#45;</text>
</a>
</g>
</g>
<!-- accept_sent&#45;&gt;majority -->
<g id="edge51" class="edge">
<title>accept_sent&#45;&gt;majority</title>
<g id="a_edge51"><a xlink:href="59-majority.html">
<path fill="none" stroke="black" stroke-width="5" d="M403,-375.16C461.41,-362.68 558.21,-341.99 622.3,-328.29"/>
<polygon fill="black" stroke="black" stroke-width="5" points="624.54,-336.76 642.27,-324.02 620.88,-319.64 624.54,-336.76"/>
</a>
</g>
</g>
<!-- slot_num&#45;&gt;accept_sent -->
<g id="edge24" class="edge">
<title>slot_num&#45;&gt;accept_sent</title>
<g id="a_edge24"><a xlink:href="43-accept_sent.html">
<path fill="none" stroke="black" stroke-width="5" d="M446.48,-1173.1C429.84,-1153.86 401.21,-1122.41 372.99,-1099.23 284.36,-1026.44 181.99,-1040.39 181.99,-925.7 181.99,-925.7 181.99,-925.7 181.99,-513.62 181.99,-460.5 236.21,-427.32 283.58,-408.48"/>
<polygon fill="black" stroke="black" stroke-width="5" points="286.86,-416.59 302.61,-401.49 280.82,-400.17 286.86,-416.59"/>
</a>
</g>
</g>
<!-- slot_num&#45;&gt;slot_num -->
<g id="edge29" class="edge">
<title>slot_num&#45;&gt;slot_num</title>
<g id="a_edge29"><a xlink:href="46-slot_num.html" xlink:title=" +/&#45;">
<path fill="none" stroke="black" stroke-width="5" d="M502.7,-1198.03C502.86,-1198.03 503.02,-1198.02 503.18,-1198.01"/>
<polygon fill="black" stroke="black" stroke-width="5" points="502.7,-1184.74 512.41,-1204.41 505.06,-1194.67 505.42,-1204.66 503.42,-1204.73 501.42,-1204.8 501.06,-1194.81 494.43,-1205.05 502.7,-1184.74 502.7,-1184.74"/>
<ellipse fill="none" stroke="black" stroke-width="5" cx="503.71" cy="-1212.73" rx="8" ry="8"/>
</a>
</g>
<g id="a_edge29&#45;label"><a xlink:href="46-slot_num.html" xlink:title=" +/&#45;">
<text text-anchor="middle" x="533.32" y="-1185.99" font-family="Times,serif" font-size="18.00"> +/&#45;</text>
</a>
</g>
</g>
<!-- slot_num&#45;&gt;highest_id_responded -->
<g id="edge26" class="edge">
<title>slot_num&#45;&gt;highest_id_responded</title>
<g id="a_edge26"><a xlink:href="44-highest_id_responded.html">
<path fill="none" stroke="black" stroke-width="5" d="M502.74,-1187.98C578.76,-1182.44 731.99,-1165.46 731.99,-1118.62 731.99,-1118.62 731.99,-1118.62 731.99,-768.16 731.99,-732.72 754.09,-698.46 774.13,-674.67"/>
<polygon fill="black" stroke="black" stroke-width="5" points="780.78,-680.36 787.7,-659.65 767.8,-668.62 780.78,-680.36"/>
</a>
</g>
</g>
<!-- slot_num&#45;&gt;advocate_val -->
<g id="edge28" class="edge">
<title>slot_num&#45;&gt;advocate_val</title>
<g id="a_edge28"><a xlink:href="45-advocate_val.html" xlink:title=" +/&#45;">
<path fill="none" stroke="black" stroke-width="5" d="M502.58,-1185.25C565.59,-1176.29 677.99,-1155.18 677.99,-1118.62 677.99,-1118.62 677.99,-1118.62 677.99,-730.77 677.99,-680.97 680.59,-663.58 709.99,-623.39 722.6,-606.15 740.61,-591.36 757.76,-579.79"/>
<polygon fill="black" stroke="black" stroke-width="5" points="762.45,-587.18 774.72,-569.12 753.13,-572.36 762.45,-587.18"/>
</a>
</g>
<g id="a_edge28&#45;label"><a xlink:href="45-advocate_val.html" xlink:title=" +/&#45;">
<text text-anchor="middle" x="690.82" y="-873.91" font-family="Times,serif" font-size="18.00"> +/&#45;</text>
</a>
</g>
</g>
<!-- slot_num&#45;&gt;client_request_temp -->
<g id="edge33" class="edge">
<title>slot_num&#45;&gt;client_request_temp</title>
<g id="a_edge33"><a xlink:href="48-client_request_temp.html">
<path fill="none" stroke="black" stroke-width="5" d="M419.26,-1175.84C416.47,-1174.88 413.69,-1173.93 410.99,-1173 379.74,-1162.33 345.04,-1150.65 315.8,-1140.87"/>
<polygon fill="black" stroke="black" stroke-width="5" points="318.28,-1132.47 296.53,-1134.43 312.73,-1149.07 318.28,-1132.47"/>
</a>
</g>
</g>
<!-- highest_id_responded&#45;&gt;highest_id_responded -->
<g id="edge37" class="edge">
<title>highest_id_responded&#45;&gt;highest_id_responded</title>
<g id="a_edge37"><a xlink:href="51-highest_id_responded.html" xlink:title=" +/&#45;">
<path fill="none" stroke="black" stroke-width="5" d="M893.29,-648.52C893.45,-648.5 893.62,-648.48 893.78,-648.46"/>
<polygon fill="black" stroke="black" stroke-width="5" points="893.29,-634.25 902.98,-653.92 895.64,-644.17 895.99,-654.17 893.99,-654.24 891.99,-654.31 891.64,-644.31 884.99,-654.55 893.29,-634.25 893.29,-634.25"/>
<ellipse fill="none" stroke="black" stroke-width="5" cx="894.27" cy="-662.23" rx="8" ry="8"/>
</a>
</g>
<g id="a_edge37&#45;label"><a xlink:href="51-highest_id_responded.html" xlink:title=" +/&#45;">
<text text-anchor="middle" x="923.81" y="-635.99" font-family="Times,serif" font-size="18.00"> +/&#45;</text>
</a>
</g>
</g>
<!-- highest_id_responded&#45;&gt;advocate_val -->
<g id="edge39" class="edge">
<title>highest_id_responded&#45;&gt;advocate_val</title>
<g id="a_edge39"><a xlink:href="53-advocate_val.html" xlink:title=" +/&#45;">
<path fill="none" stroke="black" stroke-width="5" d="M806.38,-623.35C806.5,-618 806.64,-611.79 806.79,-605.3"/>
<polygon fill="black" stroke="black" stroke-width="5" points="807.6,-569.29 816.15,-589.49 809.38,-579.34 809.15,-589.33 807.15,-589.29 805.15,-589.24 805.38,-579.25 798.15,-589.08 807.6,-569.29 807.6,-569.29"/>
<ellipse fill="none" stroke="black" stroke-width="5" cx="806.97" cy="-597.29" rx="8" ry="8"/>
</a>
</g>
<g id="a_edge39&#45;label"><a xlink:href="53-advocate_val.html" xlink:title=" +/&#45;">
<text text-anchor="middle" x="819.82" y="-590.99" font-family="Times,serif" font-size="18.00"> +/&#45;</text>
</a>
</g>
</g>
<!-- advocate_val&#45;&gt;accept -->
<g id="edge54" class="edge">
<title>advocate_val&#45;&gt;accept</title>
<g id="a_edge54"><a xlink:href="60-accept.html">
<path fill="none" stroke="black" stroke-width="5" stroke-dasharray="5,2" d="M863.49,-536.15C891.24,-525.55 918.99,-507.61 918.99,-478.23 918.99,-478.23 918.99,-478.23 918.99,-312.46 918.99,-230.59 821.01,-282.92 742.99,-258.08 742.8,-258.01 742.6,-257.95 742.4,-257.89"/>
<polygon fill="black" stroke="black" stroke-width="5" points="745.05,-249.55 723.33,-251.72 739.67,-266.2 745.05,-249.55"/>
</a>
</g>
</g>
<!-- client_request_temp&#45;&gt;prepare -->
<g id="edge34" class="edge">
<title>client_request_temp&#45;&gt;prepare</title>
<g id="a_edge34"><a xlink:href="49-prepare.html">
<path fill="none" stroke="black" stroke-width="5" stroke-dasharray="5,2" d="M284.94,-1099.97C306.01,-1090.22 332.89,-1077.77 355.77,-1067.18"/>
<polygon fill="black" stroke="black" stroke-width="5" points="359.75,-1074.98 374.22,-1058.63 352.4,-1059.1 359.75,-1074.98"/>
</a>
</g>
</g>
<!-- agreeing_acceptors&#45;&gt;agreeing_acceptors_for_slot -->
<g id="edge41" class="edge">
<title>agreeing_acceptors&#45;&gt;agreeing_acceptors_for_slot</title>
<g id="a_edge41"><a xlink:href="55-agreeing_acceptors_for_slot.html">
<path fill="none" stroke="black" stroke-width="5" d="M458.6,-623.35C465.06,-612.96 473.55,-599.32 481.37,-586.75"/>
<polygon fill="black" stroke="black" stroke-width="5" points="488.91,-591.2 492.05,-569.6 474.05,-581.95 488.91,-591.2"/>
</a>
</g>
</g>
<!-- agreeing_acceptor_size -->
<g id="node27" class="node">
<title>agreeing_acceptor_size</title>
<g id="a_node27"><a xlink:href="agreeing_acceptor_size.html" xlink:title="agreeing_acceptor_size">
<ellipse fill="none" stroke="black" cx="502.99" cy="-477.23" rx="130.99" ry="18.27"/>
<text text-anchor="middle" x="502.99" y="-471.83" font-family="Times,serif" font-size="18.00">agreeing_acceptor_size</text>
</a>
</g>
</g>
<!-- agreeing_acceptors_for_slot&#45;&gt;agreeing_acceptor_size -->
<g id="edge43" class="edge">
<title>agreeing_acceptors_for_slot&#45;&gt;agreeing_acceptor_size</title>
<g id="a_edge43"><a xlink:href="56-agreeing_acceptor_size.html">
<path fill="none" stroke="black" stroke-width="5" d="M502.99,-532.26C502.99,-532.17 502.99,-532.09 502.99,-532"/>
<polygon fill="black" stroke="black" stroke-width="5" points="502.99,-495.77 511.99,-515.77 504.99,-505.77 504.99,-515.77 502.99,-515.77 500.99,-515.77 500.99,-505.77 493.99,-515.77 502.99,-495.77 502.99,-495.77"/>
<ellipse fill="none" stroke="black" stroke-width="5" cx="502.99" cy="-523.77" rx="8" ry="8"/>
</a>
</g>
</g>
<!-- agreeing_acceptor_size&#45;&gt;accept_sent -->
<g id="edge45" class="edge">
<title>agreeing_acceptor_size&#45;&gt;accept_sent</title>
<g id="a_edge45"><a xlink:href="57-accept_sent.html" xlink:title=" +/&#45;">
<path fill="none" stroke="black" stroke-width="5" d="M474.07,-459.19C456.8,-449.01 434.21,-435.7 413.22,-423.33"/>
<polygon fill="black" stroke="black" stroke-width="5" points="382.08,-404.99 403.88,-407.39 391.71,-408.34 400.33,-413.42 399.31,-415.14 398.3,-416.86 389.68,-411.79 394.75,-422.89 382.08,-404.99 382.08,-404.99"/>
<ellipse fill="none" stroke="black" stroke-width="5" cx="406.21" cy="-419.2" rx="8" ry="8"/>
</a>
</g>
<g id="a_edge45&#45;label"><a xlink:href="57-accept_sent.html" xlink:title=" +/&#45;">
<text text-anchor="middle" x="454.82" y="-426.45" font-family="Times,serif" font-size="18.00"> +/&#45;</text>
</a>
</g>
</g>
<!-- agreeing_acceptor_size&#45;&gt;majority -->
<g id="edge49" class="edge">
<title>agreeing_acceptor_size&#45;&gt;majority</title>
<g id="a_edge49"><a xlink:href="59-majority.html">
<path fill="none" stroke="black" stroke-width="5" d="M534.58,-459.27C543.74,-453.83 553.54,-447.49 561.99,-440.85 598.58,-412.13 635.41,-373.42 659.52,-346.43"/>
<polygon fill="black" stroke="black" stroke-width="5" points="666.15,-352.15 672.77,-331.34 653,-340.6 666.15,-352.15"/>
</a>
</g>
</g>
<!-- majority&#45;&gt;accept -->
<g id="edge52" class="edge">
<title>majority&#45;&gt;accept</title>
<g id="a_edge52"><a xlink:href="60-accept.html">
<path fill="none" stroke="black" stroke-width="5" stroke-dasharray="5,2" d="M687.74,-294.72C687.95,-289.68 688.18,-283.99 688.42,-278.25"/>
<polygon fill="black" stroke="black" stroke-width="5" points="697.17,-278.58 689.26,-258.23 679.68,-277.85 697.17,-278.58"/>
</a>
</g>
</g>
<!-- S -->
<g id="node30" class="node">
<title>S</title>
<g id="a_node30"><a xlink:href="javascript:advanceTo(-2)" xlink:title="S">
<polygon fill="none" stroke="blue" stroke-width="3" points="429.99,-1315.77 402.99,-1289.77 429.99,-1263.77 456.99,-1289.77 429.99,-1315.77"/>
<text text-anchor="middle" x="429.99" y="-1284.37" font-family="Times,serif" font-size="18.00">S</text>
</a>
</g>
</g>
<!-- T -->
<g id="node31" class="node">
<title>T</title>
<g id="a_node31"><a xlink:href="javascript:advanceTo(0)" xlink:title="T">
<polygon fill="none" stroke="blue" stroke-width="3" points="501.99,-1315.77 474.99,-1289.77 501.99,-1263.77 528.99,-1289.77 501.99,-1315.77"/>
<text text-anchor="middle" x="501.99" y="-1284.37" font-family="Times,serif" font-size="18.00">T</text>
</a>
</g>
</g>
<!-- accepted_to_client -->
<g id="node32" class="node">
<title>accepted_to_client</title>
<ellipse fill="none" stroke="black" cx="653.99" cy="-1289.77" rx="106.95" ry="18.27"/>
<text text-anchor="middle" x="653.99" y="-1284.37" font-family="Times,serif" font-size="18.00">accepted_to_client</text>
</g>
<!-- all_acceptors -->
<g id="node33" class="node">
<title>all_acceptors</title>
<polygon fill="none" stroke="black" points="889.44,-1307.77 778.55,-1307.77 778.55,-1271.77 889.44,-1271.77 889.44,-1307.77"/>
<text text-anchor="middle" x="833.99" y="-1284.37" font-family="Times,serif" font-size="18.00">all_acceptors</text>
</g>
</g>
</svg>
