<?xml version="1.0" encoding="UTF-8" standalone="no"?>
<!DOCTYPE svg PUBLIC "-//W3C//DTD SVG 1.1//EN"
 "http://www.w3.org/Graphics/SVG/1.1/DTD/svg11.dtd">
<!-- Generated by graphviz version 2.44.1 (20200629.0846)
 -->
<!-- Title: G Pages: 1 -->
<svg width="1080pt" height="233pt"
 viewBox="0.00 0.00 1080.04 232.60" xmlns="http://www.w3.org/2000/svg" xmlns:xlink="http://www.w3.org/1999/xlink">
<g id="graph0" class="graph" transform="scale(1 1) rotate(0) translate(4 228.6)">
<script type='text/javascript'>
  <![CDATA[

var windows = new Array()
var info = new Array()

function openWin(target, time) {
  win = window.open(target + "_" + time + ".html", target, "location=no,width=400,height=180,left=0,status=no");
  // hm, an associative array, how strange.
  info[target] = 1
}

function advanceTo(time) {
  arr = gup("wins").split(",");
  for (i=0; i < arr.length; i++) {
    if (arr[i] != "") {
      openWin(arr[i], time);
    }
  }
  str = '';
  // getting 'key_cols'
  for (var i in info) {
    str = str + ',' + i;
  }
  self.window.location.href = 'tm_' + time + '.svg?wins=' + str;
}

// off the netz
function gup(name) {
  name = name.replace(/[[]/,"\[").replace(/[]]/,"\]");
  var regexS = "[\?&]"+name+"=([^&#]*)";
  var regex = new RegExp(regexS);
  var results = regex.exec(window.location.href);
  if (results == null)
    return "";
  else
    return results[1];
}

  ]]>
</script>

<polygon fill="white" stroke="transparent" points="-4,4 -4,-228.6 1076.04,-228.6 1076.04,4 -4,4"/>
<!-- message_func_allreduce -->
<g id="node1" class="node">
<title>message_func_allreduce</title>
<g id="a_node1"><a xlink:href="message_func_allreduce.html" xlink:title="message_func_allreduce">
<ellipse fill="none" stroke="black" cx="138.59" cy="-111.8" rx="138.69" ry="19.6"/>
<text text-anchor="middle" x="138.59" y="-107.4" font-family="Times,serif" font-size="18.00">message_func_allreduce</text>
</a>
</g>
</g>
<!-- received_allreduce -->
<g id="node4" class="node">
<title>received_allreduce</title>
<g id="a_node4"><a xlink:href="received_allreduce.html" xlink:title="received_allreduce">
<polygon fill="none" stroke="black" points="216.09,-36 61.09,-36 61.09,0 216.09,0 216.09,-36"/>
<text text-anchor="middle" x="138.59" y="-13.6" font-family="Times,serif" font-size="18.00">received_allreduce</text>
</a>
</g>
</g>
<!-- message_func_allreduce&#45;&gt;received_allreduce -->
<g id="edge4" class="edge">
<title>message_func_allreduce&#45;&gt;received_allreduce</title>
<g id="a_edge4"><a xlink:href="23-received_allreduce.html" xlink:title=" +/&#45;">
<path fill="none" stroke="black" stroke-width="5" d="M138.59,-91.78C138.59,-86.02 138.59,-79.39 138.59,-72.52"/>
<polygon fill="black" stroke="black" stroke-width="5" points="138.59,-36.14 147.59,-56.14 140.59,-46.14 140.59,-56.14 138.59,-56.14 136.59,-56.14 136.59,-46.14 129.59,-56.14 138.59,-36.14 138.59,-36.14"/>
<ellipse fill="none" stroke="black" stroke-width="5" cx="138.59" cy="-64.14" rx="8" ry="8"/>
</a>
</g>
<g id="a_edge4&#45;label"><a xlink:href="23-received_allreduce.html" xlink:title=" +/&#45;">
<text text-anchor="middle" x="152.09" y="-59.6" font-family="Times,serif" font-size="18.00"> +/&#45;</text>
</a>
</g>
</g>
<!-- ips_allreduce -->
<g id="node2" class="node">
<title>ips_allreduce</title>
<polygon fill="none" stroke="black" points="127.59,-214.6 13.59,-214.6 13.59,-178.6 127.59,-178.6 127.59,-214.6"/>
<text text-anchor="middle" x="70.59" y="-192.2" font-family="Times,serif" font-size="18.00">ips_allreduce</text>
</g>
<!-- ips_allreduce&#45;&gt;message_func_allreduce -->
<g id="edge1" class="edge">
<title>ips_allreduce&#45;&gt;message_func_allreduce</title>
<g id="a_edge1"><a xlink:href="22-message_func_allreduce.html">
<path fill="none" stroke="black" stroke-width="5" stroke-dasharray="5,2" d="M84.68,-178.44C92.12,-169.38 101.53,-157.93 110.39,-147.14"/>
<polygon fill="black" stroke="black" stroke-width="5" points="117.17,-152.67 123.1,-131.67 103.64,-141.57 117.17,-152.67"/>
</a>
</g>
</g>
<!-- data_allreduce -->
<g id="node3" class="node">
<title>data_allreduce</title>
<polygon fill="none" stroke="black" points="269.59,-214.6 145.59,-214.6 145.59,-178.6 269.59,-178.6 269.59,-214.6"/>
<text text-anchor="middle" x="207.59" y="-192.2" font-family="Times,serif" font-size="18.00">data_allreduce</text>
</g>
<!-- data_allreduce&#45;&gt;message_func_allreduce -->
<g id="edge2" class="edge">
<title>data_allreduce&#45;&gt;message_func_allreduce</title>
<g id="a_edge2"><a xlink:href="22-message_func_allreduce.html">
<path fill="none" stroke="black" stroke-width="5" stroke-dasharray="5,2" d="M193.3,-178.44C185.75,-169.38 176.2,-157.93 167.21,-147.14"/>
<polygon fill="black" stroke="black" stroke-width="5" points="173.84,-141.43 154.31,-131.67 160.4,-152.63 173.84,-141.43"/>
</a>
</g>
</g>
<!-- received_allreduce&#45;&gt;received_allreduce -->
<g id="edge3" class="edge">
<title>received_allreduce&#45;&gt;received_allreduce</title>
<g id="a_edge3"><a xlink:href="23-received_allreduce.html" xlink:title=" +/&#45;">
<path fill="none" stroke="black" stroke-width="5" d="M216.16,-25.7C216.33,-25.68 216.49,-25.66 216.66,-25.64"/>
<polygon fill="black" stroke="black" stroke-width="5" points="216.16,-10.3 225.81,-30 218.48,-20.23 218.81,-30.23 216.81,-30.29 214.81,-30.36 214.49,-20.36 207.82,-30.59 216.16,-10.3 216.16,-10.3"/>
<ellipse fill="none" stroke="black" stroke-width="5" cx="217.07" cy="-38.29" rx="8" ry="8"/>
</a>
</g>
<g id="a_edge3&#45;label"><a xlink:href="23-received_allreduce.html" xlink:title=" +/&#45;">
<text text-anchor="middle" x="247.59" y="-13.6" font-family="Times,serif" font-size="18.00"> +/&#45;</text>
</a>
</g>
</g>
<!-- S -->
<g id="node5" class="node">
<title>S</title>
<g id="a_node5"><a xlink:href="javascript:advanceTo(-2)" xlink:title="S">
<polygon fill="none" stroke="blue" stroke-width="3" points="314.59,-224.6 287.59,-196.6 314.59,-168.6 341.59,-196.6 314.59,-224.6"/>
<text text-anchor="middle" x="314.59" y="-192.2" font-family="Times,serif" font-size="18.00">S</text>
</a>
</g>
</g>
<!-- T -->
<g id="node6" class="node">
<title>T</title>
<g id="a_node6"><a xlink:href="javascript:advanceTo(0)" xlink:title="T">
<polygon fill="none" stroke="blue" stroke-width="3" points="387.59,-224.6 359.59,-196.6 387.59,-168.6 415.59,-196.6 387.59,-224.6"/>
<text text-anchor="middle" x="387.59" y="-192.2" font-family="Times,serif" font-size="18.00">T</text>
</a>
</g>
</g>
<!-- data_scatter -->
<g id="node7" class="node">
<title>data_scatter</title>
<polygon fill="none" stroke="black" points="537.59,-214.6 433.59,-214.6 433.59,-178.6 537.59,-178.6 537.59,-214.6"/>
<text text-anchor="middle" x="485.59" y="-192.2" font-family="Times,serif" font-size="18.00">data_scatter</text>
</g>
<!-- received_scatter -->
<g id="node8" class="node">
<title>received_scatter</title>
<polygon fill="none" stroke="black" points="691.59,-214.6 555.59,-214.6 555.59,-178.6 691.59,-178.6 691.59,-214.6"/>
<text text-anchor="middle" x="623.59" y="-192.2" font-family="Times,serif" font-size="18.00">received_scatter</text>
</g>
<!-- ips_scatter -->
<g id="node9" class="node">
<title>ips_scatter</title>
<polygon fill="none" stroke="black" points="805.09,-214.6 710.09,-214.6 710.09,-178.6 805.09,-178.6 805.09,-214.6"/>
<text text-anchor="middle" x="757.59" y="-192.2" font-family="Times,serif" font-size="18.00">ips_scatter</text>
</g>
<!-- message_func_scatter -->
<g id="node10" class="node">
<title>message_func_scatter</title>
<ellipse fill="none" stroke="black" cx="947.59" cy="-196.6" rx="124.4" ry="19.6"/>
<text text-anchor="middle" x="947.59" y="-192.2" font-family="Times,serif" font-size="18.00">message_func_scatter</text>
</g>
</g>
</svg>
