<?xml version="1.0" encoding="UTF-8" standalone="no"?>
<!DOCTYPE svg PUBLIC "-//W3C//DTD SVG 1.1//EN"
 "http://www.w3.org/Graphics/SVG/1.1/DTD/svg11.dtd">
<!-- Generated by graphviz version 2.44.1 (20200629.0846)
 -->
<!-- Title: G Pages: 1 -->
<svg width="405pt" height="363pt"
 viewBox="0.00 0.00 404.50 362.79" xmlns="http://www.w3.org/2000/svg" xmlns:xlink="http://www.w3.org/1999/xlink">
<g id="graph0" class="graph" transform="scale(1 1) rotate(0) translate(4 358.79)">
<script type='text/javascript'>
  <![CDATA[

var windows = new Array()
var info = new Array()

function openWin(target, time) {
  win = window.open(target + "_" + time + ".html", target, "location=no,width=400,height=180,left=0,status=no");
  // hm, an associative array, how strange.
  info[target] = 1
}

function advanceTo(time) {
  arr = gup("wins").split(",");
  for (i=0; i < arr.length; i++) {
    if (arr[i] != "") {
      openWin(arr[i], time);
    }
  }
  str = '';
  // getting 'key_cols'
  for (var i in info) {
    str = str + ',' + i;
  }
  self.window.location.href = 'tm_' + time + '.svg?wins=' + str;
}

// off the netz
function gup(name) {
  name = name.replace(/[[]/,"\[").replace(/[]]/,"\]");
  var regexS = "[\?&]"+name+"=([^&#]*)";
  var regex = new RegExp(regexS);
  var results = regex.exec(window.location.href);
  if (results == null)
    return "";
  else
    return results[1];
}

  ]]>
</script>

<polygon fill="white" stroke="transparent" points="-4,4 -4,-358.79 400.5,-358.79 400.5,4 -4,4"/>
<!-- message_func_allreduce -->
<g id="node1" class="node">
<title>message_func_allreduce</title>
<g id="a_node1"><a xlink:href="message_func_allreduce.html" xlink:title="message_func_allreduce">
<ellipse fill="none" stroke="black" cx="164" cy="-167.4" rx="138.69" ry="19.6"/>
<text text-anchor="middle" x="164" y="-163" font-family="Times,serif" font-size="18.00">message_func_allreduce</text>
</a>
</g>
</g>
<!-- message_func_allreduce&#45;&gt;message_func_allreduce -->
<g id="edge4" class="edge">
<title>message_func_allreduce&#45;&gt;message_func_allreduce</title>
<g id="a_edge4"><a xlink:href="23-message_func_allreduce.html">
<path fill="none" stroke="black" stroke-width="5" stroke-dasharray="5,2" d="M263.01,-181.27C295.1,-181.16 320.59,-176.54 320.59,-167.4 320.59,-160.29 305.19,-155.91 283.26,-154.27"/>
<polygon fill="black" stroke="black" stroke-width="5" points="283.32,-145.51 263.01,-153.52 282.68,-163 283.32,-145.51"/>
</a>
</g>
</g>
<!-- send_around -->
<g id="node5" class="node">
<title>send_around</title>
<g id="a_node5"><a xlink:href="send_around.html" xlink:title="send_around">
<ellipse fill="none" stroke="black" cx="256" cy="-91.8" rx="77.15" ry="19.6"/>
<text text-anchor="middle" x="256" y="-87.4" font-family="Times,serif" font-size="18.00">send_around</text>
</a>
</g>
</g>
<!-- message_func_allreduce&#45;&gt;send_around -->
<g id="edge5" class="edge">
<title>message_func_allreduce&#45;&gt;send_around</title>
<g id="a_edge5"><a xlink:href="24-send_around.html">
<path fill="none" stroke="black" stroke-width="5" stroke-dasharray="5,2" d="M187.22,-147.83C196.4,-140.48 207.2,-131.84 217.49,-123.61"/>
<polygon fill="black" stroke="black" stroke-width="5" points="223.28,-130.18 233.43,-110.86 212.34,-116.52 223.28,-130.18"/>
</a>
</g>
</g>
<!-- ips_allreduce -->
<g id="node2" class="node">
<title>ips_allreduce</title>
<polygon fill="none" stroke="black" points="389,-260.99 275,-260.99 275,-224.99 389,-224.99 389,-260.99"/>
<text text-anchor="middle" x="332" y="-238.59" font-family="Times,serif" font-size="18.00">ips_allreduce</text>
</g>
<!-- ips_allreduce&#45;&gt;message_func_allreduce -->
<g id="edge1" class="edge">
<title>ips_allreduce&#45;&gt;message_func_allreduce</title>
<g id="a_edge1"><a xlink:href="22-message_func_allreduce.html">
<path fill="none" stroke="black" stroke-width="5" stroke-dasharray="5,2" d="M293.04,-224.93C272.44,-215.9 246.71,-204.63 223.66,-194.53"/>
<polygon fill="black" stroke="black" stroke-width="5" points="226.93,-186.41 205.1,-186.4 219.91,-202.44 226.93,-186.41"/>
</a>
</g>
</g>
<!-- ips_allreduce&#45;&gt;send_around -->
<g id="edge6" class="edge">
<title>ips_allreduce&#45;&gt;send_around</title>
<g id="a_edge6"><a xlink:href="24-send_around.html">
<path fill="none" stroke="black" stroke-width="5" stroke-dasharray="5,2" d="M335.94,-224.87C339.56,-205.07 342.65,-172.06 330,-147.6 324.72,-137.39 316.57,-128.6 307.58,-121.23"/>
<polygon fill="black" stroke="black" stroke-width="5" points="312.32,-113.86 290.93,-109.5 302.24,-128.17 312.32,-113.86"/>
</a>
</g>
</g>
<!-- data_allreduce -->
<g id="node3" class="node">
<title>data_allreduce</title>
<polygon fill="none" stroke="black" points="124,-260.99 0,-260.99 0,-224.99 124,-224.99 124,-260.99"/>
<text text-anchor="middle" x="62" y="-238.59" font-family="Times,serif" font-size="18.00">data_allreduce</text>
</g>
<!-- data_allreduce&#45;&gt;message_func_allreduce -->
<g id="edge2" class="edge">
<title>data_allreduce&#45;&gt;message_func_allreduce</title>
<g id="a_edge2"><a xlink:href="22-message_func_allreduce.html">
<path fill="none" stroke="black" stroke-width="5" stroke-dasharray="5,2" d="M85.66,-224.93C96.38,-217.19 109.39,-207.8 121.7,-198.92"/>
<polygon fill="black" stroke="black" stroke-width="5" points="127.23,-205.72 138.33,-186.92 116.99,-191.53 127.23,-205.72"/>
</a>
</g>
</g>
<!-- timer -->
<g id="node4" class="node">
<title>timer</title>
<ellipse fill="none" stroke="black" cx="182" cy="-242.99" rx="39.7" ry="19.6"/>
<text text-anchor="middle" x="182" y="-238.59" font-family="Times,serif" font-size="18.00">timer</text>
</g>
<!-- timer&#45;&gt;message_func_allreduce -->
<g id="edge3" class="edge">
<title>timer&#45;&gt;message_func_allreduce</title>
<g id="a_edge3"><a xlink:href="22-message_func_allreduce.html">
<path fill="none" stroke="black" stroke-width="5" stroke-dasharray="5,2" d="M177.36,-223.04C176.15,-218.06 174.79,-212.51 173.42,-206.9"/>
<polygon fill="black" stroke="black" stroke-width="5" points="181.87,-204.63 168.62,-187.29 164.87,-208.79 181.87,-204.63"/>
</a>
</g>
</g>
<!-- send_around&#45;&gt;send_around -->
<g id="edge7" class="edge">
<title>send_around&#45;&gt;send_around</title>
<g id="a_edge7"><a xlink:href="25-send_around.html">
<path fill="none" stroke="black" stroke-width="5" stroke-dasharray="5,2" d="M312.61,-105.27C333.71,-105.71 351.07,-101.22 351.07,-91.8 351.07,-85.69 343.77,-81.65 332.89,-79.69"/>
<polygon fill="black" stroke="black" stroke-width="5" points="333.15,-70.94 312.61,-78.33 331.98,-88.4 333.15,-70.94"/>
</a>
</g>
</g>
<!-- received_allreduce -->
<g id="node6" class="node">
<title>received_allreduce</title>
<g id="a_node6"><a xlink:href="received_allreduce.html" xlink:title="received_allreduce">
<polygon fill="none" stroke="black" points="333.5,-36 178.5,-36 178.5,0 333.5,0 333.5,-36"/>
<text text-anchor="middle" x="256" y="-13.6" font-family="Times,serif" font-size="18.00">received_allreduce</text>
</a>
</g>
</g>
<!-- send_around&#45;&gt;received_allreduce -->
<g id="edge8" class="edge">
<title>send_around&#45;&gt;received_allreduce</title>
<g id="a_edge8"><a xlink:href="26-received_allreduce.html">
<path fill="none" stroke="black" stroke-width="5" d="M256,-71.93C256,-67.06 256,-61.65 256,-56.19"/>
<polygon fill="black" stroke="black" stroke-width="5" points="264.75,-56.02 256,-36.02 247.25,-56.02 264.75,-56.02"/>
</a>
</g>
</g>
<!-- S -->
<g id="node7" class="node">
<title>S</title>
<g id="a_node7"><a xlink:href="javascript:advanceTo(-2)" xlink:title="S">
<polygon fill="none" stroke="blue" stroke-width="3" points="182,-354.79 155,-326.79 182,-298.79 209,-326.79 182,-354.79"/>
<text text-anchor="middle" x="182" y="-322.39" font-family="Times,serif" font-size="18.00">S</text>
</a>
</g>
</g>
<!-- S&#45;&gt;timer -->
<g id="edge9" class="edge">
<title>S&#45;&gt;timer</title>
<path fill="none" stroke="blue" stroke-width="5" d="M182,-298.56C182,-293.52 182,-288.18 182,-282.88"/>
<polygon fill="blue" stroke="blue" stroke-width="5" points="190.75,-282.85 182,-262.85 173.25,-282.85 190.75,-282.85"/>
</g>
<!-- T -->
<g id="node8" class="node">
<title>T</title>
<g id="a_node8"><a xlink:href="javascript:advanceTo(0)" xlink:title="T">
<polygon fill="none" stroke="blue" stroke-width="3" points="255,-354.79 227,-326.79 255,-298.79 283,-326.79 255,-354.79"/>
<text text-anchor="middle" x="255" y="-322.39" font-family="Times,serif" font-size="18.00">T</text>
</a>
</g>
</g>
<!-- ips_scatter -->
<g id="node9" class="node">
<title>ips_scatter</title>
<polygon fill="none" stroke="black" points="396.5,-344.79 301.5,-344.79 301.5,-308.79 396.5,-308.79 396.5,-344.79"/>
<text text-anchor="middle" x="349" y="-322.39" font-family="Times,serif" font-size="18.00">ips_scatter</text>
</g>
</g>
</svg>
