<?xml version="1.0" encoding="UTF-8" standalone="no"?>
<!DOCTYPE svg PUBLIC "-//W3C//DTD SVG 1.1//EN"
 "http://www.w3.org/Graphics/SVG/1.1/DTD/svg11.dtd">
<!-- Generated by graphviz version 2.44.1 (20200629.0846)
 -->
<!-- Title: G Pages: 1 -->
<svg width="385pt" height="287pt"
 viewBox="0.00 0.00 384.50 287.20" xmlns="http://www.w3.org/2000/svg" xmlns:xlink="http://www.w3.org/1999/xlink">
<g id="graph0" class="graph" transform="scale(1 1) rotate(0) translate(4 283.2)">
<script type='text/javascript'>
  <![CDATA[

var windows = new Array()
var info = new Array()

function openWin(target, time) {
  win = window.open(target + "_" + time + ".html", target, "location=no,width=400,height=180,left=0,status=no");
  // hm, an associative array, how strange.
  info[target] = 1
}

function advanceTo(time) {
  arr = gup("wins").split(",");
  for (i=0; i < arr.length; i++) {
    if (arr[i] != "") {
      openWin(arr[i], time);
    }
  }
  str = '';
  // getting 'key_cols'
  for (var i in info) {
    str = str + ',' + i;
  }
  self.window.location.href = 'tm_' + time + '.svg?wins=' + str;
}

// off the netz
function gup(name) {
  name = name.replace(/[[]/,"\[").replace(/[]]/,"\]");
  var regexS = "[\?&]"+name+"=([^&#]*)";
  var regex = new RegExp(regexS);
  var results = regex.exec(window.location.href);
  if (results == null)
    return "";
  else
    return results[1];
}

  ]]>
</script>

<polygon fill="white" stroke="transparent" points="-4,4 -4,-283.2 380.5,-283.2 380.5,4 -4,4"/>
<!-- message_func_scatter -->
<g id="node1" class="node">
<title>message_func_scatter</title>
<g id="a_node1"><a xlink:href="message_func_scatter.html" xlink:title="message_func_scatter">
<ellipse fill="none" stroke="black" cx="165.5" cy="-91.8" rx="124.4" ry="19.6"/>
<text text-anchor="middle" x="165.5" y="-87.4" font-family="Times,serif" font-size="18.00">message_func_scatter</text>
</a>
</g>
</g>
<!-- received_scatter -->
<g id="node5" class="node">
<title>received_scatter</title>
<g id="a_node5"><a xlink:href="received_scatter.html" xlink:title="received_scatter">
<polygon fill="none" stroke="black" points="233.5,-36 97.5,-36 97.5,0 233.5,0 233.5,-36"/>
<text text-anchor="middle" x="165.5" y="-13.6" font-family="Times,serif" font-size="18.00">received_scatter</text>
</a>
</g>
</g>
<!-- message_func_scatter&#45;&gt;received_scatter -->
<g id="edge4" class="edge">
<title>message_func_scatter&#45;&gt;received_scatter</title>
<g id="a_edge4"><a xlink:href="23-received_scatter.html">
<path fill="none" stroke="black" stroke-width="5" d="M165.5,-71.93C165.5,-67.06 165.5,-61.65 165.5,-56.19"/>
<polygon fill="black" stroke="black" stroke-width="5" points="174.25,-56.02 165.5,-36.02 156.75,-56.02 174.25,-56.02"/>
</a>
</g>
</g>
<!-- ips_scatter -->
<g id="node2" class="node">
<title>ips_scatter</title>
<polygon fill="none" stroke="black" points="95,-185.4 0,-185.4 0,-149.4 95,-149.4 95,-185.4"/>
<text text-anchor="middle" x="47.5" y="-163" font-family="Times,serif" font-size="18.00">ips_scatter</text>
</g>
<!-- ips_scatter&#45;&gt;message_func_scatter -->
<g id="edge1" class="edge">
<title>ips_scatter&#45;&gt;message_func_scatter</title>
<g id="a_edge1"><a xlink:href="22-message_func_scatter.html">
<path fill="none" stroke="black" stroke-width="5" stroke-dasharray="5,2" d="M74.87,-149.33C87.94,-141.18 103.95,-131.19 118.85,-121.89"/>
<polygon fill="black" stroke="black" stroke-width="5" points="123.88,-129.07 136.22,-111.06 114.62,-114.22 123.88,-129.07"/>
</a>
</g>
</g>
<!-- data_scatter -->
<g id="node3" class="node">
<title>data_scatter</title>
<polygon fill="none" stroke="black" points="217.5,-185.4 113.5,-185.4 113.5,-149.4 217.5,-149.4 217.5,-185.4"/>
<text text-anchor="middle" x="165.5" y="-163" font-family="Times,serif" font-size="18.00">data_scatter</text>
</g>
<!-- data_scatter&#45;&gt;message_func_scatter -->
<g id="edge2" class="edge">
<title>data_scatter&#45;&gt;message_func_scatter</title>
<g id="a_edge2"><a xlink:href="22-message_func_scatter.html">
<path fill="none" stroke="black" stroke-width="5" stroke-dasharray="5,2" d="M165.5,-149.33C165.5,-144.07 165.5,-138.06 165.5,-131.95"/>
<polygon fill="black" stroke="black" stroke-width="5" points="174.25,-131.85 165.5,-111.85 156.75,-131.85 174.25,-131.85"/>
</a>
</g>
</g>
<!-- timer -->
<g id="node4" class="node">
<title>timer</title>
<ellipse fill="none" stroke="black" cx="275.5" cy="-167.4" rx="39.7" ry="19.6"/>
<text text-anchor="middle" x="275.5" y="-163" font-family="Times,serif" font-size="18.00">timer</text>
</g>
<!-- timer&#45;&gt;message_func_scatter -->
<g id="edge3" class="edge">
<title>timer&#45;&gt;message_func_scatter</title>
<g id="a_edge3"><a xlink:href="22-message_func_scatter.html">
<path fill="none" stroke="black" stroke-width="5" stroke-dasharray="5,2" d="M252.71,-151.15C240.36,-142.89 224.67,-132.39 210.01,-122.58"/>
<polygon fill="black" stroke="black" stroke-width="5" points="214.42,-115 192.93,-111.15 204.69,-129.55 214.42,-115"/>
</a>
</g>
</g>
<!-- S -->
<g id="node6" class="node">
<title>S</title>
<g id="a_node6"><a xlink:href="javascript:advanceTo(-2)" xlink:title="S">
<polygon fill="none" stroke="blue" stroke-width="3" points="275.5,-279.2 248.5,-251.2 275.5,-223.2 302.5,-251.2 275.5,-279.2"/>
<text text-anchor="middle" x="275.5" y="-246.8" font-family="Times,serif" font-size="18.00">S</text>
</a>
</g>
</g>
<!-- S&#45;&gt;timer -->
<g id="edge5" class="edge">
<title>S&#45;&gt;timer</title>
<path fill="none" stroke="blue" stroke-width="5" d="M275.5,-222.96C275.5,-217.93 275.5,-212.58 275.5,-207.28"/>
<polygon fill="blue" stroke="blue" stroke-width="5" points="284.25,-207.26 275.5,-187.26 266.75,-207.26 284.25,-207.26"/>
</g>
<!-- T -->
<g id="node7" class="node">
<title>T</title>
<g id="a_node7"><a xlink:href="javascript:advanceTo(0)" xlink:title="T">
<polygon fill="none" stroke="blue" stroke-width="3" points="348.5,-279.2 320.5,-251.2 348.5,-223.2 376.5,-251.2 348.5,-279.2"/>
<text text-anchor="middle" x="348.5" y="-246.8" font-family="Times,serif" font-size="18.00">T</text>
</a>
</g>
</g>
</g>
</svg>
